%FSLAX34Y34*%
%MOMM*%
%LNCOPPER_TOP*%
G71*
G01*
%ADD10C, 4.200*%
%ADD11C, 3.200*%
%ADD12C, 4.200*%
%ADD13C, 2.200*%
%ADD14R, 2.500X2.600*%
%ADD15R, 2.800X2.800*%
%ADD16R, 3.200X2.800*%
%ADD17R, 3.100X2.800*%
%ADD18C, 1.000*%
%ADD19C, 1.520*%
%ADD20C, 1.013*%
%ADD21C, 0.816*%
%ADD22C, 0.800*%
%ADD23C, 3.000*%
%ADD24C, 2.000*%
%ADD25C, 3.000*%
%ADD26R, 1.300X1.400*%
%ADD27R, 1.600X1.600*%
%ADD28R, 2.000X1.600*%
%ADD29R, 1.900X1.600*%
%ADD30C, 0.000*%
%LPD*%
G36*
X0Y0D02*
X600000Y0D01*
X600000Y-800000D01*
X0Y-800000D01*
X0Y0D01*
G37*
%LPC*%
X495300Y-85725D02*
G54D10*
D03*
X114300Y-365125D02*
G54D10*
D03*
X546100Y-238125D02*
G54D10*
D03*
G54D11*
X199550Y-254000D02*
X219550Y-254000D01*
G54D11*
X351950Y-254000D02*
X371950Y-254000D01*
G54D11*
X199550Y-304800D02*
X219550Y-304800D01*
G54D11*
X199550Y-50800D02*
X219550Y-50800D01*
G54D11*
X351950Y-50800D02*
X371950Y-50800D01*
G54D11*
X351950Y-330200D02*
X371950Y-330200D01*
X44450Y-50800D02*
G54D12*
D03*
X95250Y-50800D02*
G54D12*
D03*
X146050Y-50800D02*
G54D12*
D03*
X44450Y-101600D02*
G54D12*
D03*
X95250Y-101600D02*
G54D12*
D03*
X146050Y-101600D02*
G54D12*
D03*
X44450Y-152400D02*
G54D12*
D03*
X95250Y-152400D02*
G54D12*
D03*
X146050Y-152400D02*
G54D12*
D03*
X44450Y-203200D02*
G54D12*
D03*
X95250Y-203200D02*
G54D12*
D03*
X146050Y-203200D02*
G54D12*
D03*
X44450Y-254000D02*
G54D12*
D03*
X95250Y-254000D02*
G54D12*
D03*
X146050Y-254000D02*
G54D12*
D03*
X44450Y-304800D02*
G54D12*
D03*
X95250Y-304800D02*
G54D12*
D03*
X146050Y-304800D02*
G54D12*
D03*
G36*
X403225Y-368300D02*
X403225Y-203200D01*
X409575Y-196850D01*
X514350Y-196850D01*
X520700Y-203200D01*
X520700Y-368300D01*
X403225Y-368300D01*
G37*
G54D13*
X403225Y-368300D02*
X403225Y-203200D01*
X409575Y-196850D01*
X514350Y-196850D01*
X520700Y-203200D01*
X520700Y-368300D01*
X403225Y-368300D01*
G54D11*
X436330Y-145613D02*
X436330Y-165613D01*
G54D11*
X461730Y-145613D02*
X461730Y-165613D01*
G54D11*
X487130Y-145613D02*
X487130Y-165613D01*
G54D13*
X209550Y-254000D02*
X244475Y-254000D01*
X279400Y-288925D01*
X279400Y-342900D01*
X304800Y-368300D01*
X403225Y-368300D01*
G54D11*
X461730Y-155613D02*
X461730Y-211370D01*
X565150Y-34925D02*
G54D12*
D03*
X565150Y-85725D02*
G54D12*
D03*
X565150Y-136525D02*
G54D12*
D03*
G54D13*
X565150Y-34925D02*
X565150Y-136525D01*
X565150Y-149225D01*
X511175Y-203200D01*
G54D13*
X209550Y-254000D02*
X196850Y-254000D01*
X146050Y-304800D01*
X44450Y-304800D01*
G54D13*
X434975Y-155575D02*
X434975Y-117475D01*
X466725Y-85725D01*
X495300Y-85725D01*
X466725Y-123825D02*
G54D14*
D03*
X485725Y-123825D02*
G54D14*
D03*
G54D13*
X461730Y-155613D02*
X461730Y-128820D01*
X466725Y-123825D01*
G54D13*
X485725Y-123825D02*
X485725Y-154208D01*
X487130Y-155613D01*
X508000Y-123825D02*
G54D14*
D03*
X527000Y-123825D02*
G54D14*
D03*
G54D13*
X485725Y-123825D02*
X508000Y-123825D01*
X527000Y-123825D02*
G54D15*
D03*
G54D11*
X199550Y-127000D02*
X219550Y-127000D01*
G54D11*
X351950Y-127000D02*
X371950Y-127000D01*
G54D11*
X199550Y-203200D02*
X219550Y-203200D01*
G54D11*
X351950Y-203200D02*
X371950Y-203200D01*
X496600Y-43150D02*
G54D16*
D03*
X496600Y-71150D02*
G54D16*
D03*
X496601Y-43150D02*
G54D17*
D03*
X434975Y-66675D02*
G54D10*
D03*
X434975Y-26675D02*
G54D10*
D03*
X434975Y-26675D02*
G54D10*
D03*
G54D13*
X403225Y-203200D02*
X403225Y-98425D01*
X434975Y-66675D01*
G54D18*
X0Y-400050D02*
X596900Y-400050D01*
X492125Y-492125D02*
G54D10*
D03*
X111125Y-771525D02*
G54D10*
D03*
X542925Y-644525D02*
G54D10*
D03*
G54D11*
X196375Y-660400D02*
X216375Y-660400D01*
G54D11*
X348775Y-660400D02*
X368775Y-660400D01*
G54D11*
X196375Y-711200D02*
X216375Y-711200D01*
G54D11*
X196375Y-457200D02*
X216375Y-457200D01*
G54D11*
X348775Y-457200D02*
X368775Y-457200D01*
G54D11*
X348775Y-736600D02*
X368775Y-736600D01*
X41275Y-457200D02*
G54D12*
D03*
X92075Y-457200D02*
G54D12*
D03*
X142875Y-457200D02*
G54D12*
D03*
X41275Y-508000D02*
G54D12*
D03*
X92075Y-508000D02*
G54D12*
D03*
X142875Y-508000D02*
G54D12*
D03*
X41275Y-558800D02*
G54D12*
D03*
X92075Y-558800D02*
G54D12*
D03*
X142875Y-558800D02*
G54D12*
D03*
X41275Y-609600D02*
G54D12*
D03*
X92075Y-609600D02*
G54D12*
D03*
X142875Y-609600D02*
G54D12*
D03*
X41275Y-660400D02*
G54D12*
D03*
X92075Y-660400D02*
G54D12*
D03*
X142875Y-660400D02*
G54D12*
D03*
X41275Y-711200D02*
G54D12*
D03*
X92075Y-711200D02*
G54D12*
D03*
X142875Y-711200D02*
G54D12*
D03*
G36*
X400050Y-774700D02*
X400050Y-609600D01*
X406400Y-603250D01*
X511175Y-603250D01*
X517525Y-609600D01*
X517525Y-774700D01*
X400050Y-774700D01*
G37*
G54D13*
X400050Y-774700D02*
X400050Y-609600D01*
X406400Y-603250D01*
X511175Y-603250D01*
X517525Y-609600D01*
X517525Y-774700D01*
X400050Y-774700D01*
G54D11*
X433155Y-552013D02*
X433155Y-572013D01*
G54D11*
X458555Y-552013D02*
X458555Y-572013D01*
G54D11*
X483955Y-552013D02*
X483955Y-572013D01*
G54D13*
X206375Y-660400D02*
X241300Y-660400D01*
X276225Y-695325D01*
X276225Y-749300D01*
X301625Y-774700D01*
X400050Y-774700D01*
G54D11*
X458555Y-562013D02*
X458555Y-617770D01*
X561975Y-441325D02*
G54D12*
D03*
X561975Y-492125D02*
G54D12*
D03*
X561975Y-542925D02*
G54D12*
D03*
G54D13*
X561975Y-441325D02*
X561975Y-542925D01*
X561975Y-555625D01*
X508000Y-609600D01*
G54D13*
X206375Y-660400D02*
X193675Y-660400D01*
X142875Y-711200D01*
X41275Y-711200D01*
G54D13*
X431800Y-561975D02*
X431800Y-523875D01*
X463550Y-492125D01*
X492125Y-492125D01*
X463550Y-530225D02*
G54D14*
D03*
X482550Y-530225D02*
G54D14*
D03*
G54D13*
X458555Y-562013D02*
X458555Y-535220D01*
X463550Y-530225D01*
G54D13*
X482550Y-530225D02*
X482550Y-560608D01*
X483955Y-562013D01*
X504825Y-530225D02*
G54D14*
D03*
X523825Y-530225D02*
G54D14*
D03*
G54D13*
X482550Y-530225D02*
X504825Y-530225D01*
X523825Y-530225D02*
G54D15*
D03*
G54D11*
X196375Y-533400D02*
X216375Y-533400D01*
G54D11*
X348775Y-533400D02*
X368775Y-533400D01*
G54D11*
X196375Y-609600D02*
X216375Y-609600D01*
G54D11*
X348775Y-609600D02*
X368775Y-609600D01*
X493425Y-449550D02*
G54D16*
D03*
X493425Y-477550D02*
G54D16*
D03*
X493426Y-449550D02*
G54D17*
D03*
X431800Y-473075D02*
G54D10*
D03*
X431800Y-433075D02*
G54D10*
D03*
X431800Y-433075D02*
G54D10*
D03*
G54D13*
X400050Y-609600D02*
X400050Y-504825D01*
X431800Y-473075D01*
%LPD*%
G54D19*
G36*
X106700Y-365125D02*
X106700Y-343625D01*
X121900Y-343625D01*
X121900Y-365125D01*
X106700Y-365125D01*
G37*
G36*
X114300Y-357525D02*
X135800Y-357525D01*
X135800Y-372725D01*
X114300Y-372725D01*
X114300Y-357525D01*
G37*
G36*
X121900Y-365125D02*
X121900Y-386625D01*
X106700Y-386625D01*
X106700Y-365125D01*
X121900Y-365125D01*
G37*
G36*
X114300Y-372725D02*
X92800Y-372725D01*
X92800Y-357525D01*
X114300Y-357525D01*
X114300Y-372725D01*
G37*
G54D19*
G36*
X538500Y-238125D02*
X538500Y-216625D01*
X553700Y-216625D01*
X553700Y-238125D01*
X538500Y-238125D01*
G37*
G36*
X546100Y-230525D02*
X567600Y-230525D01*
X567600Y-245725D01*
X546100Y-245725D01*
X546100Y-230525D01*
G37*
G36*
X553700Y-238125D02*
X553700Y-259625D01*
X538500Y-259625D01*
X538500Y-238125D01*
X553700Y-238125D01*
G37*
G54D20*
G36*
X361950Y-248933D02*
X388450Y-248933D01*
X388450Y-259067D01*
X361950Y-259067D01*
X361950Y-248933D01*
G37*
G36*
X361950Y-259067D02*
X335450Y-259067D01*
X335450Y-248933D01*
X361950Y-248933D01*
X361950Y-259067D01*
G37*
G54D20*
G36*
X209550Y-299733D02*
X236050Y-299733D01*
X236050Y-309867D01*
X209550Y-309867D01*
X209550Y-299733D01*
G37*
G36*
X209550Y-309867D02*
X183050Y-309867D01*
X183050Y-299733D01*
X209550Y-299733D01*
X209550Y-309867D01*
G37*
G54D21*
G36*
X522920Y-123825D02*
X522920Y-109325D01*
X531080Y-109325D01*
X531080Y-123825D01*
X522920Y-123825D01*
G37*
G36*
X527000Y-119745D02*
X541500Y-119745D01*
X541500Y-127905D01*
X527000Y-127905D01*
X527000Y-119745D01*
G37*
G36*
X531080Y-123825D02*
X531080Y-138325D01*
X522920Y-138325D01*
X522920Y-123825D01*
X531080Y-123825D01*
G37*
G54D22*
G36*
X496601Y-39150D02*
X512601Y-39150D01*
X512601Y-47150D01*
X496601Y-47150D01*
X496601Y-39150D01*
G37*
G36*
X496601Y-47150D02*
X480601Y-47150D01*
X480601Y-39150D01*
X496601Y-39150D01*
X496601Y-47150D01*
G37*
G36*
X492601Y-43150D02*
X492601Y-28650D01*
X500601Y-28650D01*
X500601Y-43150D01*
X492601Y-43150D01*
G37*
G54D18*
G36*
X431439Y-23139D02*
X446642Y-7937D01*
X453713Y-15008D01*
X438511Y-30211D01*
X431439Y-23139D01*
G37*
G36*
X438511Y-23139D02*
X453713Y-38342D01*
X446642Y-45413D01*
X431439Y-30211D01*
X438511Y-23139D01*
G37*
G36*
X438511Y-30211D02*
X423308Y-45413D01*
X416237Y-38342D01*
X431439Y-23139D01*
X438511Y-30211D01*
G37*
G36*
X431439Y-30211D02*
X416237Y-15008D01*
X423308Y-7937D01*
X438511Y-23139D01*
X431439Y-30211D01*
G37*
G54D19*
G36*
X103525Y-771525D02*
X103525Y-750025D01*
X118725Y-750025D01*
X118725Y-771525D01*
X103525Y-771525D01*
G37*
G36*
X111125Y-763925D02*
X132625Y-763925D01*
X132625Y-779125D01*
X111125Y-779125D01*
X111125Y-763925D01*
G37*
G36*
X118725Y-771525D02*
X118725Y-793025D01*
X103525Y-793025D01*
X103525Y-771525D01*
X118725Y-771525D01*
G37*
G36*
X111125Y-779125D02*
X89625Y-779125D01*
X89625Y-763925D01*
X111125Y-763925D01*
X111125Y-779125D01*
G37*
G54D19*
G36*
X535325Y-644525D02*
X535325Y-623025D01*
X550525Y-623025D01*
X550525Y-644525D01*
X535325Y-644525D01*
G37*
G36*
X542925Y-636925D02*
X564425Y-636925D01*
X564425Y-652125D01*
X542925Y-652125D01*
X542925Y-636925D01*
G37*
G36*
X550525Y-644525D02*
X550525Y-666025D01*
X535325Y-666025D01*
X535325Y-644525D01*
X550525Y-644525D01*
G37*
G54D20*
G36*
X358775Y-655333D02*
X385275Y-655333D01*
X385275Y-665467D01*
X358775Y-665467D01*
X358775Y-655333D01*
G37*
G36*
X358775Y-665467D02*
X332275Y-665467D01*
X332275Y-655333D01*
X358775Y-655333D01*
X358775Y-665467D01*
G37*
G54D20*
G36*
X206375Y-706133D02*
X232875Y-706133D01*
X232875Y-716267D01*
X206375Y-716267D01*
X206375Y-706133D01*
G37*
G36*
X206375Y-716267D02*
X179875Y-716267D01*
X179875Y-706133D01*
X206375Y-706133D01*
X206375Y-716267D01*
G37*
G54D21*
G36*
X519745Y-530225D02*
X519745Y-515725D01*
X527905Y-515725D01*
X527905Y-530225D01*
X519745Y-530225D01*
G37*
G36*
X523825Y-526145D02*
X538325Y-526145D01*
X538325Y-534305D01*
X523825Y-534305D01*
X523825Y-526145D01*
G37*
G36*
X527905Y-530225D02*
X527905Y-544725D01*
X519745Y-544725D01*
X519745Y-530225D01*
X527905Y-530225D01*
G37*
G54D22*
G36*
X493426Y-445550D02*
X509426Y-445550D01*
X509426Y-453550D01*
X493426Y-453550D01*
X493426Y-445550D01*
G37*
G36*
X493426Y-453550D02*
X477426Y-453550D01*
X477426Y-445550D01*
X493426Y-445550D01*
X493426Y-453550D01*
G37*
G36*
X489426Y-449550D02*
X489426Y-435050D01*
X497426Y-435050D01*
X497426Y-449550D01*
X489426Y-449550D01*
G37*
G54D18*
G36*
X428264Y-429540D02*
X443467Y-414337D01*
X450538Y-421408D01*
X435336Y-436610D01*
X428264Y-429540D01*
G37*
G36*
X435336Y-429540D02*
X450538Y-444742D01*
X443467Y-451813D01*
X428264Y-436610D01*
X435336Y-429540D01*
G37*
G36*
X435336Y-436610D02*
X420133Y-451813D01*
X413062Y-444742D01*
X428264Y-429540D01*
X435336Y-436610D01*
G37*
G36*
X428264Y-436610D02*
X413062Y-421408D01*
X420133Y-414337D01*
X435336Y-429540D01*
X428264Y-436610D01*
G37*
X495300Y-85725D02*
G54D23*
D03*
X114300Y-365125D02*
G54D23*
D03*
X546100Y-238125D02*
G54D23*
D03*
G54D24*
X199550Y-254000D02*
X219550Y-254000D01*
G54D24*
X351950Y-254000D02*
X371950Y-254000D01*
G54D24*
X199550Y-304800D02*
X219550Y-304800D01*
G54D24*
X199550Y-50800D02*
X219550Y-50800D01*
G54D24*
X351950Y-50800D02*
X371950Y-50800D01*
G54D24*
X351950Y-330200D02*
X371950Y-330200D01*
X44450Y-50800D02*
G54D25*
D03*
X95250Y-50800D02*
G54D25*
D03*
X146050Y-50800D02*
G54D25*
D03*
X44450Y-101600D02*
G54D25*
D03*
X95250Y-101600D02*
G54D25*
D03*
X146050Y-101600D02*
G54D25*
D03*
X44450Y-152400D02*
G54D25*
D03*
X95250Y-152400D02*
G54D25*
D03*
X146050Y-152400D02*
G54D25*
D03*
X44450Y-203200D02*
G54D25*
D03*
X95250Y-203200D02*
G54D25*
D03*
X146050Y-203200D02*
G54D25*
D03*
X44450Y-254000D02*
G54D25*
D03*
X95250Y-254000D02*
G54D25*
D03*
X146050Y-254000D02*
G54D25*
D03*
X44450Y-304800D02*
G54D25*
D03*
X95250Y-304800D02*
G54D25*
D03*
X146050Y-304800D02*
G54D25*
D03*
G36*
X403225Y-368300D02*
X403225Y-203200D01*
X409575Y-196850D01*
X514350Y-196850D01*
X520700Y-203200D01*
X520700Y-368300D01*
X403225Y-368300D01*
G37*
G54D18*
X403225Y-368300D02*
X403225Y-203200D01*
X409575Y-196850D01*
X514350Y-196850D01*
X520700Y-203200D01*
X520700Y-368300D01*
X403225Y-368300D01*
G54D24*
X436330Y-145613D02*
X436330Y-165613D01*
G54D24*
X461730Y-145613D02*
X461730Y-165613D01*
G54D24*
X487130Y-145613D02*
X487130Y-165613D01*
G54D18*
X209550Y-254000D02*
X244475Y-254000D01*
X279400Y-288925D01*
X279400Y-342900D01*
X304800Y-368300D01*
X403225Y-368300D01*
G54D24*
X461730Y-155613D02*
X461730Y-211370D01*
X565150Y-34925D02*
G54D25*
D03*
X565150Y-85725D02*
G54D25*
D03*
X565150Y-136525D02*
G54D25*
D03*
G54D18*
X565150Y-34925D02*
X565150Y-136525D01*
X565150Y-149225D01*
X511175Y-203200D01*
G54D18*
X209550Y-254000D02*
X196850Y-254000D01*
X146050Y-304800D01*
X44450Y-304800D01*
G54D18*
X434975Y-155575D02*
X434975Y-117475D01*
X466725Y-85725D01*
X495300Y-85725D01*
X466725Y-123825D02*
G54D26*
D03*
X485725Y-123825D02*
G54D26*
D03*
G54D18*
X461730Y-155613D02*
X461730Y-128820D01*
X466725Y-123825D01*
G54D18*
X485725Y-123825D02*
X485725Y-154208D01*
X487130Y-155613D01*
X508000Y-123825D02*
G54D26*
D03*
X527000Y-123825D02*
G54D26*
D03*
G54D18*
X485725Y-123825D02*
X508000Y-123825D01*
X527000Y-123825D02*
G54D27*
D03*
G54D24*
X199550Y-127000D02*
X219550Y-127000D01*
G54D24*
X351950Y-127000D02*
X371950Y-127000D01*
G54D24*
X199550Y-203200D02*
X219550Y-203200D01*
G54D24*
X351950Y-203200D02*
X371950Y-203200D01*
X496600Y-43150D02*
G54D28*
D03*
X496600Y-71150D02*
G54D28*
D03*
X496601Y-43150D02*
G54D29*
D03*
X434975Y-66675D02*
G54D23*
D03*
X434975Y-26675D02*
G54D23*
D03*
X434975Y-26675D02*
G54D23*
D03*
G54D18*
X403225Y-203200D02*
X403225Y-98425D01*
X434975Y-66675D01*
X492125Y-492125D02*
G54D23*
D03*
X111125Y-771525D02*
G54D23*
D03*
X542925Y-644525D02*
G54D23*
D03*
G54D24*
X196375Y-660400D02*
X216375Y-660400D01*
G54D24*
X348775Y-660400D02*
X368775Y-660400D01*
G54D24*
X196375Y-711200D02*
X216375Y-711200D01*
G54D24*
X196375Y-457200D02*
X216375Y-457200D01*
G54D24*
X348775Y-457200D02*
X368775Y-457200D01*
G54D24*
X348775Y-736600D02*
X368775Y-736600D01*
X41275Y-457200D02*
G54D25*
D03*
X92075Y-457200D02*
G54D25*
D03*
X142875Y-457200D02*
G54D25*
D03*
X41275Y-508000D02*
G54D25*
D03*
X92075Y-508000D02*
G54D25*
D03*
X142875Y-508000D02*
G54D25*
D03*
X41275Y-558800D02*
G54D25*
D03*
X92075Y-558800D02*
G54D25*
D03*
X142875Y-558800D02*
G54D25*
D03*
X41275Y-609600D02*
G54D25*
D03*
X92075Y-609600D02*
G54D25*
D03*
X142875Y-609600D02*
G54D25*
D03*
X41275Y-660400D02*
G54D25*
D03*
X92075Y-660400D02*
G54D25*
D03*
X142875Y-660400D02*
G54D25*
D03*
X41275Y-711200D02*
G54D25*
D03*
X92075Y-711200D02*
G54D25*
D03*
X142875Y-711200D02*
G54D25*
D03*
G36*
X400050Y-774700D02*
X400050Y-609600D01*
X406400Y-603250D01*
X511175Y-603250D01*
X517525Y-609600D01*
X517525Y-774700D01*
X400050Y-774700D01*
G37*
G54D18*
X400050Y-774700D02*
X400050Y-609600D01*
X406400Y-603250D01*
X511175Y-603250D01*
X517525Y-609600D01*
X517525Y-774700D01*
X400050Y-774700D01*
G54D24*
X433155Y-552013D02*
X433155Y-572013D01*
G54D24*
X458555Y-552013D02*
X458555Y-572013D01*
G54D24*
X483955Y-552013D02*
X483955Y-572013D01*
G54D18*
X206375Y-660400D02*
X241300Y-660400D01*
X276225Y-695325D01*
X276225Y-749300D01*
X301625Y-774700D01*
X400050Y-774700D01*
G54D24*
X458555Y-562013D02*
X458555Y-617770D01*
X561975Y-441325D02*
G54D25*
D03*
X561975Y-492125D02*
G54D25*
D03*
X561975Y-542925D02*
G54D25*
D03*
G54D18*
X561975Y-441325D02*
X561975Y-542925D01*
X561975Y-555625D01*
X508000Y-609600D01*
G54D18*
X206375Y-660400D02*
X193675Y-660400D01*
X142875Y-711200D01*
X41275Y-711200D01*
G54D18*
X431800Y-561975D02*
X431800Y-523875D01*
X463550Y-492125D01*
X492125Y-492125D01*
X463550Y-530225D02*
G54D26*
D03*
X482550Y-530225D02*
G54D26*
D03*
G54D18*
X458555Y-562013D02*
X458555Y-535220D01*
X463550Y-530225D01*
G54D18*
X482550Y-530225D02*
X482550Y-560608D01*
X483955Y-562013D01*
X504825Y-530225D02*
G54D26*
D03*
X523825Y-530225D02*
G54D26*
D03*
G54D18*
X482550Y-530225D02*
X504825Y-530225D01*
X523825Y-530225D02*
G54D27*
D03*
G54D24*
X196375Y-533400D02*
X216375Y-533400D01*
G54D24*
X348775Y-533400D02*
X368775Y-533400D01*
G54D24*
X196375Y-609600D02*
X216375Y-609600D01*
G54D24*
X348775Y-609600D02*
X368775Y-609600D01*
X493425Y-449550D02*
G54D28*
D03*
X493425Y-477550D02*
G54D28*
D03*
X493426Y-449550D02*
G54D29*
D03*
X431800Y-473075D02*
G54D23*
D03*
X431800Y-433075D02*
G54D23*
D03*
X431800Y-433075D02*
G54D23*
D03*
G54D18*
X400050Y-609600D02*
X400050Y-504825D01*
X431800Y-473075D01*
%LNAUGENFREISTANZEN*%
%LPC*%
X495300Y-85725D02*
G54D22*
D03*
X114300Y-365125D02*
G54D22*
D03*
X546100Y-238125D02*
G54D22*
D03*
X209550Y-254000D02*
G54D22*
D03*
X361950Y-254000D02*
G54D22*
D03*
X209550Y-304800D02*
G54D22*
D03*
X209550Y-50800D02*
G54D22*
D03*
X361950Y-50800D02*
G54D22*
D03*
X361950Y-330200D02*
G54D22*
D03*
X44450Y-50800D02*
G54D30*
D03*
X95250Y-50800D02*
G54D30*
D03*
X146050Y-50800D02*
G54D30*
D03*
X44450Y-101600D02*
G54D30*
D03*
X95250Y-101600D02*
G54D30*
D03*
X146050Y-101600D02*
G54D30*
D03*
X44450Y-152400D02*
G54D30*
D03*
X95250Y-152400D02*
G54D30*
D03*
X146050Y-152400D02*
G54D30*
D03*
X44450Y-203200D02*
G54D30*
D03*
X95250Y-203200D02*
G54D30*
D03*
X146050Y-203200D02*
G54D30*
D03*
X44450Y-254000D02*
G54D30*
D03*
X95250Y-254000D02*
G54D30*
D03*
X146050Y-254000D02*
G54D30*
D03*
X44450Y-304800D02*
G54D30*
D03*
X95250Y-304800D02*
G54D30*
D03*
X146050Y-304800D02*
G54D30*
D03*
X436330Y-155613D02*
G54D30*
D03*
X461730Y-155613D02*
G54D30*
D03*
X487130Y-155613D02*
G54D30*
D03*
X565150Y-34925D02*
G54D30*
D03*
X565150Y-85725D02*
G54D30*
D03*
X565150Y-136525D02*
G54D30*
D03*
X209550Y-127000D02*
G54D22*
D03*
X361950Y-127000D02*
G54D22*
D03*
X209550Y-203200D02*
G54D22*
D03*
X361950Y-203200D02*
G54D22*
D03*
X434975Y-66675D02*
G54D22*
D03*
X434975Y-26675D02*
G54D22*
D03*
X434975Y-26675D02*
G54D22*
D03*
X492125Y-492125D02*
G54D22*
D03*
X111125Y-771525D02*
G54D22*
D03*
X542925Y-644525D02*
G54D22*
D03*
X206375Y-660400D02*
G54D22*
D03*
X358775Y-660400D02*
G54D22*
D03*
X206375Y-711200D02*
G54D22*
D03*
X206375Y-457200D02*
G54D22*
D03*
X358775Y-457200D02*
G54D22*
D03*
X358775Y-736600D02*
G54D22*
D03*
X41275Y-457200D02*
G54D30*
D03*
X92075Y-457200D02*
G54D30*
D03*
X142875Y-457200D02*
G54D30*
D03*
X41275Y-508000D02*
G54D30*
D03*
X92075Y-508000D02*
G54D30*
D03*
X142875Y-508000D02*
G54D30*
D03*
X41275Y-558800D02*
G54D30*
D03*
X92075Y-558800D02*
G54D30*
D03*
X142875Y-558800D02*
G54D30*
D03*
X41275Y-609600D02*
G54D30*
D03*
X92075Y-609600D02*
G54D30*
D03*
X142875Y-609600D02*
G54D30*
D03*
X41275Y-660400D02*
G54D30*
D03*
X92075Y-660400D02*
G54D30*
D03*
X142875Y-660400D02*
G54D30*
D03*
X41275Y-711200D02*
G54D30*
D03*
X92075Y-711200D02*
G54D30*
D03*
X142875Y-711200D02*
G54D30*
D03*
X433155Y-562013D02*
G54D30*
D03*
X458555Y-562013D02*
G54D30*
D03*
X483955Y-562013D02*
G54D30*
D03*
X561975Y-441325D02*
G54D30*
D03*
X561975Y-492125D02*
G54D30*
D03*
X561975Y-542925D02*
G54D30*
D03*
X206375Y-533400D02*
G54D22*
D03*
X358775Y-533400D02*
G54D22*
D03*
X206375Y-609600D02*
G54D22*
D03*
X358775Y-609600D02*
G54D22*
D03*
X431800Y-473075D02*
G54D22*
D03*
X431800Y-433075D02*
G54D22*
D03*
X431800Y-433075D02*
G54D22*
D03*
M02*
