%FSLAX34Y34*%
%MOMM*%
%LNCOPPER_TOP*%
G71*
G01*
%ADD10C, 0.002*%
%ADD11C, 4.200*%
%ADD12C, 3.200*%
%ADD13C, 4.200*%
%ADD14C, 2.200*%
%ADD15R, 2.900X2.500*%
%ADD16R, 3.000X5.200*%
%ADD17R, 2.800X3.200*%
%ADD18C, 1.520*%
%ADD19C, 1.013*%
%ADD20C, 0.900*%
%ADD21C, 1.000*%
%ADD22C, 0.800*%
%ADD23C, 3.000*%
%ADD24C, 2.000*%
%ADD25C, 3.000*%
%ADD26R, 1.700X1.300*%
%ADD27R, 1.800X4.000*%
%ADD28R, 1.600X2.000*%
%LPD*%
G54D10*
X0Y0D02*
X400000Y0D01*
X400000Y-600000D01*
X0Y-600000D01*
X0Y0D01*
G36*
X0Y0D02*
X400000Y0D01*
X400000Y-600000D01*
X0Y-600000D01*
X0Y0D01*
G37*
%LPC*%
X306074Y-491789D02*
G54D11*
D03*
X26674Y-110789D02*
G54D11*
D03*
X153674Y-542589D02*
G54D11*
D03*
G54D12*
X137799Y-196039D02*
X137799Y-216039D01*
G54D12*
X137799Y-348439D02*
X137799Y-368439D01*
G54D12*
X86999Y-196039D02*
X86999Y-216039D01*
G54D12*
X61599Y-348439D02*
X61599Y-368439D01*
X340999Y-40939D02*
G54D13*
D03*
X340999Y-91739D02*
G54D13*
D03*
X340999Y-142539D02*
G54D13*
D03*
X290199Y-40939D02*
G54D13*
D03*
X290199Y-91739D02*
G54D13*
D03*
X290199Y-142539D02*
G54D13*
D03*
X239399Y-40939D02*
G54D13*
D03*
X239399Y-91739D02*
G54D13*
D03*
X239399Y-142539D02*
G54D13*
D03*
X188599Y-40939D02*
G54D13*
D03*
X188599Y-91739D02*
G54D13*
D03*
X188599Y-142539D02*
G54D13*
D03*
X137799Y-40939D02*
G54D13*
D03*
X137799Y-91739D02*
G54D13*
D03*
X137799Y-142539D02*
G54D13*
D03*
X86999Y-40939D02*
G54D13*
D03*
X86999Y-91739D02*
G54D13*
D03*
X86999Y-142539D02*
G54D13*
D03*
G36*
X23499Y-399714D02*
X188599Y-399714D01*
X194949Y-406064D01*
X194949Y-510839D01*
X188599Y-517189D01*
X23499Y-517189D01*
X23499Y-399714D01*
G37*
G54D14*
X23499Y-399714D02*
X188599Y-399714D01*
X194949Y-406064D01*
X194949Y-510839D01*
X188599Y-517189D01*
X23499Y-517189D01*
X23499Y-399714D01*
G54D12*
X246186Y-432818D02*
X226186Y-432818D01*
G54D12*
X246186Y-458218D02*
X226186Y-458218D01*
G54D12*
X246186Y-483618D02*
X226186Y-483618D01*
G54D14*
X137799Y-206039D02*
X137799Y-240964D01*
X102874Y-275889D01*
X102874Y-402889D01*
G54D12*
X236186Y-458218D02*
X180428Y-458218D01*
X61599Y-564814D02*
G54D13*
D03*
X86999Y-564814D02*
G54D13*
D03*
X36199Y-564814D02*
G54D13*
D03*
G54D14*
X61599Y-564814D02*
X36199Y-564814D01*
G54D14*
X137799Y-206039D02*
X137799Y-193339D01*
X86999Y-142539D01*
X86999Y-40939D01*
G54D14*
X236224Y-431464D02*
X274324Y-431464D01*
X306074Y-463214D01*
X306074Y-491789D01*
X337824Y-491789D01*
X267974Y-463214D02*
G54D15*
D03*
X267974Y-482214D02*
G54D15*
D03*
G54D14*
X236186Y-458218D02*
X262978Y-458218D01*
X267974Y-463214D01*
G54D14*
X267974Y-482214D02*
X237590Y-482214D01*
X236186Y-483618D01*
G54D14*
X267974Y-482214D02*
X267712Y-520700D01*
G54D12*
X264799Y-196039D02*
X264799Y-216039D01*
G54D12*
X264799Y-348439D02*
X264799Y-368439D01*
G54D12*
X188599Y-196039D02*
X188599Y-216039D01*
G54D12*
X188599Y-348439D02*
X188599Y-368439D01*
X365824Y-491789D02*
G54D16*
D03*
X337824Y-491789D02*
G54D16*
D03*
X365824Y-491790D02*
G54D16*
D03*
X325124Y-431464D02*
G54D11*
D03*
X365124Y-431464D02*
G54D11*
D03*
X365124Y-431464D02*
G54D11*
D03*
G54D14*
X188599Y-399714D02*
X293374Y-399714D01*
X325124Y-431464D01*
G54D14*
X61599Y-491789D02*
X61599Y-564814D01*
X239712Y-520700D02*
G54D17*
D03*
X267712Y-520700D02*
G54D17*
D03*
X239712Y-520699D02*
G54D17*
D03*
X337824Y-564814D02*
G54D13*
D03*
X363224Y-564814D02*
G54D13*
D03*
X312424Y-564814D02*
G54D13*
D03*
G54D14*
X337824Y-564814D02*
X312424Y-564814D01*
G54D14*
X193675Y-511175D02*
X193675Y-565150D01*
X311150Y-565150D01*
%LPD*%
G54D18*
G36*
X26674Y-103189D02*
X48174Y-103189D01*
X48174Y-118389D01*
X26674Y-118389D01*
X26674Y-103189D01*
G37*
G36*
X34274Y-110789D02*
X34274Y-132289D01*
X19074Y-132289D01*
X19074Y-110789D01*
X34274Y-110789D01*
G37*
G36*
X26674Y-118389D02*
X5174Y-118389D01*
X5174Y-103189D01*
X26674Y-103189D01*
X26674Y-118389D01*
G37*
G36*
X19074Y-110789D02*
X19074Y-89289D01*
X34274Y-89289D01*
X34274Y-110789D01*
X19074Y-110789D01*
G37*
G54D18*
G36*
X153674Y-534989D02*
X175174Y-534989D01*
X175174Y-550189D01*
X153674Y-550189D01*
X153674Y-534989D01*
G37*
G36*
X161274Y-542589D02*
X161274Y-564089D01*
X146074Y-564089D01*
X146074Y-542589D01*
X161274Y-542589D01*
G37*
G36*
X153674Y-550189D02*
X132174Y-550189D01*
X132174Y-534989D01*
X153674Y-534989D01*
X153674Y-550189D01*
G37*
G54D19*
G36*
X142865Y-358439D02*
X142865Y-384939D01*
X132732Y-384939D01*
X132732Y-358439D01*
X142865Y-358439D01*
G37*
G36*
X132732Y-358439D02*
X132732Y-331939D01*
X142865Y-331939D01*
X142865Y-358439D01*
X132732Y-358439D01*
G37*
G54D19*
G36*
X92065Y-206039D02*
X92065Y-232539D01*
X81932Y-232539D01*
X81932Y-206039D01*
X92065Y-206039D01*
G37*
G36*
X81932Y-206039D02*
X81932Y-179539D01*
X92065Y-179539D01*
X92065Y-206039D01*
X81932Y-206039D01*
G37*
G54D20*
G36*
X370324Y-491790D02*
X370323Y-518290D01*
X361323Y-518289D01*
X361324Y-491790D01*
X370324Y-491790D01*
G37*
G36*
X361324Y-491790D02*
X361324Y-465290D01*
X370324Y-465290D01*
X370324Y-491790D01*
X361324Y-491790D01*
G37*
G36*
X365824Y-487290D02*
X381324Y-487290D01*
X381324Y-496290D01*
X365824Y-496290D01*
X365824Y-487290D01*
G37*
G54D21*
G36*
X368659Y-427928D02*
X383862Y-443131D01*
X376791Y-450202D01*
X361588Y-434999D01*
X368659Y-427928D01*
G37*
G36*
X368659Y-434999D02*
X353456Y-450202D01*
X346385Y-443131D01*
X361588Y-427928D01*
X368659Y-434999D01*
G37*
G36*
X361588Y-434999D02*
X346385Y-419796D01*
X353456Y-412725D01*
X368659Y-427928D01*
X361588Y-434999D01*
G37*
G36*
X361588Y-427928D02*
X376791Y-412725D01*
X383862Y-419796D01*
X368659Y-434999D01*
X361588Y-427928D01*
G37*
G54D22*
G36*
X235712Y-520699D02*
X235713Y-504199D01*
X243713Y-504199D01*
X243712Y-520699D01*
X235712Y-520699D01*
G37*
G36*
X243712Y-520699D02*
X243712Y-537199D01*
X235712Y-537199D01*
X235712Y-520699D01*
X243712Y-520699D01*
G37*
G36*
X239712Y-524699D02*
X225212Y-524699D01*
X225213Y-516699D01*
X239713Y-516699D01*
X239712Y-524699D01*
G37*
X306074Y-491789D02*
G54D23*
D03*
X26674Y-110789D02*
G54D23*
D03*
X153674Y-542589D02*
G54D23*
D03*
G54D24*
X137799Y-196039D02*
X137799Y-216039D01*
G54D24*
X137799Y-348439D02*
X137799Y-368439D01*
G54D24*
X86999Y-196039D02*
X86999Y-216039D01*
G54D24*
X61599Y-348439D02*
X61599Y-368439D01*
X340999Y-40939D02*
G54D25*
D03*
X340999Y-91739D02*
G54D25*
D03*
X340999Y-142539D02*
G54D25*
D03*
X290199Y-40939D02*
G54D25*
D03*
X290199Y-91739D02*
G54D25*
D03*
X290199Y-142539D02*
G54D25*
D03*
X239399Y-40939D02*
G54D25*
D03*
X239399Y-91739D02*
G54D25*
D03*
X239399Y-142539D02*
G54D25*
D03*
X188599Y-40939D02*
G54D25*
D03*
X188599Y-91739D02*
G54D25*
D03*
X188599Y-142539D02*
G54D25*
D03*
X137799Y-40939D02*
G54D25*
D03*
X137799Y-91739D02*
G54D25*
D03*
X137799Y-142539D02*
G54D25*
D03*
X86999Y-40939D02*
G54D25*
D03*
X86999Y-91739D02*
G54D25*
D03*
X86999Y-142539D02*
G54D25*
D03*
G36*
X23499Y-399714D02*
X188599Y-399714D01*
X194949Y-406064D01*
X194949Y-510839D01*
X188599Y-517189D01*
X23499Y-517189D01*
X23499Y-399714D01*
G37*
G54D21*
X23499Y-399714D02*
X188599Y-399714D01*
X194949Y-406064D01*
X194949Y-510839D01*
X188599Y-517189D01*
X23499Y-517189D01*
X23499Y-399714D01*
G54D24*
X246186Y-432818D02*
X226186Y-432818D01*
G54D24*
X246186Y-458218D02*
X226186Y-458218D01*
G54D24*
X246186Y-483618D02*
X226186Y-483618D01*
G54D21*
X137799Y-206039D02*
X137799Y-240964D01*
X102874Y-275889D01*
X102874Y-402889D01*
G54D24*
X236186Y-458218D02*
X180428Y-458218D01*
X61599Y-564814D02*
G54D25*
D03*
X86999Y-564814D02*
G54D25*
D03*
X36199Y-564814D02*
G54D25*
D03*
G54D21*
X61599Y-564814D02*
X36199Y-564814D01*
G54D21*
X137799Y-206039D02*
X137799Y-193339D01*
X86999Y-142539D01*
X86999Y-40939D01*
G54D21*
X236224Y-431464D02*
X274324Y-431464D01*
X306074Y-463214D01*
X306074Y-491789D01*
X337824Y-491789D01*
X267974Y-463214D02*
G54D26*
D03*
X267974Y-482214D02*
G54D26*
D03*
G54D21*
X236186Y-458218D02*
X262978Y-458218D01*
X267974Y-463214D01*
G54D21*
X267974Y-482214D02*
X237590Y-482214D01*
X236186Y-483618D01*
G54D21*
X267974Y-482214D02*
X267712Y-520700D01*
G54D24*
X264799Y-196039D02*
X264799Y-216039D01*
G54D24*
X264799Y-348439D02*
X264799Y-368439D01*
G54D24*
X188599Y-196039D02*
X188599Y-216039D01*
G54D24*
X188599Y-348439D02*
X188599Y-368439D01*
X365824Y-491789D02*
G54D27*
D03*
X337824Y-491789D02*
G54D27*
D03*
X365824Y-491790D02*
G54D27*
D03*
X325124Y-431464D02*
G54D23*
D03*
X365124Y-431464D02*
G54D23*
D03*
X365124Y-431464D02*
G54D23*
D03*
G54D21*
X188599Y-399714D02*
X293374Y-399714D01*
X325124Y-431464D01*
G54D21*
X61599Y-491789D02*
X61599Y-564814D01*
X239712Y-520700D02*
G54D28*
D03*
X267712Y-520700D02*
G54D28*
D03*
X239712Y-520699D02*
G54D28*
D03*
X337824Y-564814D02*
G54D25*
D03*
X363224Y-564814D02*
G54D25*
D03*
X312424Y-564814D02*
G54D25*
D03*
G54D21*
X337824Y-564814D02*
X312424Y-564814D01*
G54D21*
X193675Y-511175D02*
X193675Y-565150D01*
X311150Y-565150D01*
M02*
