%FSLAX34Y34*%
%MOMM*%
%LNCOPPER_TOP*%
G71*
G01*
%ADD10R, 1.400X1.500*%
%ADD11R, 2.200X2.100*%
%ADD12R, 2.100X2.200*%
%ADD13C, 1.300*%
%ADD14C, 2.600*%
%ADD15C, 3.900*%
%ADD16C, 0.267*%
%ADD17C, 0.433*%
%ADD18C, 0.600*%
%ADD19R, 0.800X0.900*%
%ADD20R, 1.400X1.300*%
%ADD21R, 1.300X1.400*%
%ADD22C, 0.500*%
%ADD23C, 1.800*%
%LPD*%
G36*
X0Y0D02*
X180000Y0D01*
X180000Y-83000D01*
X0Y-83000D01*
X0Y0D01*
G37*
%LPC*%
X107950Y-38100D02*
G54D10*
D03*
X87950Y-38100D02*
G54D10*
D03*
X97950Y-58100D02*
G54D10*
D03*
X130175Y-12700D02*
G54D11*
D03*
X130175Y-31702D02*
G54D11*
D03*
X130175Y-50800D02*
G54D11*
D03*
X130175Y-69800D02*
G54D11*
D03*
X110675Y-13200D02*
G54D12*
D03*
X91675Y-13200D02*
G54D12*
D03*
G54D13*
X130175Y-12700D02*
X111125Y-12700D01*
X107950Y-15875D01*
X107950Y-38100D01*
G54D13*
X130175Y-31700D02*
X130175Y-50800D01*
G54D13*
X161925Y-53975D02*
X139700Y-69850D01*
X98425Y-69850D01*
X98425Y-57150D01*
X161925Y-53975D02*
G54D14*
D03*
X161925Y-28575D02*
G54D14*
D03*
X38100Y-41275D02*
G54D15*
D03*
%LPD*%
G54D16*
G36*
X89284Y-38100D02*
X89283Y-46100D01*
X86616Y-46100D01*
X86616Y-38100D01*
X89284Y-38100D01*
G37*
G36*
X87950Y-39434D02*
X80450Y-39433D01*
X80450Y-36766D01*
X87950Y-36766D01*
X87950Y-39434D01*
G37*
G36*
X86616Y-38100D02*
X86617Y-30100D01*
X89284Y-30100D01*
X89284Y-38100D01*
X86616Y-38100D01*
G37*
G36*
X87950Y-36766D02*
X95450Y-36767D01*
X95450Y-39434D01*
X87950Y-39434D01*
X87950Y-36766D01*
G37*
G54D17*
G36*
X93841Y-13200D02*
X93841Y-24700D01*
X89508Y-24700D01*
X89508Y-13200D01*
X93841Y-13200D01*
G37*
G36*
X91675Y-15366D02*
X80675Y-15366D01*
X80675Y-11033D01*
X91675Y-11034D01*
X91675Y-15366D01*
G37*
G36*
X89508Y-13200D02*
X89509Y-1700D01*
X93842Y-1700D01*
X93841Y-13200D01*
X89508Y-13200D01*
G37*
G54D18*
G36*
X159804Y-30696D02*
X150258Y-21150D01*
X154500Y-16908D01*
X164046Y-26454D01*
X159804Y-30696D01*
G37*
G36*
X159804Y-26454D02*
X169350Y-16908D01*
X173592Y-21150D01*
X164046Y-30696D01*
X159804Y-26454D01*
G37*
G36*
X164046Y-26454D02*
X173592Y-36000D01*
X169350Y-40242D01*
X159804Y-30696D01*
X164046Y-26454D01*
G37*
G36*
X164046Y-30696D02*
X154500Y-40242D01*
X150258Y-36000D01*
X159804Y-26454D01*
X164046Y-30696D01*
G37*
X107950Y-38100D02*
G54D19*
D03*
X87950Y-38100D02*
G54D19*
D03*
X97950Y-58100D02*
G54D19*
D03*
X130175Y-12700D02*
G54D20*
D03*
X130175Y-31702D02*
G54D20*
D03*
X130175Y-50800D02*
G54D20*
D03*
X130175Y-69800D02*
G54D20*
D03*
X110675Y-13200D02*
G54D21*
D03*
X91675Y-13200D02*
G54D21*
D03*
G54D22*
X130175Y-12700D02*
X111125Y-12700D01*
X107950Y-15875D01*
X107950Y-38100D01*
G54D22*
X130175Y-31700D02*
X130175Y-50800D01*
G54D22*
X161925Y-53975D02*
X139700Y-69850D01*
X98425Y-69850D01*
X98425Y-57150D01*
X161925Y-53975D02*
G54D23*
D03*
X161925Y-28575D02*
G54D23*
D03*
M02*
