%FSLAX34Y34*%
%MOMM*%
%LNCOPPER_TOP*%
G71*
G01*
%ADD10C, 5.400*%
%ADD11C, 2.400*%
%ADD12R, 3.300X2.200*%
%ADD13R, 2.800X3.300*%
%ADD14C, 0.900*%
%ADD15R, 2.600X1.100*%
%ADD16C, 1.600*%
%ADD17C, 0.700*%
%ADD18R, 1.000X2.400*%
%ADD19R, 0.700X2.400*%
%ADD20R, 5.600X2.300*%
%ADD21C, 1.900*%
%ADD22C, 1.000*%
%ADD23C, 0.500*%
%ADD24C, 1.100*%
%ADD25R, 2.000X1.700*%
%ADD26C, 2.200*%
%ADD27C, 0.600*%
%ADD28R, 1.700X1.800*%
%ADD29C, 3.600*%
%ADD30C, 3.400*%
%ADD31R, 2.100X2.400*%
%ADD32R, 1.800X1.700*%
%ADD33R, 2.400X2.100*%
%ADD34R, 2.500X5.400*%
%ADD35C, 0.800*%
%ADD36C, 0.175*%
%ADD37C, 2.400*%
%ADD38C, 1.680*%
%ADD39R, 2.300X4.800*%
%ADD40R, 4.800X2.300*%
%ADD41C, 0.159*%
%ADD42C, 0.191*%
%ADD43R, 1.100X2.600*%
%ADD44C, 1.280*%
%ADD45R, 1.700X2.000*%
%ADD46C, 0.300*%
%ADD47C, 1.400*%
%ADD48C, 0.400*%
%ADD49R, 0.900X0.900*%
%ADD50C, 1.667*%
%ADD51C, 2.000*%
%ADD52C, 0.667*%
%ADD53C, 0.649*%
%ADD54C, 0.433*%
%ADD55C, 0.233*%
%ADD56C, 0.245*%
%ADD57C, 5.000*%
%ADD58C, 2.000*%
%ADD59R, 2.000X2.500*%
%ADD60C, 0.100*%
%ADD61R, 2.200X0.700*%
%ADD62R, 0.600X2.000*%
%ADD63R, 0.300X2.000*%
%ADD64R, 5.000X1.700*%
%ADD65C, 1.500*%
%ADD66R, 1.600X1.300*%
%ADD67C, 1.800*%
%ADD68C, 0.200*%
%ADD69R, 1.300X1.400*%
%ADD70C, 3.000*%
%ADD71R, 1.300X1.600*%
%ADD72R, 1.400X1.300*%
%ADD73R, 1.900X4.800*%
%ADD74R, 1.900X4.400*%
%ADD75R, 4.400X1.900*%
%ADD76R, 0.700X2.200*%
%ADD77C, 0.000*%
%ADD78R, 0.500X0.500*%
%LPD*%
G36*
X-3969Y4366D02*
X996031Y4366D01*
X996031Y-331634D01*
X-3969Y-331634D01*
X-3969Y4366D01*
G37*
%LPC*%
X44053Y-44846D02*
G54D10*
D03*
X825103Y-44846D02*
G54D10*
D03*
G36*
X741269Y-116773D02*
X741269Y-92773D01*
X765269Y-92773D01*
X765269Y-116773D01*
X741269Y-116773D01*
G37*
X753269Y-79374D02*
G54D11*
D03*
X753269Y-53974D02*
G54D11*
D03*
X753269Y-28574D02*
G54D11*
D03*
X379809Y-195659D02*
G54D11*
D03*
X532209Y-195659D02*
G54D11*
D03*
X379809Y-221059D02*
G54D11*
D03*
X532209Y-246459D02*
G54D11*
D03*
X379809Y-246459D02*
G54D11*
D03*
X919268Y-28040D02*
G54D12*
D03*
X919268Y-85190D02*
G54D13*
D03*
G36*
X930668Y-68690D02*
X958668Y-68690D01*
X958668Y-101690D01*
X930668Y-101690D01*
X930668Y-68690D01*
G37*
X893868Y-85190D02*
G54D13*
D03*
G36*
X933738Y-131064D02*
X994063Y-131064D01*
X994063Y-73120D01*
X933738Y-73120D01*
X933738Y-131064D01*
G37*
G54D14*
X933738Y-131064D02*
X994063Y-131064D01*
X994063Y-73120D01*
X933738Y-73120D01*
X933738Y-131064D01*
X662384Y-62308D02*
G54D15*
D03*
X662384Y-49608D02*
G54D15*
D03*
X662384Y-36908D02*
G54D15*
D03*
X662383Y-24208D02*
G54D15*
D03*
X608384Y-24208D02*
G54D15*
D03*
X608384Y-36909D02*
G54D15*
D03*
X608384Y-49609D02*
G54D15*
D03*
X608384Y-62308D02*
G54D15*
D03*
G54D16*
X660956Y-74215D02*
X670956Y-74215D01*
G54D16*
X660956Y-88515D02*
X670956Y-88515D01*
G54D14*
X661987Y-49608D02*
X649287Y-49608D01*
X647302Y-51593D01*
X647302Y-86121D01*
X649684Y-88502D01*
X663178Y-88515D01*
G54D14*
X666213Y-74102D02*
X665956Y-74214D01*
G54D17*
X463755Y-290952D02*
X463754Y-281824D01*
X478836Y-281824D01*
X478836Y-263170D01*
X480423Y-300477D02*
G54D18*
D03*
X473836Y-300477D02*
G54D19*
D03*
X468836Y-300477D02*
G54D19*
D03*
X463836Y-300477D02*
G54D19*
D03*
X473836Y-256477D02*
G54D19*
D03*
X468836Y-256477D02*
G54D19*
D03*
X463836Y-256477D02*
G54D19*
D03*
X457404Y-300478D02*
G54D18*
D03*
X480423Y-256424D02*
G54D18*
D03*
X457404Y-256424D02*
G54D18*
D03*
X503119Y-220739D02*
G54D20*
D03*
X421363Y-220739D02*
G54D20*
D03*
G54D14*
X662384Y-62308D02*
X665956Y-74215D01*
G54D17*
X608384Y-36909D02*
X624284Y-36909D01*
X624284Y-17461D01*
X633016Y-8730D01*
X736600Y-8730D01*
X736600Y-40877D01*
X753269Y-53974D01*
G54D17*
X753269Y-29368D02*
X753269Y-2777D01*
X630634Y-2777D01*
X608384Y-25002D01*
G54D14*
X437356Y-253602D02*
X457360Y-253602D01*
G54D17*
X463947Y-265508D02*
X463947Y-271858D01*
X437356Y-279002D01*
G54D14*
X421363Y-220739D02*
X443784Y-220739D01*
X468709Y-242093D01*
X468709Y-250427D01*
G54D14*
X473869Y-250427D02*
X473869Y-241696D01*
X498078Y-221852D01*
G54D14*
X458266Y-118314D02*
X458266Y-144191D01*
X454820Y-142477D01*
G36*
X427856Y-244102D02*
X446856Y-244102D01*
X446856Y-263102D01*
X427856Y-263102D01*
X427856Y-244102D01*
G37*
X437356Y-279002D02*
G54D21*
D03*
G54D17*
X490265Y-118313D02*
X490662Y-161005D01*
X480219Y-171449D01*
X376238Y-171449D01*
X360362Y-187324D01*
X360362Y-237729D01*
X379809Y-246459D01*
G54D17*
X379809Y-195659D02*
X429420Y-195659D01*
X471884Y-195658D01*
X504825Y-162718D01*
X504825Y-103873D01*
X504766Y-103813D01*
G54D17*
X532209Y-195659D02*
X517525Y-174624D01*
X517525Y-96043D01*
X504995Y-96043D01*
X504766Y-95813D01*
G36*
X590116Y-25303D02*
X571116Y-25303D01*
X571116Y-6303D01*
X590116Y-6303D01*
X590116Y-25303D01*
G37*
X580616Y-41203D02*
G54D21*
D03*
G54D17*
X608384Y-36909D02*
X591741Y-36909D01*
X580616Y-41203D01*
G54D17*
X608384Y-24208D02*
X580942Y-15477D01*
G54D22*
X388517Y-60348D02*
X396350Y-55813D01*
X459040Y-55813D01*
X467122Y-63896D01*
X504451Y-63896D01*
G54D14*
X504766Y-63813D02*
X518318Y-63895D01*
X518319Y-79771D01*
X504765Y-79813D01*
G54D23*
X489744Y-71833D02*
X504766Y-71813D01*
G54D23*
X524272Y-88105D02*
X488950Y-88105D01*
G54D23*
X431403Y-80168D02*
X418703Y-80168D01*
X406797Y-80168D01*
G54D24*
X608384Y-62308D02*
X590153Y-62308D01*
X590154Y-104377D01*
X388517Y-59952D02*
G54D25*
D03*
X388516Y-78951D02*
G54D25*
D03*
G54D24*
X497608Y-260246D02*
X515041Y-260246D01*
X526653Y-271858D01*
X568722Y-271858D01*
X568722Y-195261D01*
X584200Y-179758D01*
X584199Y-163512D01*
X603648Y-132952D01*
X590154Y-104377D01*
G54D16*
X753269Y-79374D02*
X738188Y-82946D01*
X721990Y-99480D01*
G36*
X267063Y-44898D02*
X289063Y-44898D01*
X289063Y-66898D01*
X267063Y-66898D01*
X267063Y-44898D01*
G37*
X278064Y-30498D02*
G54D26*
D03*
X303464Y-55898D02*
G54D26*
D03*
X303464Y-30498D02*
G54D26*
D03*
X328864Y-55898D02*
G54D26*
D03*
X328864Y-30498D02*
G54D26*
D03*
X477044Y-142477D02*
G54D21*
D03*
G54D14*
X466266Y-118313D02*
X466266Y-132096D01*
X477043Y-142477D01*
G54D27*
X434266Y-33313D02*
X434555Y-19820D01*
X429419Y-14683D01*
X319881Y-14683D01*
X316309Y-18255D01*
X316309Y-36511D01*
X309562Y-43258D01*
X290703Y-43258D01*
X278063Y-55898D01*
G54D27*
X303464Y-30498D02*
X303464Y-20782D01*
X317500Y-6746D01*
X431403Y-6746D01*
X442119Y-17461D01*
X442266Y-33313D01*
G54D17*
X303464Y-55898D02*
X309562Y-52386D01*
X318691Y-43258D01*
X415607Y-43258D01*
X419766Y-47417D01*
G54D14*
X278064Y-30498D02*
X278064Y-28323D01*
X308372Y1986D01*
X563562Y1986D01*
X563562Y-77786D01*
X590154Y-104377D01*
G36*
X340403Y-51325D02*
X357403Y-51325D01*
X357403Y-69325D01*
X340403Y-69325D01*
X340403Y-51325D01*
G37*
X367903Y-60325D02*
G54D28*
D03*
G54D14*
X328864Y-55898D02*
X348903Y-60325D01*
G54D24*
X367903Y-60325D02*
X388118Y-60350D01*
X388517Y-59952D01*
G54D14*
X992188Y-136127D02*
X725487Y-136059D01*
G54D14*
G75*
G01X725487Y-136059D02*
G03X640487Y-221059I0J-85000D01*
G01*
G54D14*
X640556Y-221059D02*
X640556Y-329803D01*
G54D14*
G75*
G01X289787Y-221059D02*
G03X204787Y-136059I-85000J0D01*
G01*
G54D14*
X289787Y-221059D02*
X289787Y-329803D01*
G54D14*
X397Y-136128D02*
X204718Y-136128D01*
X204787Y-136059D01*
X18028Y-109933D02*
G54D29*
D03*
X98028Y-109933D02*
G54D30*
D03*
X135731Y-109933D02*
G54D11*
D03*
X161131Y-109933D02*
G54D11*
D03*
X186532Y-109933D02*
G54D11*
D03*
X98005Y-90858D02*
G54D25*
D03*
X98005Y-71858D02*
G54D25*
D03*
G54D14*
X98028Y-109933D02*
X135731Y-109933D01*
X590154Y-104377D02*
G54D31*
D03*
G36*
X598654Y-92377D02*
X619654Y-92377D01*
X619654Y-116377D01*
X598654Y-116377D01*
X598654Y-92377D01*
G37*
G36*
X647869Y-98592D02*
X647869Y-122592D01*
X623869Y-122592D01*
X623869Y-98592D01*
X647869Y-98592D01*
G37*
X661269Y-110592D02*
G54D11*
D03*
G54D17*
X251964Y-103186D02*
X274638Y-109140D01*
X295672Y-130174D01*
X349647Y-130174D01*
X369491Y-121443D01*
X402034Y-121443D01*
X419497Y-103980D01*
X251964Y-103186D02*
G54D28*
D03*
X232964Y-103186D02*
G54D28*
D03*
X454820Y-142477D02*
G54D21*
D03*
G54D17*
X437356Y-253602D02*
X409972Y-253602D01*
X397272Y-266302D01*
X369491Y-266302D01*
X350441Y-247252D01*
X350441Y-182164D01*
X375444Y-157161D01*
X427832Y-157161D01*
X450056Y-127396D01*
X450266Y-118313D01*
X301722Y-107010D02*
G54D32*
D03*
X301722Y-88010D02*
G54D32*
D03*
X37703Y-110330D02*
G54D28*
D03*
X56703Y-110330D02*
G54D28*
D03*
X324739Y-107061D02*
G54D32*
D03*
X324739Y-88062D02*
G54D32*
D03*
G54D17*
X348552Y-106663D02*
X324739Y-107061D01*
X301722Y-107010D01*
X333350Y-165868D02*
G54D32*
D03*
X333350Y-146868D02*
G54D32*
D03*
X504007Y-262755D02*
G54D33*
D03*
X504007Y-281754D02*
G54D33*
D03*
G54D24*
X480537Y-263903D02*
X499587Y-263903D01*
G36*
X531113Y-92756D02*
X556113Y-92755D01*
X556114Y-146755D01*
X531114Y-146756D01*
X531113Y-92756D01*
G37*
X543613Y-37999D02*
G54D34*
D03*
G54D35*
X504766Y-47813D02*
X527846Y-47813D01*
X543613Y-37999D01*
G54D17*
X504765Y-55813D02*
X526111Y-55813D01*
X529567Y-66178D01*
X540544Y-76199D01*
X543719Y-119650D01*
X543613Y-119756D01*
X348948Y-107060D02*
G54D25*
D03*
X348948Y-88060D02*
G54D25*
D03*
X603648Y-132952D02*
G54D31*
D03*
X584648Y-132952D02*
G54D31*
D03*
G54D36*
X9700Y-85090D02*
X13366Y-75312D01*
X17033Y-85090D01*
G54D36*
X11166Y-81423D02*
X15566Y-81423D01*
G54D36*
X20455Y-85090D02*
X20455Y-75312D01*
X26321Y-85090D01*
X26321Y-75312D01*
G54D36*
X32677Y-85090D02*
X32677Y-75312D01*
G54D36*
X29744Y-75312D02*
X35610Y-75312D01*
G54D36*
X39033Y-85090D02*
X46366Y-85090D01*
G54D36*
X55654Y-83256D02*
X54921Y-84478D01*
X53454Y-85090D01*
X51988Y-85090D01*
X50521Y-84478D01*
X49788Y-83256D01*
X49788Y-77145D01*
X50521Y-75923D01*
X51988Y-75312D01*
X53454Y-75312D01*
X54921Y-75923D01*
X55654Y-77145D01*
G54D36*
X59077Y-80201D02*
X60543Y-79590D01*
X62303Y-79590D01*
X63477Y-80812D01*
X63477Y-85090D01*
G54D36*
X63477Y-83256D02*
X62743Y-82034D01*
X61277Y-81790D01*
X59810Y-82034D01*
X59077Y-83256D01*
X59370Y-84478D01*
X60543Y-85090D01*
X61277Y-85090D01*
X61570Y-85090D01*
X62743Y-84478D01*
X63477Y-83256D01*
G54D36*
X66899Y-79590D02*
X66899Y-87534D01*
G54D36*
X66899Y-83256D02*
X67632Y-84845D01*
X69099Y-85090D01*
X70565Y-84845D01*
X71299Y-83623D01*
X71299Y-81178D01*
X70565Y-79956D01*
X69099Y-79590D01*
X67632Y-79956D01*
X66899Y-81423D01*
G54D36*
X81844Y-1342D02*
X81844Y-7453D01*
X81111Y-8675D01*
X79644Y-9286D01*
X78178Y-9286D01*
X76711Y-8675D01*
X75978Y-7453D01*
X75978Y-1342D01*
X76711Y-120D01*
X78178Y491D01*
X79644Y491D01*
X81111Y-120D01*
X81844Y-1342D01*
G54D36*
X89667Y-3786D02*
X89667Y-9286D01*
G54D36*
X89667Y-8064D02*
X88933Y-9042D01*
X87467Y-9286D01*
X86000Y-9042D01*
X85267Y-8064D01*
X85267Y-3786D01*
G54D36*
X94555Y491D02*
X94555Y-8675D01*
X95289Y-9286D01*
X96022Y-9042D01*
G54D36*
X93089Y-3786D02*
X96022Y-3786D01*
G54D36*
X103013Y-9286D02*
X103013Y491D01*
X106679Y491D01*
X108146Y-120D01*
X108879Y-1342D01*
X108879Y-2564D01*
X108146Y-3786D01*
X106679Y-4398D01*
X103013Y-4398D01*
G54D36*
X116702Y-7820D02*
X116702Y-5375D01*
X115968Y-4153D01*
X114502Y-3786D01*
X113035Y-4153D01*
X112302Y-5375D01*
X112302Y-7820D01*
X113035Y-9042D01*
X114502Y-9286D01*
X115968Y-9042D01*
X116702Y-7820D01*
G54D36*
X120124Y-3786D02*
X122324Y-9286D01*
X124524Y-3786D01*
X126724Y-9286D01*
X128190Y-3786D01*
G54D36*
X136013Y-8675D02*
X134839Y-9286D01*
X133373Y-9286D01*
X131906Y-8675D01*
X131613Y-7453D01*
X131613Y-5375D01*
X132346Y-4153D01*
X133813Y-3786D01*
X135279Y-4153D01*
X136013Y-5009D01*
X136013Y-6231D01*
X131613Y-6231D01*
G54D36*
X139435Y-9286D02*
X139435Y-3786D01*
G54D36*
X139435Y-5009D02*
X140901Y-3786D01*
X142368Y-3786D01*
G54D36*
X149359Y-9286D02*
X153025Y491D01*
X156692Y-9286D01*
G54D36*
X150825Y-5620D02*
X155225Y-5620D01*
G54D36*
X161580Y-1953D02*
X161580Y-1953D01*
G54D36*
X160114Y-11731D02*
X160847Y-11731D01*
X161580Y-10753D01*
X161580Y-3786D01*
G54D37*
X286867Y-150342D02*
X272725Y-136200D01*
X310359Y-146843D02*
G54D32*
D03*
X310359Y-165843D02*
G54D32*
D03*
X333375Y-187375D02*
G54D32*
D03*
X333375Y-206375D02*
G54D32*
D03*
X309563Y-187374D02*
G54D25*
D03*
X309562Y-206374D02*
G54D25*
D03*
G54D36*
X231553Y-130024D02*
X237419Y-130024D01*
G54D36*
X234486Y-127580D02*
X234486Y-132469D01*
G54D36*
X243775Y-134302D02*
X243775Y-124524D01*
G54D36*
X240842Y-124524D02*
X246708Y-124524D01*
G54D36*
X250131Y-124524D02*
X257464Y-134302D01*
G54D36*
X250131Y-134302D02*
X257464Y-124524D01*
X985837Y-85327D02*
G54D38*
D03*
X279797Y-87708D02*
G54D38*
D03*
G54D17*
X333375Y-187375D02*
X333350Y-165868D01*
G54D17*
X333375Y-187375D02*
X309932Y-187744D01*
X309562Y-187374D01*
X309568Y-166634D01*
X310359Y-165843D01*
G54D17*
X310359Y-146843D02*
X286940Y-145256D01*
G54D14*
X279797Y-87708D02*
X301722Y-88010D01*
X332184Y-279796D02*
G54D39*
D03*
G54D17*
X457597Y-294877D02*
X405209Y-294877D01*
X392906Y-282176D01*
X332184Y-282176D01*
X599281Y-298845D02*
G54D40*
D03*
G54D17*
X480616Y-298846D02*
X598884Y-298846D01*
X600472Y-300433D01*
G54D35*
X333375Y-146842D02*
X349647Y-146842D01*
X371872Y-138508D01*
X413940Y-138508D01*
X434181Y-118267D01*
G54D17*
X232964Y-103186D02*
X216297Y-103186D01*
X202009Y-88899D01*
X182166Y-88899D01*
X161131Y-109933D01*
G54D41*
X2381Y-4762D02*
X5714Y-1429D01*
X5714Y-10318D01*
G54D41*
X8825Y-3095D02*
X9492Y-1984D01*
X10825Y-1429D01*
X12159Y-1429D01*
X13492Y-1984D01*
X14159Y-3095D01*
X14159Y-4206D01*
X13492Y-5318D01*
X12159Y-5873D01*
X13492Y-6429D01*
X14159Y-7540D01*
X14159Y-8651D01*
X13492Y-9762D01*
X12159Y-10318D01*
X10825Y-10318D01*
X9492Y-9762D01*
X8825Y-8651D01*
G54D41*
X22603Y-3095D02*
X22603Y-8651D01*
X21936Y-9762D01*
X20603Y-10318D01*
X19269Y-10318D01*
X17936Y-9762D01*
X17269Y-8651D01*
X17269Y-3095D01*
X17936Y-1984D01*
X19269Y-1429D01*
X20603Y-1429D01*
X21936Y-1984D01*
X22603Y-3095D01*
G54D41*
X29713Y-5318D02*
X29713Y-10318D01*
G54D41*
X29713Y-9206D02*
X29047Y-10095D01*
X27713Y-10318D01*
X26380Y-10095D01*
X25713Y-9206D01*
X25713Y-5318D01*
G54D41*
X38158Y-3095D02*
X38158Y-8651D01*
X37491Y-9762D01*
X36158Y-10318D01*
X34824Y-10318D01*
X33491Y-9762D01*
X32824Y-8651D01*
X32824Y-3095D01*
X33491Y-1984D01*
X34824Y-1429D01*
X36158Y-1429D01*
X37491Y-1984D01*
X38158Y-3095D01*
G54D41*
X46602Y-10318D02*
X41268Y-10318D01*
X41268Y-9762D01*
X41935Y-8651D01*
X45935Y-5318D01*
X46602Y-4206D01*
X46602Y-3095D01*
X45935Y-1984D01*
X44602Y-1429D01*
X43268Y-1429D01*
X41935Y-1984D01*
X41268Y-3095D01*
G54D41*
X358775Y-25796D02*
X362108Y-22463D01*
X362108Y-31352D01*
G54D41*
X365219Y-24130D02*
X365886Y-23019D01*
X367219Y-22463D01*
X368552Y-22463D01*
X369886Y-23019D01*
X370552Y-24130D01*
X370552Y-25241D01*
X369886Y-26352D01*
X368552Y-26908D01*
X369886Y-27463D01*
X370552Y-28574D01*
X370552Y-29685D01*
X369886Y-30796D01*
X368552Y-31352D01*
X367219Y-31352D01*
X365886Y-30796D01*
X365219Y-29685D01*
G54D41*
X378996Y-24130D02*
X378996Y-29685D01*
X378330Y-30796D01*
X376996Y-31352D01*
X375663Y-31352D01*
X374330Y-30796D01*
X373663Y-29685D01*
X373663Y-24130D01*
X374330Y-23019D01*
X375663Y-22463D01*
X376996Y-22463D01*
X378330Y-23019D01*
X378996Y-24130D01*
G54D41*
X386107Y-26352D02*
X386107Y-31352D01*
G54D41*
X386107Y-30241D02*
X385440Y-31130D01*
X384107Y-31352D01*
X382774Y-31130D01*
X382107Y-30241D01*
X382107Y-26352D01*
G54D41*
X394551Y-24130D02*
X394551Y-29685D01*
X393885Y-30796D01*
X392551Y-31352D01*
X391218Y-31352D01*
X389885Y-30796D01*
X389218Y-29685D01*
X389218Y-24130D01*
X389885Y-23019D01*
X391218Y-22463D01*
X392551Y-22463D01*
X393885Y-23019D01*
X394551Y-24130D01*
G54D41*
X402995Y-31352D02*
X397662Y-31352D01*
X397662Y-30796D01*
X398329Y-29685D01*
X402329Y-26352D01*
X402995Y-25241D01*
X402995Y-24130D01*
X402329Y-23019D01*
X400995Y-22463D01*
X399662Y-22463D01*
X398329Y-23019D01*
X397662Y-24130D01*
G54D42*
X791310Y-115268D02*
X795310Y-111268D01*
X795310Y-121935D01*
G54D42*
X799043Y-113268D02*
X799843Y-111935D01*
X801443Y-111268D01*
X803043Y-111268D01*
X804643Y-111935D01*
X805443Y-113268D01*
X805443Y-114601D01*
X804643Y-115935D01*
X803043Y-116601D01*
X804643Y-117268D01*
X805443Y-118601D01*
X805443Y-119935D01*
X804643Y-121268D01*
X803043Y-121935D01*
X801443Y-121935D01*
X799843Y-121268D01*
X799043Y-119935D01*
G54D42*
X815576Y-113268D02*
X815576Y-119935D01*
X814776Y-121268D01*
X813176Y-121935D01*
X811576Y-121935D01*
X809976Y-121268D01*
X809176Y-119935D01*
X809176Y-113268D01*
X809976Y-111935D01*
X811576Y-111268D01*
X813176Y-111268D01*
X814776Y-111935D01*
X815576Y-113268D01*
G54D42*
X824109Y-115935D02*
X824109Y-121935D01*
G54D42*
X824109Y-120601D02*
X823309Y-121668D01*
X821709Y-121935D01*
X820109Y-121668D01*
X819309Y-120601D01*
X819309Y-115935D01*
G54D42*
X834242Y-113268D02*
X834242Y-119935D01*
X833442Y-121268D01*
X831842Y-121935D01*
X830242Y-121935D01*
X828642Y-121268D01*
X827842Y-119935D01*
X827842Y-113268D01*
X828642Y-111935D01*
X830242Y-111268D01*
X831842Y-111268D01*
X833442Y-111935D01*
X834242Y-113268D01*
G54D42*
X844375Y-121935D02*
X837975Y-121935D01*
X837975Y-121268D01*
X838775Y-119935D01*
X843575Y-115935D01*
X844375Y-114601D01*
X844375Y-113268D01*
X843575Y-111935D01*
X841975Y-111268D01*
X840375Y-111268D01*
X838775Y-111935D01*
X837975Y-113268D01*
G36*
X228389Y-78035D02*
X228389Y-56035D01*
X250389Y-56035D01*
X250389Y-78035D01*
X228389Y-78035D01*
G37*
X239389Y-41635D02*
G54D26*
D03*
X239389Y-16235D02*
G54D26*
D03*
G54D17*
X239389Y-16235D02*
X263800Y-16235D01*
X278064Y-30498D01*
G54D17*
X239389Y-41635D02*
X263800Y-41635D01*
X278063Y-55898D01*
X698198Y-44752D02*
G54D32*
D03*
X698198Y-25753D02*
G54D32*
D03*
X698226Y-89968D02*
G54D32*
D03*
X698226Y-70968D02*
G54D32*
D03*
G54D17*
X662384Y-36908D02*
X681485Y-36908D01*
X698198Y-44752D01*
X722410Y-47131D02*
G54D32*
D03*
X722410Y-66131D02*
G54D32*
D03*
G54D17*
X698226Y-89968D02*
X661269Y-110592D01*
G54D17*
X698226Y-70968D02*
X698198Y-44752D01*
X721991Y-23280D02*
G54D11*
D03*
X721990Y-99480D02*
G54D11*
D03*
G54D17*
X698226Y-89968D02*
X716359Y-81358D01*
X721594Y-66947D01*
G54D14*
X722013Y-47131D02*
X722013Y-23303D01*
G36*
X993378Y2382D02*
X775494Y2382D01*
X766366Y-6746D01*
X766366Y-64293D01*
X755650Y-71833D01*
X755650Y-87311D01*
X781844Y-87311D01*
X796528Y-72627D01*
X796528Y-29764D01*
X809625Y-16668D01*
X845344Y-16668D01*
X857250Y-28575D01*
X857250Y-67865D01*
X993378Y-67864D01*
X993378Y2382D01*
G37*
G54D14*
X993378Y2382D02*
X775494Y2382D01*
X766366Y-6746D01*
X766366Y-64293D01*
X755650Y-71833D01*
X755650Y-87311D01*
X781844Y-87311D01*
X796528Y-72627D01*
X796528Y-29764D01*
X809625Y-16668D01*
X845344Y-16668D01*
X857250Y-28575D01*
X857250Y-67865D01*
X993378Y-67864D01*
X993378Y2382D01*
G54D42*
X790052Y-90631D02*
X790052Y-99297D01*
X790852Y-100631D01*
X792452Y-101297D01*
X794052Y-101297D01*
X795652Y-100631D01*
X796452Y-99297D01*
X796452Y-90631D01*
G54D42*
X800185Y-101297D02*
X800185Y-90631D01*
X804185Y-90631D01*
X805785Y-91297D01*
X806585Y-92631D01*
X806585Y-99297D01*
X805785Y-100631D01*
X804185Y-101297D01*
X800185Y-101297D01*
G54D42*
X816718Y-92631D02*
X816718Y-99297D01*
X815918Y-100631D01*
X814318Y-101297D01*
X812718Y-101297D01*
X811118Y-100631D01*
X810318Y-99297D01*
X810318Y-92631D01*
X811118Y-91297D01*
X812718Y-90631D01*
X814318Y-90631D01*
X815918Y-91297D01*
X816718Y-92631D01*
G54D42*
X826851Y-99297D02*
X826051Y-100631D01*
X824451Y-101297D01*
X822851Y-101297D01*
X821251Y-100631D01*
X820451Y-99297D01*
X820451Y-92631D01*
X821251Y-91297D01*
X822851Y-90631D01*
X824451Y-90631D01*
X826051Y-91297D01*
X826851Y-92631D01*
G54D42*
X830584Y-101297D02*
X834584Y-90631D01*
X838584Y-101297D01*
G54D42*
X832184Y-97297D02*
X836984Y-97297D01*
G54D42*
X848717Y-90631D02*
X848717Y-99297D01*
X847917Y-100631D01*
X846317Y-101297D01*
X844717Y-101297D01*
X843117Y-100631D01*
X842317Y-99297D01*
G54D36*
X313706Y-229949D02*
X319572Y-229949D01*
G54D36*
X316639Y-229949D02*
X316639Y-220171D01*
G54D36*
X313706Y-220171D02*
X319572Y-220171D01*
G54D36*
X322995Y-229949D02*
X322995Y-220171D01*
X328128Y-220171D01*
G54D36*
X322995Y-225060D02*
X328128Y-225060D01*
G54D36*
X589137Y-268193D02*
X592804Y-277971D01*
X596470Y-268193D01*
G54D36*
X599892Y-277971D02*
X599892Y-268193D01*
X605025Y-268193D01*
G54D36*
X599892Y-273082D02*
X605025Y-273082D01*
G54D36*
X614314Y-270026D02*
X614314Y-276138D01*
X613580Y-277360D01*
X612114Y-277971D01*
X610647Y-277971D01*
X609180Y-277360D01*
X608447Y-276138D01*
X608447Y-270026D01*
X609180Y-268804D01*
X610647Y-268193D01*
X612114Y-268193D01*
X613580Y-268804D01*
X614314Y-270026D01*
X584200Y-233758D02*
G54D43*
D03*
X596900Y-233758D02*
G54D43*
D03*
X609600Y-233758D02*
G54D43*
D03*
G36*
X616800Y-220758D02*
X627800Y-220757D01*
X627801Y-246757D01*
X616801Y-246758D01*
X616800Y-220758D01*
G37*
X622300Y-179758D02*
G54D43*
D03*
G36*
X604099Y-166758D02*
X615099Y-166758D01*
X615100Y-192758D01*
X604100Y-192758D01*
X604099Y-166758D01*
G37*
X596900Y-179758D02*
G54D43*
D03*
G36*
X578700Y-166759D02*
X589700Y-166758D01*
X589700Y-192758D01*
X578700Y-192759D01*
X578700Y-166759D01*
G37*
G36*
X625332Y-164040D02*
X625332Y-145040D01*
X644332Y-145040D01*
X644332Y-164040D01*
X625332Y-164040D01*
G37*
X609431Y-154540D02*
G54D21*
D03*
G54D17*
X622300Y-179758D02*
X634832Y-154540D01*
G54D17*
X609600Y-179758D02*
X609431Y-154540D01*
X415528Y-26986D02*
G54D44*
D03*
X549275Y-314324D02*
G54D44*
D03*
X307975Y-307180D02*
G54D44*
D03*
X635794Y-92074D02*
G54D44*
D03*
X567134Y-165496D02*
G54D44*
D03*
G36*
X365753Y-93393D02*
X382753Y-93393D01*
X382753Y-111393D01*
X365753Y-111393D01*
X365753Y-93393D01*
G37*
X393253Y-102393D02*
G54D28*
D03*
G54D17*
X348948Y-107060D02*
X369586Y-107060D01*
X374253Y-102393D01*
G54D35*
X393253Y-102393D02*
X403224Y-102393D01*
X409574Y-96043D01*
X419536Y-96043D01*
X419765Y-95814D01*
G54D35*
X473869Y-63896D02*
X539749Y1985D01*
G36*
X467122Y-63896D02*
X459436Y-56210D01*
X459436Y-49753D01*
X460771Y-48418D01*
X490140Y-48418D01*
X490140Y-60323D01*
X493712Y-63896D01*
X467122Y-63896D01*
G37*
G54D17*
X467122Y-63896D02*
X459436Y-56210D01*
X459436Y-49753D01*
X460771Y-48418D01*
X490140Y-48418D01*
X490140Y-60323D01*
X493712Y-63896D01*
X467122Y-63896D01*
X385341Y-309190D02*
G54D45*
D03*
X366341Y-309189D02*
G54D45*
D03*
G36*
X399487Y-302547D02*
X416487Y-302546D01*
X416487Y-320546D01*
X399487Y-320547D01*
X399487Y-302547D01*
G37*
X426987Y-311546D02*
G54D28*
D03*
G54D17*
X407987Y-311546D02*
X385341Y-309190D01*
G54D17*
X426987Y-311546D02*
X439340Y-311546D01*
X446880Y-319087D01*
X472280Y-319087D01*
X473868Y-317499D01*
X473868Y-307974D01*
G36*
X480615Y-263921D02*
X504030Y-263921D01*
X504030Y-257174D01*
X494902Y-248046D01*
X480615Y-248046D01*
X480615Y-263921D01*
G37*
G54D17*
X480615Y-263921D02*
X504030Y-263921D01*
X504030Y-257174D01*
X494902Y-248046D01*
X480615Y-248046D01*
X480615Y-263921D01*
G36*
X512187Y-154686D02*
X533187Y-154686D01*
X533187Y-178686D01*
X512187Y-178686D01*
X512187Y-154686D01*
G37*
X541686Y-166686D02*
G54D31*
D03*
G36*
X474087Y-176911D02*
X495087Y-176911D01*
X495087Y-200911D01*
X474087Y-200911D01*
X474087Y-176911D01*
G37*
X503586Y-188911D02*
G54D31*
D03*
X359917Y-235742D02*
G54D31*
D03*
X340918Y-235742D02*
G54D31*
D03*
G54D46*
X488156Y-101598D02*
X480218Y-93661D01*
G54D22*
X680640Y-62308D02*
X665559Y-62308D01*
G54D22*
X584201Y-230979D02*
X584200Y-215898D01*
G54D47*
X604045Y-134539D02*
X662384Y-134540D01*
X721990Y-99480D01*
G54D17*
X494506Y-248045D02*
X500062Y-242489D01*
G36*
X513265Y-104813D02*
X511266Y-106813D01*
X500265Y-106814D01*
X499266Y-105813D01*
X499266Y-101813D01*
X500266Y-100813D01*
X511266Y-100814D01*
X513266Y-102813D01*
X513265Y-104813D01*
G37*
G54D48*
X513265Y-104813D02*
X511266Y-106813D01*
X500265Y-106814D01*
X499266Y-105813D01*
X499266Y-101813D01*
X500266Y-100813D01*
X511266Y-100814D01*
X513266Y-102813D01*
X513265Y-104813D01*
G36*
X513266Y-96813D02*
X511266Y-98813D01*
X500265Y-98813D01*
X499266Y-97813D01*
X499265Y-93814D01*
X500266Y-92814D01*
X511266Y-92814D01*
X513266Y-94814D01*
X513266Y-96813D01*
G37*
G54D48*
X513266Y-96813D02*
X511266Y-98813D01*
X500265Y-98813D01*
X499266Y-97813D01*
X499265Y-93814D01*
X500266Y-92814D01*
X511266Y-92814D01*
X513266Y-94814D01*
X513266Y-96813D01*
X504766Y-103813D02*
G54D49*
D03*
X504766Y-95813D02*
G54D49*
D03*
G36*
X513266Y-88813D02*
X511266Y-90813D01*
X500266Y-90814D01*
X499266Y-89813D01*
X499265Y-85813D01*
X500266Y-84813D01*
X511266Y-84813D01*
X513265Y-86813D01*
X513266Y-88813D01*
G37*
G54D48*
X513266Y-88813D02*
X511266Y-90813D01*
X500266Y-90814D01*
X499266Y-89813D01*
X499265Y-85813D01*
X500266Y-84813D01*
X511266Y-84813D01*
X513265Y-86813D01*
X513266Y-88813D01*
G36*
X513265Y-80813D02*
X511266Y-82814D01*
X500266Y-82814D01*
X499265Y-81813D01*
X499266Y-77813D01*
X500266Y-76814D01*
X511266Y-76813D01*
X513266Y-78813D01*
X513265Y-80813D01*
G37*
G54D48*
X513265Y-80813D02*
X511266Y-82814D01*
X500266Y-82814D01*
X499265Y-81813D01*
X499266Y-77813D01*
X500266Y-76814D01*
X511266Y-76813D01*
X513266Y-78813D01*
X513265Y-80813D01*
X504765Y-87813D02*
G54D49*
D03*
X504765Y-79813D02*
G54D49*
D03*
G36*
X513266Y-72813D02*
X511265Y-74813D01*
X500265Y-74813D01*
X499265Y-73813D01*
X499265Y-69814D01*
X500266Y-68814D01*
X511265Y-68814D01*
X513265Y-70814D01*
X513266Y-72813D01*
G37*
G54D48*
X513266Y-72813D02*
X511265Y-74813D01*
X500265Y-74813D01*
X499265Y-73813D01*
X499265Y-69814D01*
X500266Y-68814D01*
X511265Y-68814D01*
X513265Y-70814D01*
X513266Y-72813D01*
G36*
X513266Y-64813D02*
X511266Y-66813D01*
X500266Y-66813D01*
X499266Y-65813D01*
X499265Y-61813D01*
X500266Y-60813D01*
X511265Y-60813D01*
X513265Y-62813D01*
X513266Y-64813D01*
G37*
G54D48*
X513266Y-64813D02*
X511266Y-66813D01*
X500266Y-66813D01*
X499266Y-65813D01*
X499265Y-61813D01*
X500266Y-60813D01*
X511265Y-60813D01*
X513265Y-62813D01*
X513266Y-64813D01*
X504766Y-71813D02*
G54D49*
D03*
X504766Y-63813D02*
G54D49*
D03*
G36*
X513265Y-56813D02*
X511265Y-58813D01*
X500266Y-58813D01*
X499266Y-57814D01*
X499266Y-53813D01*
X500266Y-52813D01*
X511266Y-52813D01*
X513266Y-54814D01*
X513265Y-56813D01*
G37*
G54D48*
X513265Y-56813D02*
X511265Y-58813D01*
X500266Y-58813D01*
X499266Y-57814D01*
X499266Y-53813D01*
X500266Y-52813D01*
X511266Y-52813D01*
X513266Y-54814D01*
X513265Y-56813D01*
G36*
X513265Y-48814D02*
X511266Y-50813D01*
X500266Y-50813D01*
X499265Y-49813D01*
X499266Y-45814D01*
X500265Y-44813D01*
X511266Y-44814D01*
X513266Y-46813D01*
X513265Y-48814D01*
G37*
G54D48*
X513265Y-48814D02*
X511266Y-50813D01*
X500266Y-50813D01*
X499265Y-49813D01*
X499266Y-45814D01*
X500265Y-44813D01*
X511266Y-44814D01*
X513266Y-46813D01*
X513265Y-48814D01*
X504765Y-55813D02*
G54D49*
D03*
X504766Y-47813D02*
G54D49*
D03*
G36*
X433266Y-126813D02*
X431266Y-124813D01*
X431266Y-113813D01*
X432266Y-112813D01*
X436265Y-112813D01*
X437265Y-113813D01*
X437266Y-124813D01*
X435266Y-126814D01*
X433266Y-126813D01*
G37*
G54D48*
X433266Y-126813D02*
X431266Y-124813D01*
X431266Y-113813D01*
X432266Y-112813D01*
X436265Y-112813D01*
X437265Y-113813D01*
X437266Y-124813D01*
X435266Y-126814D01*
X433266Y-126813D01*
G36*
X441265Y-126813D02*
X439266Y-124813D01*
X439266Y-113813D01*
X440266Y-112813D01*
X444266Y-112813D01*
X445266Y-113814D01*
X445265Y-124813D01*
X443265Y-126813D01*
X441265Y-126813D01*
G37*
G54D48*
X441265Y-126813D02*
X439266Y-124813D01*
X439266Y-113813D01*
X440266Y-112813D01*
X444266Y-112813D01*
X445266Y-113814D01*
X445265Y-124813D01*
X443265Y-126813D01*
X441265Y-126813D01*
X434266Y-118313D02*
G54D49*
D03*
X442266Y-118313D02*
G54D49*
D03*
G36*
X449266Y-126814D02*
X447266Y-124813D01*
X447266Y-113813D01*
X448266Y-112813D01*
X452266Y-112814D01*
X453266Y-113813D01*
X453265Y-124814D01*
X451266Y-126813D01*
X449266Y-126814D01*
G37*
G54D48*
X449266Y-126814D02*
X447266Y-124813D01*
X447266Y-113813D01*
X448266Y-112813D01*
X452266Y-112814D01*
X453266Y-113813D01*
X453265Y-124814D01*
X451266Y-126813D01*
X449266Y-126814D01*
G36*
X457266Y-126813D02*
X455265Y-124813D01*
X455266Y-113813D01*
X456266Y-112813D01*
X460266Y-112813D01*
X461266Y-113813D01*
X461266Y-124813D01*
X459266Y-126814D01*
X457266Y-126813D01*
G37*
G54D48*
X457266Y-126813D02*
X455265Y-124813D01*
X455266Y-113813D01*
X456266Y-112813D01*
X460266Y-112813D01*
X461266Y-113813D01*
X461266Y-124813D01*
X459266Y-126814D01*
X457266Y-126813D01*
X450266Y-118313D02*
G54D49*
D03*
X458266Y-118314D02*
G54D49*
D03*
G36*
X465265Y-126813D02*
X463265Y-124813D01*
X463266Y-113813D01*
X464266Y-112813D01*
X468266Y-112813D01*
X469266Y-113813D01*
X469265Y-124813D01*
X467265Y-126813D01*
X465265Y-126813D01*
G37*
G54D48*
X465265Y-126813D02*
X463265Y-124813D01*
X463266Y-113813D01*
X464266Y-112813D01*
X468266Y-112813D01*
X469266Y-113813D01*
X469265Y-124813D01*
X467265Y-126813D01*
X465265Y-126813D01*
G36*
X473266Y-126813D02*
X471266Y-124813D01*
X471265Y-113813D01*
X472266Y-112813D01*
X476266Y-112814D01*
X477266Y-113813D01*
X477266Y-124813D01*
X475266Y-126813D01*
X473266Y-126813D01*
G37*
G54D48*
X473266Y-126813D02*
X471266Y-124813D01*
X471265Y-113813D01*
X472266Y-112813D01*
X476266Y-112814D01*
X477266Y-113813D01*
X477266Y-124813D01*
X475266Y-126813D01*
X473266Y-126813D01*
X466266Y-118313D02*
G54D49*
D03*
X474266Y-118313D02*
G54D49*
D03*
G36*
X481266Y-126813D02*
X479265Y-124813D01*
X479266Y-113814D01*
X480265Y-112814D01*
X484265Y-112813D01*
X485265Y-113814D01*
X485266Y-124813D01*
X483266Y-126813D01*
X481266Y-126813D01*
G37*
G54D48*
X481266Y-126813D02*
X479265Y-124813D01*
X479266Y-113814D01*
X480265Y-112814D01*
X484265Y-112813D01*
X485265Y-113814D01*
X485266Y-124813D01*
X483266Y-126813D01*
X481266Y-126813D01*
G36*
X489266Y-126813D02*
X487266Y-124814D01*
X487266Y-113813D01*
X488266Y-112813D01*
X492266Y-112813D01*
X493266Y-113814D01*
X493266Y-124813D01*
X491265Y-126814D01*
X489266Y-126813D01*
G37*
G54D48*
X489266Y-126813D02*
X487266Y-124814D01*
X487266Y-113813D01*
X488266Y-112813D01*
X492266Y-112813D01*
X493266Y-113814D01*
X493266Y-124813D01*
X491265Y-126814D01*
X489266Y-126813D01*
X482265Y-118313D02*
G54D49*
D03*
X490265Y-118313D02*
G54D49*
D03*
G36*
X411266Y-46813D02*
X413266Y-44813D01*
X424265Y-44814D01*
X425266Y-45814D01*
X425266Y-49813D01*
X424266Y-50813D01*
X413266Y-50813D01*
X411266Y-48814D01*
X411266Y-46813D01*
G37*
G54D48*
X411266Y-46813D02*
X413266Y-44813D01*
X424265Y-44814D01*
X425266Y-45814D01*
X425266Y-49813D01*
X424266Y-50813D01*
X413266Y-50813D01*
X411266Y-48814D01*
X411266Y-46813D01*
G36*
X411266Y-54814D02*
X413266Y-52813D01*
X424266Y-52813D01*
X425266Y-53813D01*
X425266Y-57813D01*
X424266Y-58813D01*
X413266Y-58813D01*
X411266Y-56813D01*
X411266Y-54814D01*
G37*
G54D48*
X411266Y-54814D02*
X413266Y-52813D01*
X424266Y-52813D01*
X425266Y-53813D01*
X425266Y-57813D01*
X424266Y-58813D01*
X413266Y-58813D01*
X411266Y-56813D01*
X411266Y-54814D01*
G36*
X415265Y-43314D02*
X424265Y-43313D01*
X424266Y-52313D01*
X415266Y-52314D01*
X415265Y-43314D01*
G37*
G36*
X415266Y-51314D02*
X424266Y-51313D01*
X424266Y-60313D01*
X415266Y-60314D01*
X415266Y-51314D01*
G37*
G36*
X411266Y-62813D02*
X413265Y-60814D01*
X424266Y-60814D01*
X425266Y-61814D01*
X425266Y-65813D01*
X424266Y-66814D01*
X413265Y-66814D01*
X411266Y-64813D01*
X411266Y-62813D01*
G37*
G54D48*
X411266Y-62813D02*
X413265Y-60814D01*
X424266Y-60814D01*
X425266Y-61814D01*
X425266Y-65813D01*
X424266Y-66814D01*
X413265Y-66814D01*
X411266Y-64813D01*
X411266Y-62813D01*
G36*
X411266Y-70813D02*
X413265Y-68813D01*
X424266Y-68813D01*
X425265Y-69814D01*
X425266Y-73813D01*
X424266Y-74813D01*
X413266Y-74813D01*
X411266Y-72814D01*
X411266Y-70813D01*
G37*
G54D48*
X411266Y-70813D02*
X413265Y-68813D01*
X424266Y-68813D01*
X425265Y-69814D01*
X425266Y-73813D01*
X424266Y-74813D01*
X413266Y-74813D01*
X411266Y-72814D01*
X411266Y-70813D01*
X419766Y-63813D02*
G54D49*
D03*
X419766Y-71813D02*
G54D49*
D03*
G36*
X411266Y-78814D02*
X413266Y-76813D01*
X424266Y-76813D01*
X425266Y-77813D01*
X425266Y-81814D01*
X424266Y-82813D01*
X413266Y-82813D01*
X411266Y-80814D01*
X411266Y-78814D01*
G37*
G54D48*
X411266Y-78814D02*
X413266Y-76813D01*
X424266Y-76813D01*
X425266Y-77813D01*
X425266Y-81814D01*
X424266Y-82813D01*
X413266Y-82813D01*
X411266Y-80814D01*
X411266Y-78814D01*
G36*
X411266Y-86813D02*
X413266Y-84813D01*
X424265Y-84813D01*
X425266Y-85814D01*
X425266Y-89813D01*
X424265Y-90813D01*
X413266Y-90813D01*
X411266Y-88813D01*
X411266Y-86813D01*
G37*
G54D48*
X411266Y-86813D02*
X413266Y-84813D01*
X424265Y-84813D01*
X425266Y-85814D01*
X425266Y-89813D01*
X424265Y-90813D01*
X413266Y-90813D01*
X411266Y-88813D01*
X411266Y-86813D01*
X419766Y-79813D02*
G54D49*
D03*
X419766Y-87813D02*
G54D49*
D03*
G36*
X411266Y-94813D02*
X413265Y-92813D01*
X424266Y-92813D01*
X425265Y-93813D01*
X425266Y-97813D01*
X424266Y-98813D01*
X413265Y-98813D01*
X411266Y-96813D01*
X411266Y-94813D01*
G37*
G54D48*
X411266Y-94813D02*
X413265Y-92813D01*
X424266Y-92813D01*
X425265Y-93813D01*
X425266Y-97813D01*
X424266Y-98813D01*
X413265Y-98813D01*
X411266Y-96813D01*
X411266Y-94813D01*
G36*
X411266Y-102814D02*
X413266Y-100813D01*
X424265Y-100813D01*
X425266Y-101813D01*
X425265Y-105813D01*
X424266Y-106813D01*
X413266Y-106814D01*
X411266Y-104813D01*
X411266Y-102814D01*
G37*
G54D48*
X411266Y-102814D02*
X413266Y-100813D01*
X424265Y-100813D01*
X425266Y-101813D01*
X425265Y-105813D01*
X424266Y-106813D01*
X413266Y-106814D01*
X411266Y-104813D01*
X411266Y-102814D01*
G36*
X415265Y-91314D02*
X424265Y-91314D01*
X424266Y-100314D01*
X415266Y-100314D01*
X415265Y-91314D01*
G37*
X419766Y-103813D02*
G54D49*
D03*
G36*
X491266Y-24813D02*
X493266Y-26814D01*
X493265Y-37813D01*
X492266Y-38813D01*
X488266Y-38813D01*
X487265Y-37813D01*
X487266Y-26813D01*
X489266Y-24813D01*
X491266Y-24813D01*
G37*
G54D48*
X491266Y-24813D02*
X493266Y-26814D01*
X493265Y-37813D01*
X492266Y-38813D01*
X488266Y-38813D01*
X487265Y-37813D01*
X487266Y-26813D01*
X489266Y-24813D01*
X491266Y-24813D01*
G36*
X483266Y-24814D02*
X485265Y-26813D01*
X485266Y-37813D01*
X484266Y-38814D01*
X480265Y-38813D01*
X479265Y-37813D01*
X479266Y-26813D01*
X481266Y-24813D01*
X483266Y-24814D01*
G37*
G54D48*
X483266Y-24814D02*
X485265Y-26813D01*
X485266Y-37813D01*
X484266Y-38814D01*
X480265Y-38813D01*
X479265Y-37813D01*
X479266Y-26813D01*
X481266Y-24813D01*
X483266Y-24814D01*
X490266Y-33313D02*
G54D49*
D03*
X482266Y-33314D02*
G54D49*
D03*
G36*
X475266Y-24813D02*
X477265Y-26813D01*
X477265Y-37813D01*
X476265Y-38813D01*
X472266Y-38813D01*
X471266Y-37814D01*
X471266Y-26814D01*
X473265Y-24813D01*
X475266Y-24813D01*
G37*
G54D48*
X475266Y-24813D02*
X477265Y-26813D01*
X477265Y-37813D01*
X476265Y-38813D01*
X472266Y-38813D01*
X471266Y-37814D01*
X471266Y-26814D01*
X473265Y-24813D01*
X475266Y-24813D01*
G36*
X467266Y-24814D02*
X469265Y-26814D01*
X469266Y-37814D01*
X468266Y-38813D01*
X464266Y-38814D01*
X463266Y-37813D01*
X463266Y-26813D01*
X465266Y-24813D01*
X467266Y-24814D01*
G37*
G54D48*
X467266Y-24814D02*
X469265Y-26814D01*
X469266Y-37814D01*
X468266Y-38813D01*
X464266Y-38814D01*
X463266Y-37813D01*
X463266Y-26813D01*
X465266Y-24813D01*
X467266Y-24814D01*
X474266Y-33313D02*
G54D49*
D03*
X466266Y-33313D02*
G54D49*
D03*
G36*
X459266Y-24813D02*
X461266Y-26813D01*
X461266Y-37814D01*
X460265Y-38813D01*
X456265Y-38813D01*
X455265Y-37814D01*
X455265Y-26813D01*
X457265Y-24813D01*
X459266Y-24813D01*
G37*
G54D48*
X459266Y-24813D02*
X461266Y-26813D01*
X461266Y-37814D01*
X460265Y-38813D01*
X456265Y-38813D01*
X455265Y-37814D01*
X455265Y-26813D01*
X457265Y-24813D01*
X459266Y-24813D01*
G36*
X451266Y-24813D02*
X453265Y-26813D01*
X453266Y-37813D01*
X452265Y-38813D01*
X448266Y-38813D01*
X447266Y-37814D01*
X447266Y-26813D01*
X449266Y-24814D01*
X451266Y-24813D01*
G37*
G54D48*
X451266Y-24813D02*
X453265Y-26813D01*
X453266Y-37813D01*
X452265Y-38813D01*
X448266Y-38813D01*
X447266Y-37814D01*
X447266Y-26813D01*
X449266Y-24814D01*
X451266Y-24813D01*
X458266Y-33313D02*
G54D49*
D03*
X450266Y-33313D02*
G54D49*
D03*
G36*
X443266Y-24814D02*
X445265Y-26814D01*
X445266Y-37813D01*
X444266Y-38813D01*
X440265Y-38813D01*
X439266Y-37813D01*
X439266Y-26813D01*
X441266Y-24814D01*
X443266Y-24814D01*
G37*
G54D48*
X443266Y-24814D02*
X445265Y-26814D01*
X445266Y-37813D01*
X444266Y-38813D01*
X440265Y-38813D01*
X439266Y-37813D01*
X439266Y-26813D01*
X441266Y-24814D01*
X443266Y-24814D01*
G36*
X435266Y-24814D02*
X437266Y-26813D01*
X437265Y-37813D01*
X436266Y-38813D01*
X432266Y-38813D01*
X431265Y-37814D01*
X431265Y-26813D01*
X433266Y-24813D01*
X435266Y-24814D01*
G37*
G54D48*
X435266Y-24814D02*
X437266Y-26813D01*
X437265Y-37813D01*
X436266Y-38813D01*
X432266Y-38813D01*
X431265Y-37814D01*
X431265Y-26813D01*
X433266Y-24813D01*
X435266Y-24814D01*
X442266Y-33313D02*
G54D49*
D03*
X434266Y-33313D02*
G54D49*
D03*
G36*
X902494Y-75803D02*
X856456Y-75803D01*
X856456Y-130175D01*
X902097Y-130175D01*
X902494Y-75803D01*
G37*
G54D14*
X902494Y-75803D02*
X856456Y-75803D01*
X856456Y-130175D01*
X902097Y-130175D01*
X902494Y-75803D01*
G36*
X908050Y-130572D02*
X908050Y-61119D01*
X927894Y-61119D01*
X927894Y-130572D01*
X908050Y-130572D01*
G37*
G54D14*
X908050Y-130572D02*
X908050Y-61119D01*
X927894Y-61119D01*
X927894Y-130572D01*
X908050Y-130572D01*
G36*
X-3175Y-135731D02*
X-3969Y-331391D01*
X288925Y-331391D01*
X288925Y-220266D01*
X282575Y-190103D01*
X267097Y-166291D01*
X243681Y-147638D01*
X228203Y-141288D01*
X211534Y-136922D01*
X-3175Y-135731D01*
G37*
G54D46*
X-3175Y-135731D02*
X-3969Y-331391D01*
X288925Y-331391D01*
X288925Y-220266D01*
X282575Y-190103D01*
X267097Y-166291D01*
X243681Y-147638D01*
X228203Y-141288D01*
X211534Y-136922D01*
X-3175Y-135731D01*
G36*
X996156Y-136525D02*
X996156Y-330597D01*
X642540Y-330597D01*
X642540Y-219472D01*
X648890Y-189309D01*
X664368Y-165497D01*
X687784Y-146844D01*
X703262Y-140494D01*
X719930Y-136128D01*
X996156Y-136525D01*
G37*
G54D46*
X996156Y-136525D02*
X996156Y-330597D01*
X642540Y-330597D01*
X642540Y-219472D01*
X648890Y-189309D01*
X664368Y-165497D01*
X687784Y-146844D01*
X703262Y-140494D01*
X719930Y-136128D01*
X996156Y-136525D01*
%LPD*%
G54D50*
G36*
X35720Y-44846D02*
X35720Y-17346D01*
X52386Y-17346D01*
X52386Y-44846D01*
X35720Y-44846D01*
G37*
G36*
X44053Y-36513D02*
X71553Y-36513D01*
X71553Y-53179D01*
X44053Y-53179D01*
X44053Y-36513D01*
G37*
G36*
X52386Y-44846D02*
X52386Y-72346D01*
X35720Y-72346D01*
X35720Y-44846D01*
X52386Y-44846D01*
G37*
G36*
X44053Y-53179D02*
X16553Y-53179D01*
X16553Y-36513D01*
X44053Y-36513D01*
X44053Y-53179D01*
G37*
G54D51*
G36*
X825103Y-34846D02*
X852603Y-34846D01*
X852603Y-54846D01*
X825103Y-54846D01*
X825103Y-34846D01*
G37*
G36*
X835103Y-44846D02*
X835103Y-72346D01*
X815103Y-72346D01*
X815103Y-44846D01*
X835103Y-44846D01*
G37*
G54D52*
G36*
X753269Y-108107D02*
X740769Y-108107D01*
X740769Y-101440D01*
X753269Y-101440D01*
X753269Y-108107D01*
G37*
G36*
X753269Y-101440D02*
X765769Y-101440D01*
X765769Y-108107D01*
X753269Y-108107D01*
X753269Y-101440D01*
G37*
G36*
X756602Y-104773D02*
X756602Y-117273D01*
X749935Y-117273D01*
X749935Y-104773D01*
X756602Y-104773D01*
G37*
G54D52*
G36*
X379809Y-217726D02*
X392309Y-217726D01*
X392309Y-224392D01*
X379809Y-224392D01*
X379809Y-217726D01*
G37*
G36*
X379809Y-224392D02*
X367309Y-224392D01*
X367309Y-217726D01*
X379809Y-217726D01*
X379809Y-224392D01*
G37*
G54D52*
G36*
X532209Y-243126D02*
X544709Y-243126D01*
X544709Y-249792D01*
X532209Y-249792D01*
X532209Y-243126D01*
G37*
G36*
X535542Y-246459D02*
X535542Y-258959D01*
X528876Y-258959D01*
X528876Y-246459D01*
X535542Y-246459D01*
G37*
G36*
X532209Y-249792D02*
X519709Y-249792D01*
X519709Y-243126D01*
X532209Y-243126D01*
X532209Y-249792D01*
G37*
G36*
X528876Y-246459D02*
X528876Y-233959D01*
X535542Y-233959D01*
X535542Y-246459D01*
X528876Y-246459D01*
G37*
G54D53*
G36*
X662383Y-27452D02*
X648883Y-27452D01*
X648883Y-20965D01*
X662383Y-20965D01*
X662383Y-27452D01*
G37*
G36*
X659140Y-24208D02*
X659140Y-18208D01*
X665627Y-18208D01*
X665627Y-24208D01*
X659140Y-24208D01*
G37*
G36*
X662383Y-20965D02*
X675883Y-20965D01*
X675883Y-27452D01*
X662383Y-27452D01*
X662383Y-20965D01*
G37*
G54D46*
G36*
X470336Y-300477D02*
X470334Y-312977D01*
X467334Y-312977D01*
X467336Y-300477D01*
X470336Y-300477D01*
G37*
G36*
X467336Y-300477D02*
X467337Y-287977D01*
X470337Y-287977D01*
X470336Y-300477D01*
X467336Y-300477D01*
G37*
G54D54*
G36*
X388516Y-76785D02*
X399016Y-76784D01*
X399017Y-81117D01*
X388517Y-81118D01*
X388516Y-76785D01*
G37*
G36*
X390683Y-78951D02*
X390683Y-87951D01*
X386350Y-87951D01*
X386350Y-78951D01*
X390683Y-78951D01*
G37*
G36*
X388517Y-81118D02*
X378017Y-81118D01*
X378016Y-76785D01*
X388516Y-76785D01*
X388517Y-81118D01*
G37*
G54D27*
G36*
X325864Y-30498D02*
X325864Y-18998D01*
X331864Y-18998D01*
X331864Y-30498D01*
X325864Y-30498D01*
G37*
G36*
X328864Y-27498D02*
X340364Y-27498D01*
X340364Y-33498D01*
X328864Y-33498D01*
X328864Y-27498D01*
G37*
G54D52*
G36*
X183198Y-109933D02*
X183198Y-97433D01*
X189865Y-97433D01*
X189865Y-109933D01*
X183198Y-109933D01*
G37*
G36*
X186532Y-106600D02*
X199032Y-106600D01*
X199032Y-113267D01*
X186532Y-113267D01*
X186532Y-106600D01*
G37*
G36*
X189865Y-109933D02*
X189865Y-122433D01*
X183198Y-122433D01*
X183198Y-109933D01*
X189865Y-109933D01*
G37*
G36*
X186532Y-113267D02*
X174032Y-113267D01*
X174032Y-106600D01*
X186532Y-106600D01*
X186532Y-113267D01*
G37*
G54D54*
G36*
X98005Y-74025D02*
X87505Y-74025D01*
X87505Y-69692D01*
X98005Y-69692D01*
X98005Y-74025D01*
G37*
G36*
X95838Y-71858D02*
X95838Y-62858D01*
X100171Y-62858D01*
X100171Y-71858D01*
X95838Y-71858D01*
G37*
G36*
X98005Y-69692D02*
X108505Y-69691D01*
X108505Y-74024D01*
X98005Y-74025D01*
X98005Y-69692D01*
G37*
G54D54*
G36*
X606987Y-104377D02*
X606987Y-91877D01*
X611320Y-91877D01*
X611320Y-104377D01*
X606987Y-104377D01*
G37*
G36*
X609154Y-102210D02*
X620154Y-102210D01*
X620154Y-106543D01*
X609154Y-106544D01*
X609154Y-102210D01*
G37*
G36*
X611320Y-104377D02*
X611320Y-116877D01*
X606987Y-116877D01*
X606987Y-104377D01*
X611320Y-104377D01*
G37*
G54D52*
G36*
X635869Y-107259D02*
X648369Y-107259D01*
X648369Y-113925D01*
X635869Y-113925D01*
X635869Y-107259D01*
G37*
G36*
X639202Y-110592D02*
X639202Y-123092D01*
X632536Y-123092D01*
X632536Y-110592D01*
X639202Y-110592D01*
G37*
G36*
X635869Y-113925D02*
X623369Y-113925D01*
X623369Y-107259D01*
X635869Y-107259D01*
X635869Y-113925D01*
G37*
G36*
X632536Y-110592D02*
X632536Y-98092D01*
X639202Y-98092D01*
X639202Y-110592D01*
X632536Y-110592D01*
G37*
G54D54*
G36*
X54536Y-110330D02*
X54536Y-100830D01*
X58869Y-100830D01*
X58869Y-110330D01*
X54536Y-110330D01*
G37*
G36*
X56703Y-108163D02*
X65703Y-108163D01*
X65703Y-112496D01*
X56703Y-112496D01*
X56703Y-108163D01*
G37*
G36*
X58869Y-110330D02*
X58869Y-119830D01*
X54536Y-119830D01*
X54536Y-110330D01*
X58869Y-110330D01*
G37*
G54D54*
G36*
X324739Y-90228D02*
X315239Y-90228D01*
X315239Y-85895D01*
X324739Y-85895D01*
X324739Y-90228D01*
G37*
G36*
X322572Y-88062D02*
X322572Y-79062D01*
X326905Y-79062D01*
X326905Y-88062D01*
X322572Y-88062D01*
G37*
G36*
X324739Y-85895D02*
X334239Y-85895D01*
X334239Y-90228D01*
X324739Y-90228D01*
X324739Y-85895D01*
G37*
G54D54*
G36*
X504007Y-279588D02*
X516507Y-279588D01*
X516507Y-283921D01*
X504007Y-283921D01*
X504007Y-279588D01*
G37*
G36*
X506174Y-281754D02*
X506174Y-292754D01*
X501841Y-292754D01*
X501841Y-281754D01*
X506174Y-281754D01*
G37*
G36*
X504007Y-283921D02*
X491507Y-283921D01*
X491507Y-279588D01*
X504007Y-279588D01*
X504007Y-283921D01*
G37*
G54D54*
G36*
X348948Y-90227D02*
X338448Y-90227D01*
X338448Y-85894D01*
X348948Y-85894D01*
X348948Y-90227D01*
G37*
G36*
X346782Y-88061D02*
X346781Y-79061D01*
X351114Y-79060D01*
X351114Y-88060D01*
X346782Y-88061D01*
G37*
G36*
X348948Y-85894D02*
X359448Y-85894D01*
X359448Y-90227D01*
X348948Y-90227D01*
X348948Y-85894D01*
G37*
G54D54*
G36*
X586815Y-132952D02*
X586815Y-145452D01*
X582482Y-145452D01*
X582482Y-132952D01*
X586815Y-132952D01*
G37*
G36*
X584648Y-135118D02*
X573648Y-135118D01*
X573648Y-130785D01*
X584648Y-130785D01*
X584648Y-135118D01*
G37*
G36*
X582482Y-132952D02*
X582482Y-120452D01*
X586814Y-120452D01*
X586815Y-132952D01*
X582482Y-132952D01*
G37*
G54D54*
G36*
X333375Y-204208D02*
X342875Y-204208D01*
X342875Y-208541D01*
X333375Y-208541D01*
X333375Y-204208D01*
G37*
G36*
X335542Y-206375D02*
X335542Y-215375D01*
X331209Y-215375D01*
X331209Y-206375D01*
X335542Y-206375D01*
G37*
G36*
X333375Y-208541D02*
X323875Y-208541D01*
X323875Y-204208D01*
X333375Y-204208D01*
X333375Y-208541D01*
G37*
G54D54*
G36*
X309562Y-204207D02*
X320062Y-204207D01*
X320062Y-208540D01*
X309562Y-208540D01*
X309562Y-204207D01*
G37*
G36*
X311729Y-206373D02*
X311729Y-215373D01*
X307396Y-215374D01*
X307396Y-206374D01*
X311729Y-206373D01*
G37*
G36*
X309562Y-208540D02*
X299062Y-208540D01*
X299062Y-204207D01*
X309562Y-204207D01*
X309562Y-208540D01*
G37*
G54D27*
G36*
X239389Y-70035D02*
X227889Y-70035D01*
X227889Y-64035D01*
X239389Y-64035D01*
X239389Y-70035D01*
G37*
G36*
X236389Y-67035D02*
X236389Y-55535D01*
X242389Y-55535D01*
X242389Y-67035D01*
X236389Y-67035D01*
G37*
G36*
X239389Y-64035D02*
X250889Y-64035D01*
X250889Y-70035D01*
X239389Y-70035D01*
X239389Y-64035D01*
G37*
G36*
X242389Y-67035D02*
X242389Y-78535D01*
X236389Y-78535D01*
X236389Y-67035D01*
X242389Y-67035D01*
G37*
G54D54*
G36*
X698198Y-27919D02*
X688698Y-27919D01*
X688698Y-23586D01*
X698198Y-23586D01*
X698198Y-27919D01*
G37*
G36*
X696032Y-25753D02*
X696032Y-16753D01*
X700365Y-16753D01*
X700365Y-25753D01*
X696032Y-25753D01*
G37*
G36*
X698198Y-23586D02*
X707698Y-23586D01*
X707698Y-27919D01*
X698198Y-27919D01*
X698198Y-23586D01*
G37*
G54D55*
G36*
X583034Y-233758D02*
X583034Y-220258D01*
X585367Y-220258D01*
X585366Y-233758D01*
X583034Y-233758D01*
G37*
G36*
X584200Y-232592D02*
X590200Y-232592D01*
X590200Y-234925D01*
X584200Y-234925D01*
X584200Y-232592D01*
G37*
G36*
X585366Y-233758D02*
X585366Y-247258D01*
X583033Y-247258D01*
X583034Y-233758D01*
X585366Y-233758D01*
G37*
G36*
X584200Y-234925D02*
X578200Y-234925D01*
X578200Y-232592D01*
X584200Y-232592D01*
X584200Y-234925D01*
G37*
G54D55*
G36*
X595734Y-233758D02*
X595734Y-220258D01*
X598067Y-220258D01*
X598067Y-233758D01*
X595734Y-233758D01*
G37*
G36*
X596900Y-232592D02*
X602900Y-232592D01*
X602900Y-234925D01*
X596900Y-234925D01*
X596900Y-232592D01*
G37*
G36*
X598067Y-233758D02*
X598067Y-247258D01*
X595734Y-247258D01*
X595734Y-233758D01*
X598067Y-233758D01*
G37*
G36*
X596900Y-234925D02*
X590900Y-234925D01*
X590900Y-232592D01*
X596900Y-232592D01*
X596900Y-234925D01*
G37*
G54D55*
G36*
X608433Y-233758D02*
X608434Y-220258D01*
X610767Y-220258D01*
X610766Y-233758D01*
X608433Y-233758D01*
G37*
G36*
X609600Y-232592D02*
X615600Y-232592D01*
X615600Y-234925D01*
X609600Y-234925D01*
X609600Y-232592D01*
G37*
G36*
X610766Y-233758D02*
X610766Y-247258D01*
X608433Y-247258D01*
X608433Y-233758D01*
X610766Y-233758D01*
G37*
G36*
X609600Y-234925D02*
X603600Y-234925D01*
X603600Y-232592D01*
X609600Y-232592D01*
X609600Y-234925D01*
G37*
G54D56*
G36*
X621076Y-233758D02*
X621075Y-220258D01*
X623525Y-220257D01*
X623526Y-233757D01*
X621076Y-233758D01*
G37*
G36*
X622300Y-232532D02*
X628300Y-232532D01*
X628301Y-234982D01*
X622301Y-234982D01*
X622300Y-232532D01*
G37*
G36*
X623526Y-233757D02*
X623526Y-247257D01*
X621076Y-247258D01*
X621076Y-233758D01*
X623526Y-233757D01*
G37*
G36*
X622301Y-234982D02*
X616301Y-234983D01*
X616300Y-232533D01*
X622300Y-232532D01*
X622301Y-234982D01*
G37*
G54D55*
G36*
X595733Y-179758D02*
X595734Y-166258D01*
X598067Y-166258D01*
X598066Y-179758D01*
X595733Y-179758D01*
G37*
G36*
X596900Y-178592D02*
X602900Y-178592D01*
X602899Y-180925D01*
X596899Y-180925D01*
X596900Y-178592D01*
G37*
G36*
X598066Y-179758D02*
X598065Y-193258D01*
X595732Y-193258D01*
X595733Y-179758D01*
X598066Y-179758D01*
G37*
G36*
X596899Y-180925D02*
X590899Y-180925D01*
X590900Y-178592D01*
X596900Y-178592D01*
X596899Y-180925D01*
G37*
G54D54*
G36*
X368508Y-309189D02*
X368508Y-319689D01*
X364175Y-319689D01*
X364175Y-309189D01*
X368508Y-309189D01*
G37*
G36*
X366341Y-311356D02*
X357341Y-311356D01*
X357341Y-307023D01*
X366341Y-307023D01*
X366341Y-311356D01*
G37*
G36*
X364175Y-309189D02*
X364175Y-298689D01*
X368508Y-298689D01*
X368508Y-309189D01*
X364175Y-309189D01*
G37*
G54D54*
G36*
X539520Y-166686D02*
X539520Y-154186D01*
X543853Y-154186D01*
X543853Y-166686D01*
X539520Y-166686D01*
G37*
G36*
X541686Y-164519D02*
X552686Y-164520D01*
X552686Y-168852D01*
X541686Y-168852D01*
X541686Y-164519D01*
G37*
G36*
X543853Y-166686D02*
X543853Y-179186D01*
X539520Y-179186D01*
X539520Y-166686D01*
X543853Y-166686D01*
G37*
G54D54*
G36*
X501420Y-188911D02*
X501420Y-176411D01*
X505753Y-176411D01*
X505753Y-188911D01*
X501420Y-188911D01*
G37*
G36*
X503586Y-186744D02*
X514586Y-186745D01*
X514586Y-191078D01*
X503586Y-191077D01*
X503586Y-186744D01*
G37*
G36*
X505753Y-188911D02*
X505753Y-201411D01*
X501420Y-201411D01*
X501420Y-188911D01*
X505753Y-188911D01*
G37*
G54D54*
G36*
X343084Y-235742D02*
X343084Y-248242D01*
X338751Y-248242D01*
X338751Y-235742D01*
X343084Y-235742D01*
G37*
G36*
X340918Y-237909D02*
X329918Y-237909D01*
X329918Y-233576D01*
X340918Y-233576D01*
X340918Y-237909D01*
G37*
G36*
X338751Y-235742D02*
X338752Y-223242D01*
X343084Y-223242D01*
X343084Y-235742D01*
X338751Y-235742D01*
G37*
X44053Y-44846D02*
G54D57*
D03*
X825103Y-44846D02*
G54D57*
D03*
G36*
X743269Y-114773D02*
X743269Y-94773D01*
X763269Y-94773D01*
X763269Y-114773D01*
X743269Y-114773D01*
G37*
X753269Y-79374D02*
G54D58*
D03*
X753269Y-53974D02*
G54D58*
D03*
X753269Y-28574D02*
G54D58*
D03*
X379809Y-195659D02*
G54D58*
D03*
X532209Y-195659D02*
G54D58*
D03*
X379809Y-221059D02*
G54D58*
D03*
X532209Y-246459D02*
G54D58*
D03*
X379809Y-246459D02*
G54D58*
D03*
X919268Y-28040D02*
G54D12*
D03*
X919268Y-85190D02*
G54D59*
D03*
G36*
X934668Y-72690D02*
X954668Y-72690D01*
X954668Y-97690D01*
X934668Y-97690D01*
X934668Y-72690D01*
G37*
X893868Y-85190D02*
G54D59*
D03*
G36*
X933738Y-131064D02*
X994063Y-131064D01*
X994063Y-73120D01*
X933738Y-73120D01*
X933738Y-131064D01*
G37*
G54D60*
X933738Y-131064D02*
X994063Y-131064D01*
X994063Y-73120D01*
X933738Y-73120D01*
X933738Y-131064D01*
X662384Y-62308D02*
G54D61*
D03*
X662384Y-49608D02*
G54D61*
D03*
X662384Y-36908D02*
G54D61*
D03*
X662383Y-24208D02*
G54D61*
D03*
X608384Y-24208D02*
G54D61*
D03*
X608384Y-36909D02*
G54D61*
D03*
X608384Y-49609D02*
G54D61*
D03*
X608384Y-62308D02*
G54D61*
D03*
G54D22*
X660956Y-74215D02*
X670956Y-74215D01*
G54D22*
X660956Y-88515D02*
X670956Y-88515D01*
G54D46*
X661987Y-49608D02*
X649287Y-49608D01*
X647302Y-51593D01*
X647302Y-86121D01*
X649684Y-88502D01*
X663178Y-88515D01*
G54D46*
X666213Y-74102D02*
X665956Y-74214D01*
G54D46*
X463755Y-290952D02*
X463754Y-281824D01*
X478836Y-281824D01*
X478836Y-263170D01*
X480423Y-300477D02*
G54D62*
D03*
X473836Y-300477D02*
G54D63*
D03*
X468836Y-300477D02*
G54D63*
D03*
X463836Y-300477D02*
G54D63*
D03*
X473836Y-256477D02*
G54D63*
D03*
X468836Y-256477D02*
G54D63*
D03*
X463836Y-256477D02*
G54D63*
D03*
X457404Y-300478D02*
G54D62*
D03*
X480423Y-256424D02*
G54D62*
D03*
X457404Y-256424D02*
G54D62*
D03*
X503119Y-220739D02*
G54D64*
D03*
X421363Y-220739D02*
G54D64*
D03*
G54D46*
X662384Y-62308D02*
X665956Y-74215D01*
G54D46*
X608384Y-36909D02*
X624284Y-36909D01*
X624284Y-17461D01*
X633016Y-8730D01*
X736600Y-8730D01*
X736600Y-40877D01*
X753269Y-53974D01*
G54D46*
X753269Y-29368D02*
X753269Y-2777D01*
X630634Y-2777D01*
X608384Y-25002D01*
G54D46*
X437356Y-253602D02*
X457360Y-253602D01*
G54D46*
X463947Y-265508D02*
X463947Y-271858D01*
X437356Y-279002D01*
G54D46*
X421363Y-220739D02*
X443784Y-220739D01*
X468709Y-242093D01*
X468709Y-250427D01*
G54D46*
X473869Y-250427D02*
X473869Y-241696D01*
X498078Y-221852D01*
G54D46*
X458266Y-118314D02*
X458266Y-144191D01*
X454820Y-142477D01*
G36*
X429856Y-246102D02*
X444856Y-246102D01*
X444856Y-261102D01*
X429856Y-261102D01*
X429856Y-246102D01*
G37*
X437356Y-279002D02*
G54D65*
D03*
G54D46*
X490265Y-118313D02*
X490662Y-161005D01*
X480219Y-171449D01*
X376238Y-171449D01*
X360362Y-187324D01*
X360362Y-237729D01*
X379809Y-246459D01*
G54D46*
X379809Y-195659D02*
X429420Y-195659D01*
X471884Y-195658D01*
X504825Y-162718D01*
X504825Y-103873D01*
X504766Y-103813D01*
G54D46*
X532209Y-195659D02*
X517525Y-174624D01*
X517525Y-96043D01*
X504995Y-96043D01*
X504766Y-95813D01*
G36*
X588116Y-23303D02*
X573116Y-23303D01*
X573116Y-8303D01*
X588116Y-8303D01*
X588116Y-23303D01*
G37*
X580616Y-41203D02*
G54D65*
D03*
G54D46*
X608384Y-36909D02*
X591741Y-36909D01*
X580616Y-41203D01*
G54D46*
X608384Y-24208D02*
X580942Y-15477D01*
G54D27*
X388517Y-60348D02*
X396350Y-55813D01*
X459040Y-55813D01*
X467122Y-63896D01*
X504451Y-63896D01*
G54D23*
X504766Y-63813D02*
X518318Y-63895D01*
X518319Y-79771D01*
X504765Y-79813D01*
G54D23*
X489744Y-71833D02*
X504766Y-71813D01*
G54D23*
X524272Y-88105D02*
X488950Y-88105D01*
G54D23*
X431403Y-80168D02*
X418703Y-80168D01*
X406797Y-80168D01*
G54D23*
X608384Y-62308D02*
X590153Y-62308D01*
X590154Y-104377D01*
X388517Y-59952D02*
G54D66*
D03*
X388516Y-78951D02*
G54D66*
D03*
G54D23*
X497608Y-260246D02*
X515041Y-260246D01*
X526653Y-271858D01*
X568722Y-271858D01*
X568722Y-195261D01*
X584200Y-179758D01*
X584199Y-163512D01*
X603648Y-132952D01*
X590154Y-104377D01*
G54D22*
X753269Y-79374D02*
X738188Y-82946D01*
X721990Y-99480D01*
G36*
X269063Y-46898D02*
X287063Y-46898D01*
X287063Y-64898D01*
X269063Y-64898D01*
X269063Y-46898D01*
G37*
X278064Y-30498D02*
G54D67*
D03*
X303464Y-55898D02*
G54D67*
D03*
X303464Y-30498D02*
G54D67*
D03*
X328864Y-55898D02*
G54D67*
D03*
X328864Y-30498D02*
G54D67*
D03*
X477044Y-142477D02*
G54D65*
D03*
G54D46*
X466266Y-118313D02*
X466266Y-132096D01*
X477043Y-142477D01*
G54D68*
X434266Y-33313D02*
X434555Y-19820D01*
X429419Y-14683D01*
X319881Y-14683D01*
X316309Y-18255D01*
X316309Y-36511D01*
X309562Y-43258D01*
X290703Y-43258D01*
X278063Y-55898D01*
G54D68*
X303464Y-30498D02*
X303464Y-20782D01*
X317500Y-6746D01*
X431403Y-6746D01*
X442119Y-17461D01*
X442266Y-33313D01*
G54D46*
X303464Y-55898D02*
X309562Y-52386D01*
X318691Y-43258D01*
X415607Y-43258D01*
X419766Y-47417D01*
G54D23*
X278064Y-30498D02*
X278064Y-28323D01*
X308372Y1986D01*
X563562Y1986D01*
X563562Y-77786D01*
X590154Y-104377D01*
G36*
X342403Y-53325D02*
X355403Y-53325D01*
X355403Y-67325D01*
X342403Y-67325D01*
X342403Y-53325D01*
G37*
X367903Y-60325D02*
G54D69*
D03*
G54D46*
X328864Y-55898D02*
X348903Y-60325D01*
G54D23*
X367903Y-60325D02*
X388118Y-60350D01*
X388517Y-59952D01*
X18028Y-109933D02*
G54D70*
D03*
X98028Y-109933D02*
G54D70*
D03*
X135731Y-109933D02*
G54D58*
D03*
X161131Y-109933D02*
G54D58*
D03*
X186532Y-109933D02*
G54D58*
D03*
X98005Y-90858D02*
G54D66*
D03*
X98005Y-71858D02*
G54D66*
D03*
G54D23*
X98028Y-109933D02*
X135731Y-109933D01*
X590154Y-104377D02*
G54D71*
D03*
G36*
X602654Y-96377D02*
X615654Y-96377D01*
X615654Y-112377D01*
X602654Y-112377D01*
X602654Y-96377D01*
G37*
G36*
X645869Y-100592D02*
X645869Y-120592D01*
X625869Y-120592D01*
X625869Y-100592D01*
X645869Y-100592D01*
G37*
X661269Y-110592D02*
G54D58*
D03*
G54D46*
X251964Y-103186D02*
X274638Y-109140D01*
X295672Y-130174D01*
X349647Y-130174D01*
X369491Y-121443D01*
X402034Y-121443D01*
X419497Y-103980D01*
X251964Y-103186D02*
G54D69*
D03*
X232964Y-103186D02*
G54D69*
D03*
X454820Y-142477D02*
G54D65*
D03*
G54D46*
X437356Y-253602D02*
X409972Y-253602D01*
X397272Y-266302D01*
X369491Y-266302D01*
X350441Y-247252D01*
X350441Y-182164D01*
X375444Y-157161D01*
X427832Y-157161D01*
X450056Y-127396D01*
X450266Y-118313D01*
X301722Y-107010D02*
G54D72*
D03*
X301722Y-88010D02*
G54D72*
D03*
X37703Y-110330D02*
G54D69*
D03*
X56703Y-110330D02*
G54D69*
D03*
X324739Y-107061D02*
G54D72*
D03*
X324739Y-88062D02*
G54D72*
D03*
G54D46*
X348552Y-106663D02*
X324739Y-107061D01*
X301722Y-107010D01*
X333350Y-165868D02*
G54D72*
D03*
X333350Y-146868D02*
G54D72*
D03*
X504007Y-262755D02*
G54D66*
D03*
X504007Y-281754D02*
G54D66*
D03*
G54D23*
X480537Y-263903D02*
X499587Y-263903D01*
G36*
X534113Y-95756D02*
X553113Y-95755D01*
X553114Y-143755D01*
X534114Y-143756D01*
X534113Y-95756D01*
G37*
X543613Y-37999D02*
G54D73*
D03*
G54D48*
X504766Y-47813D02*
X527846Y-47813D01*
X543613Y-37999D01*
G54D46*
X504765Y-55813D02*
X526111Y-55813D01*
X529567Y-66178D01*
X540544Y-76199D01*
X543719Y-119650D01*
X543613Y-119756D01*
X348948Y-107060D02*
G54D66*
D03*
X348948Y-88060D02*
G54D66*
D03*
X603648Y-132952D02*
G54D71*
D03*
X584648Y-132952D02*
G54D71*
D03*
G54D51*
X286867Y-150342D02*
X272725Y-136200D01*
X310359Y-146843D02*
G54D72*
D03*
X310359Y-165843D02*
G54D72*
D03*
X333375Y-187375D02*
G54D72*
D03*
X333375Y-206375D02*
G54D72*
D03*
X309563Y-187374D02*
G54D66*
D03*
X309562Y-206374D02*
G54D66*
D03*
X985837Y-85327D02*
G54D44*
D03*
X279797Y-87708D02*
G54D44*
D03*
G54D46*
X333375Y-187375D02*
X333350Y-165868D01*
G54D46*
X333375Y-187375D02*
X309932Y-187744D01*
X309562Y-187374D01*
X309568Y-166634D01*
X310359Y-165843D01*
G54D46*
X310359Y-146843D02*
X286940Y-145256D01*
G54D23*
X279797Y-87708D02*
X301722Y-88010D01*
X332184Y-279796D02*
G54D74*
D03*
G54D46*
X457597Y-294877D02*
X405209Y-294877D01*
X392906Y-282176D01*
X332184Y-282176D01*
X599281Y-298845D02*
G54D75*
D03*
G54D46*
X480616Y-298846D02*
X598884Y-298846D01*
X600472Y-300433D01*
G54D48*
X333375Y-146842D02*
X349647Y-146842D01*
X371872Y-138508D01*
X413940Y-138508D01*
X434181Y-118267D01*
G54D46*
X232964Y-103186D02*
X216297Y-103186D01*
X202009Y-88899D01*
X182166Y-88899D01*
X161131Y-109933D01*
G36*
X230389Y-76035D02*
X230389Y-58035D01*
X248389Y-58035D01*
X248389Y-76035D01*
X230389Y-76035D01*
G37*
X239389Y-41635D02*
G54D67*
D03*
X239389Y-16235D02*
G54D67*
D03*
G54D46*
X239389Y-16235D02*
X263800Y-16235D01*
X278064Y-30498D01*
G54D46*
X239389Y-41635D02*
X263800Y-41635D01*
X278063Y-55898D01*
X698198Y-44752D02*
G54D72*
D03*
X698198Y-25753D02*
G54D72*
D03*
X698226Y-89968D02*
G54D72*
D03*
X698226Y-70968D02*
G54D72*
D03*
G54D46*
X662384Y-36908D02*
X681485Y-36908D01*
X698198Y-44752D01*
X722410Y-47131D02*
G54D72*
D03*
X722410Y-66131D02*
G54D72*
D03*
G54D46*
X698226Y-89968D02*
X661269Y-110592D01*
G54D46*
X698226Y-70968D02*
X698198Y-44752D01*
X721991Y-23280D02*
G54D58*
D03*
X721990Y-99480D02*
G54D58*
D03*
G54D46*
X698226Y-89968D02*
X716359Y-81358D01*
X721594Y-66947D01*
G54D23*
X722013Y-47131D02*
X722013Y-23303D01*
G36*
X993378Y2382D02*
X775494Y2382D01*
X766366Y-6746D01*
X766366Y-64293D01*
X755650Y-71833D01*
X755650Y-87311D01*
X781844Y-87311D01*
X796528Y-72627D01*
X796528Y-29764D01*
X809625Y-16668D01*
X845344Y-16668D01*
X857250Y-28575D01*
X857250Y-67865D01*
X993378Y-67864D01*
X993378Y2382D01*
G37*
G54D46*
X993378Y2382D02*
X775494Y2382D01*
X766366Y-6746D01*
X766366Y-64293D01*
X755650Y-71833D01*
X755650Y-87311D01*
X781844Y-87311D01*
X796528Y-72627D01*
X796528Y-29764D01*
X809625Y-16668D01*
X845344Y-16668D01*
X857250Y-28575D01*
X857250Y-67865D01*
X993378Y-67864D01*
X993378Y2382D01*
X584200Y-233758D02*
G54D76*
D03*
X596900Y-233758D02*
G54D76*
D03*
X609600Y-233758D02*
G54D76*
D03*
G36*
X618800Y-222758D02*
X625800Y-222757D01*
X625801Y-244757D01*
X618801Y-244758D01*
X618800Y-222758D01*
G37*
X622300Y-179758D02*
G54D76*
D03*
G36*
X606100Y-168758D02*
X613100Y-168758D01*
X613100Y-190758D01*
X606100Y-190758D01*
X606100Y-168758D01*
G37*
X596900Y-179758D02*
G54D76*
D03*
G36*
X580700Y-168758D02*
X587700Y-168758D01*
X587700Y-190758D01*
X580700Y-190758D01*
X580700Y-168758D01*
G37*
G36*
X627332Y-162040D02*
X627332Y-147040D01*
X642332Y-147040D01*
X642332Y-162040D01*
X627332Y-162040D01*
G37*
X609431Y-154540D02*
G54D65*
D03*
G54D46*
X622300Y-179758D02*
X634832Y-154540D01*
G54D46*
X609600Y-179758D02*
X609431Y-154540D01*
X415528Y-26986D02*
G54D44*
D03*
X549275Y-314324D02*
G54D44*
D03*
X307975Y-307180D02*
G54D44*
D03*
X635794Y-92074D02*
G54D44*
D03*
X567134Y-165496D02*
G54D44*
D03*
G36*
X367753Y-95393D02*
X380753Y-95393D01*
X380753Y-109393D01*
X367753Y-109393D01*
X367753Y-95393D01*
G37*
X393253Y-102393D02*
G54D69*
D03*
G54D46*
X348948Y-107060D02*
X369586Y-107060D01*
X374253Y-102393D01*
G54D48*
X393253Y-102393D02*
X403224Y-102393D01*
X409574Y-96043D01*
X419536Y-96043D01*
X419765Y-95814D01*
G54D48*
X473869Y-63896D02*
X539749Y1985D01*
G36*
X467122Y-63896D02*
X459436Y-56210D01*
X459436Y-49753D01*
X460771Y-48418D01*
X490140Y-48418D01*
X490140Y-60323D01*
X493712Y-63896D01*
X467122Y-63896D01*
G37*
G54D46*
X467122Y-63896D02*
X459436Y-56210D01*
X459436Y-49753D01*
X460771Y-48418D01*
X490140Y-48418D01*
X490140Y-60323D01*
X493712Y-63896D01*
X467122Y-63896D01*
X385341Y-309190D02*
G54D71*
D03*
X366341Y-309189D02*
G54D71*
D03*
G36*
X401487Y-304546D02*
X414487Y-304546D01*
X414487Y-318546D01*
X401487Y-318546D01*
X401487Y-304546D01*
G37*
X426987Y-311546D02*
G54D69*
D03*
G54D46*
X407987Y-311546D02*
X385341Y-309190D01*
G54D46*
X426987Y-311546D02*
X439340Y-311546D01*
X446880Y-319087D01*
X472280Y-319087D01*
X473868Y-317499D01*
X473868Y-307974D01*
G36*
X480615Y-263921D02*
X504030Y-263921D01*
X504030Y-257174D01*
X494902Y-248046D01*
X480615Y-248046D01*
X480615Y-263921D01*
G37*
G54D46*
X480615Y-263921D02*
X504030Y-263921D01*
X504030Y-257174D01*
X494902Y-248046D01*
X480615Y-248046D01*
X480615Y-263921D01*
G36*
X516187Y-158686D02*
X529187Y-158686D01*
X529187Y-174686D01*
X516187Y-174686D01*
X516187Y-158686D01*
G37*
X541686Y-166686D02*
G54D71*
D03*
G36*
X478087Y-180911D02*
X491087Y-180911D01*
X491087Y-196911D01*
X478087Y-196911D01*
X478087Y-180911D01*
G37*
X503586Y-188911D02*
G54D71*
D03*
X359917Y-235742D02*
G54D71*
D03*
X340918Y-235742D02*
G54D71*
D03*
G54D27*
X680640Y-62308D02*
X665559Y-62308D01*
G54D27*
X584201Y-230979D02*
X584200Y-215898D01*
G54D35*
X604045Y-134539D02*
X662384Y-134540D01*
X721990Y-99480D01*
G54D46*
X494506Y-248045D02*
X500062Y-242489D01*
G36*
X513265Y-104813D02*
X511266Y-106813D01*
X500265Y-106814D01*
X499266Y-105813D01*
X499266Y-101813D01*
X500266Y-100813D01*
X511266Y-100814D01*
X513266Y-102813D01*
X513265Y-104813D01*
G37*
G54D77*
X513265Y-104813D02*
X511266Y-106813D01*
X500265Y-106814D01*
X499266Y-105813D01*
X499266Y-101813D01*
X500266Y-100813D01*
X511266Y-100814D01*
X513266Y-102813D01*
X513265Y-104813D01*
G36*
X513266Y-96813D02*
X511266Y-98813D01*
X500265Y-98813D01*
X499266Y-97813D01*
X499265Y-93814D01*
X500266Y-92814D01*
X511266Y-92814D01*
X513266Y-94814D01*
X513266Y-96813D01*
G37*
G54D77*
X513266Y-96813D02*
X511266Y-98813D01*
X500265Y-98813D01*
X499266Y-97813D01*
X499265Y-93814D01*
X500266Y-92814D01*
X511266Y-92814D01*
X513266Y-94814D01*
X513266Y-96813D01*
X504766Y-103813D02*
G54D78*
D03*
X504766Y-95813D02*
G54D78*
D03*
G36*
X513266Y-88813D02*
X511266Y-90813D01*
X500266Y-90814D01*
X499266Y-89813D01*
X499265Y-85813D01*
X500266Y-84813D01*
X511266Y-84813D01*
X513265Y-86813D01*
X513266Y-88813D01*
G37*
G54D77*
X513266Y-88813D02*
X511266Y-90813D01*
X500266Y-90814D01*
X499266Y-89813D01*
X499265Y-85813D01*
X500266Y-84813D01*
X511266Y-84813D01*
X513265Y-86813D01*
X513266Y-88813D01*
G36*
X513265Y-80813D02*
X511266Y-82814D01*
X500266Y-82814D01*
X499265Y-81813D01*
X499266Y-77813D01*
X500266Y-76814D01*
X511266Y-76813D01*
X513266Y-78813D01*
X513265Y-80813D01*
G37*
G54D77*
X513265Y-80813D02*
X511266Y-82814D01*
X500266Y-82814D01*
X499265Y-81813D01*
X499266Y-77813D01*
X500266Y-76814D01*
X511266Y-76813D01*
X513266Y-78813D01*
X513265Y-80813D01*
X504765Y-87813D02*
G54D78*
D03*
X504765Y-79813D02*
G54D78*
D03*
G36*
X513266Y-72813D02*
X511265Y-74813D01*
X500265Y-74813D01*
X499265Y-73813D01*
X499265Y-69814D01*
X500266Y-68814D01*
X511265Y-68814D01*
X513265Y-70814D01*
X513266Y-72813D01*
G37*
G54D77*
X513266Y-72813D02*
X511265Y-74813D01*
X500265Y-74813D01*
X499265Y-73813D01*
X499265Y-69814D01*
X500266Y-68814D01*
X511265Y-68814D01*
X513265Y-70814D01*
X513266Y-72813D01*
G36*
X513266Y-64813D02*
X511266Y-66813D01*
X500266Y-66813D01*
X499266Y-65813D01*
X499265Y-61813D01*
X500266Y-60813D01*
X511265Y-60813D01*
X513265Y-62813D01*
X513266Y-64813D01*
G37*
G54D77*
X513266Y-64813D02*
X511266Y-66813D01*
X500266Y-66813D01*
X499266Y-65813D01*
X499265Y-61813D01*
X500266Y-60813D01*
X511265Y-60813D01*
X513265Y-62813D01*
X513266Y-64813D01*
X504766Y-71813D02*
G54D78*
D03*
X504766Y-63813D02*
G54D78*
D03*
G36*
X513265Y-56813D02*
X511265Y-58813D01*
X500266Y-58813D01*
X499266Y-57814D01*
X499266Y-53813D01*
X500266Y-52813D01*
X511266Y-52813D01*
X513266Y-54814D01*
X513265Y-56813D01*
G37*
G54D77*
X513265Y-56813D02*
X511265Y-58813D01*
X500266Y-58813D01*
X499266Y-57814D01*
X499266Y-53813D01*
X500266Y-52813D01*
X511266Y-52813D01*
X513266Y-54814D01*
X513265Y-56813D01*
G36*
X513265Y-48814D02*
X511266Y-50813D01*
X500266Y-50813D01*
X499265Y-49813D01*
X499266Y-45814D01*
X500265Y-44813D01*
X511266Y-44814D01*
X513266Y-46813D01*
X513265Y-48814D01*
G37*
G54D77*
X513265Y-48814D02*
X511266Y-50813D01*
X500266Y-50813D01*
X499265Y-49813D01*
X499266Y-45814D01*
X500265Y-44813D01*
X511266Y-44814D01*
X513266Y-46813D01*
X513265Y-48814D01*
X504765Y-55813D02*
G54D78*
D03*
X504766Y-47813D02*
G54D78*
D03*
G36*
X433266Y-126813D02*
X431266Y-124813D01*
X431266Y-113813D01*
X432266Y-112813D01*
X436265Y-112813D01*
X437265Y-113813D01*
X437266Y-124813D01*
X435266Y-126814D01*
X433266Y-126813D01*
G37*
G54D77*
X433266Y-126813D02*
X431266Y-124813D01*
X431266Y-113813D01*
X432266Y-112813D01*
X436265Y-112813D01*
X437265Y-113813D01*
X437266Y-124813D01*
X435266Y-126814D01*
X433266Y-126813D01*
G36*
X441265Y-126813D02*
X439266Y-124813D01*
X439266Y-113813D01*
X440266Y-112813D01*
X444266Y-112813D01*
X445266Y-113814D01*
X445265Y-124813D01*
X443265Y-126813D01*
X441265Y-126813D01*
G37*
G54D77*
X441265Y-126813D02*
X439266Y-124813D01*
X439266Y-113813D01*
X440266Y-112813D01*
X444266Y-112813D01*
X445266Y-113814D01*
X445265Y-124813D01*
X443265Y-126813D01*
X441265Y-126813D01*
X434266Y-118313D02*
G54D78*
D03*
X442266Y-118313D02*
G54D78*
D03*
G36*
X449266Y-126814D02*
X447266Y-124813D01*
X447266Y-113813D01*
X448266Y-112813D01*
X452266Y-112814D01*
X453266Y-113813D01*
X453265Y-124814D01*
X451266Y-126813D01*
X449266Y-126814D01*
G37*
G54D77*
X449266Y-126814D02*
X447266Y-124813D01*
X447266Y-113813D01*
X448266Y-112813D01*
X452266Y-112814D01*
X453266Y-113813D01*
X453265Y-124814D01*
X451266Y-126813D01*
X449266Y-126814D01*
G36*
X457266Y-126813D02*
X455265Y-124813D01*
X455266Y-113813D01*
X456266Y-112813D01*
X460266Y-112813D01*
X461266Y-113813D01*
X461266Y-124813D01*
X459266Y-126814D01*
X457266Y-126813D01*
G37*
G54D77*
X457266Y-126813D02*
X455265Y-124813D01*
X455266Y-113813D01*
X456266Y-112813D01*
X460266Y-112813D01*
X461266Y-113813D01*
X461266Y-124813D01*
X459266Y-126814D01*
X457266Y-126813D01*
X450266Y-118313D02*
G54D78*
D03*
X458266Y-118314D02*
G54D78*
D03*
G36*
X465265Y-126813D02*
X463265Y-124813D01*
X463266Y-113813D01*
X464266Y-112813D01*
X468266Y-112813D01*
X469266Y-113813D01*
X469265Y-124813D01*
X467265Y-126813D01*
X465265Y-126813D01*
G37*
G54D77*
X465265Y-126813D02*
X463265Y-124813D01*
X463266Y-113813D01*
X464266Y-112813D01*
X468266Y-112813D01*
X469266Y-113813D01*
X469265Y-124813D01*
X467265Y-126813D01*
X465265Y-126813D01*
G36*
X473266Y-126813D02*
X471266Y-124813D01*
X471265Y-113813D01*
X472266Y-112813D01*
X476266Y-112814D01*
X477266Y-113813D01*
X477266Y-124813D01*
X475266Y-126813D01*
X473266Y-126813D01*
G37*
G54D77*
X473266Y-126813D02*
X471266Y-124813D01*
X471265Y-113813D01*
X472266Y-112813D01*
X476266Y-112814D01*
X477266Y-113813D01*
X477266Y-124813D01*
X475266Y-126813D01*
X473266Y-126813D01*
X466266Y-118313D02*
G54D78*
D03*
X474266Y-118313D02*
G54D78*
D03*
G36*
X481266Y-126813D02*
X479265Y-124813D01*
X479266Y-113814D01*
X480265Y-112814D01*
X484265Y-112813D01*
X485265Y-113814D01*
X485266Y-124813D01*
X483266Y-126813D01*
X481266Y-126813D01*
G37*
G54D77*
X481266Y-126813D02*
X479265Y-124813D01*
X479266Y-113814D01*
X480265Y-112814D01*
X484265Y-112813D01*
X485265Y-113814D01*
X485266Y-124813D01*
X483266Y-126813D01*
X481266Y-126813D01*
G36*
X489266Y-126813D02*
X487266Y-124814D01*
X487266Y-113813D01*
X488266Y-112813D01*
X492266Y-112813D01*
X493266Y-113814D01*
X493266Y-124813D01*
X491265Y-126814D01*
X489266Y-126813D01*
G37*
G54D77*
X489266Y-126813D02*
X487266Y-124814D01*
X487266Y-113813D01*
X488266Y-112813D01*
X492266Y-112813D01*
X493266Y-113814D01*
X493266Y-124813D01*
X491265Y-126814D01*
X489266Y-126813D01*
X482265Y-118313D02*
G54D78*
D03*
X490265Y-118313D02*
G54D78*
D03*
G36*
X411266Y-46813D02*
X413266Y-44813D01*
X424265Y-44814D01*
X425266Y-45814D01*
X425266Y-49813D01*
X424266Y-50813D01*
X413266Y-50813D01*
X411266Y-48814D01*
X411266Y-46813D01*
G37*
G54D77*
X411266Y-46813D02*
X413266Y-44813D01*
X424265Y-44814D01*
X425266Y-45814D01*
X425266Y-49813D01*
X424266Y-50813D01*
X413266Y-50813D01*
X411266Y-48814D01*
X411266Y-46813D01*
G36*
X411266Y-54814D02*
X413266Y-52813D01*
X424266Y-52813D01*
X425266Y-53813D01*
X425266Y-57813D01*
X424266Y-58813D01*
X413266Y-58813D01*
X411266Y-56813D01*
X411266Y-54814D01*
G37*
G54D77*
X411266Y-54814D02*
X413266Y-52813D01*
X424266Y-52813D01*
X425266Y-53813D01*
X425266Y-57813D01*
X424266Y-58813D01*
X413266Y-58813D01*
X411266Y-56813D01*
X411266Y-54814D01*
G36*
X417265Y-45314D02*
X422265Y-45313D01*
X422266Y-50313D01*
X417266Y-50314D01*
X417265Y-45314D01*
G37*
G36*
X417266Y-53313D02*
X422266Y-53313D01*
X422266Y-58313D01*
X417266Y-58313D01*
X417266Y-53313D01*
G37*
G36*
X411266Y-62813D02*
X413265Y-60814D01*
X424266Y-60814D01*
X425266Y-61814D01*
X425266Y-65813D01*
X424266Y-66814D01*
X413265Y-66814D01*
X411266Y-64813D01*
X411266Y-62813D01*
G37*
G54D77*
X411266Y-62813D02*
X413265Y-60814D01*
X424266Y-60814D01*
X425266Y-61814D01*
X425266Y-65813D01*
X424266Y-66814D01*
X413265Y-66814D01*
X411266Y-64813D01*
X411266Y-62813D01*
G36*
X411266Y-70813D02*
X413265Y-68813D01*
X424266Y-68813D01*
X425265Y-69814D01*
X425266Y-73813D01*
X424266Y-74813D01*
X413266Y-74813D01*
X411266Y-72814D01*
X411266Y-70813D01*
G37*
G54D77*
X411266Y-70813D02*
X413265Y-68813D01*
X424266Y-68813D01*
X425265Y-69814D01*
X425266Y-73813D01*
X424266Y-74813D01*
X413266Y-74813D01*
X411266Y-72814D01*
X411266Y-70813D01*
X419766Y-63813D02*
G54D78*
D03*
X419766Y-71813D02*
G54D78*
D03*
G36*
X411266Y-78814D02*
X413266Y-76813D01*
X424266Y-76813D01*
X425266Y-77813D01*
X425266Y-81814D01*
X424266Y-82813D01*
X413266Y-82813D01*
X411266Y-80814D01*
X411266Y-78814D01*
G37*
G54D77*
X411266Y-78814D02*
X413266Y-76813D01*
X424266Y-76813D01*
X425266Y-77813D01*
X425266Y-81814D01*
X424266Y-82813D01*
X413266Y-82813D01*
X411266Y-80814D01*
X411266Y-78814D01*
G36*
X411266Y-86813D02*
X413266Y-84813D01*
X424265Y-84813D01*
X425266Y-85814D01*
X425266Y-89813D01*
X424265Y-90813D01*
X413266Y-90813D01*
X411266Y-88813D01*
X411266Y-86813D01*
G37*
G54D77*
X411266Y-86813D02*
X413266Y-84813D01*
X424265Y-84813D01*
X425266Y-85814D01*
X425266Y-89813D01*
X424265Y-90813D01*
X413266Y-90813D01*
X411266Y-88813D01*
X411266Y-86813D01*
X419766Y-79813D02*
G54D78*
D03*
X419766Y-87813D02*
G54D78*
D03*
G36*
X411266Y-94813D02*
X413265Y-92813D01*
X424266Y-92813D01*
X425265Y-93813D01*
X425266Y-97813D01*
X424266Y-98813D01*
X413265Y-98813D01*
X411266Y-96813D01*
X411266Y-94813D01*
G37*
G54D77*
X411266Y-94813D02*
X413265Y-92813D01*
X424266Y-92813D01*
X425265Y-93813D01*
X425266Y-97813D01*
X424266Y-98813D01*
X413265Y-98813D01*
X411266Y-96813D01*
X411266Y-94813D01*
G36*
X411266Y-102814D02*
X413266Y-100813D01*
X424265Y-100813D01*
X425266Y-101813D01*
X425265Y-105813D01*
X424266Y-106813D01*
X413266Y-106814D01*
X411266Y-104813D01*
X411266Y-102814D01*
G37*
G54D77*
X411266Y-102814D02*
X413266Y-100813D01*
X424265Y-100813D01*
X425266Y-101813D01*
X425265Y-105813D01*
X424266Y-106813D01*
X413266Y-106814D01*
X411266Y-104813D01*
X411266Y-102814D01*
G36*
X417265Y-93314D02*
X422265Y-93314D01*
X422266Y-98314D01*
X417266Y-98314D01*
X417265Y-93314D01*
G37*
X419766Y-103813D02*
G54D78*
D03*
G36*
X491266Y-24813D02*
X493266Y-26814D01*
X493265Y-37813D01*
X492266Y-38813D01*
X488266Y-38813D01*
X487265Y-37813D01*
X487266Y-26813D01*
X489266Y-24813D01*
X491266Y-24813D01*
G37*
G54D77*
X491266Y-24813D02*
X493266Y-26814D01*
X493265Y-37813D01*
X492266Y-38813D01*
X488266Y-38813D01*
X487265Y-37813D01*
X487266Y-26813D01*
X489266Y-24813D01*
X491266Y-24813D01*
G36*
X483266Y-24814D02*
X485265Y-26813D01*
X485266Y-37813D01*
X484266Y-38814D01*
X480265Y-38813D01*
X479265Y-37813D01*
X479266Y-26813D01*
X481266Y-24813D01*
X483266Y-24814D01*
G37*
G54D77*
X483266Y-24814D02*
X485265Y-26813D01*
X485266Y-37813D01*
X484266Y-38814D01*
X480265Y-38813D01*
X479265Y-37813D01*
X479266Y-26813D01*
X481266Y-24813D01*
X483266Y-24814D01*
X490266Y-33313D02*
G54D78*
D03*
X482266Y-33314D02*
G54D78*
D03*
G36*
X475266Y-24813D02*
X477265Y-26813D01*
X477265Y-37813D01*
X476265Y-38813D01*
X472266Y-38813D01*
X471266Y-37814D01*
X471266Y-26814D01*
X473265Y-24813D01*
X475266Y-24813D01*
G37*
G54D77*
X475266Y-24813D02*
X477265Y-26813D01*
X477265Y-37813D01*
X476265Y-38813D01*
X472266Y-38813D01*
X471266Y-37814D01*
X471266Y-26814D01*
X473265Y-24813D01*
X475266Y-24813D01*
G36*
X467266Y-24814D02*
X469265Y-26814D01*
X469266Y-37814D01*
X468266Y-38813D01*
X464266Y-38814D01*
X463266Y-37813D01*
X463266Y-26813D01*
X465266Y-24813D01*
X467266Y-24814D01*
G37*
G54D77*
X467266Y-24814D02*
X469265Y-26814D01*
X469266Y-37814D01*
X468266Y-38813D01*
X464266Y-38814D01*
X463266Y-37813D01*
X463266Y-26813D01*
X465266Y-24813D01*
X467266Y-24814D01*
X474266Y-33313D02*
G54D78*
D03*
X466266Y-33313D02*
G54D78*
D03*
G36*
X459266Y-24813D02*
X461266Y-26813D01*
X461266Y-37814D01*
X460265Y-38813D01*
X456265Y-38813D01*
X455265Y-37814D01*
X455265Y-26813D01*
X457265Y-24813D01*
X459266Y-24813D01*
G37*
G54D77*
X459266Y-24813D02*
X461266Y-26813D01*
X461266Y-37814D01*
X460265Y-38813D01*
X456265Y-38813D01*
X455265Y-37814D01*
X455265Y-26813D01*
X457265Y-24813D01*
X459266Y-24813D01*
G36*
X451266Y-24813D02*
X453265Y-26813D01*
X453266Y-37813D01*
X452265Y-38813D01*
X448266Y-38813D01*
X447266Y-37814D01*
X447266Y-26813D01*
X449266Y-24814D01*
X451266Y-24813D01*
G37*
G54D77*
X451266Y-24813D02*
X453265Y-26813D01*
X453266Y-37813D01*
X452265Y-38813D01*
X448266Y-38813D01*
X447266Y-37814D01*
X447266Y-26813D01*
X449266Y-24814D01*
X451266Y-24813D01*
X458266Y-33313D02*
G54D78*
D03*
X450266Y-33313D02*
G54D78*
D03*
G36*
X443266Y-24814D02*
X445265Y-26814D01*
X445266Y-37813D01*
X444266Y-38813D01*
X440265Y-38813D01*
X439266Y-37813D01*
X439266Y-26813D01*
X441266Y-24814D01*
X443266Y-24814D01*
G37*
G54D77*
X443266Y-24814D02*
X445265Y-26814D01*
X445266Y-37813D01*
X444266Y-38813D01*
X440265Y-38813D01*
X439266Y-37813D01*
X439266Y-26813D01*
X441266Y-24814D01*
X443266Y-24814D01*
G36*
X435266Y-24814D02*
X437266Y-26813D01*
X437265Y-37813D01*
X436266Y-38813D01*
X432266Y-38813D01*
X431265Y-37814D01*
X431265Y-26813D01*
X433266Y-24813D01*
X435266Y-24814D01*
G37*
G54D77*
X435266Y-24814D02*
X437266Y-26813D01*
X437265Y-37813D01*
X436266Y-38813D01*
X432266Y-38813D01*
X431265Y-37814D01*
X431265Y-26813D01*
X433266Y-24813D01*
X435266Y-24814D01*
X442266Y-33313D02*
G54D78*
D03*
X434266Y-33313D02*
G54D78*
D03*
G36*
X902494Y-75803D02*
X856456Y-75803D01*
X856456Y-130175D01*
X902097Y-130175D01*
X902494Y-75803D01*
G37*
G54D46*
X902494Y-75803D02*
X856456Y-75803D01*
X856456Y-130175D01*
X902097Y-130175D01*
X902494Y-75803D01*
G36*
X908050Y-130572D02*
X908050Y-61119D01*
X927894Y-61119D01*
X927894Y-130572D01*
X908050Y-130572D01*
G37*
G54D46*
X908050Y-130572D02*
X908050Y-61119D01*
X927894Y-61119D01*
X927894Y-130572D01*
X908050Y-130572D01*
M02*
