%FSLAX34Y34*%
%MOMM*%
%LNCOPPER_BOTTOM*%
G71*
G01*
%ADD10C, 5.000*%
%ADD11C, 5.200*%
%ADD12C, 2.600*%
%ADD13C, 2.400*%
%ADD14C, 1.900*%
%ADD15C, 0.900*%
%ADD16C, 2.400*%
%ADD17C, 1.680*%
%ADD18C, 0.700*%
%ADD19C, 1.280*%
%ADD20C, 1.280*%
%ADD21C, 0.300*%
%ADD22C, 0.667*%
%ADD23C, 0.924*%
%ADD24C, 0.600*%
%ADD25C, 2.000*%
%ADD26C, 2.000*%
%ADD27C, 1.500*%
%ADD28C, 0.500*%
%ADD29C, 1.800*%
%ADD30C, 1.800*%
%ADD31C, 3.000*%
%ADD32C, 0.800*%
%LPD*%
G36*
X-792Y-396D02*
X-982792Y-396D01*
X-982792Y-331396D01*
X-792Y-331396D01*
X-792Y-396D01*
G37*
%LPC*%
X-46036Y-49608D02*
G54D10*
D03*
X-827085Y-49608D02*
G54D11*
D03*
G36*
X-742251Y-122535D02*
X-742251Y-96535D01*
X-768251Y-96535D01*
X-768251Y-122535D01*
X-742251Y-122535D01*
G37*
X-755252Y-84136D02*
G54D12*
D03*
X-755252Y-58736D02*
G54D12*
D03*
X-755252Y-33336D02*
G54D12*
D03*
X-385760Y-200421D02*
G54D13*
D03*
X-538160Y-200421D02*
G54D13*
D03*
X-385760Y-225821D02*
G54D13*
D03*
X-538161Y-251221D02*
G54D13*
D03*
X-385760Y-251221D02*
G54D13*
D03*
G36*
X-425872Y-249262D02*
X-444872Y-249262D01*
X-444872Y-268262D01*
X-425872Y-268262D01*
X-425872Y-249262D01*
G37*
X-435372Y-284163D02*
G54D14*
D03*
G36*
X-592099Y-34827D02*
X-573099Y-34827D01*
X-573099Y-15827D01*
X-592099Y-15827D01*
X-592099Y-34827D01*
G37*
X-582599Y-50727D02*
G54D14*
D03*
G54D15*
X-435372Y-284163D02*
X-413542Y-270270D01*
X-413542Y-193674D01*
X-457199Y-150017D01*
G54D15*
X-457199Y-150017D02*
X-475058Y-166686D01*
X-502839Y-166686D01*
X-581817Y-83342D01*
X-582214Y-51112D01*
X-582599Y-50727D01*
G54D15*
X-435372Y-258762D02*
X-603645Y-80167D01*
X-603645Y-30102D01*
X-582599Y-25327D01*
G36*
X-268046Y-48660D02*
X-292046Y-48660D01*
X-292046Y-72660D01*
X-268046Y-72660D01*
X-268046Y-48660D01*
G37*
X-280046Y-35260D02*
G54D16*
D03*
X-305446Y-60660D02*
G54D16*
D03*
X-305446Y-35260D02*
G54D16*
D03*
X-330846Y-60660D02*
G54D16*
D03*
X-330847Y-35260D02*
G54D16*
D03*
X-478630Y-150017D02*
G54D14*
D03*
X-137714Y-114695D02*
G54D12*
D03*
X-163114Y-114695D02*
G54D12*
D03*
X-188515Y-114695D02*
G54D12*
D03*
G36*
X-641518Y-104544D02*
X-641518Y-128544D01*
X-617518Y-128544D01*
X-617518Y-104544D01*
X-641518Y-104544D01*
G37*
X-654917Y-116545D02*
G54D16*
D03*
X-457199Y-150017D02*
G54D14*
D03*
X-964008Y-90487D02*
G54D17*
D03*
G54D18*
X-283764Y-89296D02*
X-259555Y-71834D01*
X-259555Y-21828D01*
X-272255Y-9128D01*
X-950514Y-9128D01*
X-964009Y-22622D01*
X-964008Y-90487D01*
X-284161Y-88104D02*
G54D13*
D03*
G54D15*
X-330846Y-60660D02*
X-382984Y-60722D01*
X-478964Y-131807D01*
X-478629Y-150017D01*
G36*
X-219639Y-82910D02*
X-236610Y-65939D01*
X-253580Y-82910D01*
X-236610Y-99881D01*
X-219639Y-82910D01*
G37*
X-236609Y-57509D02*
G54D16*
D03*
X-236609Y-32109D02*
G54D16*
D03*
X-723974Y-28042D02*
G54D16*
D03*
X-723973Y-104242D02*
G54D16*
D03*
G36*
X-623743Y-184280D02*
X-623743Y-165280D01*
X-642743Y-165280D01*
X-642743Y-184280D01*
X-623743Y-184280D01*
G37*
X-607842Y-174780D02*
G54D14*
D03*
G54D15*
X-607842Y-174780D02*
X-607842Y-257342D01*
X-581420Y-283764D01*
X-435769Y-283766D01*
X-435372Y-284163D01*
G54D15*
X-603645Y-80167D02*
X-603645Y-100804D01*
X-633411Y-175020D01*
X-412748Y-34526D02*
G54D19*
D03*
X-630000Y-320000D02*
G54D20*
D03*
X-305000Y-320000D02*
G54D20*
D03*
X-638967Y-83342D02*
G54D19*
D03*
X-570704Y-148032D02*
G54D19*
D03*
X-474661Y-101201D02*
G54D19*
D03*
G36*
X-986630Y-138112D02*
X-986631Y-331391D01*
X-642938Y-331788D01*
X-642938Y-219869D01*
X-645319Y-205184D01*
X-649684Y-191294D01*
X-656828Y-178197D01*
X-669925Y-162719D01*
X-679450Y-154384D01*
X-698103Y-144859D01*
X-711994Y-140891D01*
X-727869Y-138112D01*
X-986630Y-138112D01*
G37*
G54D21*
X-986630Y-138112D02*
X-986631Y-331391D01*
X-642938Y-331788D01*
X-642938Y-219869D01*
X-645319Y-205184D01*
X-649684Y-191294D01*
X-656828Y-178197D01*
X-669925Y-162719D01*
X-679450Y-154384D01*
X-698103Y-144859D01*
X-711994Y-140891D01*
X-727869Y-138112D01*
X-986630Y-138112D01*
G36*
X397Y-138112D02*
X397Y-332184D01*
X-289322Y-331788D01*
X-289322Y-219869D01*
X-286941Y-205184D01*
X-282575Y-191294D01*
X-275431Y-178197D01*
X-262334Y-162719D01*
X-252809Y-154384D01*
X-234156Y-144859D01*
X-220266Y-140891D01*
X-204391Y-138112D01*
X397Y-138112D01*
G37*
G54D21*
X397Y-138112D02*
X397Y-332184D01*
X-289322Y-331788D01*
X-289322Y-219869D01*
X-286941Y-205184D01*
X-282575Y-191294D01*
X-275431Y-178197D01*
X-262334Y-162719D01*
X-252809Y-154384D01*
X-234156Y-144859D01*
X-220266Y-140891D01*
X-204391Y-138112D01*
X397Y-138112D01*
%LPD*%
G54D22*
G36*
X-755251Y-112869D02*
X-741751Y-112869D01*
X-741751Y-106202D01*
X-755251Y-106202D01*
X-755251Y-112869D01*
G37*
G36*
X-755251Y-106202D02*
X-768751Y-106202D01*
X-768751Y-112869D01*
X-755251Y-112869D01*
X-755251Y-106202D01*
G37*
G36*
X-758585Y-109535D02*
X-758585Y-123035D01*
X-751918Y-123035D01*
X-751918Y-109535D01*
X-758585Y-109535D01*
G37*
G54D22*
G36*
X-385760Y-222488D02*
X-398260Y-222488D01*
X-398260Y-229154D01*
X-385760Y-229154D01*
X-385760Y-222488D01*
G37*
G36*
X-385760Y-229154D02*
X-373260Y-229154D01*
X-373260Y-222488D01*
X-385760Y-222488D01*
X-385760Y-229154D01*
G37*
G54D22*
G36*
X-538161Y-247888D02*
X-550661Y-247888D01*
X-550661Y-254554D01*
X-538161Y-254554D01*
X-538161Y-247888D01*
G37*
G36*
X-541494Y-251221D02*
X-541494Y-263721D01*
X-534827Y-263721D01*
X-534827Y-251221D01*
X-541494Y-251221D01*
G37*
G36*
X-538161Y-254554D02*
X-525661Y-254554D01*
X-525661Y-247888D01*
X-538161Y-247888D01*
X-538161Y-254554D01*
G37*
G36*
X-534827Y-251221D02*
X-534827Y-238721D01*
X-541494Y-238721D01*
X-541494Y-251221D01*
X-534827Y-251221D01*
G37*
G54D23*
G36*
X-330847Y-30640D02*
X-343347Y-30640D01*
X-343347Y-39880D01*
X-330847Y-39880D01*
X-330847Y-30640D01*
G37*
G54D22*
G36*
X-186158Y-112338D02*
X-195703Y-102792D01*
X-200418Y-107506D01*
X-190872Y-117052D01*
X-186158Y-112338D01*
G37*
G36*
X-190872Y-112338D02*
X-200418Y-121884D01*
X-195703Y-126598D01*
X-186158Y-117052D01*
X-190872Y-112338D01*
G37*
G36*
X-190872Y-117052D02*
X-181326Y-126598D01*
X-176612Y-121884D01*
X-186158Y-112338D01*
X-190872Y-117052D01*
G37*
G36*
X-186158Y-117052D02*
X-176612Y-107506D01*
X-181326Y-102792D01*
X-190872Y-112338D01*
X-186158Y-117052D01*
G37*
G54D22*
G36*
X-629518Y-113211D02*
X-642018Y-113211D01*
X-642018Y-119878D01*
X-629518Y-119878D01*
X-629518Y-113211D01*
G37*
G36*
X-632851Y-116544D02*
X-632851Y-129044D01*
X-626184Y-129044D01*
X-626184Y-116544D01*
X-632851Y-116544D01*
G37*
G36*
X-629518Y-119878D02*
X-617018Y-119878D01*
X-617018Y-113211D01*
X-629518Y-113211D01*
X-629518Y-119878D01*
G37*
G36*
X-626184Y-116544D02*
X-626184Y-104044D01*
X-632851Y-104044D01*
X-632851Y-116544D01*
X-626184Y-116544D01*
G37*
G54D24*
G36*
X-234488Y-85031D02*
X-225649Y-76192D01*
X-229892Y-71950D01*
X-238731Y-80789D01*
X-234488Y-85031D01*
G37*
G36*
X-234488Y-80789D02*
X-243327Y-71950D01*
X-247570Y-76192D01*
X-238731Y-85031D01*
X-234488Y-80789D01*
G37*
G36*
X-238731Y-80789D02*
X-247570Y-89628D01*
X-243327Y-93870D01*
X-234488Y-85031D01*
X-238731Y-80789D01*
G37*
G36*
X-238731Y-85031D02*
X-229892Y-93870D01*
X-225649Y-89628D01*
X-234488Y-80789D01*
X-238731Y-85031D01*
G37*
X-46036Y-49608D02*
G54D10*
D03*
X-827085Y-49608D02*
G54D11*
D03*
G36*
X-745251Y-119535D02*
X-745251Y-99535D01*
X-765251Y-99535D01*
X-765251Y-119535D01*
X-745251Y-119535D01*
G37*
X-755252Y-84136D02*
G54D25*
D03*
X-755252Y-58736D02*
G54D25*
D03*
X-755252Y-33336D02*
G54D25*
D03*
X-385760Y-200421D02*
G54D26*
D03*
X-538160Y-200421D02*
G54D26*
D03*
X-385760Y-225821D02*
G54D26*
D03*
X-538161Y-251221D02*
G54D26*
D03*
X-385760Y-251221D02*
G54D26*
D03*
G36*
X-427872Y-251262D02*
X-442872Y-251262D01*
X-442872Y-266262D01*
X-427872Y-266262D01*
X-427872Y-251262D01*
G37*
X-435372Y-284163D02*
G54D27*
D03*
G36*
X-590099Y-32827D02*
X-575099Y-32827D01*
X-575099Y-17827D01*
X-590099Y-17827D01*
X-590099Y-32827D01*
G37*
X-582599Y-50727D02*
G54D27*
D03*
G54D28*
X-435372Y-284163D02*
X-413542Y-270270D01*
X-413542Y-193674D01*
X-457199Y-150017D01*
G54D28*
X-457199Y-150017D02*
X-475058Y-166686D01*
X-502839Y-166686D01*
X-581817Y-83342D01*
X-582214Y-51112D01*
X-582599Y-50727D01*
G54D28*
X-435372Y-258762D02*
X-603645Y-80167D01*
X-603645Y-30102D01*
X-582599Y-25327D01*
G36*
X-271046Y-51660D02*
X-289046Y-51660D01*
X-289046Y-69660D01*
X-271046Y-69660D01*
X-271046Y-51660D01*
G37*
X-280046Y-35260D02*
G54D29*
D03*
X-305446Y-60660D02*
G54D29*
D03*
X-305446Y-35260D02*
G54D29*
D03*
X-330846Y-60660D02*
G54D29*
D03*
X-330847Y-35260D02*
G54D29*
D03*
X-478630Y-150017D02*
G54D27*
D03*
X-137714Y-114695D02*
G54D25*
D03*
X-163114Y-114695D02*
G54D25*
D03*
X-188515Y-114695D02*
G54D25*
D03*
G36*
X-639518Y-106544D02*
X-639518Y-126544D01*
X-619518Y-126544D01*
X-619518Y-106544D01*
X-639518Y-106544D01*
G37*
X-654917Y-116545D02*
G54D25*
D03*
X-457199Y-150017D02*
G54D27*
D03*
X-964008Y-90487D02*
G54D19*
D03*
G54D21*
X-283764Y-89296D02*
X-259555Y-71834D01*
X-259555Y-21828D01*
X-272255Y-9128D01*
X-950514Y-9128D01*
X-964009Y-22622D01*
X-964008Y-90487D01*
X-284161Y-88104D02*
G54D30*
D03*
G54D28*
X-330846Y-60660D02*
X-382984Y-60722D01*
X-478964Y-131807D01*
X-478629Y-150017D01*
G36*
X-223882Y-82910D02*
X-236610Y-70182D01*
X-249338Y-82910D01*
X-236610Y-95638D01*
X-223882Y-82910D01*
G37*
X-236609Y-57509D02*
G54D29*
D03*
X-236609Y-32109D02*
G54D29*
D03*
X-723974Y-28042D02*
G54D25*
D03*
X-723973Y-104242D02*
G54D25*
D03*
G36*
X-625743Y-182280D02*
X-625743Y-167280D01*
X-640743Y-167280D01*
X-640743Y-182280D01*
X-625743Y-182280D01*
G37*
X-607842Y-174780D02*
G54D27*
D03*
G54D28*
X-607842Y-174780D02*
X-607842Y-257342D01*
X-581420Y-283764D01*
X-435769Y-283766D01*
X-435372Y-284163D01*
G54D28*
X-603645Y-80167D02*
X-603645Y-100804D01*
X-633411Y-175020D01*
X-412748Y-34526D02*
G54D19*
D03*
X-630000Y-320000D02*
G54D20*
D03*
X-305000Y-320000D02*
G54D20*
D03*
X-638967Y-83342D02*
G54D19*
D03*
X-570704Y-148032D02*
G54D19*
D03*
X-474661Y-101201D02*
G54D19*
D03*
%LNAUGENFREISTANZEN*%
%LPC*%
X-46036Y-49608D02*
G54D31*
D03*
X-827085Y-49608D02*
G54D31*
D03*
X-755251Y-109535D02*
G54D32*
D03*
X-755252Y-84136D02*
G54D32*
D03*
X-755252Y-58736D02*
G54D32*
D03*
X-755252Y-33336D02*
G54D32*
D03*
X-385760Y-200421D02*
G54D28*
D03*
X-538160Y-200421D02*
G54D28*
D03*
X-385760Y-225821D02*
G54D28*
D03*
X-538161Y-251221D02*
G54D28*
D03*
X-385760Y-251221D02*
G54D28*
D03*
X-435372Y-258762D02*
G54D28*
D03*
X-435372Y-284163D02*
G54D28*
D03*
X-582599Y-25327D02*
G54D28*
D03*
X-582599Y-50727D02*
G54D28*
D03*
X-280046Y-60660D02*
G54D32*
D03*
X-280046Y-35260D02*
G54D32*
D03*
X-305446Y-60660D02*
G54D32*
D03*
X-305446Y-35260D02*
G54D32*
D03*
X-330846Y-60660D02*
G54D32*
D03*
X-330847Y-35260D02*
G54D32*
D03*
X-478630Y-150017D02*
G54D28*
D03*
X-137714Y-114695D02*
G54D32*
D03*
X-163114Y-114695D02*
G54D32*
D03*
X-188515Y-114695D02*
G54D32*
D03*
X-629518Y-116544D02*
G54D32*
D03*
X-654917Y-116545D02*
G54D32*
D03*
X-457199Y-150017D02*
G54D28*
D03*
X-964008Y-90487D02*
G54D28*
D03*
X-284161Y-88104D02*
G54D28*
D03*
X-236610Y-82910D02*
G54D32*
D03*
X-236609Y-57509D02*
G54D32*
D03*
X-236609Y-32109D02*
G54D32*
D03*
X-723974Y-28042D02*
G54D32*
D03*
X-723973Y-104242D02*
G54D32*
D03*
X-633243Y-174780D02*
G54D28*
D03*
X-607842Y-174780D02*
G54D28*
D03*
X-412748Y-34526D02*
G54D28*
D03*
X-630000Y-320000D02*
G54D32*
D03*
X-305000Y-320000D02*
G54D32*
D03*
X-638967Y-83342D02*
G54D28*
D03*
X-570704Y-148032D02*
G54D28*
D03*
X-474661Y-101201D02*
G54D28*
D03*
M02*
