M48
M71
T01C0.5
T02C0.6
T03C0.8
T04C0.9
T05C3.0
%
G05
T01
X037170Y-027080
X043540Y-025880
X043540Y-028420
X045400Y-015800
X047860Y-015000
X047470Y-010120
X047470Y-006110
X041270Y-003450
X035820Y-016840
X057070Y-014800
X060780Y-017480
X063320Y-017480
X063900Y-008330
X058260Y-005070
X058260Y-002530
T02
X013770Y-011550
X016310Y-011550
X018850Y-011550
X023660Y-008290
X023660Y-005750
X023660Y-003210
X086230Y-008150
X089060Y-010980
T03
X032430Y-028640
X034970Y-028640
X028540Y-015720
X028420Y-008810
X028000Y-006070
X028000Y-003530
X030540Y-003530
X030540Y-006070
X033080Y-006070
X033080Y-003530
X062950Y-011650
X065490Y-011650
X072400Y-010420
X075530Y-010950
X075530Y-008410
X075530Y-005870
X075530Y-003330
X072400Y-003040
X061350Y-030420
X058810Y-030420
T04
X038580Y-025120
X038580Y-022580
X038580Y-020040
X053820Y-020040
X053820Y-025120
T05
X004600Y-004960
X082710Y-004960
M30
