%FSLAX34Y34*%
%MOMM*%
%LNCOPPER_TOP*%
G71*
G01*
%ADD10C, 5.000*%
%ADD11C, 5.200*%
%ADD12C, 2.600*%
%ADD13C, 2.600*%
%ADD14R, 2.600X1.100*%
%ADD15C, 0.900*%
%ADD16C, 0.700*%
%ADD17R, 1.000X2.400*%
%ADD18R, 0.700X2.400*%
%ADD19R, 5.600X2.100*%
%ADD20C, 0.800*%
%ADD21C, 1.100*%
%ADD22C, 1.900*%
%ADD23C, 1.000*%
%ADD24C, 0.600*%
%ADD25R, 2.000X1.700*%
%ADD26C, 1.600*%
%ADD27C, 2.400*%
%ADD28R, 1.700X1.800*%
%ADD29C, 1.300*%
%ADD30C, 3.600*%
%ADD31C, 3.400*%
%ADD32C, 2.600*%
%ADD33R, 1.700X2.000*%
%ADD34R, 2.000X1.900*%
%ADD35R, 1.800X1.700*%
%ADD36R, 2.400X2.100*%
%ADD37R, 1.800X5.400*%
%ADD38C, 0.175*%
%ADD39C, 0.950*%
%ADD40C, 0.286*%
%ADD41C, 2.400*%
%ADD42R, 1.100X2.600*%
%ADD43C, 1.280*%
%ADD44R, 2.100X2.400*%
%ADD45C, 0.300*%
%ADD46C, 0.400*%
%ADD47R, 0.900X0.900*%
%ADD48R, 3.100X1.400*%
%ADD49C, 0.200*%
%ADD50R, 2.000X2.000*%
%ADD51R, 2.200X2.200*%
%ADD52C, 1.880*%
%ADD53C, 2.800*%
%ADD54C, 0.667*%
%ADD55C, 0.649*%
%ADD56C, 0.433*%
%ADD57C, 0.924*%
%ADD58C, 0.233*%
%ADD59C, 0.245*%
%ADD60C, 2.000*%
%ADD61C, 2.000*%
%ADD62R, 2.200X0.700*%
%ADD63R, 0.600X2.000*%
%ADD64R, 0.300X2.000*%
%ADD65R, 5.000X1.500*%
%ADD66C, 0.500*%
%ADD67C, 1.500*%
%ADD68R, 1.600X1.300*%
%ADD69C, 1.800*%
%ADD70R, 1.300X1.400*%
%ADD71C, 3.000*%
%ADD72C, 2.000*%
%ADD73R, 1.300X1.600*%
%ADD74R, 1.400X1.300*%
%ADD75R, 1.200X4.800*%
%ADD76C, 0.550*%
%ADD77C, 1.800*%
%ADD78R, 0.700X2.200*%
%ADD79C, 0.000*%
%ADD80R, 0.500X0.500*%
%ADD81R, 2.700X1.000*%
%ADD82C, 0.100*%
%ADD83R, 1.600X1.600*%
%LPD*%
G36*
X792Y-396D02*
X982792Y-396D01*
X982792Y-331396D01*
X792Y-331396D01*
X792Y-396D01*
G37*
%LPC*%
X46036Y-49608D02*
G54D10*
D03*
X827085Y-49608D02*
G54D11*
D03*
G36*
X742251Y-122535D02*
X742251Y-96535D01*
X768251Y-96535D01*
X768251Y-122535D01*
X742251Y-122535D01*
G37*
X755252Y-84136D02*
G54D12*
D03*
X755252Y-58736D02*
G54D12*
D03*
X755252Y-33336D02*
G54D12*
D03*
X385760Y-200421D02*
G54D13*
D03*
X538160Y-200421D02*
G54D13*
D03*
X385760Y-225821D02*
G54D13*
D03*
X538161Y-251221D02*
G54D13*
D03*
X385760Y-251221D02*
G54D13*
D03*
X664367Y-67070D02*
G54D14*
D03*
X664367Y-54370D02*
G54D14*
D03*
X664367Y-41670D02*
G54D14*
D03*
X664366Y-28970D02*
G54D14*
D03*
X610367Y-28970D02*
G54D14*
D03*
X610367Y-41671D02*
G54D14*
D03*
X610367Y-54371D02*
G54D14*
D03*
X610367Y-67070D02*
G54D14*
D03*
G54D15*
X667005Y-53861D02*
X666748Y-53973D01*
G54D16*
X465738Y-295714D02*
X465737Y-288967D01*
X480818Y-279045D01*
X480818Y-267932D01*
X482406Y-305239D02*
G54D17*
D03*
X475818Y-305239D02*
G54D18*
D03*
X470818Y-305239D02*
G54D18*
D03*
X465818Y-305239D02*
G54D18*
D03*
X475818Y-261239D02*
G54D18*
D03*
X470818Y-261239D02*
G54D18*
D03*
X465819Y-261239D02*
G54D18*
D03*
X459387Y-305240D02*
G54D17*
D03*
X482406Y-261186D02*
G54D17*
D03*
X459387Y-261186D02*
G54D17*
D03*
X509071Y-225501D02*
G54D19*
D03*
X427315Y-225501D02*
G54D19*
D03*
G54D20*
X611161Y-42067D02*
X629045Y-42067D01*
X629045Y-22620D01*
X637777Y-13889D01*
X739377Y-13889D01*
X739377Y-46036D01*
X756046Y-59133D01*
G54D20*
X755252Y-34130D02*
X755252Y-7539D01*
X634602Y-7539D01*
X612378Y-29766D01*
X610367Y-29764D01*
G54D15*
X435372Y-258762D02*
X459343Y-258364D01*
G54D16*
X465930Y-270270D02*
X465930Y-274239D01*
X462359Y-276622D01*
X446088Y-276622D01*
X435372Y-284163D01*
G54D16*
X423346Y-225501D02*
X445767Y-225501D01*
X470692Y-246855D01*
X470692Y-255189D01*
G54D16*
X475852Y-255189D02*
X475852Y-246458D01*
X500061Y-226614D01*
G54D21*
X460248Y-123076D02*
X460248Y-148953D01*
X454024Y-157955D01*
G36*
X425872Y-249262D02*
X444872Y-249262D01*
X444872Y-268262D01*
X425872Y-268262D01*
X425872Y-249262D01*
G37*
X435372Y-284163D02*
G54D22*
D03*
G54D15*
X492248Y-123075D02*
X492645Y-165767D01*
X482202Y-176211D01*
X378220Y-176211D01*
X354407Y-200024D01*
X354408Y-242888D01*
X381792Y-251221D01*
G54D15*
X381792Y-200421D02*
X402828Y-193675D01*
X484189Y-193673D01*
X487759Y-186531D01*
X506808Y-167480D01*
X506808Y-108635D01*
X506749Y-108575D01*
G54D15*
X534192Y-200421D02*
X519508Y-179386D01*
X519508Y-100805D01*
X506978Y-100805D01*
X506748Y-100575D01*
G36*
X592099Y-34827D02*
X573099Y-34827D01*
X573099Y-15827D01*
X592099Y-15827D01*
X592099Y-34827D01*
G37*
X582599Y-50727D02*
G54D22*
D03*
G54D15*
X610367Y-41671D02*
X593724Y-41671D01*
X582599Y-50727D01*
G54D15*
X610367Y-28970D02*
X582599Y-25327D01*
G54D23*
X388875Y-60660D02*
X461022Y-60575D01*
X469105Y-68658D01*
X506434Y-68658D01*
G54D23*
X506352Y-68575D02*
X519904Y-68657D01*
X519905Y-84533D01*
X506351Y-84575D01*
G54D24*
X491727Y-76595D02*
X506749Y-76575D01*
G54D24*
X526255Y-92867D02*
X490933Y-92867D01*
G54D24*
X433386Y-84533D02*
X420686Y-84533D01*
X408780Y-84533D01*
G54D21*
X610367Y-67070D02*
X565943Y-67070D01*
X393674Y-65110D02*
G54D25*
D03*
X393674Y-84110D02*
G54D25*
D03*
G54D15*
X499590Y-265008D02*
X517024Y-265008D01*
X528636Y-276620D01*
X560784Y-276622D01*
X570705Y-266698D01*
X570705Y-200023D01*
X586580Y-199998D01*
X586579Y-182958D01*
X586581Y-171845D01*
G54D26*
X755252Y-84136D02*
X740170Y-87708D01*
X723973Y-104242D01*
G36*
X268046Y-48660D02*
X292046Y-48660D01*
X292046Y-72660D01*
X268046Y-72660D01*
X268046Y-48660D01*
G37*
X280046Y-35260D02*
G54D27*
D03*
X305446Y-60660D02*
G54D27*
D03*
X305446Y-35260D02*
G54D27*
D03*
X330846Y-60660D02*
G54D27*
D03*
X330847Y-35260D02*
G54D27*
D03*
X478630Y-150017D02*
G54D22*
D03*
G54D21*
X468248Y-123075D02*
X468248Y-136858D01*
X478629Y-150017D01*
G54D20*
X436249Y-38075D02*
X436538Y-24582D01*
X433386Y-21430D01*
X321864Y-21430D01*
X318292Y-25002D01*
X318292Y-41273D01*
X311545Y-48020D01*
X292686Y-48020D01*
X280046Y-60660D01*
G54D20*
X305594Y-33338D02*
X305594Y-25797D01*
X317103Y-14288D01*
X435769Y-14288D01*
X444103Y-22622D01*
X444103Y-36116D01*
G54D20*
X306784Y-60722D02*
X312738Y-57150D01*
X321866Y-48022D01*
X402431Y-48022D01*
X406797Y-52388D01*
X421084Y-52388D01*
G54D21*
X279795Y-34924D02*
X279796Y-15875D01*
X290908Y-6350D01*
X565545Y-6350D01*
G36*
X343973Y-53309D02*
X360973Y-53309D01*
X360973Y-71309D01*
X343973Y-71309D01*
X343973Y-53309D01*
G37*
X371473Y-62309D02*
G54D28*
D03*
G54D29*
X330846Y-60660D02*
X351680Y-60721D01*
G54D21*
X372267Y-65087D02*
X393674Y-65110D01*
X20011Y-114695D02*
G54D30*
D03*
X100011Y-114695D02*
G54D31*
D03*
X137714Y-115489D02*
G54D32*
D03*
X163114Y-115489D02*
G54D32*
D03*
X188515Y-115489D02*
G54D32*
D03*
X99988Y-95620D02*
G54D25*
D03*
X99988Y-76620D02*
G54D25*
D03*
G54D15*
X100011Y-114695D02*
X137714Y-114695D01*
X586581Y-116283D02*
G54D33*
D03*
G36*
X597080Y-106283D02*
X614080Y-106283D01*
X614080Y-126283D01*
X597080Y-126283D01*
X597080Y-106283D01*
G37*
G36*
X641518Y-104544D02*
X641518Y-128544D01*
X617518Y-128544D01*
X617518Y-104544D01*
X641518Y-104544D01*
G37*
X654917Y-116545D02*
G54D27*
D03*
G54D20*
X242093Y-117475D02*
X262730Y-138112D01*
X419496Y-138112D01*
X436562Y-125016D01*
X241644Y-117473D02*
G54D28*
D03*
X222644Y-117473D02*
G54D28*
D03*
X454024Y-157955D02*
G54D22*
D03*
G54D15*
X435372Y-258762D02*
X411955Y-258364D01*
X399255Y-271064D01*
X371474Y-271064D01*
X344557Y-109416D02*
G54D28*
D03*
X325557Y-109416D02*
G54D28*
D03*
X19818Y-96017D02*
G54D34*
D03*
X19818Y-77017D02*
G54D34*
D03*
X333047Y-86449D02*
G54D28*
D03*
X314047Y-86449D02*
G54D28*
D03*
G54D15*
X352843Y-85559D02*
X332349Y-85750D01*
X334142Y-177377D02*
G54D35*
D03*
X334142Y-158377D02*
G54D35*
D03*
X505196Y-265135D02*
G54D36*
D03*
X505196Y-284135D02*
G54D36*
D03*
G54D21*
X482520Y-268665D02*
X501570Y-268665D01*
G36*
X536596Y-97518D02*
X554596Y-97517D01*
X554597Y-151517D01*
X536597Y-151518D01*
X536596Y-97518D01*
G37*
X545596Y-42761D02*
G54D37*
D03*
G54D23*
X506748Y-52575D02*
X529829Y-52575D01*
X545596Y-42761D01*
G54D23*
X506748Y-60575D02*
X528094Y-60575D01*
X545596Y-102690D01*
X545702Y-124412D01*
X545596Y-124518D01*
X352146Y-85256D02*
G54D33*
D03*
G36*
X362646Y-75257D02*
X379646Y-75256D01*
X379646Y-95256D01*
X362646Y-95257D01*
X362646Y-75257D01*
G37*
X586184Y-171448D02*
G54D33*
D03*
X567184Y-171448D02*
G54D33*
D03*
G54D38*
X41845Y-128348D02*
X45512Y-118571D01*
X49178Y-128348D01*
G54D38*
X43312Y-124682D02*
X47712Y-124682D01*
G54D38*
X52600Y-128348D02*
X52600Y-118571D01*
X58467Y-128348D01*
X58467Y-118571D01*
G54D38*
X64822Y-128348D02*
X64822Y-118571D01*
G54D38*
X61889Y-118571D02*
X67756Y-118571D01*
G54D38*
X13667Y-17224D02*
X17334Y-7446D01*
X21000Y-17224D01*
G54D38*
X15134Y-13557D02*
X19534Y-13557D01*
G54D38*
X24422Y-17224D02*
X24422Y-7446D01*
X30289Y-17224D01*
X30289Y-7446D01*
G54D38*
X36644Y-17224D02*
X36644Y-7446D01*
G54D38*
X33711Y-7446D02*
X39578Y-7446D01*
G54D38*
X46569Y-17224D02*
X46569Y-11724D01*
G54D38*
X46569Y-12701D02*
X48036Y-11724D01*
X49502Y-12090D01*
X50236Y-12946D01*
X50236Y-17224D01*
G54D38*
X50236Y-12701D02*
X51702Y-11724D01*
X53169Y-12090D01*
X53902Y-12946D01*
X53902Y-17224D01*
G54D38*
X61724Y-16612D02*
X60551Y-17224D01*
X59084Y-17224D01*
X57617Y-16612D01*
X57324Y-15390D01*
X57324Y-13312D01*
X58057Y-12090D01*
X59524Y-11724D01*
X60991Y-12090D01*
X61724Y-12946D01*
X61724Y-14168D01*
X57324Y-14168D01*
G54D38*
X66613Y-7446D02*
X66613Y-16612D01*
X67346Y-17224D01*
X68079Y-16979D01*
G54D38*
X65146Y-11724D02*
X68079Y-11724D01*
G54D38*
X75901Y-16612D02*
X74728Y-17224D01*
X73261Y-17224D01*
X71794Y-16612D01*
X71501Y-15390D01*
X71501Y-13312D01*
X72234Y-12090D01*
X73701Y-11724D01*
X75168Y-12090D01*
X75901Y-12946D01*
X75901Y-14168D01*
X71501Y-14168D01*
G54D38*
X79323Y-17224D02*
X79323Y-11724D01*
G54D38*
X79323Y-12946D02*
X80790Y-11724D01*
X82256Y-11724D01*
G54D38*
X89247Y-12335D02*
X90714Y-11724D01*
X92474Y-11724D01*
X93647Y-12946D01*
X93647Y-17224D01*
G54D38*
X93647Y-15390D02*
X92914Y-14168D01*
X91447Y-13924D01*
X89980Y-14168D01*
X89247Y-15390D01*
X89540Y-16612D01*
X90714Y-17224D01*
X91447Y-17224D01*
X91740Y-17224D01*
X92914Y-16612D01*
X93647Y-15390D01*
G54D38*
X101469Y-17224D02*
X101469Y-7446D01*
G54D38*
X101469Y-13312D02*
X100736Y-12090D01*
X99269Y-11724D01*
X97802Y-12090D01*
X97069Y-13312D01*
X97069Y-15757D01*
X97802Y-16979D01*
X99269Y-17224D01*
X100736Y-16979D01*
X101469Y-15757D01*
G54D38*
X106358Y-9890D02*
X106358Y-9890D01*
G54D38*
X104891Y-19668D02*
X105624Y-19668D01*
X106358Y-18690D01*
X106358Y-11724D01*
X311151Y-158352D02*
G54D35*
D03*
X311151Y-177352D02*
G54D35*
D03*
X334167Y-196503D02*
G54D35*
D03*
X334168Y-215502D02*
G54D35*
D03*
X310355Y-196502D02*
G54D25*
D03*
X310355Y-215501D02*
G54D25*
D03*
X284161Y-88104D02*
G54D12*
D03*
G54D15*
X334167Y-196503D02*
X334169Y-182562D01*
X334124Y-177962D01*
G54D15*
X334167Y-196503D02*
X310725Y-196872D01*
X310355Y-196502D01*
X310360Y-178143D01*
G54D39*
X311151Y-158352D02*
X285351Y-157558D01*
G54D15*
X284162Y-88106D02*
X304403Y-108347D01*
X320675Y-108347D01*
G54D20*
X459580Y-299639D02*
X407192Y-299639D01*
X394889Y-286938D01*
X349248Y-286938D01*
G54D23*
X482598Y-306386D02*
X541733Y-306386D01*
G54D15*
X334566Y-157956D02*
X341709Y-150812D01*
X423466Y-150812D01*
X444500Y-132953D01*
X444500Y-123825D01*
G54D16*
X223043Y-117475D02*
X199230Y-93662D01*
X175021Y-93662D01*
X162321Y-106362D01*
X162321Y-114300D01*
G54D40*
X893582Y-41482D02*
X899582Y-35482D01*
X899582Y-51482D01*
G54D40*
X905182Y-38482D02*
X906382Y-36482D01*
X908782Y-35482D01*
X911182Y-35482D01*
X913582Y-36482D01*
X914782Y-38482D01*
X914782Y-40482D01*
X913582Y-42482D01*
X911182Y-43482D01*
X913582Y-44482D01*
X914782Y-46482D01*
X914782Y-48482D01*
X913582Y-50482D01*
X911182Y-51482D01*
X908782Y-51482D01*
X906382Y-50482D01*
X905182Y-48482D01*
G54D40*
X920382Y-38482D02*
X921582Y-36482D01*
X923982Y-35482D01*
X926382Y-35482D01*
X928782Y-36482D01*
X929982Y-38482D01*
X929982Y-40482D01*
X928782Y-42482D01*
X926382Y-43482D01*
X928782Y-44482D01*
X929982Y-46482D01*
X929982Y-48482D01*
X928782Y-50482D01*
X926382Y-51482D01*
X923982Y-51482D01*
X921582Y-50482D01*
X920382Y-48482D01*
G54D40*
X942782Y-42482D02*
X942782Y-51482D01*
G54D40*
X942782Y-49482D02*
X941582Y-51082D01*
X939182Y-51482D01*
X936782Y-51082D01*
X935582Y-49482D01*
X935582Y-42482D01*
G54D40*
X957982Y-38482D02*
X957982Y-48482D01*
X956782Y-50482D01*
X954382Y-51482D01*
X951982Y-51482D01*
X949582Y-50482D01*
X948382Y-48482D01*
X948382Y-38482D01*
X949582Y-36482D01*
X951982Y-35482D01*
X954382Y-35482D01*
X956782Y-36482D01*
X957982Y-38482D01*
G54D40*
X973182Y-51482D02*
X963582Y-51482D01*
X963582Y-50482D01*
X964782Y-48482D01*
X971982Y-42482D01*
X973182Y-40482D01*
X973182Y-38482D01*
X971982Y-36482D01*
X969582Y-35482D01*
X967182Y-35482D01*
X964782Y-36482D01*
X963582Y-38482D01*
G36*
X219639Y-82910D02*
X236610Y-65939D01*
X253580Y-82910D01*
X236610Y-99881D01*
X219639Y-82910D01*
G37*
X236609Y-57509D02*
G54D41*
D03*
X236609Y-32109D02*
G54D41*
D03*
G54D15*
X236609Y-33300D02*
X280046Y-33276D01*
G54D15*
X236609Y-57509D02*
X258615Y-57485D01*
X697403Y-49514D02*
G54D35*
D03*
X697403Y-30515D02*
G54D35*
D03*
X697431Y-94730D02*
G54D35*
D03*
X697431Y-75730D02*
G54D35*
D03*
G54D15*
X663573Y-41670D02*
X682674Y-41670D01*
X691356Y-49609D01*
X696610Y-49514D01*
X724393Y-51893D02*
G54D35*
D03*
X724393Y-70893D02*
G54D35*
D03*
G54D15*
X697431Y-94730D02*
X654917Y-116545D01*
G54D15*
X697431Y-75730D02*
X697403Y-49514D01*
X723974Y-30424D02*
G54D27*
D03*
X723973Y-104242D02*
G54D27*
D03*
G54D16*
X697431Y-94730D02*
X714770Y-87311D01*
X723576Y-71709D01*
G54D15*
X723996Y-51893D02*
X723996Y-30446D01*
G54D40*
X884642Y-8749D02*
X884642Y-21749D01*
X885842Y-23749D01*
X888242Y-24749D01*
X890642Y-24749D01*
X893042Y-23749D01*
X894242Y-21749D01*
X894242Y-8749D01*
G54D40*
X899842Y-24749D02*
X899842Y-8749D01*
X905842Y-8749D01*
X908242Y-9749D01*
X909442Y-11749D01*
X909442Y-21749D01*
X908242Y-23749D01*
X905842Y-24749D01*
X899842Y-24749D01*
G54D40*
X924642Y-11749D02*
X924642Y-21749D01*
X923442Y-23749D01*
X921042Y-24749D01*
X918642Y-24749D01*
X916242Y-23749D01*
X915042Y-21749D01*
X915042Y-11749D01*
X916242Y-9749D01*
X918642Y-8749D01*
X921042Y-8749D01*
X923442Y-9749D01*
X924642Y-11749D01*
G54D40*
X939842Y-21749D02*
X938642Y-23749D01*
X936242Y-24749D01*
X933842Y-24749D01*
X931442Y-23749D01*
X930242Y-21749D01*
X930242Y-11749D01*
X931442Y-9749D01*
X933842Y-8749D01*
X936242Y-8749D01*
X938642Y-9749D01*
X939842Y-11749D01*
G54D40*
X945442Y-24749D02*
X951442Y-8749D01*
X957442Y-24749D01*
G54D40*
X947842Y-18749D02*
X955042Y-18749D01*
G54D40*
X972642Y-8749D02*
X972642Y-21749D01*
X971442Y-23749D01*
X969042Y-24749D01*
X966642Y-24749D01*
X964242Y-23749D01*
X963042Y-21749D01*
G54D38*
X327992Y-270827D02*
X333858Y-270827D01*
G54D38*
X330925Y-270827D02*
X330925Y-261049D01*
G54D38*
X327992Y-261049D02*
X333858Y-261049D01*
G54D38*
X337281Y-270827D02*
X337281Y-261049D01*
X342414Y-261049D01*
G54D38*
X337281Y-265938D02*
X342414Y-265938D01*
G54D38*
X587548Y-277321D02*
X591215Y-287098D01*
X594881Y-277321D01*
G54D38*
X598303Y-287098D02*
X598303Y-277321D01*
X603436Y-277321D01*
G54D38*
X598303Y-282210D02*
X603436Y-282210D01*
G54D38*
X612725Y-279154D02*
X612725Y-285265D01*
X611991Y-286487D01*
X610525Y-287098D01*
X609058Y-287098D01*
X607591Y-286487D01*
X606858Y-285265D01*
X606858Y-279154D01*
X607591Y-277932D01*
X609058Y-277321D01*
X610525Y-277321D01*
X611991Y-277932D01*
X612725Y-279154D01*
X586580Y-253998D02*
G54D42*
D03*
X599280Y-253998D02*
G54D42*
D03*
X611980Y-253998D02*
G54D42*
D03*
G36*
X619180Y-240998D02*
X630180Y-240997D01*
X630181Y-266997D01*
X619181Y-266998D01*
X619180Y-240998D01*
G37*
X624680Y-199998D02*
G54D42*
D03*
G36*
X606479Y-186998D02*
X617479Y-186998D01*
X617480Y-212998D01*
X606480Y-212998D01*
X606479Y-186998D01*
G37*
X599279Y-199999D02*
G54D42*
D03*
G36*
X581079Y-186999D02*
X592079Y-186998D01*
X592080Y-212998D01*
X581080Y-212999D01*
X581079Y-186999D01*
G37*
G36*
X623743Y-184280D02*
X623743Y-165280D01*
X642743Y-165280D01*
X642743Y-184280D01*
X623743Y-184280D01*
G37*
X607842Y-174780D02*
G54D22*
D03*
G54D15*
X624680Y-199998D02*
X624681Y-183356D01*
X633243Y-174780D01*
G54D15*
X611980Y-199998D02*
X611981Y-178594D01*
X607842Y-174780D01*
X412748Y-34526D02*
G54D43*
D03*
X638967Y-83342D02*
G54D43*
D03*
X570704Y-148032D02*
G54D43*
D03*
G36*
X367736Y-98155D02*
X384736Y-98155D01*
X384736Y-116155D01*
X367736Y-116155D01*
X367736Y-98155D01*
G37*
X395236Y-107155D02*
G54D28*
D03*
G54D15*
X352146Y-85256D02*
X352423Y-108346D01*
G54D20*
X395236Y-107155D02*
X411557Y-100805D01*
X421519Y-100805D01*
G54D15*
X475852Y-68658D02*
X514745Y-30162D01*
X514745Y-6746D01*
G36*
X469105Y-68658D02*
X461419Y-60972D01*
X461419Y-54515D01*
X462754Y-53180D01*
X492123Y-53180D01*
X492123Y-65085D01*
X495695Y-68658D01*
X469105Y-68658D01*
G37*
G54D16*
X469105Y-68658D02*
X461419Y-60972D01*
X461419Y-54515D01*
X462754Y-53180D01*
X492123Y-53180D01*
X492123Y-65085D01*
X495695Y-68658D01*
X469105Y-68658D01*
X380974Y-313158D02*
G54D33*
D03*
X361974Y-313158D02*
G54D33*
D03*
G36*
X401470Y-307309D02*
X418470Y-307308D01*
X418470Y-325308D01*
X401470Y-325309D01*
X401470Y-307309D01*
G37*
X428970Y-316308D02*
G54D28*
D03*
G54D16*
X409970Y-316308D02*
X387324Y-313952D01*
G54D16*
X428970Y-316308D02*
X441323Y-316308D01*
X448863Y-323849D01*
X474263Y-323849D01*
X475851Y-322261D01*
X475851Y-312736D01*
G36*
X482598Y-268683D02*
X506013Y-268683D01*
X506013Y-261936D01*
X496885Y-252808D01*
X482598Y-252808D01*
X482598Y-268683D01*
G37*
G54D16*
X482598Y-268683D02*
X506013Y-268683D01*
X506013Y-261936D01*
X496885Y-252808D01*
X482598Y-252808D01*
X482598Y-268683D01*
G36*
X516170Y-161448D02*
X533170Y-161448D01*
X533170Y-181448D01*
X516170Y-181448D01*
X516170Y-161448D01*
G37*
X543669Y-171448D02*
G54D33*
D03*
G36*
X473689Y-181673D02*
X494689Y-181673D01*
X494689Y-205673D01*
X473689Y-205673D01*
X473689Y-181673D01*
G37*
X503188Y-193673D02*
G54D44*
D03*
X353963Y-240901D02*
G54D33*
D03*
X334963Y-240901D02*
G54D33*
D03*
G54D45*
X490139Y-106360D02*
X482201Y-98423D01*
G54D23*
X586580Y-251219D02*
X586580Y-234551D01*
G54D29*
X588169Y-141684D02*
X654050Y-141684D01*
X710803Y-117078D01*
X723973Y-104242D01*
G54D16*
X496489Y-252807D02*
X502045Y-247251D01*
G36*
X515248Y-109575D02*
X513248Y-111575D01*
X502248Y-111576D01*
X501248Y-110575D01*
X501249Y-106575D01*
X502248Y-105575D01*
X513248Y-105576D01*
X515248Y-107575D01*
X515248Y-109575D01*
G37*
G54D46*
X515248Y-109575D02*
X513248Y-111575D01*
X502248Y-111576D01*
X501248Y-110575D01*
X501249Y-106575D01*
X502248Y-105575D01*
X513248Y-105576D01*
X515248Y-107575D01*
X515248Y-109575D01*
G36*
X515248Y-101575D02*
X513248Y-103575D01*
X502248Y-103575D01*
X501248Y-102575D01*
X501248Y-98576D01*
X502248Y-97576D01*
X513248Y-97576D01*
X515249Y-99576D01*
X515248Y-101575D01*
G37*
G54D46*
X515248Y-101575D02*
X513248Y-103575D01*
X502248Y-103575D01*
X501248Y-102575D01*
X501248Y-98576D01*
X502248Y-97576D01*
X513248Y-97576D01*
X515249Y-99576D01*
X515248Y-101575D01*
X506749Y-108575D02*
G54D47*
D03*
X506748Y-100575D02*
G54D47*
D03*
G36*
X515248Y-93575D02*
X513248Y-95575D01*
X502248Y-95576D01*
X501249Y-94575D01*
X501248Y-90575D01*
X502248Y-89575D01*
X513249Y-89575D01*
X515248Y-91575D01*
X515248Y-93575D01*
G37*
G54D46*
X515248Y-93575D02*
X513248Y-95575D01*
X502248Y-95576D01*
X501249Y-94575D01*
X501248Y-90575D01*
X502248Y-89575D01*
X513249Y-89575D01*
X515248Y-91575D01*
X515248Y-93575D01*
G36*
X515248Y-85575D02*
X513248Y-87576D01*
X502248Y-87576D01*
X501248Y-86575D01*
X501248Y-82575D01*
X502248Y-81576D01*
X513249Y-81575D01*
X515248Y-83575D01*
X515248Y-85575D01*
G37*
G54D46*
X515248Y-85575D02*
X513248Y-87576D01*
X502248Y-87576D01*
X501248Y-86575D01*
X501248Y-82575D01*
X502248Y-81576D01*
X513249Y-81575D01*
X515248Y-83575D01*
X515248Y-85575D01*
X506748Y-92575D02*
G54D47*
D03*
X506748Y-84575D02*
G54D47*
D03*
G36*
X515248Y-77575D02*
X513248Y-79575D01*
X502248Y-79575D01*
X501248Y-78575D01*
X501248Y-74576D01*
X502248Y-73576D01*
X513248Y-73576D01*
X515248Y-75576D01*
X515248Y-77575D01*
G37*
G54D46*
X515248Y-77575D02*
X513248Y-79575D01*
X502248Y-79575D01*
X501248Y-78575D01*
X501248Y-74576D01*
X502248Y-73576D01*
X513248Y-73576D01*
X515248Y-75576D01*
X515248Y-77575D01*
G36*
X515248Y-69575D02*
X513248Y-71575D01*
X502249Y-71575D01*
X501249Y-70575D01*
X501248Y-66575D01*
X502249Y-65575D01*
X513248Y-65575D01*
X515248Y-67575D01*
X515248Y-69575D01*
G37*
G54D46*
X515248Y-69575D02*
X513248Y-71575D01*
X502249Y-71575D01*
X501249Y-70575D01*
X501248Y-66575D01*
X502249Y-65575D01*
X513248Y-65575D01*
X515248Y-67575D01*
X515248Y-69575D01*
X506749Y-76575D02*
G54D47*
D03*
X506748Y-68575D02*
G54D47*
D03*
G36*
X515248Y-61575D02*
X513248Y-63575D01*
X502248Y-63575D01*
X501248Y-62576D01*
X501249Y-58575D01*
X502248Y-57575D01*
X513248Y-57575D01*
X515248Y-59576D01*
X515248Y-61575D01*
G37*
G54D46*
X515248Y-61575D02*
X513248Y-63575D01*
X502248Y-63575D01*
X501248Y-62576D01*
X501249Y-58575D01*
X502248Y-57575D01*
X513248Y-57575D01*
X515248Y-59576D01*
X515248Y-61575D01*
G36*
X515248Y-53576D02*
X513248Y-55575D01*
X502248Y-55575D01*
X501248Y-54575D01*
X501248Y-50576D01*
X502248Y-49575D01*
X513249Y-49576D01*
X515248Y-51575D01*
X515248Y-53576D01*
G37*
G54D46*
X515248Y-53576D02*
X513248Y-55575D01*
X502248Y-55575D01*
X501248Y-54575D01*
X501248Y-50576D01*
X502248Y-49575D01*
X513249Y-49576D01*
X515248Y-51575D01*
X515248Y-53576D01*
X506748Y-60575D02*
G54D47*
D03*
X506748Y-52575D02*
G54D47*
D03*
G36*
X435248Y-131575D02*
X433248Y-129575D01*
X433248Y-118575D01*
X434248Y-117575D01*
X438248Y-117575D01*
X439248Y-118575D01*
X439248Y-129575D01*
X437248Y-131576D01*
X435248Y-131575D01*
G37*
G54D46*
X435248Y-131575D02*
X433248Y-129575D01*
X433248Y-118575D01*
X434248Y-117575D01*
X438248Y-117575D01*
X439248Y-118575D01*
X439248Y-129575D01*
X437248Y-131576D01*
X435248Y-131575D01*
G36*
X443248Y-131575D02*
X441248Y-129575D01*
X441248Y-118575D01*
X442248Y-117575D01*
X446249Y-117575D01*
X447248Y-118576D01*
X447248Y-129575D01*
X445248Y-131575D01*
X443248Y-131575D01*
G37*
G54D46*
X443248Y-131575D02*
X441248Y-129575D01*
X441248Y-118575D01*
X442248Y-117575D01*
X446249Y-117575D01*
X447248Y-118576D01*
X447248Y-129575D01*
X445248Y-131575D01*
X443248Y-131575D01*
X436248Y-123075D02*
G54D47*
D03*
X444248Y-123075D02*
G54D47*
D03*
G36*
X451248Y-131576D02*
X449248Y-129575D01*
X449249Y-118575D01*
X450248Y-117575D01*
X454249Y-117576D01*
X455248Y-118575D01*
X455248Y-129576D01*
X453248Y-131575D01*
X451248Y-131576D01*
G37*
G54D46*
X451248Y-131576D02*
X449248Y-129575D01*
X449249Y-118575D01*
X450248Y-117575D01*
X454249Y-117576D01*
X455248Y-118575D01*
X455248Y-129576D01*
X453248Y-131575D01*
X451248Y-131576D01*
G36*
X459248Y-131575D02*
X457248Y-129575D01*
X457248Y-118575D01*
X458248Y-117575D01*
X462248Y-117575D01*
X463249Y-118575D01*
X463248Y-129575D01*
X461248Y-131576D01*
X459248Y-131575D01*
G37*
G54D46*
X459248Y-131575D02*
X457248Y-129575D01*
X457248Y-118575D01*
X458248Y-117575D01*
X462248Y-117575D01*
X463249Y-118575D01*
X463248Y-129575D01*
X461248Y-131576D01*
X459248Y-131575D01*
X452248Y-123075D02*
G54D47*
D03*
X460248Y-123076D02*
G54D47*
D03*
G36*
X467248Y-131575D02*
X465248Y-129575D01*
X465249Y-118575D01*
X466248Y-117575D01*
X470249Y-117575D01*
X471248Y-118575D01*
X471248Y-129575D01*
X469248Y-131575D01*
X467248Y-131575D01*
G37*
G54D46*
X467248Y-131575D02*
X465248Y-129575D01*
X465249Y-118575D01*
X466248Y-117575D01*
X470249Y-117575D01*
X471248Y-118575D01*
X471248Y-129575D01*
X469248Y-131575D01*
X467248Y-131575D01*
G36*
X475248Y-131575D02*
X473248Y-129575D01*
X473248Y-118575D01*
X474248Y-117575D01*
X478249Y-117576D01*
X479248Y-118575D01*
X479248Y-129575D01*
X477249Y-131575D01*
X475248Y-131575D01*
G37*
G54D46*
X475248Y-131575D02*
X473248Y-129575D01*
X473248Y-118575D01*
X474248Y-117575D01*
X478249Y-117576D01*
X479248Y-118575D01*
X479248Y-129575D01*
X477249Y-131575D01*
X475248Y-131575D01*
X468248Y-123075D02*
G54D47*
D03*
X476248Y-123075D02*
G54D47*
D03*
G36*
X483248Y-131575D02*
X481248Y-129575D01*
X481248Y-118576D01*
X482248Y-117576D01*
X486248Y-117575D01*
X487248Y-118576D01*
X487248Y-129575D01*
X485248Y-131575D01*
X483248Y-131575D01*
G37*
G54D46*
X483248Y-131575D02*
X481248Y-129575D01*
X481248Y-118576D01*
X482248Y-117576D01*
X486248Y-117575D01*
X487248Y-118576D01*
X487248Y-129575D01*
X485248Y-131575D01*
X483248Y-131575D01*
G36*
X491248Y-131575D02*
X489248Y-129576D01*
X489249Y-118575D01*
X490248Y-117575D01*
X494248Y-117575D01*
X495248Y-118576D01*
X495248Y-129575D01*
X493248Y-131576D01*
X491248Y-131575D01*
G37*
G54D46*
X491248Y-131575D02*
X489248Y-129576D01*
X489249Y-118575D01*
X490248Y-117575D01*
X494248Y-117575D01*
X495248Y-118576D01*
X495248Y-129575D01*
X493248Y-131576D01*
X491248Y-131575D01*
X484248Y-123075D02*
G54D47*
D03*
X492248Y-123075D02*
G54D47*
D03*
G36*
X413248Y-51575D02*
X415248Y-49575D01*
X426248Y-49576D01*
X427248Y-50576D01*
X427248Y-54575D01*
X426248Y-55575D01*
X415248Y-55575D01*
X413248Y-53576D01*
X413248Y-51575D01*
G37*
G54D46*
X413248Y-51575D02*
X415248Y-49575D01*
X426248Y-49576D01*
X427248Y-50576D01*
X427248Y-54575D01*
X426248Y-55575D01*
X415248Y-55575D01*
X413248Y-53576D01*
X413248Y-51575D01*
G36*
X413248Y-59576D02*
X415248Y-57575D01*
X426248Y-57575D01*
X427248Y-58575D01*
X427248Y-62575D01*
X426249Y-63575D01*
X415248Y-63575D01*
X413248Y-61575D01*
X413248Y-59576D01*
G37*
G54D46*
X413248Y-59576D02*
X415248Y-57575D01*
X426248Y-57575D01*
X427248Y-58575D01*
X427248Y-62575D01*
X426249Y-63575D01*
X415248Y-63575D01*
X413248Y-61575D01*
X413248Y-59576D01*
G36*
X417248Y-48076D02*
X426248Y-48075D01*
X426249Y-57075D01*
X417249Y-57076D01*
X417248Y-48076D01*
G37*
G36*
X417248Y-56076D02*
X426248Y-56075D01*
X426249Y-65075D01*
X417249Y-65076D01*
X417248Y-56076D01*
G37*
G36*
X413248Y-67575D02*
X415248Y-65576D01*
X426248Y-65576D01*
X427248Y-66576D01*
X427248Y-70575D01*
X426248Y-71576D01*
X415248Y-71576D01*
X413248Y-69575D01*
X413248Y-67575D01*
G37*
G54D46*
X413248Y-67575D02*
X415248Y-65576D01*
X426248Y-65576D01*
X427248Y-66576D01*
X427248Y-70575D01*
X426248Y-71576D01*
X415248Y-71576D01*
X413248Y-69575D01*
X413248Y-67575D01*
G36*
X413248Y-75575D02*
X415248Y-73575D01*
X426248Y-73575D01*
X427248Y-74576D01*
X427248Y-78575D01*
X426248Y-79575D01*
X415248Y-79575D01*
X413248Y-77576D01*
X413248Y-75575D01*
G37*
G54D46*
X413248Y-75575D02*
X415248Y-73575D01*
X426248Y-73575D01*
X427248Y-74576D01*
X427248Y-78575D01*
X426248Y-79575D01*
X415248Y-79575D01*
X413248Y-77576D01*
X413248Y-75575D01*
X421749Y-68575D02*
G54D47*
D03*
X421748Y-76575D02*
G54D47*
D03*
G36*
X413248Y-83576D02*
X415248Y-81575D01*
X426248Y-81575D01*
X427248Y-82575D01*
X427249Y-86576D01*
X426248Y-87575D01*
X415248Y-87575D01*
X413248Y-85576D01*
X413248Y-83576D01*
G37*
G54D46*
X413248Y-83576D02*
X415248Y-81575D01*
X426248Y-81575D01*
X427248Y-82575D01*
X427249Y-86576D01*
X426248Y-87575D01*
X415248Y-87575D01*
X413248Y-85576D01*
X413248Y-83576D01*
G36*
X413248Y-91575D02*
X415248Y-89575D01*
X426248Y-89575D01*
X427248Y-90576D01*
X427248Y-94575D01*
X426248Y-95575D01*
X415248Y-95575D01*
X413248Y-93575D01*
X413248Y-91575D01*
G37*
G54D46*
X413248Y-91575D02*
X415248Y-89575D01*
X426248Y-89575D01*
X427248Y-90576D01*
X427248Y-94575D01*
X426248Y-95575D01*
X415248Y-95575D01*
X413248Y-93575D01*
X413248Y-91575D01*
X421748Y-84575D02*
G54D47*
D03*
X421748Y-92575D02*
G54D47*
D03*
G36*
X413249Y-99575D02*
X415248Y-97575D01*
X426248Y-97575D01*
X427248Y-98575D01*
X427248Y-102575D01*
X426248Y-103575D01*
X415248Y-103575D01*
X413248Y-101575D01*
X413249Y-99575D01*
G37*
G54D46*
X413249Y-99575D02*
X415248Y-97575D01*
X426248Y-97575D01*
X427248Y-98575D01*
X427248Y-102575D01*
X426248Y-103575D01*
X415248Y-103575D01*
X413248Y-101575D01*
X413249Y-99575D01*
G36*
X413249Y-107576D02*
X415248Y-105575D01*
X426248Y-105575D01*
X427248Y-106575D01*
X427248Y-110575D01*
X426248Y-111575D01*
X415248Y-111576D01*
X413249Y-109575D01*
X413249Y-107576D01*
G37*
G54D46*
X413249Y-107576D02*
X415248Y-105575D01*
X426248Y-105575D01*
X427248Y-106575D01*
X427248Y-110575D01*
X426248Y-111575D01*
X415248Y-111576D01*
X413249Y-109575D01*
X413249Y-107576D01*
G36*
X417248Y-96076D02*
X426248Y-96076D01*
X426248Y-105076D01*
X417248Y-105076D01*
X417248Y-96076D01*
G37*
X421748Y-108575D02*
G54D47*
D03*
G36*
X493248Y-29575D02*
X495248Y-31576D01*
X495248Y-42575D01*
X494248Y-43575D01*
X490248Y-43575D01*
X489248Y-42575D01*
X489248Y-31575D01*
X491248Y-29575D01*
X493248Y-29575D01*
G37*
G54D46*
X493248Y-29575D02*
X495248Y-31576D01*
X495248Y-42575D01*
X494248Y-43575D01*
X490248Y-43575D01*
X489248Y-42575D01*
X489248Y-31575D01*
X491248Y-29575D01*
X493248Y-29575D01*
G36*
X485249Y-29576D02*
X487248Y-31575D01*
X487248Y-42575D01*
X486249Y-43576D01*
X482248Y-43575D01*
X481248Y-42575D01*
X481248Y-31575D01*
X483248Y-29575D01*
X485249Y-29576D01*
G37*
G54D46*
X485249Y-29576D02*
X487248Y-31575D01*
X487248Y-42575D01*
X486249Y-43576D01*
X482248Y-43575D01*
X481248Y-42575D01*
X481248Y-31575D01*
X483248Y-29575D01*
X485249Y-29576D01*
X492249Y-38075D02*
G54D47*
D03*
X484248Y-38076D02*
G54D47*
D03*
G36*
X477249Y-29575D02*
X479248Y-31575D01*
X479248Y-42575D01*
X478248Y-43575D01*
X474249Y-43575D01*
X473249Y-42576D01*
X473248Y-31576D01*
X475248Y-29575D01*
X477249Y-29575D01*
G37*
G54D46*
X477249Y-29575D02*
X479248Y-31575D01*
X479248Y-42575D01*
X478248Y-43575D01*
X474249Y-43575D01*
X473249Y-42576D01*
X473248Y-31576D01*
X475248Y-29575D01*
X477249Y-29575D01*
G36*
X469249Y-29576D02*
X471248Y-31576D01*
X471248Y-42576D01*
X470249Y-43575D01*
X466248Y-43576D01*
X465248Y-42575D01*
X465249Y-31575D01*
X467248Y-29575D01*
X469249Y-29576D01*
G37*
G54D46*
X469249Y-29576D02*
X471248Y-31576D01*
X471248Y-42576D01*
X470249Y-43575D01*
X466248Y-43576D01*
X465248Y-42575D01*
X465249Y-31575D01*
X467248Y-29575D01*
X469249Y-29576D01*
X476248Y-38075D02*
G54D47*
D03*
X468248Y-38075D02*
G54D47*
D03*
G36*
X461248Y-29575D02*
X463249Y-31575D01*
X463249Y-42576D01*
X462248Y-43575D01*
X458248Y-43575D01*
X457248Y-42576D01*
X457248Y-31575D01*
X459248Y-29575D01*
X461248Y-29575D01*
G37*
G54D46*
X461248Y-29575D02*
X463249Y-31575D01*
X463249Y-42576D01*
X462248Y-43575D01*
X458248Y-43575D01*
X457248Y-42576D01*
X457248Y-31575D01*
X459248Y-29575D01*
X461248Y-29575D01*
G36*
X453249Y-29575D02*
X455248Y-31575D01*
X455248Y-42575D01*
X454248Y-43575D01*
X450249Y-43575D01*
X449248Y-42576D01*
X449248Y-31575D01*
X451248Y-29576D01*
X453249Y-29575D01*
G37*
G54D46*
X453249Y-29575D02*
X455248Y-31575D01*
X455248Y-42575D01*
X454248Y-43575D01*
X450249Y-43575D01*
X449248Y-42576D01*
X449248Y-31575D01*
X451248Y-29576D01*
X453249Y-29575D01*
X460248Y-38075D02*
G54D47*
D03*
X452248Y-38075D02*
G54D47*
D03*
G36*
X445248Y-29576D02*
X447248Y-31576D01*
X447248Y-42575D01*
X446249Y-43575D01*
X442248Y-43575D01*
X441248Y-42575D01*
X441249Y-31575D01*
X443248Y-29576D01*
X445248Y-29576D01*
G37*
G54D46*
X445248Y-29576D02*
X447248Y-31576D01*
X447248Y-42575D01*
X446249Y-43575D01*
X442248Y-43575D01*
X441248Y-42575D01*
X441249Y-31575D01*
X443248Y-29576D01*
X445248Y-29576D01*
G36*
X437248Y-29576D02*
X439248Y-31575D01*
X439248Y-42575D01*
X438248Y-43575D01*
X434248Y-43575D01*
X433248Y-42576D01*
X433248Y-31575D01*
X435248Y-29575D01*
X437248Y-29576D01*
G37*
G54D46*
X437248Y-29576D02*
X439248Y-31575D01*
X439248Y-42575D01*
X438248Y-43575D01*
X434248Y-43575D01*
X433248Y-42576D01*
X433248Y-31575D01*
X435248Y-29575D01*
X437248Y-29576D01*
X444248Y-38075D02*
G54D47*
D03*
X436249Y-38075D02*
G54D47*
D03*
X279796Y-15875D02*
G54D33*
D03*
X260796Y-15875D02*
G54D33*
D03*
X257544Y-56330D02*
G54D35*
D03*
X257544Y-37330D02*
G54D35*
D03*
X474661Y-101201D02*
G54D43*
D03*
X666750Y-69056D02*
G54D48*
D03*
X542131Y-303609D02*
G54D33*
D03*
X561131Y-303609D02*
G54D33*
D03*
G54D23*
X587770Y-305195D02*
X560783Y-305195D01*
G36*
X475059Y-246856D02*
X475059Y-243284D01*
X485775Y-232569D01*
X494903Y-232569D01*
X475059Y-246856D01*
G37*
G54D15*
X475059Y-246856D02*
X475059Y-243284D01*
X485775Y-232569D01*
X494903Y-232569D01*
X475059Y-246856D01*
G36*
X471452Y-247215D02*
X471452Y-243643D01*
X451609Y-225783D01*
X451609Y-232927D01*
X471452Y-247215D01*
G37*
G54D15*
X471452Y-247215D02*
X471452Y-243643D01*
X451609Y-225783D01*
X451609Y-232927D01*
X471452Y-247215D01*
X666751Y-55959D02*
G54D48*
D03*
G54D45*
X982661Y-138112D02*
X728661Y-138112D01*
G54D49*
G75*
G01X728064Y-138242D02*
G03X643064Y-223242I0J-85000D01*
G01*
G54D49*
X641747Y-223044D02*
X641747Y-331788D01*
G54D45*
X982661Y-138112D02*
X728661Y-138112D01*
G54D49*
G75*
G01X728064Y-138242D02*
G03X643064Y-223242I0J-85000D01*
G01*
G54D49*
X641747Y-223044D02*
X641747Y-331788D01*
G36*
X594Y-137913D02*
X594Y-331985D01*
X290312Y-331588D01*
X290312Y-219669D01*
X287931Y-204985D01*
X283565Y-191094D01*
X276422Y-177998D01*
X263325Y-162519D01*
X253800Y-154185D01*
X235147Y-144660D01*
X221256Y-140691D01*
X205381Y-137913D01*
X594Y-137913D01*
G37*
G54D45*
X594Y-137913D02*
X594Y-331985D01*
X290312Y-331588D01*
X290312Y-219669D01*
X287931Y-204985D01*
X283565Y-191094D01*
X276422Y-177998D01*
X263325Y-162519D01*
X253800Y-154185D01*
X235147Y-144660D01*
X221256Y-140691D01*
X205381Y-137913D01*
X594Y-137913D01*
G36*
X983058Y-138509D02*
X983059Y-331788D01*
X639366Y-332184D01*
X639366Y-220266D01*
X641747Y-205581D01*
X646112Y-191691D01*
X653256Y-178594D01*
X666353Y-163116D01*
X675878Y-154781D01*
X694531Y-145256D01*
X708422Y-141288D01*
X724297Y-138509D01*
X983058Y-138509D01*
G37*
G54D45*
X983058Y-138509D02*
X983059Y-331788D01*
X639366Y-332184D01*
X639366Y-220266D01*
X641747Y-205581D01*
X646112Y-191691D01*
X653256Y-178594D01*
X666353Y-163116D01*
X675878Y-154781D01*
X694531Y-145256D01*
X708422Y-141288D01*
X724297Y-138509D01*
X983058Y-138509D01*
G54D15*
X351451Y-108322D02*
X375211Y-108372D01*
G54D20*
X257969Y-57547D02*
X257969Y-93266D01*
X291306Y-126603D01*
X402431Y-126603D01*
X420291Y-108744D01*
G54D29*
X586184Y-171448D02*
X586581Y-69453D01*
G54D21*
X565545Y-67071D02*
X565545Y-6350D01*
X405606Y-317103D02*
G54D50*
D03*
X433606Y-317103D02*
G54D50*
D03*
X320675Y-109141D02*
G54D51*
D03*
X348675Y-109141D02*
G54D51*
D03*
G36*
X601492Y-316244D02*
X601492Y-292244D01*
X625492Y-292244D01*
X625492Y-316244D01*
X601492Y-316244D01*
G37*
X588092Y-304244D02*
G54D27*
D03*
G36*
X336321Y-274406D02*
X336321Y-298406D01*
X312321Y-298406D01*
X312321Y-274406D01*
X336321Y-274406D01*
G37*
X349720Y-286407D02*
G54D27*
D03*
G36*
X348708Y-177930D02*
X348708Y-158930D01*
X367708Y-158930D01*
X367708Y-177930D01*
X348708Y-177930D01*
G37*
G54D15*
X452041Y-123031D02*
X452041Y-139303D01*
X428228Y-163116D01*
X375841Y-163116D01*
X358378Y-167878D01*
G36*
X362202Y-280324D02*
X362202Y-261324D01*
X381202Y-261324D01*
X381202Y-280324D01*
X362202Y-280324D01*
G37*
X285352Y-157160D02*
G54D12*
D03*
X474661Y-61117D02*
G54D52*
D03*
X862314Y-81505D02*
G54D53*
D03*
X890598Y-109789D02*
G54D53*
D03*
%LPD*%
G54D54*
G36*
X755251Y-112869D02*
X741751Y-112869D01*
X741751Y-106202D01*
X755251Y-106202D01*
X755251Y-112869D01*
G37*
G36*
X755251Y-106202D02*
X768751Y-106202D01*
X768751Y-112869D01*
X755251Y-112869D01*
X755251Y-106202D01*
G37*
G36*
X758585Y-109535D02*
X758585Y-123035D01*
X751918Y-123035D01*
X751918Y-109535D01*
X758585Y-109535D01*
G37*
G54D54*
G36*
X385760Y-222488D02*
X399260Y-222488D01*
X399260Y-229154D01*
X385760Y-229154D01*
X385760Y-222488D01*
G37*
G36*
X385760Y-229154D02*
X372260Y-229154D01*
X372260Y-222488D01*
X385760Y-222488D01*
X385760Y-229154D01*
G37*
G54D54*
G36*
X538161Y-247888D02*
X551661Y-247888D01*
X551661Y-254554D01*
X538161Y-254554D01*
X538161Y-247888D01*
G37*
G36*
X541494Y-251221D02*
X541494Y-264721D01*
X534827Y-264721D01*
X534827Y-251221D01*
X541494Y-251221D01*
G37*
G36*
X538161Y-254554D02*
X524661Y-254554D01*
X524661Y-247888D01*
X538161Y-247888D01*
X538161Y-254554D01*
G37*
G36*
X534827Y-251221D02*
X534827Y-237721D01*
X541494Y-237721D01*
X541494Y-251221D01*
X534827Y-251221D01*
G37*
G54D55*
G36*
X664366Y-32214D02*
X650866Y-32214D01*
X650866Y-25727D01*
X664366Y-25727D01*
X664366Y-32214D01*
G37*
G36*
X661123Y-28970D02*
X661122Y-22970D01*
X667609Y-22970D01*
X667610Y-28970D01*
X661123Y-28970D01*
G37*
G36*
X664366Y-25727D02*
X677866Y-25727D01*
X677866Y-32214D01*
X664366Y-32214D01*
X664366Y-25727D01*
G37*
G54D45*
G36*
X472318Y-305239D02*
X472317Y-317739D01*
X469317Y-317739D01*
X469318Y-305239D01*
X472318Y-305239D01*
G37*
G36*
X469318Y-305239D02*
X469320Y-292739D01*
X472320Y-292739D01*
X472318Y-305239D01*
X469318Y-305239D01*
G37*
G54D56*
G36*
X393674Y-81943D02*
X404174Y-81943D01*
X404174Y-86276D01*
X393674Y-86276D01*
X393674Y-81943D01*
G37*
G36*
X395841Y-84110D02*
X395841Y-93110D01*
X391508Y-93110D01*
X391508Y-84110D01*
X395841Y-84110D01*
G37*
G36*
X393674Y-86276D02*
X383174Y-86277D01*
X383174Y-81944D01*
X393674Y-81943D01*
X393674Y-86276D01*
G37*
G54D57*
G36*
X330847Y-30640D02*
X343347Y-30640D01*
X343347Y-39880D01*
X330847Y-39880D01*
X330847Y-30640D01*
G37*
G54D54*
G36*
X186158Y-113132D02*
X195703Y-103586D01*
X200418Y-108300D01*
X190872Y-117846D01*
X186158Y-113132D01*
G37*
G36*
X190872Y-113132D02*
X200418Y-122678D01*
X195703Y-127392D01*
X186158Y-117846D01*
X190872Y-113132D01*
G37*
G36*
X190872Y-117846D02*
X181326Y-127392D01*
X176612Y-122678D01*
X186158Y-113132D01*
X190872Y-117846D01*
G37*
G36*
X186158Y-117846D02*
X176612Y-108300D01*
X181326Y-103586D01*
X190872Y-113132D01*
X186158Y-117846D01*
G37*
G54D56*
G36*
X99988Y-78787D02*
X89488Y-78787D01*
X89488Y-74454D01*
X99988Y-74454D01*
X99988Y-78787D01*
G37*
G36*
X97821Y-76620D02*
X97821Y-67620D01*
X102154Y-67620D01*
X102154Y-76620D01*
X97821Y-76620D01*
G37*
G36*
X99988Y-74454D02*
X110488Y-74453D01*
X110488Y-78786D01*
X99988Y-78787D01*
X99988Y-74454D01*
G37*
G54D56*
G36*
X603414Y-116283D02*
X603414Y-105783D01*
X607747Y-105783D01*
X607747Y-116283D01*
X603414Y-116283D01*
G37*
G36*
X605580Y-114116D02*
X614580Y-114116D01*
X614580Y-118449D01*
X605580Y-118449D01*
X605580Y-114116D01*
G37*
G36*
X607747Y-116283D02*
X607747Y-126783D01*
X603414Y-126783D01*
X603414Y-116283D01*
X607747Y-116283D01*
G37*
G54D54*
G36*
X629518Y-113211D02*
X642018Y-113211D01*
X642018Y-119878D01*
X629518Y-119878D01*
X629518Y-113211D01*
G37*
G36*
X632851Y-116544D02*
X632851Y-129044D01*
X626184Y-129044D01*
X626184Y-116544D01*
X632851Y-116544D01*
G37*
G36*
X629518Y-119878D02*
X617018Y-119878D01*
X617018Y-113211D01*
X629518Y-113211D01*
X629518Y-119878D01*
G37*
G36*
X626184Y-116544D02*
X626184Y-104044D01*
X632851Y-104044D01*
X632851Y-116544D01*
X626184Y-116544D01*
G37*
G54D56*
G36*
X19818Y-79184D02*
X9318Y-79184D01*
X9318Y-74851D01*
X19818Y-74851D01*
X19818Y-79184D01*
G37*
G36*
X17651Y-77017D02*
X17651Y-67017D01*
X21984Y-67017D01*
X21984Y-77017D01*
X17651Y-77017D01*
G37*
G36*
X19818Y-74851D02*
X30318Y-74851D01*
X30318Y-79184D01*
X19818Y-79184D01*
X19818Y-74851D01*
G37*
G54D56*
G36*
X316214Y-86449D02*
X316214Y-95949D01*
X311881Y-95949D01*
X311881Y-86449D01*
X316214Y-86449D01*
G37*
G36*
X314047Y-88616D02*
X305047Y-88616D01*
X305047Y-84283D01*
X314047Y-84283D01*
X314047Y-88616D01*
G37*
G36*
X311881Y-86449D02*
X311881Y-76949D01*
X316214Y-76949D01*
X316214Y-86449D01*
X311881Y-86449D01*
G37*
G54D56*
G36*
X505196Y-281968D02*
X517696Y-281968D01*
X517696Y-286301D01*
X505196Y-286301D01*
X505196Y-281968D01*
G37*
G36*
X507363Y-284135D02*
X507363Y-295135D01*
X503030Y-295135D01*
X503030Y-284135D01*
X507363Y-284135D01*
G37*
G36*
X505196Y-286301D02*
X492696Y-286302D01*
X492696Y-281969D01*
X505196Y-281968D01*
X505196Y-286301D01*
G37*
G54D56*
G36*
X368979Y-85256D02*
X368979Y-74756D01*
X373312Y-74756D01*
X373312Y-85256D01*
X368979Y-85256D01*
G37*
G36*
X371146Y-83090D02*
X380146Y-83090D01*
X380146Y-87423D01*
X371146Y-87423D01*
X371146Y-83090D01*
G37*
G36*
X373312Y-85256D02*
X373312Y-95756D01*
X368980Y-95756D01*
X368979Y-85256D01*
X373312Y-85256D01*
G37*
G54D56*
G36*
X569351Y-171448D02*
X569351Y-181948D01*
X565018Y-181948D01*
X565018Y-171448D01*
X569351Y-171448D01*
G37*
G36*
X567184Y-173615D02*
X558184Y-173615D01*
X558184Y-169282D01*
X567184Y-169282D01*
X567184Y-173615D01*
G37*
G36*
X565018Y-171448D02*
X565018Y-160948D01*
X569350Y-160948D01*
X569351Y-171448D01*
X565018Y-171448D01*
G37*
G54D56*
G36*
X334168Y-213336D02*
X343668Y-213336D01*
X343668Y-217669D01*
X334168Y-217669D01*
X334168Y-213336D01*
G37*
G36*
X336334Y-215502D02*
X336334Y-224502D01*
X332001Y-224502D01*
X332001Y-215502D01*
X336334Y-215502D01*
G37*
G36*
X334168Y-217669D02*
X324668Y-217669D01*
X324668Y-213336D01*
X334168Y-213336D01*
X334168Y-217669D01*
G37*
G54D56*
G36*
X310355Y-213335D02*
X320855Y-213334D01*
X320855Y-217667D01*
X310355Y-217668D01*
X310355Y-213335D01*
G37*
G36*
X312521Y-215501D02*
X312521Y-224501D01*
X308188Y-224501D01*
X308188Y-215501D01*
X312521Y-215501D01*
G37*
G36*
X310355Y-217668D02*
X299855Y-217668D01*
X299855Y-213335D01*
X310355Y-213335D01*
X310355Y-217668D01*
G37*
G54D24*
G36*
X234488Y-85031D02*
X225649Y-76192D01*
X229892Y-71950D01*
X238731Y-80789D01*
X234488Y-85031D01*
G37*
G36*
X234488Y-80789D02*
X243327Y-71950D01*
X247570Y-76192D01*
X238731Y-85031D01*
X234488Y-80789D01*
G37*
G36*
X238731Y-80789D02*
X247570Y-89628D01*
X243327Y-93870D01*
X234488Y-85031D01*
X238731Y-80789D01*
G37*
G36*
X238731Y-85031D02*
X229892Y-93870D01*
X225649Y-89628D01*
X234488Y-80789D01*
X238731Y-85031D01*
G37*
G54D56*
G36*
X697403Y-32681D02*
X687903Y-32681D01*
X687903Y-28348D01*
X697403Y-28348D01*
X697403Y-32681D01*
G37*
G36*
X695237Y-30515D02*
X695237Y-21515D01*
X699570Y-21515D01*
X699570Y-30515D01*
X695237Y-30515D01*
G37*
G36*
X697403Y-28348D02*
X706903Y-28348D01*
X706903Y-32681D01*
X697403Y-32681D01*
X697403Y-28348D01*
G37*
G54D58*
G36*
X585413Y-253998D02*
X585414Y-240498D01*
X587746Y-240498D01*
X587746Y-253998D01*
X585413Y-253998D01*
G37*
G36*
X586580Y-252832D02*
X592580Y-252832D01*
X592580Y-255165D01*
X586580Y-255165D01*
X586580Y-252832D01*
G37*
G36*
X587746Y-253998D02*
X587746Y-267498D01*
X585413Y-267498D01*
X585413Y-253998D01*
X587746Y-253998D01*
G37*
G36*
X586580Y-255165D02*
X580580Y-255165D01*
X580580Y-252832D01*
X586580Y-252832D01*
X586580Y-255165D01*
G37*
G54D58*
G36*
X598113Y-253998D02*
X598113Y-240498D01*
X600446Y-240498D01*
X600446Y-253998D01*
X598113Y-253998D01*
G37*
G36*
X599280Y-252832D02*
X605280Y-252832D01*
X605280Y-255165D01*
X599280Y-255165D01*
X599280Y-252832D01*
G37*
G36*
X600446Y-253998D02*
X600446Y-267498D01*
X598113Y-267498D01*
X598113Y-253998D01*
X600446Y-253998D01*
G37*
G36*
X599280Y-255165D02*
X593280Y-255165D01*
X593280Y-252832D01*
X599280Y-252832D01*
X599280Y-255165D01*
G37*
G54D58*
G36*
X610813Y-253998D02*
X610814Y-240498D01*
X613147Y-240499D01*
X613146Y-253999D01*
X610813Y-253998D01*
G37*
G36*
X611980Y-252832D02*
X617980Y-252832D01*
X617980Y-255165D01*
X611980Y-255165D01*
X611980Y-252832D01*
G37*
G36*
X613146Y-253999D02*
X613146Y-267499D01*
X610813Y-267498D01*
X610813Y-253998D01*
X613146Y-253999D01*
G37*
G36*
X611980Y-255165D02*
X605980Y-255165D01*
X605980Y-252832D01*
X611980Y-252832D01*
X611980Y-255165D01*
G37*
G54D59*
G36*
X623455Y-253998D02*
X623454Y-240498D01*
X625904Y-240498D01*
X625905Y-253998D01*
X623455Y-253998D01*
G37*
G36*
X624680Y-252773D02*
X630680Y-252772D01*
X630680Y-255222D01*
X624680Y-255223D01*
X624680Y-252773D01*
G37*
G36*
X625905Y-253998D02*
X625906Y-267498D01*
X623456Y-267498D01*
X623455Y-253998D01*
X625905Y-253998D01*
G37*
G36*
X624680Y-255223D02*
X618680Y-255223D01*
X618680Y-252773D01*
X624680Y-252773D01*
X624680Y-255223D01*
G37*
G54D58*
G36*
X598113Y-199998D02*
X598114Y-186498D01*
X600446Y-186499D01*
X600446Y-199999D01*
X598113Y-199998D01*
G37*
G36*
X599279Y-198832D02*
X605279Y-198832D01*
X605279Y-201165D01*
X599279Y-201165D01*
X599279Y-198832D01*
G37*
G36*
X600446Y-199999D02*
X600445Y-213499D01*
X598112Y-213498D01*
X598113Y-199998D01*
X600446Y-199999D01*
G37*
G36*
X599279Y-201165D02*
X593279Y-201165D01*
X593279Y-198832D01*
X599279Y-198832D01*
X599279Y-201165D01*
G37*
G54D56*
G36*
X364141Y-313158D02*
X364141Y-323658D01*
X359808Y-323658D01*
X359808Y-313158D01*
X364141Y-313158D01*
G37*
G36*
X361974Y-315324D02*
X352974Y-315324D01*
X352974Y-310991D01*
X361974Y-310991D01*
X361974Y-315324D01*
G37*
G36*
X359808Y-313158D02*
X359807Y-302658D01*
X364140Y-302658D01*
X364141Y-313158D01*
X359808Y-313158D01*
G37*
G54D56*
G36*
X541503Y-171448D02*
X541503Y-160948D01*
X545836Y-160948D01*
X545836Y-171448D01*
X541503Y-171448D01*
G37*
G36*
X543669Y-169281D02*
X552669Y-169282D01*
X552669Y-173615D01*
X543669Y-173614D01*
X543669Y-169281D01*
G37*
G36*
X545836Y-171448D02*
X545836Y-181948D01*
X541503Y-181948D01*
X541503Y-171448D01*
X545836Y-171448D01*
G37*
G54D56*
G36*
X501022Y-193673D02*
X501022Y-181173D01*
X505355Y-181173D01*
X505354Y-193673D01*
X501022Y-193673D01*
G37*
G36*
X503188Y-191506D02*
X514188Y-191506D01*
X514188Y-195840D01*
X503188Y-195839D01*
X503188Y-191506D01*
G37*
G36*
X505354Y-193673D02*
X505354Y-206173D01*
X501021Y-206173D01*
X501022Y-193673D01*
X505354Y-193673D01*
G37*
G54D56*
G36*
X337130Y-240901D02*
X337130Y-251401D01*
X332797Y-251401D01*
X332797Y-240901D01*
X337130Y-240901D01*
G37*
G36*
X334963Y-243068D02*
X325963Y-243068D01*
X325963Y-238735D01*
X334963Y-238735D01*
X334963Y-243068D01*
G37*
G36*
X332797Y-240901D02*
X332797Y-230401D01*
X337130Y-230401D01*
X337130Y-240901D01*
X332797Y-240901D01*
G37*
G54D56*
G36*
X262963Y-15875D02*
X262963Y-26375D01*
X258630Y-26375D01*
X258630Y-15875D01*
X262963Y-15875D01*
G37*
G36*
X260796Y-18041D02*
X251796Y-18041D01*
X251796Y-13708D01*
X260796Y-13708D01*
X260796Y-18041D01*
G37*
G36*
X258630Y-15875D02*
X258630Y-5375D01*
X262963Y-5375D01*
X262963Y-15875D01*
X258630Y-15875D01*
G37*
G54D54*
G36*
X613492Y-307577D02*
X600992Y-307577D01*
X600992Y-300910D01*
X613492Y-300910D01*
X613492Y-307577D01*
G37*
G36*
X610158Y-304244D02*
X610158Y-291744D01*
X616825Y-291744D01*
X616825Y-304244D01*
X610158Y-304244D01*
G37*
G36*
X613492Y-300910D02*
X625992Y-300910D01*
X625992Y-307577D01*
X613492Y-307577D01*
X613492Y-300910D01*
G37*
G36*
X616825Y-304244D02*
X616825Y-316744D01*
X610158Y-316744D01*
X610158Y-304244D01*
X616825Y-304244D01*
G37*
G54D54*
G36*
X324321Y-283073D02*
X336821Y-283073D01*
X336821Y-289740D01*
X324321Y-289740D01*
X324321Y-283073D01*
G37*
G36*
X327654Y-286406D02*
X327654Y-298906D01*
X320987Y-298906D01*
X320987Y-286406D01*
X327654Y-286406D01*
G37*
G36*
X324321Y-289740D02*
X311821Y-289740D01*
X311821Y-283073D01*
X324321Y-283073D01*
X324321Y-289740D01*
G37*
G36*
X320987Y-286406D02*
X320987Y-273906D01*
X327654Y-273906D01*
X327654Y-286406D01*
X320987Y-286406D01*
G37*
G54D54*
G36*
X888241Y-107432D02*
X898494Y-97179D01*
X903208Y-101893D01*
X892955Y-112146D01*
X888241Y-107432D01*
G37*
G36*
X892955Y-107432D02*
X903208Y-117685D01*
X898494Y-122399D01*
X888241Y-112146D01*
X892955Y-107432D01*
G37*
G36*
X892955Y-112146D02*
X882702Y-122399D01*
X877988Y-117685D01*
X888241Y-107432D01*
X892955Y-112146D01*
G37*
G36*
X888241Y-112146D02*
X877988Y-101893D01*
X882702Y-97179D01*
X892955Y-107432D01*
X888241Y-112146D01*
G37*
X46036Y-49608D02*
G54D10*
D03*
X827085Y-49608D02*
G54D11*
D03*
G36*
X745251Y-119535D02*
X745251Y-99535D01*
X765251Y-99535D01*
X765251Y-119535D01*
X745251Y-119535D01*
G37*
X755252Y-84136D02*
G54D60*
D03*
X755252Y-58736D02*
G54D60*
D03*
X755252Y-33336D02*
G54D60*
D03*
X385760Y-200421D02*
G54D61*
D03*
X538160Y-200421D02*
G54D61*
D03*
X385760Y-225821D02*
G54D61*
D03*
X538161Y-251221D02*
G54D61*
D03*
X385760Y-251221D02*
G54D61*
D03*
X664367Y-67070D02*
G54D62*
D03*
X664367Y-54370D02*
G54D62*
D03*
X664367Y-41670D02*
G54D62*
D03*
X664366Y-28970D02*
G54D62*
D03*
X610367Y-28970D02*
G54D62*
D03*
X610367Y-41671D02*
G54D62*
D03*
X610367Y-54371D02*
G54D62*
D03*
X610367Y-67070D02*
G54D62*
D03*
G54D45*
X667005Y-53861D02*
X666748Y-53973D01*
G54D45*
X465738Y-295714D02*
X465737Y-288967D01*
X480818Y-279045D01*
X480818Y-267932D01*
X482406Y-305239D02*
G54D63*
D03*
X475818Y-305239D02*
G54D64*
D03*
X470818Y-305239D02*
G54D64*
D03*
X465818Y-305239D02*
G54D64*
D03*
X475818Y-261239D02*
G54D64*
D03*
X470818Y-261239D02*
G54D64*
D03*
X465819Y-261239D02*
G54D64*
D03*
X459387Y-305240D02*
G54D63*
D03*
X482406Y-261186D02*
G54D63*
D03*
X459387Y-261186D02*
G54D63*
D03*
X509071Y-225501D02*
G54D65*
D03*
X427315Y-225501D02*
G54D65*
D03*
G54D46*
X611161Y-42067D02*
X629045Y-42067D01*
X629045Y-22620D01*
X637777Y-13889D01*
X739377Y-13889D01*
X739377Y-46036D01*
X756046Y-59133D01*
G54D46*
X755252Y-34130D02*
X755252Y-7539D01*
X634602Y-7539D01*
X612378Y-29766D01*
X610367Y-29764D01*
G54D45*
X435372Y-258762D02*
X459343Y-258364D01*
G54D45*
X465930Y-270270D02*
X465930Y-274239D01*
X462359Y-276622D01*
X446088Y-276622D01*
X435372Y-284163D01*
G54D45*
X423346Y-225501D02*
X445767Y-225501D01*
X470692Y-246855D01*
X470692Y-255189D01*
G54D45*
X475852Y-255189D02*
X475852Y-246458D01*
X500061Y-226614D01*
G54D66*
X460248Y-123076D02*
X460248Y-148953D01*
X454024Y-157955D01*
G36*
X427872Y-251262D02*
X442872Y-251262D01*
X442872Y-266262D01*
X427872Y-266262D01*
X427872Y-251262D01*
G37*
X435372Y-284163D02*
G54D67*
D03*
G54D66*
X492248Y-123075D02*
X492645Y-165767D01*
X482202Y-176211D01*
X378220Y-176211D01*
X354407Y-200024D01*
X354408Y-242888D01*
X381792Y-251221D01*
G54D66*
X381792Y-200421D02*
X402828Y-193675D01*
X484189Y-193673D01*
X487759Y-186531D01*
X506808Y-167480D01*
X506808Y-108635D01*
X506749Y-108575D01*
G54D66*
X534192Y-200421D02*
X519508Y-179386D01*
X519508Y-100805D01*
X506978Y-100805D01*
X506748Y-100575D01*
G36*
X590099Y-32827D02*
X575099Y-32827D01*
X575099Y-17827D01*
X590099Y-17827D01*
X590099Y-32827D01*
G37*
X582599Y-50727D02*
G54D67*
D03*
G54D66*
X610367Y-41671D02*
X593724Y-41671D01*
X582599Y-50727D01*
G54D66*
X610367Y-28970D02*
X582599Y-25327D01*
G54D24*
X388875Y-60660D02*
X461022Y-60575D01*
X469105Y-68658D01*
X506434Y-68658D01*
G54D24*
X506352Y-68575D02*
X519904Y-68657D01*
X519905Y-84533D01*
X506351Y-84575D01*
G54D24*
X491727Y-76595D02*
X506749Y-76575D01*
G54D24*
X526255Y-92867D02*
X490933Y-92867D01*
G54D24*
X433386Y-84533D02*
X420686Y-84533D01*
X408780Y-84533D01*
G54D66*
X610367Y-67070D02*
X565943Y-67070D01*
X393674Y-65110D02*
G54D68*
D03*
X393674Y-84110D02*
G54D68*
D03*
G54D66*
X499590Y-265008D02*
X517024Y-265008D01*
X528636Y-276620D01*
X560784Y-276622D01*
X570705Y-266698D01*
X570705Y-200023D01*
X586580Y-199998D01*
X586579Y-182958D01*
X586581Y-171845D01*
G54D23*
X755252Y-84136D02*
X740170Y-87708D01*
X723973Y-104242D01*
G36*
X271046Y-51660D02*
X289046Y-51660D01*
X289046Y-69660D01*
X271046Y-69660D01*
X271046Y-51660D01*
G37*
X280046Y-35260D02*
G54D69*
D03*
X305446Y-60660D02*
G54D69*
D03*
X305446Y-35260D02*
G54D69*
D03*
X330846Y-60660D02*
G54D69*
D03*
X330847Y-35260D02*
G54D69*
D03*
X478630Y-150017D02*
G54D67*
D03*
G54D66*
X468248Y-123075D02*
X468248Y-136858D01*
X478629Y-150017D01*
G54D46*
X436249Y-38075D02*
X436538Y-24582D01*
X433386Y-21430D01*
X321864Y-21430D01*
X318292Y-25002D01*
X318292Y-41273D01*
X311545Y-48020D01*
X292686Y-48020D01*
X280046Y-60660D01*
G54D46*
X305594Y-33338D02*
X305594Y-25797D01*
X317103Y-14288D01*
X435769Y-14288D01*
X444103Y-22622D01*
X444103Y-36116D01*
G54D46*
X306784Y-60722D02*
X312738Y-57150D01*
X321866Y-48022D01*
X402431Y-48022D01*
X406797Y-52388D01*
X421084Y-52388D01*
G54D66*
X279795Y-34924D02*
X279796Y-15875D01*
X290908Y-6350D01*
X565545Y-6350D01*
G36*
X345973Y-55309D02*
X358973Y-55309D01*
X358973Y-69309D01*
X345973Y-69309D01*
X345973Y-55309D01*
G37*
X371473Y-62309D02*
G54D70*
D03*
G54D16*
X330846Y-60660D02*
X351680Y-60721D01*
G54D66*
X372267Y-65087D02*
X393674Y-65110D01*
X20011Y-114695D02*
G54D71*
D03*
X100011Y-114695D02*
G54D71*
D03*
X137714Y-115489D02*
G54D72*
D03*
X163114Y-115489D02*
G54D72*
D03*
X188515Y-115489D02*
G54D72*
D03*
X99988Y-95620D02*
G54D68*
D03*
X99988Y-76620D02*
G54D68*
D03*
G54D66*
X100011Y-114695D02*
X137714Y-114695D01*
X586581Y-116283D02*
G54D73*
D03*
G36*
X599080Y-108283D02*
X612080Y-108283D01*
X612080Y-124283D01*
X599080Y-124283D01*
X599080Y-108283D01*
G37*
G36*
X639518Y-106544D02*
X639518Y-126544D01*
X619518Y-126544D01*
X619518Y-106544D01*
X639518Y-106544D01*
G37*
X654917Y-116545D02*
G54D60*
D03*
G54D46*
X242093Y-117475D02*
X262730Y-138112D01*
X419496Y-138112D01*
X436562Y-125016D01*
X241644Y-117473D02*
G54D70*
D03*
X222644Y-117473D02*
G54D70*
D03*
X454024Y-157955D02*
G54D67*
D03*
G54D66*
X435372Y-258762D02*
X411955Y-258364D01*
X399255Y-271064D01*
X371474Y-271064D01*
X344557Y-109416D02*
G54D70*
D03*
X325557Y-109416D02*
G54D70*
D03*
X19818Y-96017D02*
G54D74*
D03*
X19818Y-77017D02*
G54D74*
D03*
X333047Y-86449D02*
G54D70*
D03*
X314047Y-86449D02*
G54D70*
D03*
G54D66*
X352843Y-85559D02*
X332349Y-85750D01*
X334142Y-177377D02*
G54D74*
D03*
X334142Y-158377D02*
G54D74*
D03*
X505196Y-265135D02*
G54D68*
D03*
X505196Y-284135D02*
G54D68*
D03*
G54D66*
X482520Y-268665D02*
X501570Y-268665D01*
G36*
X539596Y-100518D02*
X551596Y-100517D01*
X551597Y-148517D01*
X539597Y-148518D01*
X539596Y-100518D01*
G37*
X545596Y-42761D02*
G54D75*
D03*
G54D24*
X506748Y-52575D02*
X529829Y-52575D01*
X545596Y-42761D01*
G54D24*
X506748Y-60575D02*
X528094Y-60575D01*
X545596Y-102690D01*
X545702Y-124412D01*
X545596Y-124518D01*
X352146Y-85256D02*
G54D73*
D03*
G36*
X364646Y-77257D02*
X377646Y-77256D01*
X377646Y-93256D01*
X364646Y-93257D01*
X364646Y-77257D01*
G37*
X586184Y-171448D02*
G54D73*
D03*
X567184Y-171448D02*
G54D73*
D03*
X311151Y-158352D02*
G54D74*
D03*
X311151Y-177352D02*
G54D74*
D03*
X334167Y-196503D02*
G54D74*
D03*
X334168Y-215502D02*
G54D74*
D03*
X310355Y-196502D02*
G54D68*
D03*
X310355Y-215501D02*
G54D68*
D03*
X284161Y-88104D02*
G54D60*
D03*
G54D66*
X334167Y-196503D02*
X334169Y-182562D01*
X334124Y-177962D01*
G54D66*
X334167Y-196503D02*
X310725Y-196872D01*
X310355Y-196502D01*
X310360Y-178143D01*
G54D76*
X311151Y-158352D02*
X285351Y-157558D01*
G54D66*
X284162Y-88106D02*
X304403Y-108347D01*
X320675Y-108347D01*
G54D46*
X459580Y-299639D02*
X407192Y-299639D01*
X394889Y-286938D01*
X349248Y-286938D01*
G54D24*
X482598Y-306386D02*
X541733Y-306386D01*
G54D66*
X334566Y-157956D02*
X341709Y-150812D01*
X423466Y-150812D01*
X444500Y-132953D01*
X444500Y-123825D01*
G54D45*
X223043Y-117475D02*
X199230Y-93662D01*
X175021Y-93662D01*
X162321Y-106362D01*
X162321Y-114300D01*
G36*
X223882Y-82910D02*
X236610Y-70182D01*
X249338Y-82910D01*
X236610Y-95638D01*
X223882Y-82910D01*
G37*
X236609Y-57509D02*
G54D77*
D03*
X236609Y-32109D02*
G54D77*
D03*
G54D66*
X236609Y-33300D02*
X280046Y-33276D01*
G54D66*
X236609Y-57509D02*
X258615Y-57485D01*
X697403Y-49514D02*
G54D74*
D03*
X697403Y-30515D02*
G54D74*
D03*
X697431Y-94730D02*
G54D74*
D03*
X697431Y-75730D02*
G54D74*
D03*
G54D66*
X663573Y-41670D02*
X682674Y-41670D01*
X691356Y-49609D01*
X696610Y-49514D01*
X724393Y-51893D02*
G54D74*
D03*
X724393Y-70893D02*
G54D74*
D03*
G54D66*
X697431Y-94730D02*
X654917Y-116545D01*
G54D66*
X697431Y-75730D02*
X697403Y-49514D01*
X723974Y-30424D02*
G54D60*
D03*
X723973Y-104242D02*
G54D60*
D03*
G54D45*
X697431Y-94730D02*
X714770Y-87311D01*
X723576Y-71709D01*
G54D66*
X723996Y-51893D02*
X723996Y-30446D01*
X586580Y-253998D02*
G54D78*
D03*
X599280Y-253998D02*
G54D78*
D03*
X611980Y-253998D02*
G54D78*
D03*
G36*
X621180Y-242998D02*
X628180Y-242997D01*
X628181Y-264997D01*
X621181Y-264998D01*
X621180Y-242998D01*
G37*
X624680Y-199998D02*
G54D78*
D03*
G36*
X608479Y-188998D02*
X615479Y-188998D01*
X615480Y-210998D01*
X608480Y-210998D01*
X608479Y-188998D01*
G37*
X599279Y-199999D02*
G54D78*
D03*
G36*
X583079Y-188999D02*
X590079Y-188998D01*
X590080Y-210998D01*
X583080Y-210999D01*
X583079Y-188999D01*
G37*
G36*
X625743Y-182280D02*
X625743Y-167280D01*
X640743Y-167280D01*
X640743Y-182280D01*
X625743Y-182280D01*
G37*
X607842Y-174780D02*
G54D67*
D03*
G54D66*
X624680Y-199998D02*
X624681Y-183356D01*
X633243Y-174780D01*
G54D66*
X611980Y-199998D02*
X611981Y-178594D01*
X607842Y-174780D01*
X412748Y-34526D02*
G54D43*
D03*
X638967Y-83342D02*
G54D43*
D03*
X570704Y-148032D02*
G54D43*
D03*
G36*
X369736Y-100155D02*
X382736Y-100155D01*
X382736Y-114155D01*
X369736Y-114155D01*
X369736Y-100155D01*
G37*
X395236Y-107155D02*
G54D70*
D03*
G54D66*
X352146Y-85256D02*
X352423Y-108346D01*
G54D46*
X395236Y-107155D02*
X411557Y-100805D01*
X421519Y-100805D01*
G54D66*
X475852Y-68658D02*
X514745Y-30162D01*
X514745Y-6746D01*
G36*
X469105Y-68658D02*
X461419Y-60972D01*
X461419Y-54515D01*
X462754Y-53180D01*
X492123Y-53180D01*
X492123Y-65085D01*
X495695Y-68658D01*
X469105Y-68658D01*
G37*
G54D45*
X469105Y-68658D02*
X461419Y-60972D01*
X461419Y-54515D01*
X462754Y-53180D01*
X492123Y-53180D01*
X492123Y-65085D01*
X495695Y-68658D01*
X469105Y-68658D01*
X380974Y-313158D02*
G54D73*
D03*
X361974Y-313158D02*
G54D73*
D03*
G36*
X403470Y-309308D02*
X416470Y-309308D01*
X416470Y-323308D01*
X403470Y-323308D01*
X403470Y-309308D01*
G37*
X428970Y-316308D02*
G54D70*
D03*
G54D45*
X409970Y-316308D02*
X387324Y-313952D01*
G54D45*
X428970Y-316308D02*
X441323Y-316308D01*
X448863Y-323849D01*
X474263Y-323849D01*
X475851Y-322261D01*
X475851Y-312736D01*
G36*
X482598Y-268683D02*
X506013Y-268683D01*
X506013Y-261936D01*
X496885Y-252808D01*
X482598Y-252808D01*
X482598Y-268683D01*
G37*
G54D45*
X482598Y-268683D02*
X506013Y-268683D01*
X506013Y-261936D01*
X496885Y-252808D01*
X482598Y-252808D01*
X482598Y-268683D01*
G36*
X518170Y-163448D02*
X531170Y-163448D01*
X531170Y-179448D01*
X518170Y-179448D01*
X518170Y-163448D01*
G37*
X543669Y-171448D02*
G54D73*
D03*
G36*
X477689Y-185673D02*
X490689Y-185673D01*
X490689Y-201673D01*
X477689Y-201673D01*
X477689Y-185673D01*
G37*
X503188Y-193673D02*
G54D73*
D03*
X353963Y-240901D02*
G54D73*
D03*
X334963Y-240901D02*
G54D73*
D03*
G54D24*
X586580Y-251219D02*
X586580Y-234551D01*
G54D16*
X588169Y-141684D02*
X654050Y-141684D01*
X710803Y-117078D01*
X723973Y-104242D01*
G54D45*
X496489Y-252807D02*
X502045Y-247251D01*
G36*
X515248Y-109575D02*
X513248Y-111575D01*
X502248Y-111576D01*
X501248Y-110575D01*
X501249Y-106575D01*
X502248Y-105575D01*
X513248Y-105576D01*
X515248Y-107575D01*
X515248Y-109575D01*
G37*
G54D79*
X515248Y-109575D02*
X513248Y-111575D01*
X502248Y-111576D01*
X501248Y-110575D01*
X501249Y-106575D01*
X502248Y-105575D01*
X513248Y-105576D01*
X515248Y-107575D01*
X515248Y-109575D01*
G36*
X515248Y-101575D02*
X513248Y-103575D01*
X502248Y-103575D01*
X501248Y-102575D01*
X501248Y-98576D01*
X502248Y-97576D01*
X513248Y-97576D01*
X515249Y-99576D01*
X515248Y-101575D01*
G37*
G54D79*
X515248Y-101575D02*
X513248Y-103575D01*
X502248Y-103575D01*
X501248Y-102575D01*
X501248Y-98576D01*
X502248Y-97576D01*
X513248Y-97576D01*
X515249Y-99576D01*
X515248Y-101575D01*
X506749Y-108575D02*
G54D80*
D03*
X506748Y-100575D02*
G54D80*
D03*
G36*
X515248Y-93575D02*
X513248Y-95575D01*
X502248Y-95576D01*
X501249Y-94575D01*
X501248Y-90575D01*
X502248Y-89575D01*
X513249Y-89575D01*
X515248Y-91575D01*
X515248Y-93575D01*
G37*
G54D79*
X515248Y-93575D02*
X513248Y-95575D01*
X502248Y-95576D01*
X501249Y-94575D01*
X501248Y-90575D01*
X502248Y-89575D01*
X513249Y-89575D01*
X515248Y-91575D01*
X515248Y-93575D01*
G36*
X515248Y-85575D02*
X513248Y-87576D01*
X502248Y-87576D01*
X501248Y-86575D01*
X501248Y-82575D01*
X502248Y-81576D01*
X513249Y-81575D01*
X515248Y-83575D01*
X515248Y-85575D01*
G37*
G54D79*
X515248Y-85575D02*
X513248Y-87576D01*
X502248Y-87576D01*
X501248Y-86575D01*
X501248Y-82575D01*
X502248Y-81576D01*
X513249Y-81575D01*
X515248Y-83575D01*
X515248Y-85575D01*
X506748Y-92575D02*
G54D80*
D03*
X506748Y-84575D02*
G54D80*
D03*
G36*
X515248Y-77575D02*
X513248Y-79575D01*
X502248Y-79575D01*
X501248Y-78575D01*
X501248Y-74576D01*
X502248Y-73576D01*
X513248Y-73576D01*
X515248Y-75576D01*
X515248Y-77575D01*
G37*
G54D79*
X515248Y-77575D02*
X513248Y-79575D01*
X502248Y-79575D01*
X501248Y-78575D01*
X501248Y-74576D01*
X502248Y-73576D01*
X513248Y-73576D01*
X515248Y-75576D01*
X515248Y-77575D01*
G36*
X515248Y-69575D02*
X513248Y-71575D01*
X502249Y-71575D01*
X501249Y-70575D01*
X501248Y-66575D01*
X502249Y-65575D01*
X513248Y-65575D01*
X515248Y-67575D01*
X515248Y-69575D01*
G37*
G54D79*
X515248Y-69575D02*
X513248Y-71575D01*
X502249Y-71575D01*
X501249Y-70575D01*
X501248Y-66575D01*
X502249Y-65575D01*
X513248Y-65575D01*
X515248Y-67575D01*
X515248Y-69575D01*
X506749Y-76575D02*
G54D80*
D03*
X506748Y-68575D02*
G54D80*
D03*
G36*
X515248Y-61575D02*
X513248Y-63575D01*
X502248Y-63575D01*
X501248Y-62576D01*
X501249Y-58575D01*
X502248Y-57575D01*
X513248Y-57575D01*
X515248Y-59576D01*
X515248Y-61575D01*
G37*
G54D79*
X515248Y-61575D02*
X513248Y-63575D01*
X502248Y-63575D01*
X501248Y-62576D01*
X501249Y-58575D01*
X502248Y-57575D01*
X513248Y-57575D01*
X515248Y-59576D01*
X515248Y-61575D01*
G36*
X515248Y-53576D02*
X513248Y-55575D01*
X502248Y-55575D01*
X501248Y-54575D01*
X501248Y-50576D01*
X502248Y-49575D01*
X513249Y-49576D01*
X515248Y-51575D01*
X515248Y-53576D01*
G37*
G54D79*
X515248Y-53576D02*
X513248Y-55575D01*
X502248Y-55575D01*
X501248Y-54575D01*
X501248Y-50576D01*
X502248Y-49575D01*
X513249Y-49576D01*
X515248Y-51575D01*
X515248Y-53576D01*
X506748Y-60575D02*
G54D80*
D03*
X506748Y-52575D02*
G54D80*
D03*
G36*
X435248Y-131575D02*
X433248Y-129575D01*
X433248Y-118575D01*
X434248Y-117575D01*
X438248Y-117575D01*
X439248Y-118575D01*
X439248Y-129575D01*
X437248Y-131576D01*
X435248Y-131575D01*
G37*
G54D79*
X435248Y-131575D02*
X433248Y-129575D01*
X433248Y-118575D01*
X434248Y-117575D01*
X438248Y-117575D01*
X439248Y-118575D01*
X439248Y-129575D01*
X437248Y-131576D01*
X435248Y-131575D01*
G36*
X443248Y-131575D02*
X441248Y-129575D01*
X441248Y-118575D01*
X442248Y-117575D01*
X446249Y-117575D01*
X447248Y-118576D01*
X447248Y-129575D01*
X445248Y-131575D01*
X443248Y-131575D01*
G37*
G54D79*
X443248Y-131575D02*
X441248Y-129575D01*
X441248Y-118575D01*
X442248Y-117575D01*
X446249Y-117575D01*
X447248Y-118576D01*
X447248Y-129575D01*
X445248Y-131575D01*
X443248Y-131575D01*
X436248Y-123075D02*
G54D80*
D03*
X444248Y-123075D02*
G54D80*
D03*
G36*
X451248Y-131576D02*
X449248Y-129575D01*
X449249Y-118575D01*
X450248Y-117575D01*
X454249Y-117576D01*
X455248Y-118575D01*
X455248Y-129576D01*
X453248Y-131575D01*
X451248Y-131576D01*
G37*
G54D79*
X451248Y-131576D02*
X449248Y-129575D01*
X449249Y-118575D01*
X450248Y-117575D01*
X454249Y-117576D01*
X455248Y-118575D01*
X455248Y-129576D01*
X453248Y-131575D01*
X451248Y-131576D01*
G36*
X459248Y-131575D02*
X457248Y-129575D01*
X457248Y-118575D01*
X458248Y-117575D01*
X462248Y-117575D01*
X463249Y-118575D01*
X463248Y-129575D01*
X461248Y-131576D01*
X459248Y-131575D01*
G37*
G54D79*
X459248Y-131575D02*
X457248Y-129575D01*
X457248Y-118575D01*
X458248Y-117575D01*
X462248Y-117575D01*
X463249Y-118575D01*
X463248Y-129575D01*
X461248Y-131576D01*
X459248Y-131575D01*
X452248Y-123075D02*
G54D80*
D03*
X460248Y-123076D02*
G54D80*
D03*
G36*
X467248Y-131575D02*
X465248Y-129575D01*
X465249Y-118575D01*
X466248Y-117575D01*
X470249Y-117575D01*
X471248Y-118575D01*
X471248Y-129575D01*
X469248Y-131575D01*
X467248Y-131575D01*
G37*
G54D79*
X467248Y-131575D02*
X465248Y-129575D01*
X465249Y-118575D01*
X466248Y-117575D01*
X470249Y-117575D01*
X471248Y-118575D01*
X471248Y-129575D01*
X469248Y-131575D01*
X467248Y-131575D01*
G36*
X475248Y-131575D02*
X473248Y-129575D01*
X473248Y-118575D01*
X474248Y-117575D01*
X478249Y-117576D01*
X479248Y-118575D01*
X479248Y-129575D01*
X477249Y-131575D01*
X475248Y-131575D01*
G37*
G54D79*
X475248Y-131575D02*
X473248Y-129575D01*
X473248Y-118575D01*
X474248Y-117575D01*
X478249Y-117576D01*
X479248Y-118575D01*
X479248Y-129575D01*
X477249Y-131575D01*
X475248Y-131575D01*
X468248Y-123075D02*
G54D80*
D03*
X476248Y-123075D02*
G54D80*
D03*
G36*
X483248Y-131575D02*
X481248Y-129575D01*
X481248Y-118576D01*
X482248Y-117576D01*
X486248Y-117575D01*
X487248Y-118576D01*
X487248Y-129575D01*
X485248Y-131575D01*
X483248Y-131575D01*
G37*
G54D79*
X483248Y-131575D02*
X481248Y-129575D01*
X481248Y-118576D01*
X482248Y-117576D01*
X486248Y-117575D01*
X487248Y-118576D01*
X487248Y-129575D01*
X485248Y-131575D01*
X483248Y-131575D01*
G36*
X491248Y-131575D02*
X489248Y-129576D01*
X489249Y-118575D01*
X490248Y-117575D01*
X494248Y-117575D01*
X495248Y-118576D01*
X495248Y-129575D01*
X493248Y-131576D01*
X491248Y-131575D01*
G37*
G54D79*
X491248Y-131575D02*
X489248Y-129576D01*
X489249Y-118575D01*
X490248Y-117575D01*
X494248Y-117575D01*
X495248Y-118576D01*
X495248Y-129575D01*
X493248Y-131576D01*
X491248Y-131575D01*
X484248Y-123075D02*
G54D80*
D03*
X492248Y-123075D02*
G54D80*
D03*
G36*
X413248Y-51575D02*
X415248Y-49575D01*
X426248Y-49576D01*
X427248Y-50576D01*
X427248Y-54575D01*
X426248Y-55575D01*
X415248Y-55575D01*
X413248Y-53576D01*
X413248Y-51575D01*
G37*
G54D79*
X413248Y-51575D02*
X415248Y-49575D01*
X426248Y-49576D01*
X427248Y-50576D01*
X427248Y-54575D01*
X426248Y-55575D01*
X415248Y-55575D01*
X413248Y-53576D01*
X413248Y-51575D01*
G36*
X413248Y-59576D02*
X415248Y-57575D01*
X426248Y-57575D01*
X427248Y-58575D01*
X427248Y-62575D01*
X426249Y-63575D01*
X415248Y-63575D01*
X413248Y-61575D01*
X413248Y-59576D01*
G37*
G54D79*
X413248Y-59576D02*
X415248Y-57575D01*
X426248Y-57575D01*
X427248Y-58575D01*
X427248Y-62575D01*
X426249Y-63575D01*
X415248Y-63575D01*
X413248Y-61575D01*
X413248Y-59576D01*
G36*
X419248Y-50076D02*
X424248Y-50075D01*
X424248Y-55075D01*
X419248Y-55076D01*
X419248Y-50076D01*
G37*
G36*
X419248Y-58075D02*
X424248Y-58075D01*
X424249Y-63075D01*
X419249Y-63075D01*
X419248Y-58075D01*
G37*
G36*
X413248Y-67575D02*
X415248Y-65576D01*
X426248Y-65576D01*
X427248Y-66576D01*
X427248Y-70575D01*
X426248Y-71576D01*
X415248Y-71576D01*
X413248Y-69575D01*
X413248Y-67575D01*
G37*
G54D79*
X413248Y-67575D02*
X415248Y-65576D01*
X426248Y-65576D01*
X427248Y-66576D01*
X427248Y-70575D01*
X426248Y-71576D01*
X415248Y-71576D01*
X413248Y-69575D01*
X413248Y-67575D01*
G36*
X413248Y-75575D02*
X415248Y-73575D01*
X426248Y-73575D01*
X427248Y-74576D01*
X427248Y-78575D01*
X426248Y-79575D01*
X415248Y-79575D01*
X413248Y-77576D01*
X413248Y-75575D01*
G37*
G54D79*
X413248Y-75575D02*
X415248Y-73575D01*
X426248Y-73575D01*
X427248Y-74576D01*
X427248Y-78575D01*
X426248Y-79575D01*
X415248Y-79575D01*
X413248Y-77576D01*
X413248Y-75575D01*
X421749Y-68575D02*
G54D80*
D03*
X421748Y-76575D02*
G54D80*
D03*
G36*
X413248Y-83576D02*
X415248Y-81575D01*
X426248Y-81575D01*
X427248Y-82575D01*
X427249Y-86576D01*
X426248Y-87575D01*
X415248Y-87575D01*
X413248Y-85576D01*
X413248Y-83576D01*
G37*
G54D79*
X413248Y-83576D02*
X415248Y-81575D01*
X426248Y-81575D01*
X427248Y-82575D01*
X427249Y-86576D01*
X426248Y-87575D01*
X415248Y-87575D01*
X413248Y-85576D01*
X413248Y-83576D01*
G36*
X413248Y-91575D02*
X415248Y-89575D01*
X426248Y-89575D01*
X427248Y-90576D01*
X427248Y-94575D01*
X426248Y-95575D01*
X415248Y-95575D01*
X413248Y-93575D01*
X413248Y-91575D01*
G37*
G54D79*
X413248Y-91575D02*
X415248Y-89575D01*
X426248Y-89575D01*
X427248Y-90576D01*
X427248Y-94575D01*
X426248Y-95575D01*
X415248Y-95575D01*
X413248Y-93575D01*
X413248Y-91575D01*
X421748Y-84575D02*
G54D80*
D03*
X421748Y-92575D02*
G54D80*
D03*
G36*
X413249Y-99575D02*
X415248Y-97575D01*
X426248Y-97575D01*
X427248Y-98575D01*
X427248Y-102575D01*
X426248Y-103575D01*
X415248Y-103575D01*
X413248Y-101575D01*
X413249Y-99575D01*
G37*
G54D79*
X413249Y-99575D02*
X415248Y-97575D01*
X426248Y-97575D01*
X427248Y-98575D01*
X427248Y-102575D01*
X426248Y-103575D01*
X415248Y-103575D01*
X413248Y-101575D01*
X413249Y-99575D01*
G36*
X413249Y-107576D02*
X415248Y-105575D01*
X426248Y-105575D01*
X427248Y-106575D01*
X427248Y-110575D01*
X426248Y-111575D01*
X415248Y-111576D01*
X413249Y-109575D01*
X413249Y-107576D01*
G37*
G54D79*
X413249Y-107576D02*
X415248Y-105575D01*
X426248Y-105575D01*
X427248Y-106575D01*
X427248Y-110575D01*
X426248Y-111575D01*
X415248Y-111576D01*
X413249Y-109575D01*
X413249Y-107576D01*
G36*
X419248Y-98076D02*
X424248Y-98076D01*
X424248Y-103076D01*
X419248Y-103076D01*
X419248Y-98076D01*
G37*
X421748Y-108575D02*
G54D80*
D03*
G36*
X493248Y-29575D02*
X495248Y-31576D01*
X495248Y-42575D01*
X494248Y-43575D01*
X490248Y-43575D01*
X489248Y-42575D01*
X489248Y-31575D01*
X491248Y-29575D01*
X493248Y-29575D01*
G37*
G54D79*
X493248Y-29575D02*
X495248Y-31576D01*
X495248Y-42575D01*
X494248Y-43575D01*
X490248Y-43575D01*
X489248Y-42575D01*
X489248Y-31575D01*
X491248Y-29575D01*
X493248Y-29575D01*
G36*
X485249Y-29576D02*
X487248Y-31575D01*
X487248Y-42575D01*
X486249Y-43576D01*
X482248Y-43575D01*
X481248Y-42575D01*
X481248Y-31575D01*
X483248Y-29575D01*
X485249Y-29576D01*
G37*
G54D79*
X485249Y-29576D02*
X487248Y-31575D01*
X487248Y-42575D01*
X486249Y-43576D01*
X482248Y-43575D01*
X481248Y-42575D01*
X481248Y-31575D01*
X483248Y-29575D01*
X485249Y-29576D01*
X492249Y-38075D02*
G54D80*
D03*
X484248Y-38076D02*
G54D80*
D03*
G36*
X477249Y-29575D02*
X479248Y-31575D01*
X479248Y-42575D01*
X478248Y-43575D01*
X474249Y-43575D01*
X473249Y-42576D01*
X473248Y-31576D01*
X475248Y-29575D01*
X477249Y-29575D01*
G37*
G54D79*
X477249Y-29575D02*
X479248Y-31575D01*
X479248Y-42575D01*
X478248Y-43575D01*
X474249Y-43575D01*
X473249Y-42576D01*
X473248Y-31576D01*
X475248Y-29575D01*
X477249Y-29575D01*
G36*
X469249Y-29576D02*
X471248Y-31576D01*
X471248Y-42576D01*
X470249Y-43575D01*
X466248Y-43576D01*
X465248Y-42575D01*
X465249Y-31575D01*
X467248Y-29575D01*
X469249Y-29576D01*
G37*
G54D79*
X469249Y-29576D02*
X471248Y-31576D01*
X471248Y-42576D01*
X470249Y-43575D01*
X466248Y-43576D01*
X465248Y-42575D01*
X465249Y-31575D01*
X467248Y-29575D01*
X469249Y-29576D01*
X476248Y-38075D02*
G54D80*
D03*
X468248Y-38075D02*
G54D80*
D03*
G36*
X461248Y-29575D02*
X463249Y-31575D01*
X463249Y-42576D01*
X462248Y-43575D01*
X458248Y-43575D01*
X457248Y-42576D01*
X457248Y-31575D01*
X459248Y-29575D01*
X461248Y-29575D01*
G37*
G54D79*
X461248Y-29575D02*
X463249Y-31575D01*
X463249Y-42576D01*
X462248Y-43575D01*
X458248Y-43575D01*
X457248Y-42576D01*
X457248Y-31575D01*
X459248Y-29575D01*
X461248Y-29575D01*
G36*
X453249Y-29575D02*
X455248Y-31575D01*
X455248Y-42575D01*
X454248Y-43575D01*
X450249Y-43575D01*
X449248Y-42576D01*
X449248Y-31575D01*
X451248Y-29576D01*
X453249Y-29575D01*
G37*
G54D79*
X453249Y-29575D02*
X455248Y-31575D01*
X455248Y-42575D01*
X454248Y-43575D01*
X450249Y-43575D01*
X449248Y-42576D01*
X449248Y-31575D01*
X451248Y-29576D01*
X453249Y-29575D01*
X460248Y-38075D02*
G54D80*
D03*
X452248Y-38075D02*
G54D80*
D03*
G36*
X445248Y-29576D02*
X447248Y-31576D01*
X447248Y-42575D01*
X446249Y-43575D01*
X442248Y-43575D01*
X441248Y-42575D01*
X441249Y-31575D01*
X443248Y-29576D01*
X445248Y-29576D01*
G37*
G54D79*
X445248Y-29576D02*
X447248Y-31576D01*
X447248Y-42575D01*
X446249Y-43575D01*
X442248Y-43575D01*
X441248Y-42575D01*
X441249Y-31575D01*
X443248Y-29576D01*
X445248Y-29576D01*
G36*
X437248Y-29576D02*
X439248Y-31575D01*
X439248Y-42575D01*
X438248Y-43575D01*
X434248Y-43575D01*
X433248Y-42576D01*
X433248Y-31575D01*
X435248Y-29575D01*
X437248Y-29576D01*
G37*
G54D79*
X437248Y-29576D02*
X439248Y-31575D01*
X439248Y-42575D01*
X438248Y-43575D01*
X434248Y-43575D01*
X433248Y-42576D01*
X433248Y-31575D01*
X435248Y-29575D01*
X437248Y-29576D01*
X444248Y-38075D02*
G54D80*
D03*
X436249Y-38075D02*
G54D80*
D03*
X279796Y-15875D02*
G54D73*
D03*
X260796Y-15875D02*
G54D73*
D03*
X257544Y-56330D02*
G54D74*
D03*
X257544Y-37330D02*
G54D74*
D03*
X474661Y-101201D02*
G54D43*
D03*
X666750Y-69056D02*
G54D81*
D03*
X542131Y-303609D02*
G54D73*
D03*
X561131Y-303609D02*
G54D73*
D03*
G54D24*
X587770Y-305195D02*
X560783Y-305195D01*
G36*
X475059Y-246856D02*
X475059Y-243284D01*
X485775Y-232569D01*
X494903Y-232569D01*
X475059Y-246856D01*
G37*
G54D82*
X475059Y-246856D02*
X475059Y-243284D01*
X485775Y-232569D01*
X494903Y-232569D01*
X475059Y-246856D01*
G36*
X471452Y-247215D02*
X471452Y-243643D01*
X451609Y-225783D01*
X451609Y-232927D01*
X471452Y-247215D01*
G37*
G54D82*
X471452Y-247215D02*
X471452Y-243643D01*
X451609Y-225783D01*
X451609Y-232927D01*
X471452Y-247215D01*
X666751Y-55959D02*
G54D81*
D03*
G54D66*
X351451Y-108322D02*
X375211Y-108372D01*
G54D46*
X257969Y-57547D02*
X257969Y-93266D01*
X291306Y-126603D01*
X402431Y-126603D01*
X420291Y-108744D01*
G54D16*
X586184Y-171448D02*
X586581Y-69453D01*
G54D66*
X565545Y-67071D02*
X565545Y-6350D01*
X405606Y-317103D02*
G54D83*
D03*
X433606Y-317103D02*
G54D83*
D03*
X320675Y-109141D02*
G54D83*
D03*
X348675Y-109141D02*
G54D83*
D03*
G36*
X603492Y-314244D02*
X603492Y-294244D01*
X623492Y-294244D01*
X623492Y-314244D01*
X603492Y-314244D01*
G37*
X588092Y-304244D02*
G54D60*
D03*
G36*
X334321Y-276406D02*
X334321Y-296406D01*
X314321Y-296406D01*
X314321Y-276406D01*
X334321Y-276406D01*
G37*
X349720Y-286407D02*
G54D60*
D03*
G36*
X350708Y-175930D02*
X350708Y-160930D01*
X365708Y-160930D01*
X365708Y-175930D01*
X350708Y-175930D01*
G37*
G54D66*
X452041Y-123031D02*
X452041Y-139303D01*
X428228Y-163116D01*
X375841Y-163116D01*
X358378Y-167878D01*
G36*
X364202Y-278324D02*
X364202Y-263324D01*
X379202Y-263324D01*
X379202Y-278324D01*
X364202Y-278324D01*
G37*
X285352Y-157160D02*
G54D60*
D03*
X474661Y-61117D02*
G54D43*
D03*
X862314Y-81505D02*
G54D72*
D03*
X890598Y-109789D02*
G54D72*
D03*
M02*
