%FSLAX34Y34*%
%MOMM*%
%LNCOPPER_TOP*%
G71*
G01*
%ADD10R, 4.300X3.200*%
%ADD11R, 2.000X3.200*%
%ADD12C, 1.000*%
%ADD13C, 5.000*%
%ADD14R, 2.600X4.100*%
%ADD15C, 0.500*%
%ADD16R, 3.300X2.200*%
%ADD17R, 1.000X2.200*%
%ADD18C, 0.000*%
%ADD19R, 2.000X3.500*%
%ADD20C, 3.000*%
%LPD*%
G36*
X0Y0D02*
X100000Y0D01*
X100000Y-200000D01*
X0Y-200000D01*
X0Y0D01*
G37*
%LPC*%
X49632Y-30802D02*
G54D10*
D03*
X49632Y-87952D02*
G54D11*
D03*
X75032Y-87952D02*
G54D11*
D03*
X24232Y-87952D02*
G54D11*
D03*
G36*
X44870Y-98668D02*
X44870Y-73268D01*
X7167Y-73268D01*
X7167Y-7783D01*
X92098Y-7783D01*
X92098Y-73268D01*
X54395Y-73268D01*
X54395Y-98668D01*
X44870Y-98668D01*
G37*
G54D12*
X44870Y-98668D02*
X44870Y-73268D01*
X7167Y-73268D01*
X7167Y-7783D01*
X92098Y-7783D01*
X92098Y-73268D01*
X54395Y-73268D01*
X54395Y-98668D01*
X44870Y-98668D01*
X49662Y-157566D02*
G54D13*
D03*
X49609Y-94456D02*
G54D14*
D03*
X74612Y-94456D02*
G54D14*
D03*
%LPD*%
G54D15*
G36*
X24232Y-85452D02*
X34732Y-85452D01*
X34732Y-90452D01*
X24232Y-90452D01*
X24232Y-85452D01*
G37*
G36*
X26732Y-87952D02*
X26732Y-104452D01*
X21732Y-104452D01*
X21732Y-87952D01*
X26732Y-87952D01*
G37*
G36*
X24232Y-90452D02*
X13732Y-90452D01*
X13732Y-85452D01*
X24232Y-85452D01*
X24232Y-90452D01*
G37*
X49632Y-30802D02*
G54D16*
D03*
X49632Y-87952D02*
G54D17*
D03*
X75032Y-87952D02*
G54D17*
D03*
X24232Y-87952D02*
G54D17*
D03*
G36*
X44870Y-98668D02*
X44870Y-73268D01*
X7167Y-73268D01*
X7167Y-7783D01*
X92098Y-7783D01*
X92098Y-73268D01*
X54395Y-73268D01*
X54395Y-98668D01*
X44870Y-98668D01*
G37*
G54D18*
X44870Y-98668D02*
X44870Y-73268D01*
X7167Y-73268D01*
X7167Y-7783D01*
X92098Y-7783D01*
X92098Y-73268D01*
X54395Y-73268D01*
X54395Y-98668D01*
X44870Y-98668D01*
X49662Y-157566D02*
G54D13*
D03*
X49609Y-94456D02*
G54D19*
D03*
X74612Y-94456D02*
G54D19*
D03*
%LNAUGENFREISTANZEN*%
%LPC*%
X49662Y-157566D02*
G54D20*
D03*
M02*
