%FSLAX34Y34*%
%MOMM*%
%LNCOPPER_TOP*%
G71*
G01*
%ADD10R, 2.200X2.200*%
%ADD11R, 1.900X2.200*%
%ADD12C, 2.600*%
%ADD13R, 2.800X1.300*%
%ADD14C, 0.700*%
%ADD15C, 1.100*%
%ADD16R, 2.200X1.900*%
%ADD17C, 0.433*%
%ADD18C, 0.667*%
%ADD19C, 0.533*%
%ADD20R, 1.600X1.600*%
%ADD21R, 1.300X1.600*%
%ADD22C, 2.000*%
%ADD23R, 2.200X0.700*%
%ADD24C, 0.100*%
%ADD25C, 0.500*%
%ADD26R, 1.600X1.300*%
%ADD27C, 0.900*%
%LPD*%
G36*
X0Y-125D02*
X200000Y-125D01*
X200000Y-200125D01*
X0Y-200125D01*
X0Y-125D01*
G37*
%LPC*%
X175419Y-80169D02*
G54D10*
D03*
X175419Y-52169D02*
G54D10*
D03*
X16272Y-147638D02*
G54D11*
D03*
X35271Y-147638D02*
G54D11*
D03*
G36*
X10019Y-167975D02*
X36019Y-167975D01*
X36019Y-193975D01*
X10019Y-193975D01*
X10019Y-167975D01*
G37*
X73819Y-180975D02*
G54D12*
D03*
X124619Y-180975D02*
G54D12*
D03*
X175419Y-180975D02*
G54D12*
D03*
X88900Y-80169D02*
G54D13*
D03*
X88900Y-92869D02*
G54D13*
D03*
X88901Y-105569D02*
G54D13*
D03*
X142900Y-105569D02*
G54D13*
D03*
X142900Y-92869D02*
G54D13*
D03*
X142900Y-80169D02*
G54D13*
D03*
X142900Y-67469D02*
G54D13*
D03*
G36*
X77946Y-70303D02*
X99378Y-70303D01*
X99378Y-64350D01*
X83900Y-64350D01*
X77946Y-70303D01*
G37*
G54D14*
X77946Y-70303D02*
X99378Y-70303D01*
X99378Y-64350D01*
X83900Y-64350D01*
X77946Y-70303D01*
X156419Y-134938D02*
G54D11*
D03*
X175419Y-134938D02*
G54D11*
D03*
G54D15*
X142875Y-80169D02*
X175262Y-80169D01*
X175335Y-134882D01*
G54D15*
X175419Y-180975D02*
X175419Y-134938D01*
X124619Y-150812D02*
G54D16*
D03*
X124619Y-131812D02*
G54D16*
D03*
G54D15*
X124619Y-131762D02*
X124643Y-117103D01*
X124668Y-92893D01*
X142925Y-92893D01*
X101203Y-36909D02*
G54D10*
D03*
X129203Y-36909D02*
G54D10*
D03*
G54D15*
X83741Y-80169D02*
X66278Y-80169D01*
X66278Y-53181D01*
X75625Y-36909D01*
X40084Y-82550D02*
G54D16*
D03*
X40084Y-63550D02*
G54D16*
D03*
G54D15*
X124619Y-180975D02*
X124991Y-151185D01*
X124594Y-150788D01*
X88503Y-147638D02*
G54D10*
D03*
X60503Y-147638D02*
G54D10*
D03*
G54D15*
X17641Y-112713D02*
X11328Y-86053D01*
X11291Y-26987D01*
X25181Y-13096D01*
X152975Y-13096D01*
X174803Y-34924D01*
X175127Y-52208D01*
G54D15*
X175419Y-80169D02*
X175503Y-80209D01*
X47625Y-36909D02*
G54D10*
D03*
G36*
X64625Y-25909D02*
X86625Y-25909D01*
X86625Y-47909D01*
X64625Y-47909D01*
X64625Y-25909D01*
G37*
G54D15*
X142875Y-92869D02*
X124619Y-92869D01*
X124594Y-58341D01*
X129178Y-36909D01*
G54D15*
X40084Y-63500D02*
X47751Y-36907D01*
G54D15*
X75803Y-36909D02*
X101203Y-36910D01*
G54D15*
X86916Y-92869D02*
X66278Y-92869D01*
X66278Y-116681D01*
X88106Y-133350D01*
X88106Y-149622D01*
X71834Y-180975D01*
G54D15*
X60325Y-147638D02*
X35145Y-147638D01*
X17637Y-112644D01*
G36*
X6641Y-101713D02*
X28641Y-101712D01*
X28641Y-123712D01*
X6641Y-123713D01*
X6641Y-101713D01*
G37*
X45641Y-112713D02*
G54D10*
D03*
%LPD*%
G54D17*
G36*
X14105Y-147638D02*
X14105Y-136138D01*
X18438Y-136138D01*
X18438Y-147638D01*
X14105Y-147638D01*
G37*
G36*
X18438Y-147638D02*
X18438Y-159138D01*
X14105Y-159138D01*
X14105Y-147638D01*
X18438Y-147638D01*
G37*
G36*
X16272Y-149804D02*
X6272Y-149804D01*
X6272Y-145471D01*
X16272Y-145471D01*
X16272Y-149804D01*
G37*
G54D18*
G36*
X19685Y-180975D02*
X19685Y-167475D01*
X26352Y-167475D01*
X26352Y-180975D01*
X19685Y-180975D01*
G37*
G36*
X23019Y-177642D02*
X36519Y-177642D01*
X36519Y-184308D01*
X23019Y-184308D01*
X23019Y-177642D01*
G37*
G36*
X26352Y-180975D02*
X26352Y-194475D01*
X19685Y-194475D01*
X19685Y-180975D01*
X26352Y-180975D01*
G37*
G36*
X23019Y-184308D02*
X9519Y-184308D01*
X9519Y-177642D01*
X23019Y-177642D01*
X23019Y-184308D01*
G37*
G54D14*
G36*
X88901Y-102069D02*
X103401Y-102069D01*
X103401Y-109069D01*
X88901Y-109069D01*
X88901Y-102069D01*
G37*
G36*
X92401Y-105569D02*
X92401Y-112569D01*
X85401Y-112569D01*
X85401Y-105569D01*
X92401Y-105569D01*
G37*
G36*
X88901Y-109069D02*
X74401Y-109069D01*
X74401Y-102069D01*
X88901Y-102069D01*
X88901Y-109069D01*
G37*
G54D17*
G36*
X154253Y-134938D02*
X154253Y-123438D01*
X158586Y-123438D01*
X158586Y-134938D01*
X154253Y-134938D01*
G37*
G36*
X158586Y-134938D02*
X158586Y-146438D01*
X154253Y-146438D01*
X154253Y-134938D01*
X158586Y-134938D01*
G37*
G36*
X156419Y-137104D02*
X146419Y-137104D01*
X146419Y-132771D01*
X156419Y-132771D01*
X156419Y-137104D01*
G37*
G54D17*
G36*
X40084Y-84716D02*
X28584Y-84717D01*
X28584Y-80384D01*
X40084Y-80384D01*
X40084Y-84716D01*
G37*
G36*
X40084Y-80384D02*
X51584Y-80383D01*
X51584Y-84716D01*
X40084Y-84716D01*
X40084Y-80384D01*
G37*
G36*
X42251Y-82550D02*
X42251Y-92550D01*
X37918Y-92550D01*
X37918Y-82550D01*
X42251Y-82550D01*
G37*
G54D19*
G36*
X45641Y-110046D02*
X57141Y-110046D01*
X57141Y-115379D01*
X45641Y-115379D01*
X45641Y-110046D01*
G37*
G36*
X48307Y-112713D02*
X48307Y-124213D01*
X42974Y-124213D01*
X42974Y-112713D01*
X48307Y-112713D01*
G37*
G36*
X42974Y-112713D02*
X42974Y-101213D01*
X48307Y-101213D01*
X48307Y-112713D01*
X42974Y-112713D01*
G37*
X175419Y-80169D02*
G54D20*
D03*
X175419Y-52169D02*
G54D20*
D03*
X16272Y-147638D02*
G54D21*
D03*
X35271Y-147638D02*
G54D21*
D03*
G36*
X13019Y-170975D02*
X33019Y-170975D01*
X33019Y-190975D01*
X13019Y-190975D01*
X13019Y-170975D01*
G37*
X73819Y-180975D02*
G54D22*
D03*
X124619Y-180975D02*
G54D22*
D03*
X175419Y-180975D02*
G54D22*
D03*
X88900Y-80169D02*
G54D23*
D03*
X88900Y-92869D02*
G54D23*
D03*
X88901Y-105569D02*
G54D23*
D03*
X142900Y-105569D02*
G54D23*
D03*
X142900Y-92869D02*
G54D23*
D03*
X142900Y-80169D02*
G54D23*
D03*
X142900Y-67469D02*
G54D23*
D03*
G36*
X77946Y-70303D02*
X99378Y-70303D01*
X99378Y-64350D01*
X83900Y-64350D01*
X77946Y-70303D01*
G37*
G54D24*
X77946Y-70303D02*
X99378Y-70303D01*
X99378Y-64350D01*
X83900Y-64350D01*
X77946Y-70303D01*
X156419Y-134938D02*
G54D21*
D03*
X175419Y-134938D02*
G54D21*
D03*
G54D25*
X142875Y-80169D02*
X175262Y-80169D01*
X175335Y-134882D01*
G54D25*
X175419Y-180975D02*
X175419Y-134938D01*
X124619Y-150812D02*
G54D26*
D03*
X124619Y-131812D02*
G54D26*
D03*
G54D25*
X124619Y-131762D02*
X124643Y-117103D01*
X124668Y-92893D01*
X142925Y-92893D01*
X101203Y-36909D02*
G54D20*
D03*
X129203Y-36909D02*
G54D20*
D03*
G54D25*
X83741Y-80169D02*
X66278Y-80169D01*
X66278Y-53181D01*
X75625Y-36909D01*
X40084Y-82550D02*
G54D26*
D03*
X40084Y-63550D02*
G54D26*
D03*
G54D25*
X124619Y-180975D02*
X124991Y-151185D01*
X124594Y-150788D01*
X88503Y-147638D02*
G54D20*
D03*
X60503Y-147638D02*
G54D20*
D03*
G54D25*
X17641Y-112713D02*
X11328Y-86053D01*
X11291Y-26987D01*
X25181Y-13096D01*
X152975Y-13096D01*
X174803Y-34924D01*
X175127Y-52208D01*
G54D25*
X175419Y-80169D02*
X175503Y-80209D01*
X47625Y-36909D02*
G54D20*
D03*
G36*
X67625Y-28909D02*
X83625Y-28909D01*
X83625Y-44909D01*
X67625Y-44909D01*
X67625Y-28909D01*
G37*
G54D25*
X142875Y-92869D02*
X124619Y-92869D01*
X124594Y-58341D01*
X129178Y-36909D01*
G54D25*
X40084Y-63500D02*
X47751Y-36907D01*
G54D25*
X75803Y-36909D02*
X101203Y-36910D01*
G54D25*
X86916Y-92869D02*
X66278Y-92869D01*
X66278Y-116681D01*
X88106Y-133350D01*
X88106Y-149622D01*
X71834Y-180975D01*
G54D25*
X60325Y-147638D02*
X35145Y-147638D01*
X17637Y-112644D01*
G36*
X9641Y-104713D02*
X25641Y-104713D01*
X25641Y-120713D01*
X9641Y-120713D01*
X9641Y-104713D01*
G37*
X45641Y-112713D02*
G54D20*
D03*
%LNAUGENFREISTANZEN*%
%LPC*%
X23019Y-180975D02*
G54D27*
D03*
X73819Y-180975D02*
G54D27*
D03*
X124619Y-180975D02*
G54D27*
D03*
X175419Y-180975D02*
G54D27*
D03*
M02*
