%FSLAX34Y34*%
%MOMM*%
%LNCOPPER_BOTTOM*%
G71*
G01*
%ADD10C, 2.800*%
%ADD11R, 2.400X2.400*%
%ADD12C, 1.100*%
%ADD13R, 2.400X2.100*%
%ADD14C, 1.400*%
%ADD15C, 0.667*%
%ADD16C, 0.533*%
%ADD17C, 0.433*%
%ADD18C, 2.000*%
%ADD19R, 1.600X1.600*%
%ADD20C, 0.500*%
%ADD21R, 1.600X1.300*%
%ADD22C, 0.800*%
%ADD23C, 0.720*%
%LPD*%
G36*
X0Y-125D02*
X-110000Y-125D01*
X-110000Y-190125D01*
X0Y-190125D01*
X0Y-125D01*
G37*
%LPC*%
X-14721Y-68986D02*
G54D10*
D03*
X-14721Y-170586D02*
G54D10*
D03*
X-90921Y-119786D02*
G54D10*
D03*
X-90921Y-18186D02*
G54D10*
D03*
X-64727Y-46761D02*
G54D11*
D03*
G36*
X-52727Y-6761D02*
X-76727Y-6761D01*
X-76727Y-30761D01*
X-52727Y-30761D01*
X-52727Y-6761D01*
G37*
X-50836Y-161855D02*
G54D11*
D03*
X-50836Y-133855D02*
G54D11*
D03*
X-40518Y-70177D02*
G54D11*
D03*
X-40518Y-98177D02*
G54D11*
D03*
G54D12*
X-14721Y-68986D02*
X-39833Y-68699D01*
X-38533Y-15011D02*
G54D13*
D03*
X-38533Y-34011D02*
G54D13*
D03*
G54D12*
X-65124Y-46365D02*
X-50439Y-44380D01*
X-38136Y-33665D01*
G54D12*
X-65124Y-46365D02*
X-65124Y-86052D01*
X-55996Y-99149D01*
X-40627Y-99259D01*
G54D12*
X-40121Y-98752D02*
X-51124Y-133964D01*
G54D12*
X-50439Y-161458D02*
X-14324Y-171380D01*
G36*
X-21721Y-11186D02*
X-21721Y-25186D01*
X-7721Y-25186D01*
X-7721Y-11186D01*
X-21721Y-11186D01*
G37*
X-14721Y-43586D02*
G54D14*
D03*
X-14721Y-119786D02*
G54D14*
D03*
X-14721Y-145186D02*
G54D14*
D03*
X-90921Y-170586D02*
G54D14*
D03*
X-90921Y-145186D02*
G54D14*
D03*
X-90921Y-18186D02*
G54D14*
D03*
%LPD*%
G54D15*
G36*
X-94254Y-18186D02*
X-94254Y-32686D01*
X-87587Y-32686D01*
X-87587Y-18186D01*
X-94254Y-18186D01*
G37*
G36*
X-90921Y-21520D02*
X-76421Y-21520D01*
X-76421Y-14853D01*
X-90921Y-14853D01*
X-90921Y-21520D01*
G37*
G36*
X-87587Y-18186D02*
X-87587Y-3686D01*
X-94254Y-3686D01*
X-94254Y-18186D01*
X-87587Y-18186D01*
G37*
G36*
X-90921Y-14853D02*
X-105421Y-14853D01*
X-105421Y-21520D01*
X-90921Y-21520D01*
X-90921Y-14853D01*
G37*
G54D16*
G36*
X-62060Y-18761D02*
X-62060Y-6261D01*
X-67393Y-6261D01*
X-67393Y-18761D01*
X-62060Y-18761D01*
G37*
G36*
X-64727Y-16095D02*
X-77227Y-16095D01*
X-77227Y-21428D01*
X-64727Y-21428D01*
X-64727Y-16095D01*
G37*
G36*
X-67393Y-18761D02*
X-67393Y-31261D01*
X-62060Y-31261D01*
X-62060Y-18761D01*
X-67393Y-18761D01*
G37*
G36*
X-64727Y-21428D02*
X-52227Y-21428D01*
X-52227Y-16095D01*
X-64727Y-16095D01*
X-64727Y-21428D01*
G37*
G54D17*
G36*
X-38533Y-12845D02*
X-51033Y-12845D01*
X-51033Y-17178D01*
X-38533Y-17178D01*
X-38533Y-12845D01*
G37*
G36*
X-38533Y-17178D02*
X-26033Y-17178D01*
X-26033Y-12845D01*
X-38533Y-12845D01*
X-38533Y-17178D01*
G37*
G36*
X-36367Y-15011D02*
X-36367Y-4011D01*
X-40700Y-4011D01*
X-40700Y-15011D01*
X-36367Y-15011D01*
G37*
X-14721Y-68986D02*
G54D18*
D03*
X-14721Y-170586D02*
G54D18*
D03*
X-90921Y-119786D02*
G54D18*
D03*
X-90921Y-18186D02*
G54D18*
D03*
X-64727Y-46761D02*
G54D19*
D03*
G36*
X-56727Y-10761D02*
X-72727Y-10761D01*
X-72727Y-26761D01*
X-56727Y-26761D01*
X-56727Y-10761D01*
G37*
X-50836Y-161855D02*
G54D19*
D03*
X-50836Y-133855D02*
G54D19*
D03*
X-40518Y-70177D02*
G54D19*
D03*
X-40518Y-98177D02*
G54D19*
D03*
G54D20*
X-14721Y-68986D02*
X-39833Y-68699D01*
X-38533Y-15011D02*
G54D21*
D03*
X-38533Y-34011D02*
G54D21*
D03*
G54D20*
X-65124Y-46365D02*
X-50439Y-44380D01*
X-38136Y-33665D01*
G54D20*
X-65124Y-46365D02*
X-65124Y-86052D01*
X-55996Y-99149D01*
X-40627Y-99259D01*
G54D20*
X-40121Y-98752D02*
X-51124Y-133964D01*
G54D20*
X-50439Y-161458D02*
X-14324Y-171380D01*
G36*
X-21721Y-11186D02*
X-21721Y-25186D01*
X-7721Y-25186D01*
X-7721Y-11186D01*
X-21721Y-11186D01*
G37*
X-14721Y-43586D02*
G54D14*
D03*
X-14721Y-119786D02*
G54D14*
D03*
X-14721Y-145186D02*
G54D14*
D03*
X-90921Y-170586D02*
G54D14*
D03*
X-90921Y-145186D02*
G54D14*
D03*
X-90921Y-18186D02*
G54D14*
D03*
%LNAUGENFREISTANZEN*%
%LPC*%
X-14721Y-68986D02*
G54D22*
D03*
X-14721Y-170586D02*
G54D22*
D03*
X-90921Y-119786D02*
G54D22*
D03*
X-90921Y-18186D02*
G54D22*
D03*
X-14721Y-18186D02*
G54D23*
D03*
X-14721Y-43586D02*
G54D23*
D03*
X-14721Y-119786D02*
G54D23*
D03*
X-14721Y-145186D02*
G54D23*
D03*
X-90921Y-170586D02*
G54D23*
D03*
X-90921Y-145186D02*
G54D23*
D03*
X-90921Y-18186D02*
G54D23*
D03*
M02*
