%FSLAX34Y34*%
%MOMM*%
%LNCOPPER_TOP*%
G71*
G01*
%ADD10C, 4.700*%
%ADD11C, 4.400*%
%ADD12C, 3.200*%
%ADD13C, 5.000*%
%ADD14C, 4.200*%
%ADD15C, 2.200*%
%ADD16C, 2.400*%
%ADD17R, 5.200X3.000*%
%ADD18C, 4.200*%
%ADD19C, 2.700*%
%ADD20R, 3.000X3.400*%
%ADD21C, 2.600*%
%ADD22C, 1.800*%
%ADD23C, 2.000*%
%ADD24R, 2.100X2.200*%
%ADD25R, 2.200X2.100*%
%ADD26R, 2.400X2.100*%
%ADD27C, 6.000*%
%ADD28C, 1.400*%
%ADD29R, 2.100X2.400*%
%ADD30C, 0.318*%
%ADD31R, 3.000X3.000*%
%ADD32C, 1.621*%
%ADD33C, 1.013*%
%ADD34C, 0.900*%
%ADD35C, 1.000*%
%ADD36C, 0.800*%
%ADD37C, 0.600*%
%ADD38C, 0.433*%
%ADD39C, 3.500*%
%ADD40C, 3.200*%
%ADD41C, 3.000*%
%ADD42C, 1.200*%
%ADD43R, 4.000X1.800*%
%ADD44C, 3.000*%
%ADD45C, 1.500*%
%ADD46R, 1.600X2.000*%
%ADD47R, 1.300X1.400*%
%ADD48R, 1.400X1.300*%
%ADD49R, 1.600X1.300*%
%ADD50C, 4.000*%
%ADD51R, 1.300X1.600*%
%ADD52R, 1.600X1.600*%
%LPD*%
G36*
X0Y0D02*
X400000Y0D01*
X400000Y-600000D01*
X0Y-600000D01*
X0Y0D01*
G37*
%LPC*%
X306074Y-501314D02*
G54D10*
D03*
X26674Y-120314D02*
G54D11*
D03*
G54D12*
X137799Y-205564D02*
X137799Y-225564D01*
G54D12*
X137799Y-357964D02*
X137799Y-377964D01*
G54D12*
X86999Y-205564D02*
X86999Y-225564D01*
G54D12*
X239399Y-357964D02*
X239399Y-377964D01*
G54D13*
X362349Y-50464D02*
X332349Y-50464D01*
G54D14*
X362349Y-152064D02*
X332349Y-152064D01*
G36*
X23499Y-421939D02*
X188599Y-421939D01*
X194949Y-428289D01*
X194949Y-533064D01*
X188599Y-539414D01*
X23499Y-539414D01*
X23499Y-421939D01*
G37*
G54D15*
X23499Y-421939D02*
X188599Y-421939D01*
X194949Y-428289D01*
X194949Y-533064D01*
X188599Y-539414D01*
X23499Y-539414D01*
X23499Y-421939D01*
G54D12*
X246186Y-455044D02*
X226186Y-455044D01*
G54D12*
X246186Y-480444D02*
X226186Y-480444D01*
G54D12*
X246186Y-505844D02*
X226186Y-505844D01*
G54D15*
X137799Y-215564D02*
X137799Y-250489D01*
X102874Y-285414D01*
X102874Y-412414D01*
G54D12*
X236186Y-480444D02*
X180428Y-480444D01*
G54D16*
X236224Y-453689D02*
X287024Y-453689D01*
X306074Y-472739D01*
X306074Y-501314D01*
G54D15*
X236186Y-480444D02*
X262978Y-480444D01*
X267974Y-479089D01*
G54D15*
X267974Y-504439D02*
X237590Y-504439D01*
X236186Y-505844D01*
G54D16*
X266700Y-504825D02*
X266700Y-565150D01*
X238125Y-565150D01*
X339124Y-531189D02*
G54D17*
D03*
X339124Y-503189D02*
G54D17*
D03*
X339124Y-531189D02*
G54D17*
D03*
X340999Y-450514D02*
G54D18*
D03*
X380999Y-450514D02*
G54D18*
D03*
X380999Y-450514D02*
G54D18*
D03*
G54D19*
X29849Y-421939D02*
X306074Y-425114D01*
X340999Y-450514D01*
X211138Y-565150D02*
G54D20*
D03*
X239138Y-565150D02*
G54D20*
D03*
X211138Y-565149D02*
G54D20*
D03*
G54D21*
X288125Y-119825D02*
X288125Y-137825D01*
G54D21*
X263125Y-119825D02*
X263125Y-137825D01*
G54D21*
X238125Y-119825D02*
X238125Y-137825D01*
G54D22*
X347349Y-152064D02*
X314539Y-152064D01*
X288125Y-128825D01*
G54D12*
X350999Y-301289D02*
X330999Y-301289D01*
G54D12*
X350999Y-326689D02*
X330999Y-326689D01*
G54D23*
X340999Y-326689D02*
X366399Y-326689D01*
X366399Y-402889D01*
G54D12*
X239399Y-205564D02*
X239399Y-225564D01*
X263475Y-171450D02*
G54D24*
D03*
X244475Y-171450D02*
G54D24*
D03*
G54D22*
X263475Y-171450D02*
X263475Y-128475D01*
G54D22*
X239399Y-215564D02*
X239399Y-176526D01*
X244475Y-171450D01*
X347375Y-68600D02*
G54D25*
D03*
X347375Y-87600D02*
G54D25*
D03*
X347375Y-141525D02*
G54D26*
D03*
X347375Y-122525D02*
G54D26*
D03*
X74325Y-113050D02*
G54D25*
D03*
X74325Y-132050D02*
G54D25*
D03*
X74299Y-50464D02*
G54D27*
D03*
X74299Y-69514D02*
G54D25*
D03*
X74299Y-88514D02*
G54D25*
D03*
X104750Y-107925D02*
G54D25*
D03*
X104750Y-88925D02*
G54D25*
D03*
G54D15*
X74325Y-113050D02*
X74325Y-88540D01*
X74299Y-88514D01*
X104750Y-88925D01*
G54D28*
X104775Y-107950D02*
X104775Y-168275D01*
X111125Y-174625D01*
X152400Y-174625D01*
X174625Y-196850D01*
X174625Y-254000D01*
X238125Y-336550D01*
X238125Y-368300D01*
X105726Y-156368D02*
G54D29*
D03*
X86726Y-156368D02*
G54D29*
D03*
G54D12*
X213999Y-205564D02*
X213999Y-225564D01*
G54D30*
X235215Y-31750D02*
X239659Y-13972D01*
X244104Y-31750D01*
G54D30*
X236993Y-25083D02*
X242326Y-25083D01*
G54D30*
X250326Y-31750D02*
X250326Y-13972D01*
X257437Y-31750D01*
X257437Y-13972D01*
G54D30*
X267215Y-31750D02*
X267215Y-13972D01*
G54D30*
X263659Y-13972D02*
X270770Y-13972D01*
G54D30*
X276992Y-31750D02*
X285881Y-31750D01*
G54D30*
X299214Y-28417D02*
X298325Y-30639D01*
X296547Y-31750D01*
X294770Y-31750D01*
X292992Y-30639D01*
X292103Y-28417D01*
X292103Y-17306D01*
X292992Y-15083D01*
X294770Y-13972D01*
X296547Y-13972D01*
X298325Y-15083D01*
X299214Y-17306D01*
G54D30*
X305436Y-31750D02*
X309880Y-13972D01*
X314325Y-31750D01*
G54D30*
X307214Y-25083D02*
X312547Y-25083D01*
G54D30*
X320547Y-31750D02*
X320547Y-13972D01*
X324991Y-13972D01*
X326769Y-15083D01*
X327658Y-17306D01*
X327658Y-19528D01*
X326769Y-21750D01*
X324991Y-22861D01*
X320547Y-22861D01*
G54D30*
X22871Y-28575D02*
X22871Y-10797D01*
G54D30*
X19315Y-10797D02*
X26426Y-10797D01*
G54D30*
X32648Y-10797D02*
X41537Y-28575D01*
G54D30*
X32648Y-28575D02*
X41537Y-10797D01*
G54D30*
X47759Y-20797D02*
X54870Y-20797D01*
G54D30*
X51315Y-16353D02*
X51315Y-25242D01*
X160050Y-113050D02*
G54D25*
D03*
X160050Y-132050D02*
G54D25*
D03*
X160024Y-50464D02*
G54D27*
D03*
X160024Y-69514D02*
G54D25*
D03*
X160024Y-88514D02*
G54D25*
D03*
X190475Y-107925D02*
G54D25*
D03*
X190475Y-88925D02*
G54D25*
D03*
G54D15*
X160050Y-113050D02*
X160050Y-88540D01*
X160024Y-88514D01*
X190475Y-88925D01*
X191451Y-156368D02*
G54D29*
D03*
X172451Y-156368D02*
G54D29*
D03*
G54D28*
X213999Y-215564D02*
X213999Y-178915D01*
X191451Y-156368D01*
X191451Y-108901D01*
X190475Y-107925D01*
G54D30*
X174890Y-17622D02*
X182001Y-17622D01*
G54D30*
X178446Y-13178D02*
X178446Y-22067D01*
G54D30*
X188223Y-14289D02*
X192667Y-7622D01*
X192667Y-25400D01*
G54D30*
X206000Y-25400D02*
X198889Y-25400D01*
X198889Y-24289D01*
X199778Y-22067D01*
X205111Y-15400D01*
X206000Y-13178D01*
X206000Y-10956D01*
X205111Y-8733D01*
X203333Y-7622D01*
X201556Y-7622D01*
X199778Y-8733D01*
X198889Y-10956D01*
G54D30*
X25665Y-560072D02*
X25665Y-574517D01*
X26554Y-576739D01*
X28332Y-577850D01*
X30109Y-577850D01*
X31887Y-576739D01*
X32776Y-574517D01*
X32776Y-560072D01*
G54D30*
X38998Y-577850D02*
X38998Y-560072D01*
X43442Y-560072D01*
X45220Y-561183D01*
X46109Y-563406D01*
X46109Y-574517D01*
X45220Y-576739D01*
X43442Y-577850D01*
X38998Y-577850D01*
G54D30*
X59442Y-563406D02*
X59442Y-574517D01*
X58553Y-576739D01*
X56775Y-577850D01*
X54998Y-577850D01*
X53220Y-576739D01*
X52331Y-574517D01*
X52331Y-563406D01*
X53220Y-561183D01*
X54998Y-560072D01*
X56775Y-560072D01*
X58553Y-561183D01*
X59442Y-563406D01*
G54D30*
X72775Y-574517D02*
X71886Y-576739D01*
X70108Y-577850D01*
X68331Y-577850D01*
X66553Y-576739D01*
X65664Y-574517D01*
X65664Y-563406D01*
X66553Y-561183D01*
X68331Y-560072D01*
X70108Y-560072D01*
X71886Y-561183D01*
X72775Y-563406D01*
G54D30*
X78997Y-577850D02*
X83441Y-560072D01*
X87886Y-577850D01*
G54D30*
X80775Y-571183D02*
X86108Y-571183D01*
G54D30*
X101219Y-560072D02*
X101219Y-574517D01*
X100330Y-576739D01*
X98552Y-577850D01*
X96775Y-577850D01*
X94997Y-576739D01*
X94108Y-574517D01*
X296287Y-565150D02*
G54D20*
D03*
X268287Y-565150D02*
G54D20*
D03*
X296287Y-565151D02*
G54D20*
D03*
X267974Y-479089D02*
G54D31*
D03*
X267974Y-507089D02*
G54D31*
D03*
G54D12*
X245711Y-455044D02*
X215354Y-455044D01*
G54D12*
X245711Y-505844D02*
X215354Y-505844D01*
G54D12*
X376399Y-352089D02*
X356399Y-352089D01*
G54D12*
X376399Y-377489D02*
X356399Y-377489D01*
G54D12*
X376399Y-326689D02*
X356399Y-326689D01*
G54D12*
X376399Y-402889D02*
X356399Y-402889D01*
G54D23*
X340999Y-301289D02*
X366399Y-301289D01*
X366399Y-225089D01*
G54D12*
X376399Y-275889D02*
X356399Y-275889D01*
G54D12*
X376399Y-250489D02*
X356399Y-250489D01*
G54D12*
X376399Y-301289D02*
X356399Y-301289D01*
G54D12*
X376399Y-225089D02*
X356399Y-225089D01*
G54D19*
X277499Y-426264D02*
X277499Y-411264D01*
G54D19*
X252099Y-426264D02*
X252099Y-411264D01*
G54D19*
X302899Y-426264D02*
X302899Y-411264D01*
G54D19*
X226699Y-426264D02*
X226699Y-411264D01*
G54D30*
X321614Y-349912D02*
X319392Y-351245D01*
X318281Y-353912D01*
X318281Y-356578D01*
X319392Y-359245D01*
X321614Y-360578D01*
X323836Y-360578D01*
X326059Y-359245D01*
X327170Y-356578D01*
X327170Y-353912D01*
X328281Y-351245D01*
X330503Y-349912D01*
X332725Y-349912D01*
X334948Y-351245D01*
X336059Y-353912D01*
X336059Y-356578D01*
X334948Y-359245D01*
X332725Y-360578D01*
G54D30*
X318281Y-366800D02*
X336059Y-366800D01*
X336059Y-373467D01*
X334948Y-376134D01*
X332725Y-377467D01*
X321614Y-377467D01*
X319392Y-376134D01*
X318281Y-373467D01*
X318281Y-366800D01*
G54D30*
X318281Y-383690D02*
X336059Y-390356D01*
X318281Y-397023D01*
G54D30*
X324948Y-386356D02*
X324948Y-394356D01*
G54D30*
X322489Y-235046D02*
X320267Y-236379D01*
X319156Y-239046D01*
X319156Y-241712D01*
X320267Y-244379D01*
X322489Y-245712D01*
X324711Y-245712D01*
X326933Y-244379D01*
X328044Y-241712D01*
X328044Y-239046D01*
X329156Y-236379D01*
X331378Y-235046D01*
X333600Y-235046D01*
X335822Y-236379D01*
X336933Y-239046D01*
X336933Y-241712D01*
X335822Y-244379D01*
X333600Y-245712D01*
G54D30*
X322489Y-262601D02*
X320267Y-261268D01*
X319156Y-258601D01*
X319156Y-255934D01*
X320267Y-253268D01*
X322489Y-251934D01*
X333600Y-251934D01*
X335822Y-253268D01*
X336933Y-255934D01*
X336933Y-258601D01*
X335822Y-261268D01*
X333600Y-262601D01*
G54D30*
X336933Y-268824D02*
X319156Y-268824D01*
X319156Y-278157D01*
X74612Y-307976D02*
G54D20*
D03*
X102612Y-307976D02*
G54D20*
D03*
X74612Y-307976D02*
G54D20*
D03*
%LPD*%
G54D32*
G36*
X32406Y-114582D02*
X48316Y-130492D01*
X36852Y-141956D01*
X20942Y-126046D01*
X32406Y-114582D01*
G37*
G36*
X32406Y-126046D02*
X16496Y-141956D01*
X5032Y-130492D01*
X20942Y-114582D01*
X32406Y-126046D01*
G37*
G36*
X20942Y-126046D02*
X5032Y-110136D01*
X16496Y-98672D01*
X32406Y-114582D01*
X20942Y-126046D01*
G37*
G36*
X20942Y-114582D02*
X36852Y-98672D01*
X48316Y-110136D01*
X32406Y-126046D01*
X20942Y-114582D01*
G37*
G54D33*
G36*
X142865Y-367964D02*
X142865Y-394464D01*
X132732Y-394464D01*
X132732Y-367964D01*
X142865Y-367964D01*
G37*
G36*
X132732Y-367964D02*
X132732Y-341464D01*
X142865Y-341464D01*
X142865Y-367964D01*
X132732Y-367964D01*
G37*
G54D33*
G36*
X92065Y-215564D02*
X92065Y-242064D01*
X81932Y-242064D01*
X81932Y-215564D01*
X92065Y-215564D01*
G37*
G36*
X81932Y-215564D02*
X81932Y-189064D01*
X92065Y-189064D01*
X92065Y-215564D01*
X81932Y-215564D01*
G37*
G54D34*
G36*
X339124Y-535689D02*
X312624Y-535688D01*
X312624Y-526688D01*
X339124Y-526689D01*
X339124Y-535689D01*
G37*
G36*
X339124Y-526689D02*
X365624Y-526689D01*
X365624Y-535689D01*
X339124Y-535689D01*
X339124Y-526689D01*
G37*
G36*
X343624Y-531189D02*
X343624Y-546689D01*
X334624Y-546689D01*
X334624Y-531189D01*
X343624Y-531189D01*
G37*
G54D35*
G36*
X384534Y-446978D02*
X399737Y-462181D01*
X392666Y-469252D01*
X377463Y-454049D01*
X384534Y-446978D01*
G37*
G36*
X384534Y-454049D02*
X369332Y-469252D01*
X362260Y-462181D01*
X377463Y-446978D01*
X384534Y-454049D01*
G37*
G36*
X377463Y-454049D02*
X362260Y-438846D01*
X369332Y-431775D01*
X384534Y-446978D01*
X377463Y-454049D01*
G37*
G36*
X377463Y-446978D02*
X392666Y-431775D01*
X399737Y-438846D01*
X384534Y-454049D01*
X377463Y-446978D01*
G37*
G54D36*
G36*
X207138Y-565149D02*
X207138Y-547649D01*
X215138Y-547649D01*
X215138Y-565149D01*
X207138Y-565149D01*
G37*
G36*
X215138Y-565149D02*
X215137Y-582649D01*
X207137Y-582649D01*
X207138Y-565149D01*
X215138Y-565149D01*
G37*
G36*
X211137Y-569149D02*
X195637Y-569149D01*
X195638Y-561149D01*
X211138Y-561149D01*
X211137Y-569149D01*
G37*
G54D37*
G36*
X235125Y-128825D02*
X235125Y-106325D01*
X241125Y-106325D01*
X241125Y-128825D01*
X235125Y-128825D01*
G37*
G36*
X241125Y-128825D02*
X241125Y-151325D01*
X235125Y-151325D01*
X235125Y-128825D01*
X241125Y-128825D01*
G37*
G36*
X238125Y-131825D02*
X224625Y-131825D01*
X224625Y-125825D01*
X238125Y-125825D01*
X238125Y-131825D01*
G37*
G54D38*
G36*
X347375Y-85434D02*
X358875Y-85434D01*
X358875Y-89766D01*
X347375Y-89766D01*
X347375Y-85434D01*
G37*
G36*
X349542Y-87600D02*
X349542Y-98600D01*
X345208Y-98600D01*
X345208Y-87600D01*
X349542Y-87600D01*
G37*
G36*
X347375Y-89766D02*
X335875Y-89766D01*
X335875Y-85434D01*
X347375Y-85434D01*
X347375Y-89766D01*
G37*
G54D38*
G36*
X347375Y-124692D02*
X334875Y-124692D01*
X334875Y-120358D01*
X347375Y-120358D01*
X347375Y-124692D01*
G37*
G36*
X345208Y-122525D02*
X345208Y-111525D01*
X349542Y-111525D01*
X349542Y-122525D01*
X345208Y-122525D01*
G37*
G36*
X347375Y-120358D02*
X359875Y-120358D01*
X359875Y-124692D01*
X347375Y-124692D01*
X347375Y-120358D01*
G37*
G54D38*
G36*
X74325Y-129884D02*
X85825Y-129884D01*
X85825Y-134216D01*
X74325Y-134216D01*
X74325Y-129884D01*
G37*
G36*
X76492Y-132050D02*
X76492Y-143050D01*
X72158Y-143050D01*
X72158Y-132050D01*
X76492Y-132050D01*
G37*
G36*
X74325Y-134216D02*
X62825Y-134216D01*
X62825Y-129884D01*
X74325Y-129884D01*
X74325Y-134216D01*
G37*
G54D38*
G36*
X88892Y-156368D02*
X88892Y-168868D01*
X84559Y-168868D01*
X84559Y-156368D01*
X88892Y-156368D01*
G37*
G36*
X86726Y-158534D02*
X75726Y-158534D01*
X75726Y-154201D01*
X86726Y-154201D01*
X86726Y-158534D01*
G37*
G36*
X84559Y-156368D02*
X84559Y-143868D01*
X88892Y-143868D01*
X88892Y-156368D01*
X84559Y-156368D01*
G37*
G54D38*
G36*
X160050Y-129884D02*
X171550Y-129884D01*
X171550Y-134216D01*
X160050Y-134216D01*
X160050Y-129884D01*
G37*
G36*
X162216Y-132050D02*
X162216Y-143050D01*
X157884Y-143050D01*
X157884Y-132050D01*
X162216Y-132050D01*
G37*
G36*
X160050Y-134216D02*
X148550Y-134216D01*
X148550Y-129884D01*
X160050Y-129884D01*
X160050Y-134216D01*
G37*
G54D38*
G36*
X174617Y-156368D02*
X174617Y-168868D01*
X170284Y-168868D01*
X170284Y-156368D01*
X174617Y-156368D01*
G37*
G36*
X172451Y-158534D02*
X161451Y-158534D01*
X161451Y-154201D01*
X172451Y-154201D01*
X172451Y-158534D01*
G37*
G36*
X170284Y-156368D02*
X170284Y-143868D01*
X174617Y-143868D01*
X174617Y-156368D01*
X170284Y-156368D01*
G37*
G54D36*
G36*
X300287Y-565151D02*
X300287Y-582651D01*
X292287Y-582651D01*
X292287Y-565151D01*
X300287Y-565151D01*
G37*
G36*
X292287Y-565151D02*
X292287Y-547651D01*
X300287Y-547651D01*
X300287Y-565151D01*
X292287Y-565151D01*
G37*
G36*
X296287Y-561151D02*
X311787Y-561152D01*
X311787Y-569152D01*
X296287Y-569151D01*
X296287Y-561151D01*
G37*
G54D36*
G36*
X70612Y-307976D02*
X70612Y-290476D01*
X78612Y-290476D01*
X78612Y-307976D01*
X70612Y-307976D01*
G37*
G36*
X78612Y-307976D02*
X78612Y-325476D01*
X70612Y-325476D01*
X70612Y-307976D01*
X78612Y-307976D01*
G37*
G36*
X74612Y-311976D02*
X59112Y-311976D01*
X59112Y-303976D01*
X74612Y-303976D01*
X74612Y-311976D01*
G37*
X306074Y-501314D02*
G54D39*
D03*
X26674Y-120314D02*
G54D40*
D03*
G54D23*
X137799Y-205564D02*
X137799Y-225564D01*
G54D23*
X137799Y-357964D02*
X137799Y-377964D01*
G54D23*
X86999Y-205564D02*
X86999Y-225564D01*
G54D23*
X239399Y-357964D02*
X239399Y-377964D01*
G54D41*
X362349Y-50464D02*
X332349Y-50464D01*
G54D41*
X362349Y-152064D02*
X332349Y-152064D01*
G36*
X23499Y-421939D02*
X188599Y-421939D01*
X194949Y-428289D01*
X194949Y-533064D01*
X188599Y-539414D01*
X23499Y-539414D01*
X23499Y-421939D01*
G37*
G54D35*
X23499Y-421939D02*
X188599Y-421939D01*
X194949Y-428289D01*
X194949Y-533064D01*
X188599Y-539414D01*
X23499Y-539414D01*
X23499Y-421939D01*
G54D23*
X246186Y-455044D02*
X226186Y-455044D01*
G54D23*
X246186Y-480444D02*
X226186Y-480444D01*
G54D23*
X246186Y-505844D02*
X226186Y-505844D01*
G54D35*
X137799Y-215564D02*
X137799Y-250489D01*
X102874Y-285414D01*
X102874Y-412414D01*
G54D23*
X236186Y-480444D02*
X180428Y-480444D01*
G54D42*
X236224Y-453689D02*
X287024Y-453689D01*
X306074Y-472739D01*
X306074Y-501314D01*
G54D35*
X236186Y-480444D02*
X262978Y-480444D01*
X267974Y-479089D01*
G54D35*
X267974Y-504439D02*
X237590Y-504439D01*
X236186Y-505844D01*
G54D35*
X266700Y-504825D02*
X266700Y-565150D01*
X238125Y-565150D01*
X339124Y-531189D02*
G54D43*
D03*
X339124Y-503189D02*
G54D43*
D03*
X339124Y-531189D02*
G54D43*
D03*
X340999Y-450514D02*
G54D44*
D03*
X380999Y-450514D02*
G54D44*
D03*
X380999Y-450514D02*
G54D44*
D03*
G54D45*
X29849Y-421939D02*
X306074Y-425114D01*
X340999Y-450514D01*
X211138Y-565150D02*
G54D46*
D03*
X239138Y-565150D02*
G54D46*
D03*
X211138Y-565149D02*
G54D46*
D03*
G54D22*
X288125Y-119825D02*
X288125Y-137825D01*
G54D22*
X263125Y-119825D02*
X263125Y-137825D01*
G54D22*
X238125Y-119825D02*
X238125Y-137825D01*
G54D35*
X347349Y-152064D02*
X314539Y-152064D01*
X288125Y-128825D01*
G54D23*
X350999Y-301289D02*
X330999Y-301289D01*
G54D23*
X350999Y-326689D02*
X330999Y-326689D01*
G54D42*
X340999Y-326689D02*
X366399Y-326689D01*
X366399Y-402889D01*
G54D23*
X239399Y-205564D02*
X239399Y-225564D01*
X263475Y-171450D02*
G54D47*
D03*
X244475Y-171450D02*
G54D47*
D03*
G54D35*
X263475Y-171450D02*
X263475Y-128475D01*
G54D35*
X239399Y-215564D02*
X239399Y-176526D01*
X244475Y-171450D01*
X347375Y-68600D02*
G54D48*
D03*
X347375Y-87600D02*
G54D48*
D03*
X347375Y-141525D02*
G54D49*
D03*
X347375Y-122525D02*
G54D49*
D03*
X74325Y-113050D02*
G54D48*
D03*
X74325Y-132050D02*
G54D48*
D03*
X74299Y-50464D02*
G54D50*
D03*
X74299Y-69514D02*
G54D48*
D03*
X74299Y-88514D02*
G54D48*
D03*
X104750Y-107925D02*
G54D48*
D03*
X104750Y-88925D02*
G54D48*
D03*
G54D35*
X74325Y-113050D02*
X74325Y-88540D01*
X74299Y-88514D01*
X104750Y-88925D01*
G54D37*
X104775Y-107950D02*
X104775Y-168275D01*
X111125Y-174625D01*
X152400Y-174625D01*
X174625Y-196850D01*
X174625Y-254000D01*
X238125Y-336550D01*
X238125Y-368300D01*
X105726Y-156368D02*
G54D51*
D03*
X86726Y-156368D02*
G54D51*
D03*
G54D23*
X213999Y-205564D02*
X213999Y-225564D01*
X160050Y-113050D02*
G54D48*
D03*
X160050Y-132050D02*
G54D48*
D03*
X160024Y-50464D02*
G54D50*
D03*
X160024Y-69514D02*
G54D48*
D03*
X160024Y-88514D02*
G54D48*
D03*
X190475Y-107925D02*
G54D48*
D03*
X190475Y-88925D02*
G54D48*
D03*
G54D35*
X160050Y-113050D02*
X160050Y-88540D01*
X160024Y-88514D01*
X190475Y-88925D01*
X191451Y-156368D02*
G54D51*
D03*
X172451Y-156368D02*
G54D51*
D03*
G54D37*
X213999Y-215564D02*
X213999Y-178915D01*
X191451Y-156368D01*
X191451Y-108901D01*
X190475Y-107925D01*
X296287Y-565150D02*
G54D46*
D03*
X268287Y-565150D02*
G54D46*
D03*
X296287Y-565151D02*
G54D46*
D03*
X267974Y-479089D02*
G54D52*
D03*
X267974Y-507089D02*
G54D52*
D03*
G54D23*
X245711Y-455044D02*
X215354Y-455044D01*
G54D23*
X245711Y-505844D02*
X215354Y-505844D01*
G54D23*
X376399Y-352089D02*
X356399Y-352089D01*
G54D23*
X376399Y-377489D02*
X356399Y-377489D01*
G54D23*
X376399Y-326689D02*
X356399Y-326689D01*
G54D23*
X376399Y-402889D02*
X356399Y-402889D01*
G54D42*
X340999Y-301289D02*
X366399Y-301289D01*
X366399Y-225089D01*
G54D23*
X376399Y-275889D02*
X356399Y-275889D01*
G54D23*
X376399Y-250489D02*
X356399Y-250489D01*
G54D23*
X376399Y-301289D02*
X356399Y-301289D01*
G54D23*
X376399Y-225089D02*
X356399Y-225089D01*
G54D45*
X277499Y-426264D02*
X277499Y-411264D01*
G54D45*
X252099Y-426264D02*
X252099Y-411264D01*
G54D45*
X302899Y-426264D02*
X302899Y-411264D01*
G54D45*
X226699Y-426264D02*
X226699Y-411264D01*
X74612Y-307976D02*
G54D46*
D03*
X102612Y-307976D02*
G54D46*
D03*
X74612Y-307976D02*
G54D46*
D03*
M02*
