M48
M71
T01C0.5
T02C0.8
T03C3.0
%
G05
T01
X031430Y-031670
X044370Y-028850
X044370Y-026310
X046120Y-015200
X048340Y-015200
X057350Y-017500
X061580Y-016410
X064120Y-016410
X064210Y-010160
X058700Y-005550
X058700Y-003010
X041710Y-003970
X028610Y-009720
X055560Y-032380
X096840Y-009520
T02
X014210Y-011950
X016750Y-011950
X019290Y-011950
X024100Y-008770
X024100Y-006230
X024100Y-003690
X028440Y-004000
X028440Y-006540
X030980Y-006540
X030980Y-004000
X033520Y-004000
X033520Y-006540
X038620Y-020520
X038620Y-023060
X038620Y-025600
X053860Y-025600
X053860Y-020520
X064220Y-012010
X066760Y-012010
X072830Y-010900
X075960Y-011430
X075960Y-008890
X075960Y-006350
X075960Y-003810
X072830Y-003280
T03
X005040Y-005440
X083150Y-005440
M30
