%FSLAX34Y34*%
%MOMM*%
%LNSOLDERMASK_TOP*%
G71*
G01*
%ADD10C, 0.002*%
%ADD11C, 5.600*%
%ADD12C, 2.600*%
%ADD13R, 3.500X2.400*%
%ADD14R, 2.200X2.700*%
%ADD15R, 2.400X0.900*%
%ADD16C, 1.600*%
%ADD17R, 0.800X2.200*%
%ADD18R, 0.500X2.200*%
%ADD19R, 5.200X1.900*%
%ADD20C, 2.100*%
%ADD21R, 1.800X1.500*%
%ADD22C, 2.400*%
%ADD23R, 1.500X1.600*%
%ADD24C, 3.600*%
%ADD25R, 1.500X1.800*%
%ADD26R, 1.600X1.500*%
%ADD27R, 2.100X5.000*%
%ADD28C, 2.600*%
%ADD29C, 1.880*%
%ADD30R, 2.100X4.600*%
%ADD31R, 4.600X2.100*%
%ADD32R, 0.900X2.400*%
%ADD33C, 0.200*%
%ADD34R, 0.700X0.700*%
%LPD*%
G54D10*
X792Y-396D02*
X990792Y-396D01*
X990792Y-346396D01*
X792Y-346396D01*
X792Y-396D01*
X50402Y-54371D02*
G54D11*
D03*
X831451Y-54371D02*
G54D11*
D03*
G36*
X746617Y-127298D02*
X746617Y-101298D01*
X772617Y-101298D01*
X772617Y-127298D01*
X746617Y-127298D01*
G37*
X759618Y-88898D02*
G54D12*
D03*
X759618Y-63498D02*
G54D12*
D03*
X759618Y-38098D02*
G54D12*
D03*
X386157Y-205184D02*
G54D12*
D03*
X538557Y-205184D02*
G54D12*
D03*
X386157Y-230584D02*
G54D12*
D03*
X538557Y-255984D02*
G54D12*
D03*
X386157Y-255984D02*
G54D12*
D03*
X909741Y-37565D02*
G54D13*
D03*
X909636Y-95250D02*
G54D14*
D03*
G36*
X924036Y-81750D02*
X946036Y-81749D01*
X946036Y-108749D01*
X924036Y-108750D01*
X924036Y-81750D01*
G37*
X884236Y-95250D02*
G54D14*
D03*
X668732Y-71833D02*
G54D15*
D03*
X668732Y-59133D02*
G54D15*
D03*
X668733Y-46433D02*
G54D15*
D03*
X668732Y-33733D02*
G54D15*
D03*
X614733Y-33733D02*
G54D15*
D03*
X614732Y-46433D02*
G54D15*
D03*
X614732Y-59133D02*
G54D15*
D03*
X614733Y-71833D02*
G54D15*
D03*
G54D16*
X667304Y-83739D02*
X677304Y-83739D01*
G54D16*
X667304Y-98039D02*
X677304Y-98039D01*
X486772Y-310002D02*
G54D17*
D03*
X480184Y-310002D02*
G54D18*
D03*
X475184Y-310002D02*
G54D18*
D03*
X470184Y-310001D02*
G54D18*
D03*
X480184Y-266001D02*
G54D18*
D03*
X475184Y-266001D02*
G54D18*
D03*
X470184Y-266001D02*
G54D18*
D03*
X463753Y-310002D02*
G54D17*
D03*
X486772Y-265949D02*
G54D17*
D03*
X463753Y-265949D02*
G54D17*
D03*
X509468Y-230264D02*
G54D19*
D03*
X427712Y-230264D02*
G54D19*
D03*
G36*
X433205Y-252626D02*
X454205Y-252626D01*
X454205Y-273626D01*
X433205Y-273626D01*
X433205Y-252626D01*
G37*
X443705Y-288527D02*
G54D20*
D03*
G36*
X597465Y-40590D02*
X576465Y-40590D01*
X576465Y-19590D01*
X597465Y-19590D01*
X597465Y-40590D01*
G37*
X586965Y-55490D02*
G54D20*
D03*
X398040Y-69476D02*
G54D21*
D03*
X398040Y-88476D02*
G54D21*
D03*
G36*
X272412Y-53422D02*
X296412Y-53422D01*
X296412Y-77422D01*
X272412Y-77422D01*
X272412Y-53422D01*
G37*
X284412Y-40022D02*
G54D22*
D03*
X309812Y-65422D02*
G54D22*
D03*
X309812Y-40022D02*
G54D22*
D03*
X335212Y-65422D02*
G54D22*
D03*
X335212Y-40022D02*
G54D22*
D03*
X483392Y-152002D02*
G54D20*
D03*
G36*
X347751Y-61849D02*
X362751Y-61849D01*
X362751Y-77849D01*
X347751Y-77849D01*
X347751Y-61849D01*
G37*
X374251Y-69849D02*
G54D23*
D03*
X24376Y-119458D02*
G54D24*
D03*
X104376Y-119458D02*
G54D24*
D03*
X142080Y-119458D02*
G54D12*
D03*
X167480Y-119458D02*
G54D12*
D03*
X192880Y-119458D02*
G54D12*
D03*
X104353Y-100382D02*
G54D21*
D03*
X104353Y-81383D02*
G54D21*
D03*
X596502Y-113901D02*
G54D25*
D03*
G36*
X608002Y-104902D02*
X623002Y-104901D01*
X623002Y-122901D01*
X608002Y-122902D01*
X608002Y-104902D01*
G37*
G36*
X655218Y-107116D02*
X655218Y-133116D01*
X629218Y-133116D01*
X629218Y-107116D01*
X655218Y-107116D01*
G37*
X667617Y-120117D02*
G54D12*
D03*
X258313Y-112711D02*
G54D23*
D03*
X239313Y-112711D02*
G54D23*
D03*
X461168Y-152002D02*
G54D20*
D03*
X308070Y-116534D02*
G54D26*
D03*
X308070Y-97534D02*
G54D26*
D03*
X44052Y-119855D02*
G54D23*
D03*
X63051Y-119854D02*
G54D23*
D03*
X331088Y-116586D02*
G54D26*
D03*
X331087Y-97586D02*
G54D26*
D03*
X339698Y-175392D02*
G54D26*
D03*
X339698Y-156392D02*
G54D26*
D03*
X510356Y-272279D02*
G54D21*
D03*
X510356Y-291279D02*
G54D21*
D03*
G36*
X539461Y-104280D02*
X560461Y-104280D01*
X560462Y-154280D01*
X539462Y-154280D01*
X539461Y-104280D01*
G37*
X549962Y-47524D02*
G54D27*
D03*
X355296Y-116585D02*
G54D21*
D03*
X355296Y-97585D02*
G54D21*
D03*
X609996Y-142476D02*
G54D25*
D03*
X590997Y-142476D02*
G54D25*
D03*
G54D28*
X293216Y-159867D02*
X279073Y-145725D01*
X316707Y-156367D02*
G54D26*
D03*
X316707Y-175367D02*
G54D26*
D03*
X339724Y-196900D02*
G54D26*
D03*
X339724Y-215899D02*
G54D26*
D03*
X315911Y-196898D02*
G54D21*
D03*
X315911Y-215898D02*
G54D21*
D03*
X968374Y-95250D02*
G54D29*
D03*
X286145Y-97232D02*
G54D29*
D03*
X338533Y-289320D02*
G54D30*
D03*
X605630Y-308370D02*
G54D31*
D03*
G36*
X228975Y-99672D02*
X228975Y-75672D01*
X252975Y-75672D01*
X252975Y-99672D01*
X228975Y-99672D01*
G37*
X240975Y-62272D02*
G54D22*
D03*
X240975Y-36872D02*
G54D22*
D03*
X704547Y-54277D02*
G54D26*
D03*
X704547Y-35277D02*
G54D26*
D03*
X704574Y-99493D02*
G54D26*
D03*
X704574Y-80493D02*
G54D26*
D03*
X728758Y-56655D02*
G54D26*
D03*
X728758Y-75655D02*
G54D26*
D03*
X728339Y-32805D02*
G54D12*
D03*
X728339Y-109004D02*
G54D12*
D03*
X590548Y-243283D02*
G54D32*
D03*
X603249Y-243283D02*
G54D32*
D03*
X615948Y-243283D02*
G54D32*
D03*
G36*
X624148Y-231282D02*
X633148Y-231282D01*
X633150Y-255282D01*
X624150Y-255282D01*
X624148Y-231282D01*
G37*
X628648Y-189283D02*
G54D32*
D03*
G36*
X611448Y-177283D02*
X620448Y-177282D01*
X620449Y-201282D01*
X611449Y-201283D01*
X611448Y-177283D01*
G37*
X603248Y-189283D02*
G54D32*
D03*
G36*
X586048Y-177283D02*
X595048Y-177283D01*
X595049Y-201283D01*
X586049Y-201283D01*
X586048Y-177283D01*
G37*
G36*
X630680Y-174564D02*
X630680Y-153564D01*
X651680Y-153564D01*
X651680Y-174564D01*
X630680Y-174564D01*
G37*
X615780Y-164064D02*
G54D20*
D03*
X417114Y-39686D02*
G54D29*
D03*
X555623Y-323848D02*
G54D29*
D03*
X314323Y-316704D02*
G54D29*
D03*
X642142Y-101598D02*
G54D29*
D03*
X573483Y-175020D02*
G54D29*
D03*
G36*
X373101Y-103918D02*
X388101Y-103918D01*
X388102Y-119918D01*
X373102Y-119918D01*
X373101Y-103918D01*
G37*
X399601Y-111918D02*
G54D23*
D03*
X391689Y-318714D02*
G54D25*
D03*
X372690Y-318714D02*
G54D25*
D03*
G36*
X406835Y-313071D02*
X421835Y-313071D01*
X421835Y-329071D01*
X406835Y-329071D01*
X406835Y-313071D01*
G37*
X433335Y-321071D02*
G54D23*
D03*
G36*
X521535Y-167210D02*
X536535Y-167210D01*
X536536Y-185210D01*
X521536Y-185210D01*
X521535Y-167210D01*
G37*
X548035Y-176210D02*
G54D25*
D03*
G36*
X483435Y-189435D02*
X498435Y-189435D01*
X498436Y-207435D01*
X483436Y-207435D01*
X483435Y-189435D01*
G37*
X509935Y-198435D02*
G54D25*
D03*
X366266Y-245267D02*
G54D25*
D03*
X347266Y-245267D02*
G54D25*
D03*
G36*
X519614Y-114338D02*
X517614Y-116338D01*
X506614Y-116338D01*
X505614Y-115338D01*
X505614Y-111338D01*
X506614Y-110338D01*
X517614Y-110338D01*
X519614Y-112338D01*
X519614Y-114338D01*
G37*
G54D33*
X519614Y-114338D02*
X517614Y-116338D01*
X506614Y-116338D01*
X505614Y-115338D01*
X505614Y-111338D01*
X506614Y-110338D01*
X517614Y-110338D01*
X519614Y-112338D01*
X519614Y-114338D01*
G36*
X519614Y-106338D02*
X517614Y-108338D01*
X506614Y-108338D01*
X505614Y-107338D01*
X505614Y-103338D01*
X506614Y-102338D01*
X517614Y-102338D01*
X519614Y-104338D01*
X519614Y-106338D01*
G37*
G54D33*
X519614Y-106338D02*
X517614Y-108338D01*
X506614Y-108338D01*
X505614Y-107338D01*
X505614Y-103338D01*
X506614Y-102338D01*
X517614Y-102338D01*
X519614Y-104338D01*
X519614Y-106338D01*
X511114Y-113338D02*
G54D34*
D03*
X511114Y-105338D02*
G54D34*
D03*
G36*
X519614Y-98338D02*
X517614Y-100338D01*
X506614Y-100338D01*
X505614Y-99338D01*
X505614Y-95338D01*
X506614Y-94338D01*
X517614Y-94338D01*
X519614Y-96338D01*
X519614Y-98338D01*
G37*
G54D33*
X519614Y-98338D02*
X517614Y-100338D01*
X506614Y-100338D01*
X505614Y-99338D01*
X505614Y-95338D01*
X506614Y-94338D01*
X517614Y-94338D01*
X519614Y-96338D01*
X519614Y-98338D01*
G36*
X519614Y-90338D02*
X517614Y-92338D01*
X506614Y-92338D01*
X505614Y-91338D01*
X505614Y-87338D01*
X506614Y-86338D01*
X517614Y-86338D01*
X519614Y-88338D01*
X519614Y-90338D01*
G37*
G54D33*
X519614Y-90338D02*
X517614Y-92338D01*
X506614Y-92338D01*
X505614Y-91338D01*
X505614Y-87338D01*
X506614Y-86338D01*
X517614Y-86338D01*
X519614Y-88338D01*
X519614Y-90338D01*
X511114Y-97338D02*
G54D34*
D03*
X511114Y-89338D02*
G54D34*
D03*
G36*
X519614Y-82338D02*
X517614Y-84338D01*
X506614Y-84338D01*
X505614Y-83338D01*
X505614Y-79338D01*
X506614Y-78338D01*
X517614Y-78338D01*
X519614Y-80338D01*
X519614Y-82338D01*
G37*
G54D33*
X519614Y-82338D02*
X517614Y-84338D01*
X506614Y-84338D01*
X505614Y-83338D01*
X505614Y-79338D01*
X506614Y-78338D01*
X517614Y-78338D01*
X519614Y-80338D01*
X519614Y-82338D01*
G36*
X519614Y-74338D02*
X517614Y-76338D01*
X506614Y-76338D01*
X505614Y-75338D01*
X505614Y-71338D01*
X506614Y-70338D01*
X517614Y-70338D01*
X519614Y-72338D01*
X519614Y-74338D01*
G37*
G54D33*
X519614Y-74338D02*
X517614Y-76338D01*
X506614Y-76338D01*
X505614Y-75338D01*
X505614Y-71338D01*
X506614Y-70338D01*
X517614Y-70338D01*
X519614Y-72338D01*
X519614Y-74338D01*
X511114Y-81338D02*
G54D34*
D03*
X511114Y-73338D02*
G54D34*
D03*
G36*
X519614Y-66338D02*
X517614Y-68338D01*
X506614Y-68338D01*
X505614Y-67338D01*
X505614Y-63338D01*
X506614Y-62338D01*
X517614Y-62338D01*
X519614Y-64338D01*
X519614Y-66338D01*
G37*
G54D33*
X519614Y-66338D02*
X517614Y-68338D01*
X506614Y-68338D01*
X505614Y-67338D01*
X505614Y-63338D01*
X506614Y-62338D01*
X517614Y-62338D01*
X519614Y-64338D01*
X519614Y-66338D01*
G36*
X519614Y-58338D02*
X517614Y-60338D01*
X506614Y-60338D01*
X505614Y-59338D01*
X505614Y-55338D01*
X506614Y-54338D01*
X517614Y-54338D01*
X519614Y-56338D01*
X519614Y-58338D01*
G37*
G54D33*
X519614Y-58338D02*
X517614Y-60338D01*
X506614Y-60338D01*
X505614Y-59338D01*
X505614Y-55338D01*
X506614Y-54338D01*
X517614Y-54338D01*
X519614Y-56338D01*
X519614Y-58338D01*
X511114Y-65338D02*
G54D34*
D03*
X511114Y-57338D02*
G54D34*
D03*
G36*
X439614Y-136338D02*
X437614Y-134338D01*
X437614Y-123338D01*
X438614Y-122338D01*
X442614Y-122338D01*
X443614Y-123338D01*
X443614Y-134338D01*
X441614Y-136338D01*
X439614Y-136338D01*
G37*
G54D33*
X439614Y-136338D02*
X437614Y-134338D01*
X437614Y-123338D01*
X438614Y-122338D01*
X442614Y-122338D01*
X443614Y-123338D01*
X443614Y-134338D01*
X441614Y-136338D01*
X439614Y-136338D01*
G36*
X447614Y-136338D02*
X445614Y-134338D01*
X445614Y-123338D01*
X446614Y-122338D01*
X450614Y-122338D01*
X451614Y-123338D01*
X451614Y-134338D01*
X449614Y-136338D01*
X447614Y-136338D01*
G37*
G54D33*
X447614Y-136338D02*
X445614Y-134338D01*
X445614Y-123338D01*
X446614Y-122338D01*
X450614Y-122338D01*
X451614Y-123338D01*
X451614Y-134338D01*
X449614Y-136338D01*
X447614Y-136338D01*
X440614Y-127838D02*
G54D34*
D03*
X448614Y-127838D02*
G54D34*
D03*
G36*
X455614Y-136338D02*
X453614Y-134338D01*
X453614Y-123338D01*
X454614Y-122338D01*
X458614Y-122338D01*
X459614Y-123338D01*
X459614Y-134338D01*
X457614Y-136338D01*
X455614Y-136338D01*
G37*
G54D33*
X455614Y-136338D02*
X453614Y-134338D01*
X453614Y-123338D01*
X454614Y-122338D01*
X458614Y-122338D01*
X459614Y-123338D01*
X459614Y-134338D01*
X457614Y-136338D01*
X455614Y-136338D01*
G36*
X463614Y-136338D02*
X461614Y-134338D01*
X461614Y-123338D01*
X462614Y-122338D01*
X466614Y-122338D01*
X467614Y-123338D01*
X467614Y-134338D01*
X465614Y-136338D01*
X463614Y-136338D01*
G37*
G54D33*
X463614Y-136338D02*
X461614Y-134338D01*
X461614Y-123338D01*
X462614Y-122338D01*
X466614Y-122338D01*
X467614Y-123338D01*
X467614Y-134338D01*
X465614Y-136338D01*
X463614Y-136338D01*
X456614Y-127838D02*
G54D34*
D03*
X464614Y-127838D02*
G54D34*
D03*
G36*
X471614Y-136338D02*
X469614Y-134338D01*
X469614Y-123338D01*
X470614Y-122338D01*
X474614Y-122338D01*
X475614Y-123338D01*
X475614Y-134338D01*
X473614Y-136338D01*
X471614Y-136338D01*
G37*
G54D33*
X471614Y-136338D02*
X469614Y-134338D01*
X469614Y-123338D01*
X470614Y-122338D01*
X474614Y-122338D01*
X475614Y-123338D01*
X475614Y-134338D01*
X473614Y-136338D01*
X471614Y-136338D01*
G36*
X479614Y-136338D02*
X477614Y-134338D01*
X477614Y-123338D01*
X478614Y-122338D01*
X482614Y-122338D01*
X483614Y-123338D01*
X483614Y-134338D01*
X481614Y-136338D01*
X479614Y-136338D01*
G37*
G54D33*
X479614Y-136338D02*
X477614Y-134338D01*
X477614Y-123338D01*
X478614Y-122338D01*
X482614Y-122338D01*
X483614Y-123338D01*
X483614Y-134338D01*
X481614Y-136338D01*
X479614Y-136338D01*
X472614Y-127838D02*
G54D34*
D03*
X480614Y-127838D02*
G54D34*
D03*
G36*
X487614Y-136338D02*
X485614Y-134338D01*
X485614Y-123338D01*
X486614Y-122338D01*
X490614Y-122338D01*
X491614Y-123338D01*
X491614Y-134338D01*
X489614Y-136338D01*
X487614Y-136338D01*
G37*
G54D33*
X487614Y-136338D02*
X485614Y-134338D01*
X485614Y-123338D01*
X486614Y-122338D01*
X490614Y-122338D01*
X491614Y-123338D01*
X491614Y-134338D01*
X489614Y-136338D01*
X487614Y-136338D01*
G36*
X495614Y-136338D02*
X493614Y-134338D01*
X493614Y-123338D01*
X494614Y-122338D01*
X498614Y-122338D01*
X499614Y-123338D01*
X499614Y-134338D01*
X497614Y-136338D01*
X495614Y-136338D01*
G37*
G54D33*
X495614Y-136338D02*
X493614Y-134338D01*
X493614Y-123338D01*
X494614Y-122338D01*
X498614Y-122338D01*
X499614Y-123338D01*
X499614Y-134338D01*
X497614Y-136338D01*
X495614Y-136338D01*
X488614Y-127838D02*
G54D34*
D03*
X496614Y-127838D02*
G54D34*
D03*
G36*
X417614Y-56338D02*
X419614Y-54338D01*
X430614Y-54338D01*
X431614Y-55338D01*
X431614Y-59338D01*
X430614Y-60338D01*
X419614Y-60338D01*
X417614Y-58338D01*
X417614Y-56338D01*
G37*
G54D33*
X417614Y-56338D02*
X419614Y-54338D01*
X430614Y-54338D01*
X431614Y-55338D01*
X431614Y-59338D01*
X430614Y-60338D01*
X419614Y-60338D01*
X417614Y-58338D01*
X417614Y-56338D01*
G36*
X417614Y-64338D02*
X419614Y-62338D01*
X430614Y-62338D01*
X431614Y-63338D01*
X431614Y-67338D01*
X430614Y-68338D01*
X419614Y-68338D01*
X417614Y-66338D01*
X417614Y-64338D01*
G37*
G54D33*
X417614Y-64338D02*
X419614Y-62338D01*
X430614Y-62338D01*
X431614Y-63338D01*
X431614Y-67338D01*
X430614Y-68338D01*
X419614Y-68338D01*
X417614Y-66338D01*
X417614Y-64338D01*
G36*
X422614Y-53838D02*
X429614Y-53838D01*
X429614Y-60838D01*
X422614Y-60838D01*
X422614Y-53838D01*
G37*
G36*
X422614Y-61838D02*
X429614Y-61838D01*
X429614Y-68838D01*
X422614Y-68838D01*
X422614Y-61838D01*
G37*
G36*
X417614Y-72338D02*
X419614Y-70338D01*
X430614Y-70338D01*
X431614Y-71338D01*
X431614Y-75338D01*
X430614Y-76338D01*
X419614Y-76338D01*
X417614Y-74338D01*
X417614Y-72338D01*
G37*
G54D33*
X417614Y-72338D02*
X419614Y-70338D01*
X430614Y-70338D01*
X431614Y-71338D01*
X431614Y-75338D01*
X430614Y-76338D01*
X419614Y-76338D01*
X417614Y-74338D01*
X417614Y-72338D01*
G36*
X417614Y-80338D02*
X419614Y-78338D01*
X430614Y-78338D01*
X431614Y-79338D01*
X431614Y-83338D01*
X430614Y-84338D01*
X419614Y-84338D01*
X417614Y-82338D01*
X417614Y-80338D01*
G37*
G54D33*
X417614Y-80338D02*
X419614Y-78338D01*
X430614Y-78338D01*
X431614Y-79338D01*
X431614Y-83338D01*
X430614Y-84338D01*
X419614Y-84338D01*
X417614Y-82338D01*
X417614Y-80338D01*
X426114Y-73338D02*
G54D34*
D03*
X426114Y-81338D02*
G54D34*
D03*
G36*
X417614Y-88338D02*
X419614Y-86338D01*
X430614Y-86338D01*
X431614Y-87338D01*
X431614Y-91338D01*
X430614Y-92338D01*
X419614Y-92338D01*
X417614Y-90338D01*
X417614Y-88338D01*
G37*
G54D33*
X417614Y-88338D02*
X419614Y-86338D01*
X430614Y-86338D01*
X431614Y-87338D01*
X431614Y-91338D01*
X430614Y-92338D01*
X419614Y-92338D01*
X417614Y-90338D01*
X417614Y-88338D01*
G36*
X417614Y-96338D02*
X419614Y-94338D01*
X430614Y-94338D01*
X431614Y-95338D01*
X431614Y-99338D01*
X430614Y-100338D01*
X419614Y-100338D01*
X417614Y-98338D01*
X417614Y-96338D01*
G37*
G54D33*
X417614Y-96338D02*
X419614Y-94338D01*
X430614Y-94338D01*
X431614Y-95338D01*
X431614Y-99338D01*
X430614Y-100338D01*
X419614Y-100338D01*
X417614Y-98338D01*
X417614Y-96338D01*
X426114Y-89338D02*
G54D34*
D03*
X426114Y-97338D02*
G54D34*
D03*
G36*
X417614Y-104338D02*
X419614Y-102338D01*
X430614Y-102338D01*
X431614Y-103338D01*
X431614Y-107338D01*
X430614Y-108338D01*
X419614Y-108338D01*
X417614Y-106338D01*
X417614Y-104338D01*
G37*
G54D33*
X417614Y-104338D02*
X419614Y-102338D01*
X430614Y-102338D01*
X431614Y-103338D01*
X431614Y-107338D01*
X430614Y-108338D01*
X419614Y-108338D01*
X417614Y-106338D01*
X417614Y-104338D01*
G36*
X417614Y-112338D02*
X419614Y-110338D01*
X430614Y-110338D01*
X431614Y-111338D01*
X431614Y-115338D01*
X430614Y-116338D01*
X419614Y-116338D01*
X417614Y-114338D01*
X417614Y-112338D01*
G37*
G54D33*
X417614Y-112338D02*
X419614Y-110338D01*
X430614Y-110338D01*
X431614Y-111338D01*
X431614Y-115338D01*
X430614Y-116338D01*
X419614Y-116338D01*
X417614Y-114338D01*
X417614Y-112338D01*
G36*
X422614Y-101838D02*
X429614Y-101838D01*
X429614Y-108838D01*
X422614Y-108838D01*
X422614Y-101838D01*
G37*
X426114Y-113338D02*
G54D34*
D03*
G36*
X497614Y-34338D02*
X499614Y-36338D01*
X499614Y-47338D01*
X498614Y-48338D01*
X494614Y-48338D01*
X493614Y-47338D01*
X493614Y-36338D01*
X495614Y-34338D01*
X497614Y-34338D01*
G37*
G54D33*
X497614Y-34338D02*
X499614Y-36338D01*
X499614Y-47338D01*
X498614Y-48338D01*
X494614Y-48338D01*
X493614Y-47338D01*
X493614Y-36338D01*
X495614Y-34338D01*
X497614Y-34338D01*
G36*
X489614Y-34338D02*
X491614Y-36338D01*
X491614Y-47338D01*
X490614Y-48338D01*
X486614Y-48338D01*
X485614Y-47338D01*
X485614Y-36338D01*
X487614Y-34338D01*
X489614Y-34338D01*
G37*
G54D33*
X489614Y-34338D02*
X491614Y-36338D01*
X491614Y-47338D01*
X490614Y-48338D01*
X486614Y-48338D01*
X485614Y-47338D01*
X485614Y-36338D01*
X487614Y-34338D01*
X489614Y-34338D01*
X496614Y-42838D02*
G54D34*
D03*
X488614Y-42838D02*
G54D34*
D03*
G36*
X481614Y-34338D02*
X483614Y-36338D01*
X483614Y-47338D01*
X482614Y-48338D01*
X478614Y-48338D01*
X477614Y-47338D01*
X477614Y-36338D01*
X479614Y-34338D01*
X481614Y-34338D01*
G37*
G54D33*
X481614Y-34338D02*
X483614Y-36338D01*
X483614Y-47338D01*
X482614Y-48338D01*
X478614Y-48338D01*
X477614Y-47338D01*
X477614Y-36338D01*
X479614Y-34338D01*
X481614Y-34338D01*
G36*
X473614Y-34338D02*
X475614Y-36338D01*
X475614Y-47338D01*
X474614Y-48338D01*
X470614Y-48338D01*
X469614Y-47338D01*
X469614Y-36338D01*
X471614Y-34338D01*
X473614Y-34338D01*
G37*
G54D33*
X473614Y-34338D02*
X475614Y-36338D01*
X475614Y-47338D01*
X474614Y-48338D01*
X470614Y-48338D01*
X469614Y-47338D01*
X469614Y-36338D01*
X471614Y-34338D01*
X473614Y-34338D01*
X480614Y-42838D02*
G54D34*
D03*
X472614Y-42838D02*
G54D34*
D03*
G36*
X465614Y-34338D02*
X467614Y-36338D01*
X467614Y-47338D01*
X466614Y-48338D01*
X462614Y-48338D01*
X461614Y-47338D01*
X461614Y-36338D01*
X463614Y-34338D01*
X465614Y-34338D01*
G37*
G54D33*
X465614Y-34338D02*
X467614Y-36338D01*
X467614Y-47338D01*
X466614Y-48338D01*
X462614Y-48338D01*
X461614Y-47338D01*
X461614Y-36338D01*
X463614Y-34338D01*
X465614Y-34338D01*
G36*
X457614Y-34338D02*
X459614Y-36338D01*
X459614Y-47338D01*
X458614Y-48338D01*
X454614Y-48338D01*
X453614Y-47338D01*
X453614Y-36338D01*
X455614Y-34338D01*
X457614Y-34338D01*
G37*
G54D33*
X457614Y-34338D02*
X459614Y-36338D01*
X459614Y-47338D01*
X458614Y-48338D01*
X454614Y-48338D01*
X453614Y-47338D01*
X453614Y-36338D01*
X455614Y-34338D01*
X457614Y-34338D01*
X464614Y-42838D02*
G54D34*
D03*
X456614Y-42838D02*
G54D34*
D03*
G36*
X449614Y-34338D02*
X451614Y-36338D01*
X451614Y-47338D01*
X450614Y-48338D01*
X446614Y-48338D01*
X445614Y-47338D01*
X445614Y-36338D01*
X447614Y-34338D01*
X449614Y-34338D01*
G37*
G54D33*
X449614Y-34338D02*
X451614Y-36338D01*
X451614Y-47338D01*
X450614Y-48338D01*
X446614Y-48338D01*
X445614Y-47338D01*
X445614Y-36338D01*
X447614Y-34338D01*
X449614Y-34338D01*
G36*
X441614Y-34338D02*
X443614Y-36338D01*
X443614Y-47338D01*
X442614Y-48338D01*
X438614Y-48338D01*
X437614Y-47338D01*
X437614Y-36338D01*
X439614Y-34338D01*
X441614Y-34338D01*
G37*
G54D33*
X441614Y-34338D02*
X443614Y-36338D01*
X443614Y-47338D01*
X442614Y-48338D01*
X438614Y-48338D01*
X437614Y-47338D01*
X437614Y-36338D01*
X439614Y-34338D01*
X441614Y-34338D01*
X448614Y-42838D02*
G54D34*
D03*
X440614Y-42838D02*
G54D34*
D03*
X284162Y-20638D02*
G54D25*
D03*
X265162Y-20637D02*
G54D25*
D03*
X263101Y-60298D02*
G54D26*
D03*
X263101Y-41298D02*
G54D26*
D03*
M02*
