M48
M71
T01C0.5
T02C0.6
T03C0.8
T04C3.0
%
G05
T01
X030760Y-032500
X043970Y-028890
X043970Y-026350
X046120Y-015200
X048340Y-015200
X047900Y-010600
X049010Y-006550
X041710Y-003970
X028300Y-009560
X057350Y-017500
X061580Y-016410
X064120Y-016410
X064330Y-008810
X058700Y-005550
X058700Y-003010
X063620Y-032620
X096840Y-009520
T02
X039010Y-025600
X039010Y-023060
X039010Y-020520
X054250Y-020520
X054250Y-025600
T03
X014210Y-011950
X016750Y-011950
X019290Y-011950
X024100Y-008770
X024100Y-006230
X024100Y-003690
X028440Y-004000
X028440Y-006540
X030980Y-006540
X030980Y-004000
X033520Y-004000
X033520Y-006540
X064100Y-011220
X066640Y-011220
X072830Y-010900
X075960Y-011430
X075960Y-008890
X075960Y-006350
X075960Y-003810
X072830Y-003280
T04
X005040Y-005440
X083150Y-005440
M30
