%FSLAX34Y34*%
%MOMM*%
%LNSOLDERMASK_BOTTOM*%
G71*
G01*
%ADD10C, 0.002*%
%ADD11C, 5.600*%
%ADD12C, 2.600*%
%ADD13C, 2.100*%
%ADD14C, 2.400*%
%ADD15C, 1.880*%
%LPD*%
G54D10*
X792Y-396D02*
X990792Y-396D01*
X990792Y-346396D01*
X792Y-346396D01*
X792Y-396D01*
X50402Y-54371D02*
G54D11*
D03*
X831451Y-54371D02*
G54D11*
D03*
G36*
X746617Y-127298D02*
X746617Y-101298D01*
X772617Y-101298D01*
X772617Y-127298D01*
X746617Y-127298D01*
G37*
X759618Y-88898D02*
G54D12*
D03*
X759618Y-63498D02*
G54D12*
D03*
X759618Y-38098D02*
G54D12*
D03*
X386157Y-205184D02*
G54D12*
D03*
X538557Y-205184D02*
G54D12*
D03*
X386157Y-230584D02*
G54D12*
D03*
X538557Y-255984D02*
G54D12*
D03*
X386157Y-255984D02*
G54D12*
D03*
G36*
X433205Y-252626D02*
X454205Y-252626D01*
X454205Y-273626D01*
X433205Y-273626D01*
X433205Y-252626D01*
G37*
X443705Y-288527D02*
G54D13*
D03*
G36*
X597465Y-40590D02*
X576465Y-40590D01*
X576465Y-19590D01*
X597465Y-19590D01*
X597465Y-40590D01*
G37*
X586965Y-55490D02*
G54D13*
D03*
G36*
X272412Y-53422D02*
X296412Y-53422D01*
X296412Y-77422D01*
X272412Y-77422D01*
X272412Y-53422D01*
G37*
X284412Y-40022D02*
G54D14*
D03*
X309812Y-65422D02*
G54D14*
D03*
X309812Y-40022D02*
G54D14*
D03*
X335212Y-65422D02*
G54D14*
D03*
X335212Y-40022D02*
G54D14*
D03*
X483392Y-152002D02*
G54D13*
D03*
X142080Y-119458D02*
G54D12*
D03*
X167480Y-119458D02*
G54D12*
D03*
X192880Y-119458D02*
G54D12*
D03*
G36*
X655218Y-107116D02*
X655218Y-133116D01*
X629218Y-133116D01*
X629218Y-107116D01*
X655218Y-107116D01*
G37*
X667617Y-120117D02*
G54D12*
D03*
X461168Y-152002D02*
G54D13*
D03*
X968374Y-95250D02*
G54D15*
D03*
X286145Y-97232D02*
G54D15*
D03*
G36*
X228975Y-99672D02*
X228975Y-75672D01*
X252975Y-75672D01*
X252975Y-99672D01*
X228975Y-99672D01*
G37*
X240975Y-62272D02*
G54D14*
D03*
X240975Y-36872D02*
G54D14*
D03*
X728339Y-32805D02*
G54D12*
D03*
X728339Y-109004D02*
G54D12*
D03*
G36*
X630680Y-174564D02*
X630680Y-153564D01*
X651680Y-153564D01*
X651680Y-174564D01*
X630680Y-174564D01*
G37*
X615780Y-164064D02*
G54D13*
D03*
X417114Y-39686D02*
G54D15*
D03*
X555623Y-323848D02*
G54D15*
D03*
X314323Y-316704D02*
G54D15*
D03*
X642142Y-101598D02*
G54D15*
D03*
X573483Y-175020D02*
G54D15*
D03*
M02*
