M48
M71
T01C0.5
T02C0.8
T03C3.0
%
G05
T01
X030320Y-032030
X038580Y-025120
X038580Y-022580
X038580Y-020040
X043540Y-025880
X043540Y-028420
X053820Y-025120
X053820Y-020040
X057070Y-014800
X060780Y-017480
X063320Y-017480
X063900Y-008330
X058260Y-005070
X058260Y-002530
X047470Y-010120
X047860Y-015000
X045720Y-015000
X041270Y-003450
X028420Y-008810
X063180Y-032150
X096400Y-009050
T02
X013770Y-011470
X016310Y-011470
X018850Y-011470
X023660Y-008290
X023660Y-005750
X023660Y-003210
X028000Y-003530
X028000Y-006070
X030540Y-006070
X030540Y-003530
X033080Y-003530
X033080Y-006070
X062950Y-011650
X065490Y-011650
X072400Y-010420
X075530Y-010950
X075530Y-008410
X075530Y-005870
X075530Y-003330
X072400Y-002800
T03
X004600Y-004960
X082710Y-004960
M30
