%FSLAX34Y34*%
%MOMM*%
%LNCOPPER_TOP*%
G71*
G01*
%ADD10C, 5.400*%
%ADD11C, 2.400*%
%ADD12R, 3.300X2.200*%
%ADD13R, 2.800X3.300*%
%ADD14C, 0.700*%
%ADD15R, 2.600X1.100*%
%ADD16C, 1.400*%
%ADD17C, 0.900*%
%ADD18R, 1.000X2.400*%
%ADD19R, 0.700X2.400*%
%ADD20R, 5.400X2.100*%
%ADD21C, 1.900*%
%ADD22C, 1.000*%
%ADD23C, 0.500*%
%ADD24C, 1.100*%
%ADD25R, 2.000X1.700*%
%ADD26C, 1.600*%
%ADD27C, 2.200*%
%ADD28C, 0.600*%
%ADD29R, 1.700X1.800*%
%ADD30C, 3.600*%
%ADD31C, 3.400*%
%ADD32R, 2.100X2.400*%
%ADD33R, 1.800X1.700*%
%ADD34R, 2.400X2.100*%
%ADD35R, 2.300X5.200*%
%ADD36C, 0.800*%
%ADD37C, 0.175*%
%ADD38C, 2.400*%
%ADD39C, 1.680*%
%ADD40R, 2.300X4.800*%
%ADD41R, 4.800X2.300*%
%ADD42C, 0.159*%
%ADD43C, 0.191*%
%ADD44R, 1.100X2.600*%
%ADD45C, 1.280*%
%ADD46R, 1.700X2.000*%
%ADD47C, 0.300*%
%ADD48C, 1.200*%
%ADD49C, 0.400*%
%ADD50R, 0.900X0.900*%
%ADD51C, 1.667*%
%ADD52C, 2.000*%
%ADD53C, 0.667*%
%ADD54C, 0.649*%
%ADD55C, 0.433*%
%ADD56C, 0.233*%
%ADD57C, 0.245*%
%ADD58C, 5.000*%
%ADD59C, 2.000*%
%ADD60R, 2.000X2.500*%
%ADD61C, 0.100*%
%ADD62R, 2.200X0.700*%
%ADD63R, 0.600X2.000*%
%ADD64R, 0.300X2.000*%
%ADD65R, 5.000X1.700*%
%ADD66C, 1.500*%
%ADD67R, 1.600X1.300*%
%ADD68C, 1.800*%
%ADD69C, 0.200*%
%ADD70R, 1.300X1.400*%
%ADD71C, 3.000*%
%ADD72R, 1.300X1.600*%
%ADD73R, 1.400X1.300*%
%ADD74R, 1.900X4.800*%
%ADD75R, 1.900X4.400*%
%ADD76R, 4.400X1.900*%
%ADD77R, 0.700X2.200*%
%ADD78C, 0.000*%
%ADD79R, 0.500X0.500*%
%LPD*%
G36*
X792Y-396D02*
X990792Y-396D01*
X990792Y-346396D01*
X792Y-346396D01*
X792Y-396D01*
G37*
%LPC*%
X50402Y-54371D02*
G54D10*
D03*
X831451Y-54371D02*
G54D10*
D03*
G36*
X747617Y-126298D02*
X747617Y-102298D01*
X771617Y-102298D01*
X771617Y-126298D01*
X747617Y-126298D01*
G37*
X759618Y-88898D02*
G54D11*
D03*
X759618Y-63498D02*
G54D11*
D03*
X759618Y-38098D02*
G54D11*
D03*
X386157Y-205184D02*
G54D11*
D03*
X538557Y-205184D02*
G54D11*
D03*
X386157Y-230584D02*
G54D11*
D03*
X538557Y-255984D02*
G54D11*
D03*
X386157Y-255984D02*
G54D11*
D03*
X909741Y-37565D02*
G54D12*
D03*
X909636Y-95250D02*
G54D13*
D03*
G36*
X921036Y-78750D02*
X949036Y-78749D01*
X949036Y-111749D01*
X921036Y-111750D01*
X921036Y-78750D01*
G37*
X884236Y-95250D02*
G54D13*
D03*
G36*
X925512Y-128588D02*
X982662Y-128588D01*
X982662Y-82550D01*
X925512Y-82550D01*
X925512Y-128588D01*
G37*
G54D14*
X925512Y-128588D02*
X982662Y-128588D01*
X982662Y-82550D01*
X925512Y-82550D01*
X925512Y-128588D01*
X668732Y-71833D02*
G54D15*
D03*
X668732Y-59133D02*
G54D15*
D03*
X668733Y-46433D02*
G54D15*
D03*
X668732Y-33733D02*
G54D15*
D03*
X614733Y-33733D02*
G54D15*
D03*
X614732Y-46433D02*
G54D15*
D03*
X614732Y-59133D02*
G54D15*
D03*
X614733Y-71833D02*
G54D15*
D03*
G54D16*
X667304Y-83739D02*
X677304Y-83739D01*
G54D16*
X667304Y-98039D02*
X677304Y-98039D01*
G54D14*
X668336Y-59133D02*
X655635Y-59133D01*
X653651Y-61117D01*
X653651Y-95645D01*
X656032Y-98026D01*
X669526Y-98039D01*
G54D17*
X672561Y-83627D02*
X672305Y-83739D01*
G54D14*
X470103Y-300476D02*
X470103Y-291348D01*
X485184Y-291348D01*
X485184Y-272695D01*
X486772Y-310002D02*
G54D18*
D03*
X480184Y-310002D02*
G54D19*
D03*
X475184Y-310002D02*
G54D19*
D03*
X470184Y-310001D02*
G54D19*
D03*
X480184Y-266001D02*
G54D19*
D03*
X475184Y-266001D02*
G54D19*
D03*
X470184Y-266001D02*
G54D19*
D03*
X463753Y-310002D02*
G54D18*
D03*
X486772Y-265949D02*
G54D18*
D03*
X463753Y-265949D02*
G54D18*
D03*
X509468Y-230264D02*
G54D20*
D03*
X427712Y-230264D02*
G54D20*
D03*
G54D17*
X668732Y-71833D02*
X672304Y-83739D01*
G54D14*
X614732Y-46433D02*
X630633Y-46433D01*
X630633Y-26986D01*
X639364Y-18255D01*
X742949Y-18255D01*
X742948Y-50402D01*
X759618Y-63498D01*
G54D14*
X759618Y-38892D02*
X759617Y-12302D01*
X636983Y-12302D01*
X614733Y-34527D01*
G54D17*
X443705Y-263126D02*
X463709Y-263126D01*
G54D14*
X470295Y-275033D02*
X470295Y-281383D01*
X443705Y-288527D01*
G54D14*
X427712Y-230264D02*
X450133Y-230264D01*
X475058Y-251617D01*
X475058Y-259952D01*
G54D14*
X480217Y-259952D02*
X480217Y-251220D01*
X504427Y-231376D01*
G54D17*
X464614Y-127838D02*
X464614Y-153715D01*
X461168Y-152002D01*
G36*
X434205Y-253626D02*
X453205Y-253626D01*
X453205Y-272626D01*
X434205Y-272626D01*
X434205Y-253626D01*
G37*
X443705Y-288527D02*
G54D21*
D03*
G54D14*
X496614Y-127838D02*
X497011Y-170530D01*
X486567Y-180973D01*
X382586Y-180973D01*
X366710Y-196849D01*
X366711Y-247253D01*
X386157Y-255984D01*
G54D14*
X386157Y-205184D02*
X435768Y-205184D01*
X478233Y-205183D01*
X511174Y-172242D01*
X511174Y-113397D01*
X511114Y-113338D01*
G54D14*
X538557Y-205184D02*
X523874Y-184148D01*
X523874Y-105567D01*
X511343Y-105567D01*
X511114Y-105338D01*
G36*
X596465Y-39590D02*
X577465Y-39590D01*
X577465Y-20590D01*
X596465Y-20590D01*
X596465Y-39590D01*
G37*
X586965Y-55490D02*
G54D21*
D03*
G54D14*
X614732Y-46433D02*
X598089Y-46434D01*
X586965Y-55490D01*
G54D14*
X614733Y-33733D02*
X587290Y-29764D01*
G54D22*
X394828Y-65422D02*
X465388Y-65338D01*
X473470Y-73420D01*
X510800Y-73420D01*
G54D17*
X511114Y-73338D02*
X524667Y-73420D01*
X524667Y-89295D01*
X511114Y-89338D01*
G54D23*
X496092Y-81358D02*
X511114Y-81338D01*
G54D23*
X530620Y-97630D02*
X495298Y-97630D01*
G54D23*
X437752Y-89692D02*
X425052Y-89692D01*
X413145Y-89692D01*
G54D24*
X614733Y-71833D02*
X596502Y-71833D01*
X596502Y-113901D01*
X398040Y-69476D02*
G54D25*
D03*
X398040Y-88476D02*
G54D25*
D03*
G54D17*
X503956Y-269770D02*
X521389Y-269770D01*
X533002Y-281383D01*
X575070Y-281383D01*
X575070Y-204786D01*
X590548Y-189283D01*
X590548Y-173036D01*
X609996Y-142476D01*
X596502Y-113901D01*
G54D26*
X759618Y-88898D02*
X744536Y-92470D01*
X728339Y-109004D01*
G36*
X273412Y-54422D02*
X295412Y-54422D01*
X295412Y-76422D01*
X273412Y-76422D01*
X273412Y-54422D01*
G37*
X284412Y-40022D02*
G54D27*
D03*
X309812Y-65422D02*
G54D27*
D03*
X309812Y-40022D02*
G54D27*
D03*
X335212Y-65422D02*
G54D27*
D03*
X335212Y-40022D02*
G54D27*
D03*
X483392Y-152002D02*
G54D21*
D03*
G54D17*
X472614Y-127838D02*
X472614Y-141621D01*
X483392Y-152002D01*
G54D28*
X440614Y-42838D02*
X440904Y-29344D01*
X435767Y-24208D01*
X326230Y-24208D01*
X322658Y-27780D01*
X322658Y-46036D01*
X315911Y-52783D01*
X297052Y-52783D01*
X284412Y-65422D01*
G54D28*
X309812Y-40022D02*
X309812Y-30307D01*
X322261Y-17858D01*
X439339Y-17858D01*
X448467Y-26986D01*
X448614Y-42838D01*
G54D14*
X309812Y-65422D02*
X315911Y-61911D01*
X325039Y-52783D01*
X421956Y-52783D01*
X426114Y-56941D01*
G54D17*
X284161Y-39687D02*
X284162Y-20638D01*
X295274Y-11112D01*
X569911Y-11112D01*
X569911Y-87312D01*
X596898Y-114300D01*
G36*
X346751Y-60849D02*
X363751Y-60849D01*
X363751Y-78849D01*
X346751Y-78849D01*
X346751Y-60849D01*
G37*
X374251Y-69849D02*
G54D29*
D03*
G54D17*
X335212Y-65422D02*
X355251Y-69849D01*
G54D24*
X374251Y-69849D02*
X397642Y-69874D01*
X398040Y-69476D01*
X24376Y-119458D02*
G54D30*
D03*
X104376Y-119458D02*
G54D31*
D03*
X142080Y-119458D02*
G54D11*
D03*
X167480Y-119458D02*
G54D11*
D03*
X192880Y-119458D02*
G54D11*
D03*
X104353Y-100382D02*
G54D25*
D03*
X104353Y-81383D02*
G54D25*
D03*
G54D17*
X104377Y-119458D02*
X142080Y-119458D01*
X596502Y-113901D02*
G54D32*
D03*
G36*
X605002Y-101902D02*
X626002Y-101901D01*
X626002Y-125901D01*
X605002Y-125902D01*
X605002Y-101902D01*
G37*
G36*
X654218Y-108116D02*
X654218Y-132116D01*
X630218Y-132116D01*
X630218Y-108116D01*
X654218Y-108116D01*
G37*
X667617Y-120117D02*
G54D11*
D03*
G54D14*
X258762Y-112712D02*
X273049Y-112712D01*
X301624Y-139700D01*
X350836Y-139700D01*
X385762Y-130175D01*
X407986Y-130175D01*
X425449Y-112712D01*
X258313Y-112711D02*
G54D29*
D03*
X239313Y-112711D02*
G54D29*
D03*
X461168Y-152002D02*
G54D21*
D03*
G54D14*
X443705Y-263126D02*
X416320Y-263126D01*
X403620Y-275826D01*
X375839Y-275826D01*
X356789Y-256776D01*
X356789Y-191689D01*
X381792Y-166686D01*
X434181Y-166686D01*
X456404Y-136921D01*
X456614Y-127838D01*
X308070Y-116534D02*
G54D33*
D03*
X308070Y-97534D02*
G54D33*
D03*
X44052Y-119855D02*
G54D29*
D03*
X63051Y-119854D02*
G54D29*
D03*
X331088Y-116586D02*
G54D33*
D03*
X331087Y-97586D02*
G54D33*
D03*
G54D17*
X355599Y-115888D02*
X331786Y-115888D01*
X307974Y-115888D01*
X339698Y-175392D02*
G54D33*
D03*
X339698Y-156392D02*
G54D33*
D03*
X510356Y-272279D02*
G54D34*
D03*
X510356Y-291279D02*
G54D34*
D03*
G54D24*
X486885Y-273428D02*
X505935Y-273428D01*
G36*
X538461Y-103280D02*
X561461Y-103280D01*
X561462Y-155280D01*
X538462Y-155280D01*
X538461Y-103280D01*
G37*
X549962Y-47524D02*
G54D35*
D03*
G54D36*
X511114Y-57338D02*
X534195Y-57338D01*
X549962Y-47524D01*
G54D14*
X511114Y-65338D02*
X532460Y-65338D01*
X535915Y-75702D01*
X546892Y-85723D01*
X550067Y-129175D01*
X549962Y-129280D01*
X355296Y-116585D02*
G54D25*
D03*
X355296Y-97585D02*
G54D25*
D03*
X609996Y-142476D02*
G54D32*
D03*
X590997Y-142476D02*
G54D32*
D03*
G54D37*
X16048Y-94614D02*
X19715Y-84836D01*
X23382Y-94614D01*
G54D37*
X17515Y-90947D02*
X21915Y-90947D01*
G54D37*
X26803Y-94614D02*
X26803Y-84836D01*
X32670Y-94614D01*
X32670Y-84836D01*
G54D37*
X39026Y-94614D02*
X39026Y-84836D01*
G54D37*
X36092Y-84836D02*
X41959Y-84836D01*
G54D37*
X45381Y-94614D02*
X52714Y-94614D01*
G54D37*
X62003Y-92781D02*
X61269Y-94003D01*
X59803Y-94614D01*
X58336Y-94614D01*
X56869Y-94003D01*
X56136Y-92781D01*
X56136Y-86670D01*
X56869Y-85447D01*
X58336Y-84836D01*
X59803Y-84836D01*
X61269Y-85447D01*
X62003Y-86670D01*
G54D37*
X65425Y-89725D02*
X66892Y-89114D01*
X68652Y-89114D01*
X69825Y-90336D01*
X69825Y-94614D01*
G54D37*
X69825Y-92781D02*
X69092Y-91559D01*
X67625Y-91314D01*
X66158Y-91559D01*
X65425Y-92781D01*
X65718Y-94003D01*
X66892Y-94614D01*
X67625Y-94614D01*
X67918Y-94614D01*
X69092Y-94003D01*
X69825Y-92781D01*
G54D37*
X73247Y-89114D02*
X73247Y-97059D01*
G54D37*
X73247Y-92781D02*
X73980Y-94370D01*
X75447Y-94614D01*
X76914Y-94370D01*
X77647Y-93147D01*
X77647Y-90703D01*
X76914Y-89481D01*
X75447Y-89114D01*
X73980Y-89481D01*
X73247Y-90947D01*
G54D37*
X88193Y-10867D02*
X88193Y-16978D01*
X87460Y-18200D01*
X85993Y-18811D01*
X84526Y-18811D01*
X83060Y-18200D01*
X82326Y-16978D01*
X82326Y-10867D01*
X83060Y-9644D01*
X84526Y-9033D01*
X85993Y-9033D01*
X87460Y-9644D01*
X88193Y-10867D01*
G54D37*
X96015Y-13311D02*
X96015Y-18811D01*
G54D37*
X96015Y-17589D02*
X95282Y-18567D01*
X93815Y-18811D01*
X92349Y-18567D01*
X91615Y-17589D01*
X91615Y-13311D01*
G54D37*
X100904Y-9033D02*
X100904Y-18200D01*
X101637Y-18811D01*
X102371Y-18567D01*
G54D37*
X99437Y-13311D02*
X102371Y-13311D01*
G54D37*
X109361Y-18811D02*
X109361Y-9033D01*
X113028Y-9033D01*
X114495Y-9644D01*
X115228Y-10867D01*
X115228Y-12089D01*
X114495Y-13311D01*
X113028Y-13922D01*
X109361Y-13922D01*
G54D37*
X123050Y-17344D02*
X123050Y-14900D01*
X122317Y-13678D01*
X120850Y-13311D01*
X119384Y-13678D01*
X118650Y-14900D01*
X118650Y-17344D01*
X119384Y-18567D01*
X120850Y-18811D01*
X122317Y-18567D01*
X123050Y-17344D01*
G54D37*
X126472Y-13311D02*
X128672Y-18811D01*
X130872Y-13311D01*
X133072Y-18811D01*
X134539Y-13311D01*
G54D37*
X142361Y-18200D02*
X141188Y-18811D01*
X139721Y-18811D01*
X138255Y-18200D01*
X137961Y-16978D01*
X137961Y-14900D01*
X138695Y-13678D01*
X140161Y-13311D01*
X141628Y-13678D01*
X142361Y-14533D01*
X142361Y-15755D01*
X137961Y-15755D01*
G54D37*
X145783Y-18811D02*
X145783Y-13311D01*
G54D37*
X145783Y-14533D02*
X147250Y-13311D01*
X148717Y-13311D01*
G54D37*
X155707Y-18811D02*
X159374Y-9033D01*
X163041Y-18811D01*
G54D37*
X157174Y-15144D02*
X161574Y-15144D01*
G54D37*
X167929Y-11478D02*
X167929Y-11478D01*
G54D37*
X166462Y-21255D02*
X167196Y-21255D01*
X167929Y-20278D01*
X167929Y-13311D01*
G54D38*
X293216Y-159867D02*
X279073Y-145725D01*
X316707Y-156367D02*
G54D33*
D03*
X316707Y-175367D02*
G54D33*
D03*
X339724Y-196900D02*
G54D33*
D03*
X339724Y-215899D02*
G54D33*
D03*
X315911Y-196898D02*
G54D25*
D03*
X315911Y-215898D02*
G54D25*
D03*
G54D37*
X237901Y-139549D02*
X243768Y-139549D01*
G54D37*
X240835Y-137104D02*
X240835Y-141993D01*
G54D37*
X250124Y-143827D02*
X250124Y-134049D01*
G54D37*
X247190Y-134049D02*
X253057Y-134049D01*
G54D37*
X256479Y-134049D02*
X263813Y-143827D01*
G54D37*
X256479Y-143827D02*
X263813Y-134049D01*
X968374Y-95250D02*
G54D39*
D03*
X286145Y-97232D02*
G54D39*
D03*
G54D14*
X339724Y-196900D02*
X339698Y-175392D01*
G54D14*
X339724Y-196900D02*
X316281Y-197268D01*
X315911Y-196898D01*
X315916Y-176158D01*
X316707Y-175367D01*
G54D14*
X316707Y-156367D02*
X293288Y-154780D01*
G54D17*
X286145Y-97232D02*
X308070Y-97534D01*
X338533Y-289320D02*
G54D40*
D03*
G54D14*
X463945Y-304402D02*
X411558Y-304402D01*
X399254Y-291701D01*
X338533Y-291701D01*
X605630Y-308370D02*
G54D41*
D03*
G54D14*
X486964Y-308370D02*
X605233Y-308370D01*
X606820Y-309958D01*
G54D36*
X339723Y-156366D02*
X355995Y-156366D01*
X378220Y-148032D01*
X420289Y-148032D01*
X440530Y-127792D01*
G54D14*
X239712Y-112712D02*
X222249Y-112712D01*
X207962Y-98425D01*
X179386Y-98425D01*
X166686Y-111125D01*
X166686Y-119062D01*
G54D42*
X8730Y-14287D02*
X12063Y-10953D01*
X12063Y-19842D01*
G54D42*
X15174Y-12620D02*
X15840Y-11509D01*
X17174Y-10953D01*
X18507Y-10953D01*
X19840Y-11509D01*
X20507Y-12620D01*
X20507Y-13731D01*
X19840Y-14842D01*
X18507Y-15398D01*
X19840Y-15953D01*
X20507Y-17064D01*
X20507Y-18175D01*
X19840Y-19287D01*
X18507Y-19842D01*
X17174Y-19842D01*
X15840Y-19287D01*
X15174Y-18175D01*
G54D42*
X28951Y-12620D02*
X28951Y-18175D01*
X28284Y-19287D01*
X26951Y-19842D01*
X25618Y-19842D01*
X24284Y-19287D01*
X23618Y-18175D01*
X23618Y-12620D01*
X24284Y-11509D01*
X25618Y-10953D01*
X26951Y-10953D01*
X28284Y-11509D01*
X28951Y-12620D01*
G54D42*
X36062Y-14842D02*
X36062Y-19842D01*
G54D42*
X36062Y-18731D02*
X35395Y-19620D01*
X34062Y-19842D01*
X32728Y-19620D01*
X32062Y-18731D01*
X32062Y-14842D01*
G54D42*
X44506Y-12620D02*
X44506Y-18175D01*
X43839Y-19287D01*
X42506Y-19842D01*
X41173Y-19842D01*
X39839Y-19287D01*
X39173Y-18175D01*
X39173Y-12620D01*
X39839Y-11509D01*
X41173Y-10953D01*
X42506Y-10953D01*
X43839Y-11509D01*
X44506Y-12620D01*
G54D42*
X52950Y-19842D02*
X47617Y-19842D01*
X47617Y-19287D01*
X48283Y-18175D01*
X52283Y-14842D01*
X52950Y-13731D01*
X52950Y-12620D01*
X52283Y-11509D01*
X50950Y-10953D01*
X49617Y-10953D01*
X48283Y-11509D01*
X47617Y-12620D01*
G54D42*
X361948Y-40083D02*
X365282Y-36750D01*
X365282Y-45639D01*
G54D42*
X368392Y-38417D02*
X369059Y-37306D01*
X370392Y-36750D01*
X371726Y-36750D01*
X373059Y-37306D01*
X373726Y-38417D01*
X373726Y-39528D01*
X373059Y-40639D01*
X371726Y-41195D01*
X373059Y-41750D01*
X373726Y-42861D01*
X373726Y-43972D01*
X373059Y-45083D01*
X371726Y-45639D01*
X370392Y-45639D01*
X369059Y-45083D01*
X368392Y-43972D01*
G54D42*
X382170Y-38417D02*
X382170Y-43972D01*
X381503Y-45083D01*
X380170Y-45639D01*
X378836Y-45639D01*
X377503Y-45083D01*
X376836Y-43972D01*
X376836Y-38417D01*
X377503Y-37306D01*
X378836Y-36750D01*
X380170Y-36750D01*
X381503Y-37306D01*
X382170Y-38417D01*
G54D42*
X389280Y-40639D02*
X389280Y-45639D01*
G54D42*
X389280Y-44528D02*
X388614Y-45417D01*
X387280Y-45639D01*
X385947Y-45417D01*
X385280Y-44528D01*
X385280Y-40639D01*
G54D42*
X397725Y-38417D02*
X397725Y-43972D01*
X397058Y-45083D01*
X395725Y-45639D01*
X394392Y-45639D01*
X393058Y-45083D01*
X392392Y-43972D01*
X392392Y-38417D01*
X393058Y-37306D01*
X394392Y-36750D01*
X395725Y-36750D01*
X397058Y-37306D01*
X397725Y-38417D01*
G54D42*
X406169Y-45639D02*
X400836Y-45639D01*
X400836Y-45083D01*
X401502Y-43972D01*
X405502Y-40639D01*
X406169Y-39528D01*
X406169Y-38417D01*
X405502Y-37306D01*
X404169Y-36750D01*
X402836Y-36750D01*
X401502Y-37306D01*
X400836Y-38417D01*
G54D43*
X796924Y-125095D02*
X800924Y-121095D01*
X800924Y-131762D01*
G54D43*
X804656Y-123095D02*
X805456Y-121762D01*
X807056Y-121095D01*
X808656Y-121095D01*
X810256Y-121762D01*
X811056Y-123095D01*
X811056Y-124429D01*
X810256Y-125762D01*
X808656Y-126429D01*
X810256Y-127095D01*
X811056Y-128429D01*
X811056Y-129762D01*
X810256Y-131095D01*
X808656Y-131762D01*
X807056Y-131762D01*
X805456Y-131095D01*
X804656Y-129762D01*
G54D43*
X821190Y-123095D02*
X821190Y-129762D01*
X820390Y-131095D01*
X818790Y-131762D01*
X817190Y-131762D01*
X815590Y-131095D01*
X814790Y-129762D01*
X814790Y-123095D01*
X815590Y-121762D01*
X817190Y-121095D01*
X818790Y-121095D01*
X820390Y-121762D01*
X821190Y-123095D01*
G54D43*
X829722Y-125762D02*
X829722Y-131762D01*
G54D43*
X829722Y-130429D02*
X828922Y-131495D01*
X827322Y-131762D01*
X825722Y-131495D01*
X824922Y-130429D01*
X824922Y-125762D01*
G54D43*
X839856Y-123095D02*
X839856Y-129762D01*
X839056Y-131095D01*
X837456Y-131762D01*
X835856Y-131762D01*
X834256Y-131095D01*
X833456Y-129762D01*
X833456Y-123095D01*
X834256Y-121762D01*
X835856Y-121095D01*
X837456Y-121095D01*
X839056Y-121762D01*
X839856Y-123095D01*
G54D43*
X849988Y-131762D02*
X843588Y-131762D01*
X843588Y-131095D01*
X844388Y-129762D01*
X849188Y-125762D01*
X849988Y-124429D01*
X849988Y-123095D01*
X849188Y-121762D01*
X847588Y-121095D01*
X845988Y-121095D01*
X844388Y-121762D01*
X843588Y-123095D01*
G36*
X229975Y-98672D02*
X229975Y-76672D01*
X251975Y-76672D01*
X251975Y-98672D01*
X229975Y-98672D01*
G37*
X240975Y-62272D02*
G54D27*
D03*
X240975Y-36872D02*
G54D27*
D03*
G54D17*
X240975Y-36872D02*
X284412Y-36847D01*
G54D17*
X240975Y-62272D02*
X284412Y-62247D01*
X704547Y-54277D02*
G54D33*
D03*
X704547Y-35277D02*
G54D33*
D03*
X704574Y-99493D02*
G54D33*
D03*
X704574Y-80493D02*
G54D33*
D03*
G54D14*
X668733Y-46433D02*
X687833Y-46433D01*
X704547Y-54277D01*
X728758Y-56655D02*
G54D33*
D03*
X728758Y-75655D02*
G54D33*
D03*
G54D14*
X704574Y-99493D02*
X667617Y-120117D01*
G54D14*
X704574Y-80493D02*
X704547Y-54277D01*
X728339Y-32805D02*
G54D11*
D03*
X728339Y-109004D02*
G54D11*
D03*
G54D14*
X704574Y-99493D02*
X722708Y-90883D01*
X727942Y-76472D01*
G54D17*
X728361Y-56655D02*
X728361Y-32827D01*
G36*
X982662Y-9525D02*
X777874Y-9525D01*
X773112Y-15875D01*
X773112Y-69850D01*
X761999Y-80962D01*
X761999Y-96838D01*
X787399Y-96838D01*
X803274Y-82550D01*
X803274Y-39688D01*
X815974Y-25400D01*
X850899Y-25400D01*
X863599Y-38100D01*
X863599Y-77788D01*
X982662Y-77788D01*
X982662Y-9525D01*
G37*
G54D14*
X982662Y-9525D02*
X777874Y-9525D01*
X773112Y-15875D01*
X773112Y-69850D01*
X761999Y-80962D01*
X761999Y-96838D01*
X787399Y-96838D01*
X803274Y-82550D01*
X803274Y-39688D01*
X815974Y-25400D01*
X850899Y-25400D01*
X863599Y-38100D01*
X863599Y-77788D01*
X982662Y-77788D01*
X982662Y-9525D01*
G54D43*
X796924Y-100458D02*
X796924Y-109124D01*
X797724Y-110458D01*
X799324Y-111124D01*
X800924Y-111124D01*
X802524Y-110458D01*
X803324Y-109124D01*
X803324Y-100458D01*
G54D43*
X807056Y-111124D02*
X807056Y-100458D01*
X811056Y-100458D01*
X812656Y-101124D01*
X813456Y-102458D01*
X813456Y-109124D01*
X812656Y-110458D01*
X811056Y-111124D01*
X807056Y-111124D01*
G54D43*
X823590Y-102458D02*
X823590Y-109124D01*
X822790Y-110458D01*
X821190Y-111124D01*
X819590Y-111124D01*
X817990Y-110458D01*
X817190Y-109124D01*
X817190Y-102458D01*
X817990Y-101124D01*
X819590Y-100458D01*
X821190Y-100458D01*
X822790Y-101124D01*
X823590Y-102458D01*
G54D43*
X833722Y-109124D02*
X832922Y-110458D01*
X831322Y-111124D01*
X829722Y-111124D01*
X828122Y-110458D01*
X827322Y-109124D01*
X827322Y-102458D01*
X828122Y-101124D01*
X829722Y-100458D01*
X831322Y-100458D01*
X832922Y-101124D01*
X833722Y-102458D01*
G54D43*
X837456Y-111124D02*
X841456Y-100458D01*
X845456Y-111124D01*
G54D43*
X839056Y-107124D02*
X843856Y-107124D01*
G54D43*
X855588Y-100458D02*
X855588Y-109124D01*
X854788Y-110458D01*
X853188Y-111124D01*
X851588Y-111124D01*
X849988Y-110458D01*
X849188Y-109124D01*
G54D37*
X320054Y-239474D02*
X325921Y-239474D01*
G54D37*
X322988Y-239474D02*
X322988Y-229696D01*
G54D37*
X320054Y-229696D02*
X325921Y-229696D01*
G54D37*
X329343Y-239474D02*
X329343Y-229696D01*
X334477Y-229696D01*
G54D37*
X329343Y-234585D02*
X334477Y-234585D01*
G54D37*
X595486Y-277718D02*
X599152Y-287495D01*
X602819Y-277718D01*
G54D37*
X606241Y-287495D02*
X606241Y-277718D01*
X611374Y-277718D01*
G54D37*
X606241Y-282606D02*
X611374Y-282606D01*
G54D37*
X620662Y-279551D02*
X620662Y-285662D01*
X619929Y-286884D01*
X618462Y-287495D01*
X616996Y-287495D01*
X615529Y-286884D01*
X614796Y-285662D01*
X614796Y-279551D01*
X615529Y-278329D01*
X616996Y-277718D01*
X618462Y-277718D01*
X619929Y-278329D01*
X620662Y-279551D01*
X590548Y-243283D02*
G54D44*
D03*
X603249Y-243283D02*
G54D44*
D03*
X615948Y-243283D02*
G54D44*
D03*
G36*
X623148Y-230282D02*
X634148Y-230282D01*
X634150Y-256282D01*
X623150Y-256282D01*
X623148Y-230282D01*
G37*
X628648Y-189283D02*
G54D44*
D03*
G36*
X610448Y-176283D02*
X621448Y-176282D01*
X621449Y-202282D01*
X610449Y-202283D01*
X610448Y-176283D01*
G37*
X603248Y-189283D02*
G54D44*
D03*
G36*
X585048Y-176283D02*
X596048Y-176283D01*
X596049Y-202283D01*
X585049Y-202283D01*
X585048Y-176283D01*
G37*
G36*
X631680Y-173564D02*
X631680Y-154564D01*
X650680Y-154564D01*
X650680Y-173564D01*
X631680Y-173564D01*
G37*
X615780Y-164064D02*
G54D21*
D03*
G54D14*
X628648Y-189283D02*
X641180Y-164064D01*
G54D14*
X615948Y-189283D02*
X615780Y-164064D01*
X417114Y-39686D02*
G54D45*
D03*
X555623Y-323848D02*
G54D45*
D03*
X314323Y-316704D02*
G54D45*
D03*
X642142Y-101598D02*
G54D45*
D03*
X573483Y-175020D02*
G54D45*
D03*
G36*
X372101Y-102918D02*
X389101Y-102918D01*
X389102Y-120918D01*
X372102Y-120918D01*
X372101Y-102918D01*
G37*
X399601Y-111918D02*
G54D29*
D03*
G54D17*
X355296Y-116585D02*
X375935Y-116585D01*
X380601Y-111918D01*
G54D36*
X399601Y-111918D02*
X409572Y-111918D01*
X415923Y-105568D01*
X425884Y-105568D01*
X426114Y-105338D01*
G54D36*
X480217Y-73420D02*
X519111Y-34924D01*
X519110Y-10714D01*
G36*
X473470Y-73420D02*
X465785Y-65735D01*
X465785Y-59277D01*
X467120Y-57942D01*
X496488Y-57942D01*
X496488Y-69848D01*
X500061Y-73420D01*
X473470Y-73420D01*
G37*
G54D14*
X473470Y-73420D02*
X465785Y-65735D01*
X465785Y-59277D01*
X467120Y-57942D01*
X496488Y-57942D01*
X496488Y-69848D01*
X500061Y-73420D01*
X473470Y-73420D01*
X391689Y-318714D02*
G54D46*
D03*
X372690Y-318714D02*
G54D46*
D03*
G36*
X405835Y-312071D02*
X422835Y-312071D01*
X422836Y-330071D01*
X405836Y-330071D01*
X405835Y-312071D01*
G37*
X433335Y-321071D02*
G54D29*
D03*
G54D14*
X414335Y-321071D02*
X391689Y-318714D01*
G54D14*
X433335Y-321071D02*
X445689Y-321071D01*
X453229Y-328611D01*
X478629Y-328611D01*
X480216Y-327024D01*
X480216Y-317499D01*
G36*
X486963Y-273446D02*
X510379Y-273446D01*
X510379Y-266699D01*
X501251Y-257571D01*
X486963Y-257571D01*
X486963Y-273446D01*
G37*
G54D14*
X486963Y-273446D02*
X510379Y-273446D01*
X510379Y-266699D01*
X501251Y-257571D01*
X486963Y-257571D01*
X486963Y-273446D01*
G36*
X518535Y-164210D02*
X539535Y-164210D01*
X539536Y-188210D01*
X518536Y-188210D01*
X518535Y-164210D01*
G37*
X548035Y-176210D02*
G54D32*
D03*
G36*
X480435Y-186435D02*
X501435Y-186435D01*
X501436Y-210435D01*
X480436Y-210435D01*
X480435Y-186435D01*
G37*
X509935Y-198435D02*
G54D32*
D03*
X366266Y-245267D02*
G54D32*
D03*
X347266Y-245267D02*
G54D32*
D03*
G54D47*
X494504Y-111123D02*
X486567Y-103185D01*
G54D22*
X686989Y-71832D02*
X671908Y-71832D01*
G54D22*
X590549Y-240504D02*
X590549Y-225422D01*
G54D48*
X610393Y-144064D02*
X668733Y-144064D01*
X728339Y-109004D01*
G54D14*
X500854Y-257570D02*
X506411Y-252013D01*
G36*
X519614Y-114338D02*
X517614Y-116338D01*
X506614Y-116338D01*
X505614Y-115338D01*
X505614Y-111338D01*
X506614Y-110338D01*
X517614Y-110338D01*
X519614Y-112338D01*
X519614Y-114338D01*
G37*
G54D49*
X519614Y-114338D02*
X517614Y-116338D01*
X506614Y-116338D01*
X505614Y-115338D01*
X505614Y-111338D01*
X506614Y-110338D01*
X517614Y-110338D01*
X519614Y-112338D01*
X519614Y-114338D01*
G36*
X519614Y-106338D02*
X517614Y-108338D01*
X506614Y-108338D01*
X505614Y-107338D01*
X505614Y-103338D01*
X506614Y-102338D01*
X517614Y-102338D01*
X519614Y-104338D01*
X519614Y-106338D01*
G37*
G54D49*
X519614Y-106338D02*
X517614Y-108338D01*
X506614Y-108338D01*
X505614Y-107338D01*
X505614Y-103338D01*
X506614Y-102338D01*
X517614Y-102338D01*
X519614Y-104338D01*
X519614Y-106338D01*
X511114Y-113338D02*
G54D50*
D03*
X511114Y-105338D02*
G54D50*
D03*
G36*
X519614Y-98338D02*
X517614Y-100338D01*
X506614Y-100338D01*
X505614Y-99338D01*
X505614Y-95338D01*
X506614Y-94338D01*
X517614Y-94338D01*
X519614Y-96338D01*
X519614Y-98338D01*
G37*
G54D49*
X519614Y-98338D02*
X517614Y-100338D01*
X506614Y-100338D01*
X505614Y-99338D01*
X505614Y-95338D01*
X506614Y-94338D01*
X517614Y-94338D01*
X519614Y-96338D01*
X519614Y-98338D01*
G36*
X519614Y-90338D02*
X517614Y-92338D01*
X506614Y-92338D01*
X505614Y-91338D01*
X505614Y-87338D01*
X506614Y-86338D01*
X517614Y-86338D01*
X519614Y-88338D01*
X519614Y-90338D01*
G37*
G54D49*
X519614Y-90338D02*
X517614Y-92338D01*
X506614Y-92338D01*
X505614Y-91338D01*
X505614Y-87338D01*
X506614Y-86338D01*
X517614Y-86338D01*
X519614Y-88338D01*
X519614Y-90338D01*
X511114Y-97338D02*
G54D50*
D03*
X511114Y-89338D02*
G54D50*
D03*
G36*
X519614Y-82338D02*
X517614Y-84338D01*
X506614Y-84338D01*
X505614Y-83338D01*
X505614Y-79338D01*
X506614Y-78338D01*
X517614Y-78338D01*
X519614Y-80338D01*
X519614Y-82338D01*
G37*
G54D49*
X519614Y-82338D02*
X517614Y-84338D01*
X506614Y-84338D01*
X505614Y-83338D01*
X505614Y-79338D01*
X506614Y-78338D01*
X517614Y-78338D01*
X519614Y-80338D01*
X519614Y-82338D01*
G36*
X519614Y-74338D02*
X517614Y-76338D01*
X506614Y-76338D01*
X505614Y-75338D01*
X505614Y-71338D01*
X506614Y-70338D01*
X517614Y-70338D01*
X519614Y-72338D01*
X519614Y-74338D01*
G37*
G54D49*
X519614Y-74338D02*
X517614Y-76338D01*
X506614Y-76338D01*
X505614Y-75338D01*
X505614Y-71338D01*
X506614Y-70338D01*
X517614Y-70338D01*
X519614Y-72338D01*
X519614Y-74338D01*
X511114Y-81338D02*
G54D50*
D03*
X511114Y-73338D02*
G54D50*
D03*
G36*
X519614Y-66338D02*
X517614Y-68338D01*
X506614Y-68338D01*
X505614Y-67338D01*
X505614Y-63338D01*
X506614Y-62338D01*
X517614Y-62338D01*
X519614Y-64338D01*
X519614Y-66338D01*
G37*
G54D49*
X519614Y-66338D02*
X517614Y-68338D01*
X506614Y-68338D01*
X505614Y-67338D01*
X505614Y-63338D01*
X506614Y-62338D01*
X517614Y-62338D01*
X519614Y-64338D01*
X519614Y-66338D01*
G36*
X519614Y-58338D02*
X517614Y-60338D01*
X506614Y-60338D01*
X505614Y-59338D01*
X505614Y-55338D01*
X506614Y-54338D01*
X517614Y-54338D01*
X519614Y-56338D01*
X519614Y-58338D01*
G37*
G54D49*
X519614Y-58338D02*
X517614Y-60338D01*
X506614Y-60338D01*
X505614Y-59338D01*
X505614Y-55338D01*
X506614Y-54338D01*
X517614Y-54338D01*
X519614Y-56338D01*
X519614Y-58338D01*
X511114Y-65338D02*
G54D50*
D03*
X511114Y-57338D02*
G54D50*
D03*
G36*
X439614Y-136338D02*
X437614Y-134338D01*
X437614Y-123338D01*
X438614Y-122338D01*
X442614Y-122338D01*
X443614Y-123338D01*
X443614Y-134338D01*
X441614Y-136338D01*
X439614Y-136338D01*
G37*
G54D49*
X439614Y-136338D02*
X437614Y-134338D01*
X437614Y-123338D01*
X438614Y-122338D01*
X442614Y-122338D01*
X443614Y-123338D01*
X443614Y-134338D01*
X441614Y-136338D01*
X439614Y-136338D01*
G36*
X447614Y-136338D02*
X445614Y-134338D01*
X445614Y-123338D01*
X446614Y-122338D01*
X450614Y-122338D01*
X451614Y-123338D01*
X451614Y-134338D01*
X449614Y-136338D01*
X447614Y-136338D01*
G37*
G54D49*
X447614Y-136338D02*
X445614Y-134338D01*
X445614Y-123338D01*
X446614Y-122338D01*
X450614Y-122338D01*
X451614Y-123338D01*
X451614Y-134338D01*
X449614Y-136338D01*
X447614Y-136338D01*
X440614Y-127838D02*
G54D50*
D03*
X448614Y-127838D02*
G54D50*
D03*
G36*
X455614Y-136338D02*
X453614Y-134338D01*
X453614Y-123338D01*
X454614Y-122338D01*
X458614Y-122338D01*
X459614Y-123338D01*
X459614Y-134338D01*
X457614Y-136338D01*
X455614Y-136338D01*
G37*
G54D49*
X455614Y-136338D02*
X453614Y-134338D01*
X453614Y-123338D01*
X454614Y-122338D01*
X458614Y-122338D01*
X459614Y-123338D01*
X459614Y-134338D01*
X457614Y-136338D01*
X455614Y-136338D01*
G36*
X463614Y-136338D02*
X461614Y-134338D01*
X461614Y-123338D01*
X462614Y-122338D01*
X466614Y-122338D01*
X467614Y-123338D01*
X467614Y-134338D01*
X465614Y-136338D01*
X463614Y-136338D01*
G37*
G54D49*
X463614Y-136338D02*
X461614Y-134338D01*
X461614Y-123338D01*
X462614Y-122338D01*
X466614Y-122338D01*
X467614Y-123338D01*
X467614Y-134338D01*
X465614Y-136338D01*
X463614Y-136338D01*
X456614Y-127838D02*
G54D50*
D03*
X464614Y-127838D02*
G54D50*
D03*
G36*
X471614Y-136338D02*
X469614Y-134338D01*
X469614Y-123338D01*
X470614Y-122338D01*
X474614Y-122338D01*
X475614Y-123338D01*
X475614Y-134338D01*
X473614Y-136338D01*
X471614Y-136338D01*
G37*
G54D49*
X471614Y-136338D02*
X469614Y-134338D01*
X469614Y-123338D01*
X470614Y-122338D01*
X474614Y-122338D01*
X475614Y-123338D01*
X475614Y-134338D01*
X473614Y-136338D01*
X471614Y-136338D01*
G36*
X479614Y-136338D02*
X477614Y-134338D01*
X477614Y-123338D01*
X478614Y-122338D01*
X482614Y-122338D01*
X483614Y-123338D01*
X483614Y-134338D01*
X481614Y-136338D01*
X479614Y-136338D01*
G37*
G54D49*
X479614Y-136338D02*
X477614Y-134338D01*
X477614Y-123338D01*
X478614Y-122338D01*
X482614Y-122338D01*
X483614Y-123338D01*
X483614Y-134338D01*
X481614Y-136338D01*
X479614Y-136338D01*
X472614Y-127838D02*
G54D50*
D03*
X480614Y-127838D02*
G54D50*
D03*
G36*
X487614Y-136338D02*
X485614Y-134338D01*
X485614Y-123338D01*
X486614Y-122338D01*
X490614Y-122338D01*
X491614Y-123338D01*
X491614Y-134338D01*
X489614Y-136338D01*
X487614Y-136338D01*
G37*
G54D49*
X487614Y-136338D02*
X485614Y-134338D01*
X485614Y-123338D01*
X486614Y-122338D01*
X490614Y-122338D01*
X491614Y-123338D01*
X491614Y-134338D01*
X489614Y-136338D01*
X487614Y-136338D01*
G36*
X495614Y-136338D02*
X493614Y-134338D01*
X493614Y-123338D01*
X494614Y-122338D01*
X498614Y-122338D01*
X499614Y-123338D01*
X499614Y-134338D01*
X497614Y-136338D01*
X495614Y-136338D01*
G37*
G54D49*
X495614Y-136338D02*
X493614Y-134338D01*
X493614Y-123338D01*
X494614Y-122338D01*
X498614Y-122338D01*
X499614Y-123338D01*
X499614Y-134338D01*
X497614Y-136338D01*
X495614Y-136338D01*
X488614Y-127838D02*
G54D50*
D03*
X496614Y-127838D02*
G54D50*
D03*
G36*
X417614Y-56338D02*
X419614Y-54338D01*
X430614Y-54338D01*
X431614Y-55338D01*
X431614Y-59338D01*
X430614Y-60338D01*
X419614Y-60338D01*
X417614Y-58338D01*
X417614Y-56338D01*
G37*
G54D49*
X417614Y-56338D02*
X419614Y-54338D01*
X430614Y-54338D01*
X431614Y-55338D01*
X431614Y-59338D01*
X430614Y-60338D01*
X419614Y-60338D01*
X417614Y-58338D01*
X417614Y-56338D01*
G36*
X417614Y-64338D02*
X419614Y-62338D01*
X430614Y-62338D01*
X431614Y-63338D01*
X431614Y-67338D01*
X430614Y-68338D01*
X419614Y-68338D01*
X417614Y-66338D01*
X417614Y-64338D01*
G37*
G54D49*
X417614Y-64338D02*
X419614Y-62338D01*
X430614Y-62338D01*
X431614Y-63338D01*
X431614Y-67338D01*
X430614Y-68338D01*
X419614Y-68338D01*
X417614Y-66338D01*
X417614Y-64338D01*
G36*
X421614Y-52838D02*
X430614Y-52838D01*
X430614Y-61838D01*
X421614Y-61838D01*
X421614Y-52838D01*
G37*
G36*
X421614Y-60838D02*
X430614Y-60838D01*
X430614Y-69838D01*
X421614Y-69838D01*
X421614Y-60838D01*
G37*
G36*
X417614Y-72338D02*
X419614Y-70338D01*
X430614Y-70338D01*
X431614Y-71338D01*
X431614Y-75338D01*
X430614Y-76338D01*
X419614Y-76338D01*
X417614Y-74338D01*
X417614Y-72338D01*
G37*
G54D49*
X417614Y-72338D02*
X419614Y-70338D01*
X430614Y-70338D01*
X431614Y-71338D01*
X431614Y-75338D01*
X430614Y-76338D01*
X419614Y-76338D01*
X417614Y-74338D01*
X417614Y-72338D01*
G36*
X417614Y-80338D02*
X419614Y-78338D01*
X430614Y-78338D01*
X431614Y-79338D01*
X431614Y-83338D01*
X430614Y-84338D01*
X419614Y-84338D01*
X417614Y-82338D01*
X417614Y-80338D01*
G37*
G54D49*
X417614Y-80338D02*
X419614Y-78338D01*
X430614Y-78338D01*
X431614Y-79338D01*
X431614Y-83338D01*
X430614Y-84338D01*
X419614Y-84338D01*
X417614Y-82338D01*
X417614Y-80338D01*
X426114Y-73338D02*
G54D50*
D03*
X426114Y-81338D02*
G54D50*
D03*
G36*
X417614Y-88338D02*
X419614Y-86338D01*
X430614Y-86338D01*
X431614Y-87338D01*
X431614Y-91338D01*
X430614Y-92338D01*
X419614Y-92338D01*
X417614Y-90338D01*
X417614Y-88338D01*
G37*
G54D49*
X417614Y-88338D02*
X419614Y-86338D01*
X430614Y-86338D01*
X431614Y-87338D01*
X431614Y-91338D01*
X430614Y-92338D01*
X419614Y-92338D01*
X417614Y-90338D01*
X417614Y-88338D01*
G36*
X417614Y-96338D02*
X419614Y-94338D01*
X430614Y-94338D01*
X431614Y-95338D01*
X431614Y-99338D01*
X430614Y-100338D01*
X419614Y-100338D01*
X417614Y-98338D01*
X417614Y-96338D01*
G37*
G54D49*
X417614Y-96338D02*
X419614Y-94338D01*
X430614Y-94338D01*
X431614Y-95338D01*
X431614Y-99338D01*
X430614Y-100338D01*
X419614Y-100338D01*
X417614Y-98338D01*
X417614Y-96338D01*
X426114Y-89338D02*
G54D50*
D03*
X426114Y-97338D02*
G54D50*
D03*
G36*
X417614Y-104338D02*
X419614Y-102338D01*
X430614Y-102338D01*
X431614Y-103338D01*
X431614Y-107338D01*
X430614Y-108338D01*
X419614Y-108338D01*
X417614Y-106338D01*
X417614Y-104338D01*
G37*
G54D49*
X417614Y-104338D02*
X419614Y-102338D01*
X430614Y-102338D01*
X431614Y-103338D01*
X431614Y-107338D01*
X430614Y-108338D01*
X419614Y-108338D01*
X417614Y-106338D01*
X417614Y-104338D01*
G36*
X417614Y-112338D02*
X419614Y-110338D01*
X430614Y-110338D01*
X431614Y-111338D01*
X431614Y-115338D01*
X430614Y-116338D01*
X419614Y-116338D01*
X417614Y-114338D01*
X417614Y-112338D01*
G37*
G54D49*
X417614Y-112338D02*
X419614Y-110338D01*
X430614Y-110338D01*
X431614Y-111338D01*
X431614Y-115338D01*
X430614Y-116338D01*
X419614Y-116338D01*
X417614Y-114338D01*
X417614Y-112338D01*
G36*
X421614Y-100838D02*
X430614Y-100838D01*
X430614Y-109838D01*
X421614Y-109838D01*
X421614Y-100838D01*
G37*
X426114Y-113338D02*
G54D50*
D03*
G36*
X497614Y-34338D02*
X499614Y-36338D01*
X499614Y-47338D01*
X498614Y-48338D01*
X494614Y-48338D01*
X493614Y-47338D01*
X493614Y-36338D01*
X495614Y-34338D01*
X497614Y-34338D01*
G37*
G54D49*
X497614Y-34338D02*
X499614Y-36338D01*
X499614Y-47338D01*
X498614Y-48338D01*
X494614Y-48338D01*
X493614Y-47338D01*
X493614Y-36338D01*
X495614Y-34338D01*
X497614Y-34338D01*
G36*
X489614Y-34338D02*
X491614Y-36338D01*
X491614Y-47338D01*
X490614Y-48338D01*
X486614Y-48338D01*
X485614Y-47338D01*
X485614Y-36338D01*
X487614Y-34338D01*
X489614Y-34338D01*
G37*
G54D49*
X489614Y-34338D02*
X491614Y-36338D01*
X491614Y-47338D01*
X490614Y-48338D01*
X486614Y-48338D01*
X485614Y-47338D01*
X485614Y-36338D01*
X487614Y-34338D01*
X489614Y-34338D01*
X496614Y-42838D02*
G54D50*
D03*
X488614Y-42838D02*
G54D50*
D03*
G36*
X481614Y-34338D02*
X483614Y-36338D01*
X483614Y-47338D01*
X482614Y-48338D01*
X478614Y-48338D01*
X477614Y-47338D01*
X477614Y-36338D01*
X479614Y-34338D01*
X481614Y-34338D01*
G37*
G54D49*
X481614Y-34338D02*
X483614Y-36338D01*
X483614Y-47338D01*
X482614Y-48338D01*
X478614Y-48338D01*
X477614Y-47338D01*
X477614Y-36338D01*
X479614Y-34338D01*
X481614Y-34338D01*
G36*
X473614Y-34338D02*
X475614Y-36338D01*
X475614Y-47338D01*
X474614Y-48338D01*
X470614Y-48338D01*
X469614Y-47338D01*
X469614Y-36338D01*
X471614Y-34338D01*
X473614Y-34338D01*
G37*
G54D49*
X473614Y-34338D02*
X475614Y-36338D01*
X475614Y-47338D01*
X474614Y-48338D01*
X470614Y-48338D01*
X469614Y-47338D01*
X469614Y-36338D01*
X471614Y-34338D01*
X473614Y-34338D01*
X480614Y-42838D02*
G54D50*
D03*
X472614Y-42838D02*
G54D50*
D03*
G36*
X465614Y-34338D02*
X467614Y-36338D01*
X467614Y-47338D01*
X466614Y-48338D01*
X462614Y-48338D01*
X461614Y-47338D01*
X461614Y-36338D01*
X463614Y-34338D01*
X465614Y-34338D01*
G37*
G54D49*
X465614Y-34338D02*
X467614Y-36338D01*
X467614Y-47338D01*
X466614Y-48338D01*
X462614Y-48338D01*
X461614Y-47338D01*
X461614Y-36338D01*
X463614Y-34338D01*
X465614Y-34338D01*
G36*
X457614Y-34338D02*
X459614Y-36338D01*
X459614Y-47338D01*
X458614Y-48338D01*
X454614Y-48338D01*
X453614Y-47338D01*
X453614Y-36338D01*
X455614Y-34338D01*
X457614Y-34338D01*
G37*
G54D49*
X457614Y-34338D02*
X459614Y-36338D01*
X459614Y-47338D01*
X458614Y-48338D01*
X454614Y-48338D01*
X453614Y-47338D01*
X453614Y-36338D01*
X455614Y-34338D01*
X457614Y-34338D01*
X464614Y-42838D02*
G54D50*
D03*
X456614Y-42838D02*
G54D50*
D03*
G36*
X449614Y-34338D02*
X451614Y-36338D01*
X451614Y-47338D01*
X450614Y-48338D01*
X446614Y-48338D01*
X445614Y-47338D01*
X445614Y-36338D01*
X447614Y-34338D01*
X449614Y-34338D01*
G37*
G54D49*
X449614Y-34338D02*
X451614Y-36338D01*
X451614Y-47338D01*
X450614Y-48338D01*
X446614Y-48338D01*
X445614Y-47338D01*
X445614Y-36338D01*
X447614Y-34338D01*
X449614Y-34338D01*
G36*
X441614Y-34338D02*
X443614Y-36338D01*
X443614Y-47338D01*
X442614Y-48338D01*
X438614Y-48338D01*
X437614Y-47338D01*
X437614Y-36338D01*
X439614Y-34338D01*
X441614Y-34338D01*
G37*
G54D49*
X441614Y-34338D02*
X443614Y-36338D01*
X443614Y-47338D01*
X442614Y-48338D01*
X438614Y-48338D01*
X437614Y-47338D01*
X437614Y-36338D01*
X439614Y-34338D01*
X441614Y-34338D01*
X448614Y-42838D02*
G54D50*
D03*
X440614Y-42838D02*
G54D50*
D03*
G36*
X893761Y-82550D02*
X863598Y-82550D01*
X863598Y-128587D01*
X893761Y-128587D01*
X893761Y-82550D01*
G37*
G54D14*
X893761Y-82550D02*
X863598Y-82550D01*
X863598Y-128587D01*
X893761Y-128587D01*
X893761Y-82550D01*
G36*
X900112Y-128588D02*
X900112Y-69850D01*
X919162Y-69850D01*
X919162Y-128588D01*
X900112Y-128588D01*
G37*
G54D14*
X900112Y-128588D02*
X900112Y-69850D01*
X919162Y-69850D01*
X919162Y-128588D01*
X900112Y-128588D01*
X284162Y-20638D02*
G54D46*
D03*
X265162Y-20637D02*
G54D46*
D03*
X263101Y-60298D02*
G54D33*
D03*
X263101Y-41298D02*
G54D33*
D03*
%LPD*%
G54D51*
G36*
X42068Y-54371D02*
X42068Y-26871D01*
X58735Y-26871D01*
X58735Y-54371D01*
X42068Y-54371D01*
G37*
G36*
X50402Y-46037D02*
X77902Y-46037D01*
X77902Y-62704D01*
X50402Y-62704D01*
X50402Y-46037D01*
G37*
G36*
X58735Y-54371D02*
X58735Y-81871D01*
X42068Y-81871D01*
X42068Y-54371D01*
X58735Y-54371D01*
G37*
G36*
X50402Y-62704D02*
X22902Y-62704D01*
X22902Y-46037D01*
X50402Y-46037D01*
X50402Y-62704D01*
G37*
G54D52*
G36*
X831451Y-44371D02*
X858951Y-44371D01*
X858951Y-64371D01*
X831451Y-64371D01*
X831451Y-44371D01*
G37*
G36*
X841451Y-54371D02*
X841451Y-81871D01*
X821451Y-81871D01*
X821451Y-54371D01*
X841451Y-54371D01*
G37*
G54D53*
G36*
X759617Y-117631D02*
X747117Y-117631D01*
X747117Y-110965D01*
X759617Y-110965D01*
X759617Y-117631D01*
G37*
G36*
X759617Y-110965D02*
X772117Y-110965D01*
X772117Y-117631D01*
X759617Y-117631D01*
X759617Y-110965D01*
G37*
G36*
X762950Y-114298D02*
X762950Y-126798D01*
X756284Y-126798D01*
X756284Y-114298D01*
X762950Y-114298D01*
G37*
G54D53*
G36*
X386157Y-227250D02*
X398657Y-227250D01*
X398657Y-233917D01*
X386157Y-233917D01*
X386157Y-227250D01*
G37*
G36*
X386157Y-233917D02*
X373657Y-233917D01*
X373657Y-227250D01*
X386157Y-227250D01*
X386157Y-233917D01*
G37*
G54D53*
G36*
X538557Y-252650D02*
X551057Y-252650D01*
X551057Y-259317D01*
X538557Y-259317D01*
X538557Y-252650D01*
G37*
G36*
X541891Y-255984D02*
X541891Y-268484D01*
X535224Y-268484D01*
X535224Y-255984D01*
X541891Y-255984D01*
G37*
G36*
X538557Y-259317D02*
X526057Y-259317D01*
X526057Y-252650D01*
X538557Y-252650D01*
X538557Y-259317D01*
G37*
G36*
X535224Y-255984D02*
X535224Y-243484D01*
X541891Y-243484D01*
X541891Y-255984D01*
X535224Y-255984D01*
G37*
G54D54*
G36*
X668732Y-36976D02*
X655232Y-36977D01*
X655232Y-30490D01*
X668732Y-30489D01*
X668732Y-36976D01*
G37*
G36*
X665488Y-33733D02*
X665488Y-27733D01*
X671975Y-27733D01*
X671975Y-33733D01*
X665488Y-33733D01*
G37*
G36*
X668732Y-30489D02*
X682232Y-30489D01*
X682232Y-36976D01*
X668732Y-36976D01*
X668732Y-30489D01*
G37*
G54D47*
G36*
X476684Y-310002D02*
X476683Y-322502D01*
X473683Y-322502D01*
X473684Y-310002D01*
X476684Y-310002D01*
G37*
G36*
X473684Y-310002D02*
X473686Y-297502D01*
X476686Y-297502D01*
X476684Y-310002D01*
X473684Y-310002D01*
G37*
G54D55*
G36*
X398040Y-86309D02*
X408540Y-86309D01*
X408540Y-90642D01*
X398040Y-90642D01*
X398040Y-86309D01*
G37*
G36*
X400206Y-88476D02*
X400207Y-97476D01*
X395874Y-97476D01*
X395874Y-88476D01*
X400206Y-88476D01*
G37*
G36*
X398040Y-90642D02*
X387540Y-90642D01*
X387540Y-86309D01*
X398040Y-86309D01*
X398040Y-90642D01*
G37*
G54D28*
G36*
X332212Y-40022D02*
X332212Y-28522D01*
X338212Y-28522D01*
X338212Y-40022D01*
X332212Y-40022D01*
G37*
G36*
X335212Y-37022D02*
X346712Y-37022D01*
X346712Y-43022D01*
X335212Y-43022D01*
X335212Y-37022D01*
G37*
G54D53*
G36*
X189547Y-119458D02*
X189547Y-106958D01*
X196214Y-106958D01*
X196214Y-119458D01*
X189547Y-119458D01*
G37*
G36*
X192880Y-116124D02*
X205380Y-116124D01*
X205380Y-122791D01*
X192880Y-122791D01*
X192880Y-116124D01*
G37*
G36*
X196214Y-119458D02*
X196214Y-131958D01*
X189547Y-131958D01*
X189547Y-119458D01*
X196214Y-119458D01*
G37*
G36*
X192880Y-122791D02*
X180380Y-122791D01*
X180380Y-116124D01*
X192880Y-116124D01*
X192880Y-122791D01*
G37*
G54D55*
G36*
X104353Y-83549D02*
X93853Y-83549D01*
X93853Y-79216D01*
X104353Y-79216D01*
X104353Y-83549D01*
G37*
G36*
X102187Y-81383D02*
X102187Y-72383D01*
X106520Y-72383D01*
X106520Y-81383D01*
X102187Y-81383D01*
G37*
G36*
X104353Y-79216D02*
X114853Y-79216D01*
X114853Y-83549D01*
X104353Y-83549D01*
X104353Y-79216D01*
G37*
G54D55*
G36*
X613336Y-113902D02*
X613336Y-101402D01*
X617668Y-101401D01*
X617669Y-113901D01*
X613336Y-113902D01*
G37*
G36*
X615502Y-111735D02*
X626502Y-111735D01*
X626502Y-116068D01*
X615502Y-116068D01*
X615502Y-111735D01*
G37*
G36*
X617669Y-113901D02*
X617669Y-126401D01*
X613336Y-126402D01*
X613336Y-113902D01*
X617669Y-113901D01*
G37*
G54D53*
G36*
X642218Y-116783D02*
X654718Y-116783D01*
X654718Y-123450D01*
X642218Y-123450D01*
X642218Y-116783D01*
G37*
G36*
X645551Y-120116D02*
X645551Y-132616D01*
X638884Y-132616D01*
X638884Y-120116D01*
X645551Y-120116D01*
G37*
G36*
X642218Y-123450D02*
X629718Y-123450D01*
X629718Y-116783D01*
X642218Y-116783D01*
X642218Y-123450D01*
G37*
G36*
X638884Y-120116D02*
X638884Y-107616D01*
X645551Y-107616D01*
X645551Y-120116D01*
X638884Y-120116D01*
G37*
G54D55*
G36*
X60885Y-119854D02*
X60885Y-110354D01*
X65218Y-110354D01*
X65218Y-119854D01*
X60885Y-119854D01*
G37*
G36*
X63051Y-117688D02*
X72051Y-117688D01*
X72051Y-122021D01*
X63051Y-122021D01*
X63051Y-117688D01*
G37*
G36*
X65218Y-119854D02*
X65218Y-129354D01*
X60885Y-129354D01*
X60885Y-119854D01*
X65218Y-119854D01*
G37*
G54D55*
G36*
X331087Y-99753D02*
X321587Y-99753D01*
X321587Y-95420D01*
X331087Y-95420D01*
X331087Y-99753D01*
G37*
G36*
X328921Y-97586D02*
X328921Y-88586D01*
X333254Y-88586D01*
X333254Y-97586D01*
X328921Y-97586D01*
G37*
G36*
X331087Y-95420D02*
X340587Y-95420D01*
X340587Y-99753D01*
X331087Y-99753D01*
X331087Y-95420D01*
G37*
G54D55*
G36*
X510356Y-289112D02*
X522856Y-289112D01*
X522856Y-293445D01*
X510356Y-293445D01*
X510356Y-289112D01*
G37*
G36*
X512522Y-291279D02*
X512522Y-302279D01*
X508189Y-302279D01*
X508189Y-291279D01*
X512522Y-291279D01*
G37*
G36*
X510356Y-293445D02*
X497856Y-293445D01*
X497856Y-289112D01*
X510356Y-289112D01*
X510356Y-293445D01*
G37*
G54D55*
G36*
X355297Y-99752D02*
X344797Y-99752D01*
X344796Y-95419D01*
X355296Y-95418D01*
X355297Y-99752D01*
G37*
G36*
X353130Y-97585D02*
X353130Y-88585D01*
X357463Y-88585D01*
X357463Y-97585D01*
X353130Y-97585D01*
G37*
G36*
X355296Y-95418D02*
X365796Y-95418D01*
X365797Y-99751D01*
X355297Y-99752D01*
X355296Y-95418D01*
G37*
G54D55*
G36*
X593163Y-142476D02*
X593163Y-154976D01*
X588830Y-154976D01*
X588830Y-142476D01*
X593163Y-142476D01*
G37*
G36*
X590997Y-144643D02*
X579997Y-144643D01*
X579997Y-140310D01*
X590997Y-140310D01*
X590997Y-144643D01*
G37*
G36*
X588830Y-142476D02*
X588830Y-129976D01*
X593163Y-129976D01*
X593163Y-142476D01*
X588830Y-142476D01*
G37*
G54D55*
G36*
X339724Y-213733D02*
X349224Y-213733D01*
X349224Y-218066D01*
X339724Y-218066D01*
X339724Y-213733D01*
G37*
G36*
X341890Y-215899D02*
X341890Y-224899D01*
X337557Y-224899D01*
X337557Y-215899D01*
X341890Y-215899D01*
G37*
G36*
X339724Y-218066D02*
X330224Y-218066D01*
X330224Y-213733D01*
X339724Y-213733D01*
X339724Y-218066D01*
G37*
G54D55*
G36*
X315911Y-213732D02*
X326411Y-213731D01*
X326411Y-218064D01*
X315911Y-218064D01*
X315911Y-213732D01*
G37*
G36*
X318077Y-215898D02*
X318078Y-224898D01*
X313745Y-224898D01*
X313744Y-215898D01*
X318077Y-215898D01*
G37*
G36*
X315911Y-218064D02*
X305411Y-218065D01*
X305411Y-213732D01*
X315911Y-213732D01*
X315911Y-218064D01*
G37*
G54D28*
G36*
X240975Y-90672D02*
X229475Y-90672D01*
X229475Y-84672D01*
X240975Y-84672D01*
X240975Y-90672D01*
G37*
G36*
X237975Y-87672D02*
X237975Y-76172D01*
X243975Y-76172D01*
X243975Y-87672D01*
X237975Y-87672D01*
G37*
G36*
X240975Y-84672D02*
X252475Y-84672D01*
X252475Y-90672D01*
X240975Y-90672D01*
X240975Y-84672D01*
G37*
G36*
X243975Y-87672D02*
X243975Y-99172D01*
X237975Y-99172D01*
X237975Y-87672D01*
X243975Y-87672D01*
G37*
G54D55*
G36*
X704547Y-37444D02*
X695047Y-37444D01*
X695047Y-33111D01*
X704547Y-33111D01*
X704547Y-37444D01*
G37*
G36*
X702380Y-35277D02*
X702380Y-26277D01*
X706713Y-26277D01*
X706713Y-35277D01*
X702380Y-35277D01*
G37*
G36*
X704547Y-33111D02*
X714047Y-33111D01*
X714047Y-37444D01*
X704547Y-37444D01*
X704547Y-33111D01*
G37*
G54D56*
G36*
X589382Y-243283D02*
X589382Y-229783D01*
X591715Y-229783D01*
X591715Y-243283D01*
X589382Y-243283D01*
G37*
G36*
X590548Y-242116D02*
X596548Y-242116D01*
X596548Y-244449D01*
X590548Y-244449D01*
X590548Y-242116D01*
G37*
G36*
X591715Y-243283D02*
X591715Y-256783D01*
X589382Y-256783D01*
X589382Y-243283D01*
X591715Y-243283D01*
G37*
G36*
X590548Y-244449D02*
X584548Y-244449D01*
X584548Y-242116D01*
X590548Y-242116D01*
X590548Y-244449D01*
G37*
G54D56*
G36*
X602082Y-243283D02*
X602082Y-229783D01*
X604415Y-229783D01*
X604415Y-243283D01*
X602082Y-243283D01*
G37*
G36*
X603249Y-242116D02*
X609249Y-242116D01*
X609249Y-244449D01*
X603249Y-244449D01*
X603249Y-242116D01*
G37*
G36*
X604415Y-243283D02*
X604415Y-256783D01*
X602082Y-256783D01*
X602082Y-243283D01*
X604415Y-243283D01*
G37*
G36*
X603249Y-244449D02*
X597249Y-244449D01*
X597249Y-242116D01*
X603249Y-242116D01*
X603249Y-244449D01*
G37*
G54D56*
G36*
X614782Y-243283D02*
X614782Y-229783D01*
X617115Y-229783D01*
X617115Y-243283D01*
X614782Y-243283D01*
G37*
G36*
X615948Y-242116D02*
X621948Y-242117D01*
X621948Y-244450D01*
X615948Y-244449D01*
X615948Y-242116D01*
G37*
G36*
X617115Y-243283D02*
X617114Y-256783D01*
X614781Y-256783D01*
X614782Y-243283D01*
X617115Y-243283D01*
G37*
G36*
X615948Y-244449D02*
X609948Y-244449D01*
X609948Y-242116D01*
X615948Y-242116D01*
X615948Y-244449D01*
G37*
G54D57*
G36*
X627424Y-243282D02*
X627423Y-229782D01*
X629873Y-229782D01*
X629874Y-243282D01*
X627424Y-243282D01*
G37*
G36*
X628649Y-242057D02*
X634649Y-242057D01*
X634649Y-244507D01*
X628649Y-244507D01*
X628649Y-242057D01*
G37*
G36*
X629874Y-243282D02*
X629875Y-256782D01*
X627425Y-256782D01*
X627424Y-243282D01*
X629874Y-243282D01*
G37*
G36*
X628649Y-244507D02*
X622649Y-244507D01*
X622649Y-242057D01*
X628649Y-242057D01*
X628649Y-244507D01*
G37*
G54D56*
G36*
X602082Y-189283D02*
X602082Y-175783D01*
X604415Y-175783D01*
X604414Y-189283D01*
X602082Y-189283D01*
G37*
G36*
X603248Y-188116D02*
X609248Y-188117D01*
X609248Y-190450D01*
X603248Y-190449D01*
X603248Y-188116D01*
G37*
G36*
X604414Y-189283D02*
X604414Y-202783D01*
X602081Y-202783D01*
X602082Y-189283D01*
X604414Y-189283D01*
G37*
G36*
X603248Y-190449D02*
X597248Y-190449D01*
X597248Y-188116D01*
X603248Y-188116D01*
X603248Y-190449D01*
G37*
G54D55*
G36*
X374856Y-318714D02*
X374856Y-329214D01*
X370523Y-329214D01*
X370523Y-318714D01*
X374856Y-318714D01*
G37*
G36*
X372690Y-320880D02*
X363690Y-320881D01*
X363690Y-316548D01*
X372690Y-316547D01*
X372690Y-320880D01*
G37*
G36*
X370523Y-318714D02*
X370523Y-308214D01*
X374856Y-308214D01*
X374856Y-318714D01*
X370523Y-318714D01*
G37*
G54D55*
G36*
X545868Y-176210D02*
X545869Y-163710D01*
X550202Y-163710D01*
X550201Y-176210D01*
X545868Y-176210D01*
G37*
G36*
X548035Y-174044D02*
X559035Y-174044D01*
X559035Y-178377D01*
X548035Y-178377D01*
X548035Y-174044D01*
G37*
G36*
X550201Y-176210D02*
X550201Y-188710D01*
X545868Y-188710D01*
X545868Y-176210D01*
X550201Y-176210D01*
G37*
G54D55*
G36*
X507768Y-198435D02*
X507768Y-185935D01*
X512102Y-185935D01*
X512101Y-198435D01*
X507768Y-198435D01*
G37*
G36*
X509935Y-196269D02*
X520935Y-196269D01*
X520935Y-200602D01*
X509935Y-200602D01*
X509935Y-196269D01*
G37*
G36*
X512101Y-198435D02*
X512101Y-210935D01*
X507768Y-210935D01*
X507768Y-198435D01*
X512101Y-198435D01*
G37*
G54D55*
G36*
X349433Y-245267D02*
X349433Y-257767D01*
X345100Y-257767D01*
X345100Y-245267D01*
X349433Y-245267D01*
G37*
G36*
X347266Y-247433D02*
X336266Y-247433D01*
X336266Y-243100D01*
X347266Y-243100D01*
X347266Y-247433D01*
G37*
G36*
X345100Y-245267D02*
X345100Y-232767D01*
X349433Y-232767D01*
X349433Y-245267D01*
X345100Y-245267D01*
G37*
G54D55*
G36*
X267328Y-20637D02*
X267329Y-31137D01*
X262996Y-31137D01*
X262995Y-20637D01*
X267328Y-20637D01*
G37*
G36*
X265162Y-22804D02*
X256162Y-22804D01*
X256162Y-18471D01*
X265162Y-18471D01*
X265162Y-22804D01*
G37*
G36*
X262995Y-20637D02*
X262995Y-10137D01*
X267328Y-10137D01*
X267328Y-20637D01*
X262995Y-20637D01*
G37*
X50402Y-54371D02*
G54D58*
D03*
X831451Y-54371D02*
G54D58*
D03*
G36*
X749617Y-124298D02*
X749617Y-104298D01*
X769617Y-104298D01*
X769617Y-124298D01*
X749617Y-124298D01*
G37*
X759618Y-88898D02*
G54D59*
D03*
X759618Y-63498D02*
G54D59*
D03*
X759618Y-38098D02*
G54D59*
D03*
X386157Y-205184D02*
G54D59*
D03*
X538557Y-205184D02*
G54D59*
D03*
X386157Y-230584D02*
G54D59*
D03*
X538557Y-255984D02*
G54D59*
D03*
X386157Y-255984D02*
G54D59*
D03*
X909741Y-37565D02*
G54D12*
D03*
X909636Y-95250D02*
G54D60*
D03*
G36*
X925036Y-82750D02*
X945036Y-82749D01*
X945036Y-107749D01*
X925036Y-107750D01*
X925036Y-82750D01*
G37*
X884236Y-95250D02*
G54D60*
D03*
G36*
X925512Y-128588D02*
X982662Y-128588D01*
X982662Y-82550D01*
X925512Y-82550D01*
X925512Y-128588D01*
G37*
G54D61*
X925512Y-128588D02*
X982662Y-128588D01*
X982662Y-82550D01*
X925512Y-82550D01*
X925512Y-128588D01*
X668732Y-71833D02*
G54D62*
D03*
X668732Y-59133D02*
G54D62*
D03*
X668733Y-46433D02*
G54D62*
D03*
X668732Y-33733D02*
G54D62*
D03*
X614733Y-33733D02*
G54D62*
D03*
X614732Y-46433D02*
G54D62*
D03*
X614732Y-59133D02*
G54D62*
D03*
X614733Y-71833D02*
G54D62*
D03*
G54D22*
X667304Y-83739D02*
X677304Y-83739D01*
G54D22*
X667304Y-98039D02*
X677304Y-98039D01*
G54D47*
X668336Y-59133D02*
X655635Y-59133D01*
X653651Y-61117D01*
X653651Y-95645D01*
X656032Y-98026D01*
X669526Y-98039D01*
G54D47*
X672561Y-83627D02*
X672305Y-83739D01*
G54D47*
X470103Y-300476D02*
X470103Y-291348D01*
X485184Y-291348D01*
X485184Y-272695D01*
X486772Y-310002D02*
G54D63*
D03*
X480184Y-310002D02*
G54D64*
D03*
X475184Y-310002D02*
G54D64*
D03*
X470184Y-310001D02*
G54D64*
D03*
X480184Y-266001D02*
G54D64*
D03*
X475184Y-266001D02*
G54D64*
D03*
X470184Y-266001D02*
G54D64*
D03*
X463753Y-310002D02*
G54D63*
D03*
X486772Y-265949D02*
G54D63*
D03*
X463753Y-265949D02*
G54D63*
D03*
X509468Y-230264D02*
G54D65*
D03*
X427712Y-230264D02*
G54D65*
D03*
G54D47*
X668732Y-71833D02*
X672304Y-83739D01*
G54D47*
X614732Y-46433D02*
X630633Y-46433D01*
X630633Y-26986D01*
X639364Y-18255D01*
X742949Y-18255D01*
X742948Y-50402D01*
X759618Y-63498D01*
G54D47*
X759618Y-38892D02*
X759617Y-12302D01*
X636983Y-12302D01*
X614733Y-34527D01*
G54D47*
X443705Y-263126D02*
X463709Y-263126D01*
G54D47*
X470295Y-275033D02*
X470295Y-281383D01*
X443705Y-288527D01*
G54D47*
X427712Y-230264D02*
X450133Y-230264D01*
X475058Y-251617D01*
X475058Y-259952D01*
G54D47*
X480217Y-259952D02*
X480217Y-251220D01*
X504427Y-231376D01*
G54D47*
X464614Y-127838D02*
X464614Y-153715D01*
X461168Y-152002D01*
G36*
X436205Y-255626D02*
X451205Y-255626D01*
X451205Y-270626D01*
X436205Y-270626D01*
X436205Y-255626D01*
G37*
X443705Y-288527D02*
G54D66*
D03*
G54D47*
X496614Y-127838D02*
X497011Y-170530D01*
X486567Y-180973D01*
X382586Y-180973D01*
X366710Y-196849D01*
X366711Y-247253D01*
X386157Y-255984D01*
G54D47*
X386157Y-205184D02*
X435768Y-205184D01*
X478233Y-205183D01*
X511174Y-172242D01*
X511174Y-113397D01*
X511114Y-113338D01*
G54D47*
X538557Y-205184D02*
X523874Y-184148D01*
X523874Y-105567D01*
X511343Y-105567D01*
X511114Y-105338D01*
G36*
X594465Y-37590D02*
X579465Y-37590D01*
X579465Y-22590D01*
X594465Y-22590D01*
X594465Y-37590D01*
G37*
X586965Y-55490D02*
G54D66*
D03*
G54D47*
X614732Y-46433D02*
X598089Y-46434D01*
X586965Y-55490D01*
G54D47*
X614733Y-33733D02*
X587290Y-29764D01*
G54D28*
X394828Y-65422D02*
X465388Y-65338D01*
X473470Y-73420D01*
X510800Y-73420D01*
G54D23*
X511114Y-73338D02*
X524667Y-73420D01*
X524667Y-89295D01*
X511114Y-89338D01*
G54D23*
X496092Y-81358D02*
X511114Y-81338D01*
G54D23*
X530620Y-97630D02*
X495298Y-97630D01*
G54D23*
X437752Y-89692D02*
X425052Y-89692D01*
X413145Y-89692D01*
G54D23*
X614733Y-71833D02*
X596502Y-71833D01*
X596502Y-113901D01*
X398040Y-69476D02*
G54D67*
D03*
X398040Y-88476D02*
G54D67*
D03*
G54D23*
X503956Y-269770D02*
X521389Y-269770D01*
X533002Y-281383D01*
X575070Y-281383D01*
X575070Y-204786D01*
X590548Y-189283D01*
X590548Y-173036D01*
X609996Y-142476D01*
X596502Y-113901D01*
G54D22*
X759618Y-88898D02*
X744536Y-92470D01*
X728339Y-109004D01*
G36*
X275412Y-56422D02*
X293412Y-56422D01*
X293412Y-74422D01*
X275412Y-74422D01*
X275412Y-56422D01*
G37*
X284412Y-40022D02*
G54D68*
D03*
X309812Y-65422D02*
G54D68*
D03*
X309812Y-40022D02*
G54D68*
D03*
X335212Y-65422D02*
G54D68*
D03*
X335212Y-40022D02*
G54D68*
D03*
X483392Y-152002D02*
G54D66*
D03*
G54D47*
X472614Y-127838D02*
X472614Y-141621D01*
X483392Y-152002D01*
G54D69*
X440614Y-42838D02*
X440904Y-29344D01*
X435767Y-24208D01*
X326230Y-24208D01*
X322658Y-27780D01*
X322658Y-46036D01*
X315911Y-52783D01*
X297052Y-52783D01*
X284412Y-65422D01*
G54D69*
X309812Y-40022D02*
X309812Y-30307D01*
X322261Y-17858D01*
X439339Y-17858D01*
X448467Y-26986D01*
X448614Y-42838D01*
G54D47*
X309812Y-65422D02*
X315911Y-61911D01*
X325039Y-52783D01*
X421956Y-52783D01*
X426114Y-56941D01*
G54D23*
X284161Y-39687D02*
X284162Y-20638D01*
X295274Y-11112D01*
X569911Y-11112D01*
X569911Y-87312D01*
X596898Y-114300D01*
G36*
X348751Y-62849D02*
X361751Y-62849D01*
X361751Y-76849D01*
X348751Y-76849D01*
X348751Y-62849D01*
G37*
X374251Y-69849D02*
G54D70*
D03*
G54D47*
X335212Y-65422D02*
X355251Y-69849D01*
G54D23*
X374251Y-69849D02*
X397642Y-69874D01*
X398040Y-69476D01*
X24376Y-119458D02*
G54D71*
D03*
X104376Y-119458D02*
G54D71*
D03*
X142080Y-119458D02*
G54D59*
D03*
X167480Y-119458D02*
G54D59*
D03*
X192880Y-119458D02*
G54D59*
D03*
X104353Y-100382D02*
G54D67*
D03*
X104353Y-81383D02*
G54D67*
D03*
G54D23*
X104377Y-119458D02*
X142080Y-119458D01*
X596502Y-113901D02*
G54D72*
D03*
G36*
X609002Y-105902D02*
X622002Y-105901D01*
X622002Y-121901D01*
X609002Y-121902D01*
X609002Y-105902D01*
G37*
G36*
X652218Y-110116D02*
X652218Y-130116D01*
X632218Y-130116D01*
X632218Y-110116D01*
X652218Y-110116D01*
G37*
X667617Y-120117D02*
G54D59*
D03*
G54D47*
X258762Y-112712D02*
X273049Y-112712D01*
X301624Y-139700D01*
X350836Y-139700D01*
X385762Y-130175D01*
X407986Y-130175D01*
X425449Y-112712D01*
X258313Y-112711D02*
G54D70*
D03*
X239313Y-112711D02*
G54D70*
D03*
X461168Y-152002D02*
G54D66*
D03*
G54D47*
X443705Y-263126D02*
X416320Y-263126D01*
X403620Y-275826D01*
X375839Y-275826D01*
X356789Y-256776D01*
X356789Y-191689D01*
X381792Y-166686D01*
X434181Y-166686D01*
X456404Y-136921D01*
X456614Y-127838D01*
X308070Y-116534D02*
G54D73*
D03*
X308070Y-97534D02*
G54D73*
D03*
X44052Y-119855D02*
G54D70*
D03*
X63051Y-119854D02*
G54D70*
D03*
X331088Y-116586D02*
G54D73*
D03*
X331087Y-97586D02*
G54D73*
D03*
G54D23*
X355599Y-115888D02*
X331786Y-115888D01*
X307974Y-115888D01*
X339698Y-175392D02*
G54D73*
D03*
X339698Y-156392D02*
G54D73*
D03*
X510356Y-272279D02*
G54D67*
D03*
X510356Y-291279D02*
G54D67*
D03*
G54D23*
X486885Y-273428D02*
X505935Y-273428D01*
G36*
X540461Y-105280D02*
X559461Y-105280D01*
X559462Y-153280D01*
X540462Y-153280D01*
X540461Y-105280D01*
G37*
X549962Y-47524D02*
G54D74*
D03*
G54D49*
X511114Y-57338D02*
X534195Y-57338D01*
X549962Y-47524D01*
G54D47*
X511114Y-65338D02*
X532460Y-65338D01*
X535915Y-75702D01*
X546892Y-85723D01*
X550067Y-129175D01*
X549962Y-129280D01*
X355296Y-116585D02*
G54D67*
D03*
X355296Y-97585D02*
G54D67*
D03*
X609996Y-142476D02*
G54D72*
D03*
X590997Y-142476D02*
G54D72*
D03*
G54D52*
X293216Y-159867D02*
X279073Y-145725D01*
X316707Y-156367D02*
G54D73*
D03*
X316707Y-175367D02*
G54D73*
D03*
X339724Y-196900D02*
G54D73*
D03*
X339724Y-215899D02*
G54D73*
D03*
X315911Y-196898D02*
G54D67*
D03*
X315911Y-215898D02*
G54D67*
D03*
X968374Y-95250D02*
G54D45*
D03*
X286145Y-97232D02*
G54D45*
D03*
G54D47*
X339724Y-196900D02*
X339698Y-175392D01*
G54D47*
X339724Y-196900D02*
X316281Y-197268D01*
X315911Y-196898D01*
X315916Y-176158D01*
X316707Y-175367D01*
G54D47*
X316707Y-156367D02*
X293288Y-154780D01*
G54D23*
X286145Y-97232D02*
X308070Y-97534D01*
X338533Y-289320D02*
G54D75*
D03*
G54D47*
X463945Y-304402D02*
X411558Y-304402D01*
X399254Y-291701D01*
X338533Y-291701D01*
X605630Y-308370D02*
G54D76*
D03*
G54D47*
X486964Y-308370D02*
X605233Y-308370D01*
X606820Y-309958D01*
G54D49*
X339723Y-156366D02*
X355995Y-156366D01*
X378220Y-148032D01*
X420289Y-148032D01*
X440530Y-127792D01*
G54D47*
X239712Y-112712D02*
X222249Y-112712D01*
X207962Y-98425D01*
X179386Y-98425D01*
X166686Y-111125D01*
X166686Y-119062D01*
G36*
X231975Y-96672D02*
X231975Y-78672D01*
X249975Y-78672D01*
X249975Y-96672D01*
X231975Y-96672D01*
G37*
X240975Y-62272D02*
G54D68*
D03*
X240975Y-36872D02*
G54D68*
D03*
G54D23*
X240975Y-36872D02*
X284412Y-36847D01*
G54D23*
X240975Y-62272D02*
X284412Y-62247D01*
X704547Y-54277D02*
G54D73*
D03*
X704547Y-35277D02*
G54D73*
D03*
X704574Y-99493D02*
G54D73*
D03*
X704574Y-80493D02*
G54D73*
D03*
G54D47*
X668733Y-46433D02*
X687833Y-46433D01*
X704547Y-54277D01*
X728758Y-56655D02*
G54D73*
D03*
X728758Y-75655D02*
G54D73*
D03*
G54D47*
X704574Y-99493D02*
X667617Y-120117D01*
G54D47*
X704574Y-80493D02*
X704547Y-54277D01*
X728339Y-32805D02*
G54D59*
D03*
X728339Y-109004D02*
G54D59*
D03*
G54D47*
X704574Y-99493D02*
X722708Y-90883D01*
X727942Y-76472D01*
G54D23*
X728361Y-56655D02*
X728361Y-32827D01*
G36*
X982662Y-9525D02*
X777874Y-9525D01*
X773112Y-15875D01*
X773112Y-69850D01*
X761999Y-80962D01*
X761999Y-96838D01*
X787399Y-96838D01*
X803274Y-82550D01*
X803274Y-39688D01*
X815974Y-25400D01*
X850899Y-25400D01*
X863599Y-38100D01*
X863599Y-77788D01*
X982662Y-77788D01*
X982662Y-9525D01*
G37*
G54D61*
X982662Y-9525D02*
X777874Y-9525D01*
X773112Y-15875D01*
X773112Y-69850D01*
X761999Y-80962D01*
X761999Y-96838D01*
X787399Y-96838D01*
X803274Y-82550D01*
X803274Y-39688D01*
X815974Y-25400D01*
X850899Y-25400D01*
X863599Y-38100D01*
X863599Y-77788D01*
X982662Y-77788D01*
X982662Y-9525D01*
X590548Y-243283D02*
G54D77*
D03*
X603249Y-243283D02*
G54D77*
D03*
X615948Y-243283D02*
G54D77*
D03*
G36*
X625148Y-232282D02*
X632148Y-232282D01*
X632150Y-254282D01*
X625150Y-254282D01*
X625148Y-232282D01*
G37*
X628648Y-189283D02*
G54D77*
D03*
G36*
X612448Y-178283D02*
X619448Y-178282D01*
X619449Y-200282D01*
X612449Y-200283D01*
X612448Y-178283D01*
G37*
X603248Y-189283D02*
G54D77*
D03*
G36*
X587048Y-178283D02*
X594048Y-178283D01*
X594049Y-200283D01*
X587049Y-200283D01*
X587048Y-178283D01*
G37*
G36*
X633680Y-171564D02*
X633680Y-156564D01*
X648680Y-156564D01*
X648680Y-171564D01*
X633680Y-171564D01*
G37*
X615780Y-164064D02*
G54D66*
D03*
G54D47*
X628648Y-189283D02*
X641180Y-164064D01*
G54D47*
X615948Y-189283D02*
X615780Y-164064D01*
X417114Y-39686D02*
G54D45*
D03*
X555623Y-323848D02*
G54D45*
D03*
X314323Y-316704D02*
G54D45*
D03*
X642142Y-101598D02*
G54D45*
D03*
X573483Y-175020D02*
G54D45*
D03*
G36*
X374101Y-104918D02*
X387101Y-104918D01*
X387102Y-118918D01*
X374102Y-118918D01*
X374101Y-104918D01*
G37*
X399601Y-111918D02*
G54D70*
D03*
G54D23*
X355296Y-116585D02*
X375935Y-116585D01*
X380601Y-111918D01*
G54D49*
X399601Y-111918D02*
X409572Y-111918D01*
X415923Y-105568D01*
X425884Y-105568D01*
X426114Y-105338D01*
G54D49*
X480217Y-73420D02*
X519111Y-34924D01*
X519110Y-10714D01*
G36*
X473470Y-73420D02*
X465785Y-65735D01*
X465785Y-59277D01*
X467120Y-57942D01*
X496488Y-57942D01*
X496488Y-69848D01*
X500061Y-73420D01*
X473470Y-73420D01*
G37*
G54D47*
X473470Y-73420D02*
X465785Y-65735D01*
X465785Y-59277D01*
X467120Y-57942D01*
X496488Y-57942D01*
X496488Y-69848D01*
X500061Y-73420D01*
X473470Y-73420D01*
X391689Y-318714D02*
G54D72*
D03*
X372690Y-318714D02*
G54D72*
D03*
G36*
X407835Y-314071D02*
X420835Y-314071D01*
X420835Y-328071D01*
X407835Y-328071D01*
X407835Y-314071D01*
G37*
X433335Y-321071D02*
G54D70*
D03*
G54D47*
X414335Y-321071D02*
X391689Y-318714D01*
G54D47*
X433335Y-321071D02*
X445689Y-321071D01*
X453229Y-328611D01*
X478629Y-328611D01*
X480216Y-327024D01*
X480216Y-317499D01*
G36*
X486963Y-273446D02*
X510379Y-273446D01*
X510379Y-266699D01*
X501251Y-257571D01*
X486963Y-257571D01*
X486963Y-273446D01*
G37*
G54D47*
X486963Y-273446D02*
X510379Y-273446D01*
X510379Y-266699D01*
X501251Y-257571D01*
X486963Y-257571D01*
X486963Y-273446D01*
G36*
X522535Y-168210D02*
X535535Y-168210D01*
X535536Y-184210D01*
X522536Y-184210D01*
X522535Y-168210D01*
G37*
X548035Y-176210D02*
G54D72*
D03*
G36*
X484435Y-190435D02*
X497435Y-190435D01*
X497436Y-206435D01*
X484436Y-206435D01*
X484435Y-190435D01*
G37*
X509935Y-198435D02*
G54D72*
D03*
X366266Y-245267D02*
G54D72*
D03*
X347266Y-245267D02*
G54D72*
D03*
G54D28*
X686989Y-71832D02*
X671908Y-71832D01*
G54D28*
X590549Y-240504D02*
X590549Y-225422D01*
G54D36*
X610393Y-144064D02*
X668733Y-144064D01*
X728339Y-109004D01*
G54D47*
X500854Y-257570D02*
X506411Y-252013D01*
G36*
X519614Y-114338D02*
X517614Y-116338D01*
X506614Y-116338D01*
X505614Y-115338D01*
X505614Y-111338D01*
X506614Y-110338D01*
X517614Y-110338D01*
X519614Y-112338D01*
X519614Y-114338D01*
G37*
G54D78*
X519614Y-114338D02*
X517614Y-116338D01*
X506614Y-116338D01*
X505614Y-115338D01*
X505614Y-111338D01*
X506614Y-110338D01*
X517614Y-110338D01*
X519614Y-112338D01*
X519614Y-114338D01*
G36*
X519614Y-106338D02*
X517614Y-108338D01*
X506614Y-108338D01*
X505614Y-107338D01*
X505614Y-103338D01*
X506614Y-102338D01*
X517614Y-102338D01*
X519614Y-104338D01*
X519614Y-106338D01*
G37*
G54D78*
X519614Y-106338D02*
X517614Y-108338D01*
X506614Y-108338D01*
X505614Y-107338D01*
X505614Y-103338D01*
X506614Y-102338D01*
X517614Y-102338D01*
X519614Y-104338D01*
X519614Y-106338D01*
X511114Y-113338D02*
G54D79*
D03*
X511114Y-105338D02*
G54D79*
D03*
G36*
X519614Y-98338D02*
X517614Y-100338D01*
X506614Y-100338D01*
X505614Y-99338D01*
X505614Y-95338D01*
X506614Y-94338D01*
X517614Y-94338D01*
X519614Y-96338D01*
X519614Y-98338D01*
G37*
G54D78*
X519614Y-98338D02*
X517614Y-100338D01*
X506614Y-100338D01*
X505614Y-99338D01*
X505614Y-95338D01*
X506614Y-94338D01*
X517614Y-94338D01*
X519614Y-96338D01*
X519614Y-98338D01*
G36*
X519614Y-90338D02*
X517614Y-92338D01*
X506614Y-92338D01*
X505614Y-91338D01*
X505614Y-87338D01*
X506614Y-86338D01*
X517614Y-86338D01*
X519614Y-88338D01*
X519614Y-90338D01*
G37*
G54D78*
X519614Y-90338D02*
X517614Y-92338D01*
X506614Y-92338D01*
X505614Y-91338D01*
X505614Y-87338D01*
X506614Y-86338D01*
X517614Y-86338D01*
X519614Y-88338D01*
X519614Y-90338D01*
X511114Y-97338D02*
G54D79*
D03*
X511114Y-89338D02*
G54D79*
D03*
G36*
X519614Y-82338D02*
X517614Y-84338D01*
X506614Y-84338D01*
X505614Y-83338D01*
X505614Y-79338D01*
X506614Y-78338D01*
X517614Y-78338D01*
X519614Y-80338D01*
X519614Y-82338D01*
G37*
G54D78*
X519614Y-82338D02*
X517614Y-84338D01*
X506614Y-84338D01*
X505614Y-83338D01*
X505614Y-79338D01*
X506614Y-78338D01*
X517614Y-78338D01*
X519614Y-80338D01*
X519614Y-82338D01*
G36*
X519614Y-74338D02*
X517614Y-76338D01*
X506614Y-76338D01*
X505614Y-75338D01*
X505614Y-71338D01*
X506614Y-70338D01*
X517614Y-70338D01*
X519614Y-72338D01*
X519614Y-74338D01*
G37*
G54D78*
X519614Y-74338D02*
X517614Y-76338D01*
X506614Y-76338D01*
X505614Y-75338D01*
X505614Y-71338D01*
X506614Y-70338D01*
X517614Y-70338D01*
X519614Y-72338D01*
X519614Y-74338D01*
X511114Y-81338D02*
G54D79*
D03*
X511114Y-73338D02*
G54D79*
D03*
G36*
X519614Y-66338D02*
X517614Y-68338D01*
X506614Y-68338D01*
X505614Y-67338D01*
X505614Y-63338D01*
X506614Y-62338D01*
X517614Y-62338D01*
X519614Y-64338D01*
X519614Y-66338D01*
G37*
G54D78*
X519614Y-66338D02*
X517614Y-68338D01*
X506614Y-68338D01*
X505614Y-67338D01*
X505614Y-63338D01*
X506614Y-62338D01*
X517614Y-62338D01*
X519614Y-64338D01*
X519614Y-66338D01*
G36*
X519614Y-58338D02*
X517614Y-60338D01*
X506614Y-60338D01*
X505614Y-59338D01*
X505614Y-55338D01*
X506614Y-54338D01*
X517614Y-54338D01*
X519614Y-56338D01*
X519614Y-58338D01*
G37*
G54D78*
X519614Y-58338D02*
X517614Y-60338D01*
X506614Y-60338D01*
X505614Y-59338D01*
X505614Y-55338D01*
X506614Y-54338D01*
X517614Y-54338D01*
X519614Y-56338D01*
X519614Y-58338D01*
X511114Y-65338D02*
G54D79*
D03*
X511114Y-57338D02*
G54D79*
D03*
G36*
X439614Y-136338D02*
X437614Y-134338D01*
X437614Y-123338D01*
X438614Y-122338D01*
X442614Y-122338D01*
X443614Y-123338D01*
X443614Y-134338D01*
X441614Y-136338D01*
X439614Y-136338D01*
G37*
G54D78*
X439614Y-136338D02*
X437614Y-134338D01*
X437614Y-123338D01*
X438614Y-122338D01*
X442614Y-122338D01*
X443614Y-123338D01*
X443614Y-134338D01*
X441614Y-136338D01*
X439614Y-136338D01*
G36*
X447614Y-136338D02*
X445614Y-134338D01*
X445614Y-123338D01*
X446614Y-122338D01*
X450614Y-122338D01*
X451614Y-123338D01*
X451614Y-134338D01*
X449614Y-136338D01*
X447614Y-136338D01*
G37*
G54D78*
X447614Y-136338D02*
X445614Y-134338D01*
X445614Y-123338D01*
X446614Y-122338D01*
X450614Y-122338D01*
X451614Y-123338D01*
X451614Y-134338D01*
X449614Y-136338D01*
X447614Y-136338D01*
X440614Y-127838D02*
G54D79*
D03*
X448614Y-127838D02*
G54D79*
D03*
G36*
X455614Y-136338D02*
X453614Y-134338D01*
X453614Y-123338D01*
X454614Y-122338D01*
X458614Y-122338D01*
X459614Y-123338D01*
X459614Y-134338D01*
X457614Y-136338D01*
X455614Y-136338D01*
G37*
G54D78*
X455614Y-136338D02*
X453614Y-134338D01*
X453614Y-123338D01*
X454614Y-122338D01*
X458614Y-122338D01*
X459614Y-123338D01*
X459614Y-134338D01*
X457614Y-136338D01*
X455614Y-136338D01*
G36*
X463614Y-136338D02*
X461614Y-134338D01*
X461614Y-123338D01*
X462614Y-122338D01*
X466614Y-122338D01*
X467614Y-123338D01*
X467614Y-134338D01*
X465614Y-136338D01*
X463614Y-136338D01*
G37*
G54D78*
X463614Y-136338D02*
X461614Y-134338D01*
X461614Y-123338D01*
X462614Y-122338D01*
X466614Y-122338D01*
X467614Y-123338D01*
X467614Y-134338D01*
X465614Y-136338D01*
X463614Y-136338D01*
X456614Y-127838D02*
G54D79*
D03*
X464614Y-127838D02*
G54D79*
D03*
G36*
X471614Y-136338D02*
X469614Y-134338D01*
X469614Y-123338D01*
X470614Y-122338D01*
X474614Y-122338D01*
X475614Y-123338D01*
X475614Y-134338D01*
X473614Y-136338D01*
X471614Y-136338D01*
G37*
G54D78*
X471614Y-136338D02*
X469614Y-134338D01*
X469614Y-123338D01*
X470614Y-122338D01*
X474614Y-122338D01*
X475614Y-123338D01*
X475614Y-134338D01*
X473614Y-136338D01*
X471614Y-136338D01*
G36*
X479614Y-136338D02*
X477614Y-134338D01*
X477614Y-123338D01*
X478614Y-122338D01*
X482614Y-122338D01*
X483614Y-123338D01*
X483614Y-134338D01*
X481614Y-136338D01*
X479614Y-136338D01*
G37*
G54D78*
X479614Y-136338D02*
X477614Y-134338D01*
X477614Y-123338D01*
X478614Y-122338D01*
X482614Y-122338D01*
X483614Y-123338D01*
X483614Y-134338D01*
X481614Y-136338D01*
X479614Y-136338D01*
X472614Y-127838D02*
G54D79*
D03*
X480614Y-127838D02*
G54D79*
D03*
G36*
X487614Y-136338D02*
X485614Y-134338D01*
X485614Y-123338D01*
X486614Y-122338D01*
X490614Y-122338D01*
X491614Y-123338D01*
X491614Y-134338D01*
X489614Y-136338D01*
X487614Y-136338D01*
G37*
G54D78*
X487614Y-136338D02*
X485614Y-134338D01*
X485614Y-123338D01*
X486614Y-122338D01*
X490614Y-122338D01*
X491614Y-123338D01*
X491614Y-134338D01*
X489614Y-136338D01*
X487614Y-136338D01*
G36*
X495614Y-136338D02*
X493614Y-134338D01*
X493614Y-123338D01*
X494614Y-122338D01*
X498614Y-122338D01*
X499614Y-123338D01*
X499614Y-134338D01*
X497614Y-136338D01*
X495614Y-136338D01*
G37*
G54D78*
X495614Y-136338D02*
X493614Y-134338D01*
X493614Y-123338D01*
X494614Y-122338D01*
X498614Y-122338D01*
X499614Y-123338D01*
X499614Y-134338D01*
X497614Y-136338D01*
X495614Y-136338D01*
X488614Y-127838D02*
G54D79*
D03*
X496614Y-127838D02*
G54D79*
D03*
G36*
X417614Y-56338D02*
X419614Y-54338D01*
X430614Y-54338D01*
X431614Y-55338D01*
X431614Y-59338D01*
X430614Y-60338D01*
X419614Y-60338D01*
X417614Y-58338D01*
X417614Y-56338D01*
G37*
G54D78*
X417614Y-56338D02*
X419614Y-54338D01*
X430614Y-54338D01*
X431614Y-55338D01*
X431614Y-59338D01*
X430614Y-60338D01*
X419614Y-60338D01*
X417614Y-58338D01*
X417614Y-56338D01*
G36*
X417614Y-64338D02*
X419614Y-62338D01*
X430614Y-62338D01*
X431614Y-63338D01*
X431614Y-67338D01*
X430614Y-68338D01*
X419614Y-68338D01*
X417614Y-66338D01*
X417614Y-64338D01*
G37*
G54D78*
X417614Y-64338D02*
X419614Y-62338D01*
X430614Y-62338D01*
X431614Y-63338D01*
X431614Y-67338D01*
X430614Y-68338D01*
X419614Y-68338D01*
X417614Y-66338D01*
X417614Y-64338D01*
G36*
X423614Y-54838D02*
X428614Y-54838D01*
X428614Y-59838D01*
X423614Y-59838D01*
X423614Y-54838D01*
G37*
G36*
X423614Y-62838D02*
X428614Y-62838D01*
X428614Y-67838D01*
X423614Y-67838D01*
X423614Y-62838D01*
G37*
G36*
X417614Y-72338D02*
X419614Y-70338D01*
X430614Y-70338D01*
X431614Y-71338D01*
X431614Y-75338D01*
X430614Y-76338D01*
X419614Y-76338D01*
X417614Y-74338D01*
X417614Y-72338D01*
G37*
G54D78*
X417614Y-72338D02*
X419614Y-70338D01*
X430614Y-70338D01*
X431614Y-71338D01*
X431614Y-75338D01*
X430614Y-76338D01*
X419614Y-76338D01*
X417614Y-74338D01*
X417614Y-72338D01*
G36*
X417614Y-80338D02*
X419614Y-78338D01*
X430614Y-78338D01*
X431614Y-79338D01*
X431614Y-83338D01*
X430614Y-84338D01*
X419614Y-84338D01*
X417614Y-82338D01*
X417614Y-80338D01*
G37*
G54D78*
X417614Y-80338D02*
X419614Y-78338D01*
X430614Y-78338D01*
X431614Y-79338D01*
X431614Y-83338D01*
X430614Y-84338D01*
X419614Y-84338D01*
X417614Y-82338D01*
X417614Y-80338D01*
X426114Y-73338D02*
G54D79*
D03*
X426114Y-81338D02*
G54D79*
D03*
G36*
X417614Y-88338D02*
X419614Y-86338D01*
X430614Y-86338D01*
X431614Y-87338D01*
X431614Y-91338D01*
X430614Y-92338D01*
X419614Y-92338D01*
X417614Y-90338D01*
X417614Y-88338D01*
G37*
G54D78*
X417614Y-88338D02*
X419614Y-86338D01*
X430614Y-86338D01*
X431614Y-87338D01*
X431614Y-91338D01*
X430614Y-92338D01*
X419614Y-92338D01*
X417614Y-90338D01*
X417614Y-88338D01*
G36*
X417614Y-96338D02*
X419614Y-94338D01*
X430614Y-94338D01*
X431614Y-95338D01*
X431614Y-99338D01*
X430614Y-100338D01*
X419614Y-100338D01*
X417614Y-98338D01*
X417614Y-96338D01*
G37*
G54D78*
X417614Y-96338D02*
X419614Y-94338D01*
X430614Y-94338D01*
X431614Y-95338D01*
X431614Y-99338D01*
X430614Y-100338D01*
X419614Y-100338D01*
X417614Y-98338D01*
X417614Y-96338D01*
X426114Y-89338D02*
G54D79*
D03*
X426114Y-97338D02*
G54D79*
D03*
G36*
X417614Y-104338D02*
X419614Y-102338D01*
X430614Y-102338D01*
X431614Y-103338D01*
X431614Y-107338D01*
X430614Y-108338D01*
X419614Y-108338D01*
X417614Y-106338D01*
X417614Y-104338D01*
G37*
G54D78*
X417614Y-104338D02*
X419614Y-102338D01*
X430614Y-102338D01*
X431614Y-103338D01*
X431614Y-107338D01*
X430614Y-108338D01*
X419614Y-108338D01*
X417614Y-106338D01*
X417614Y-104338D01*
G36*
X417614Y-112338D02*
X419614Y-110338D01*
X430614Y-110338D01*
X431614Y-111338D01*
X431614Y-115338D01*
X430614Y-116338D01*
X419614Y-116338D01*
X417614Y-114338D01*
X417614Y-112338D01*
G37*
G54D78*
X417614Y-112338D02*
X419614Y-110338D01*
X430614Y-110338D01*
X431614Y-111338D01*
X431614Y-115338D01*
X430614Y-116338D01*
X419614Y-116338D01*
X417614Y-114338D01*
X417614Y-112338D01*
G36*
X423614Y-102838D02*
X428614Y-102838D01*
X428614Y-107838D01*
X423614Y-107838D01*
X423614Y-102838D01*
G37*
X426114Y-113338D02*
G54D79*
D03*
G36*
X497614Y-34338D02*
X499614Y-36338D01*
X499614Y-47338D01*
X498614Y-48338D01*
X494614Y-48338D01*
X493614Y-47338D01*
X493614Y-36338D01*
X495614Y-34338D01*
X497614Y-34338D01*
G37*
G54D78*
X497614Y-34338D02*
X499614Y-36338D01*
X499614Y-47338D01*
X498614Y-48338D01*
X494614Y-48338D01*
X493614Y-47338D01*
X493614Y-36338D01*
X495614Y-34338D01*
X497614Y-34338D01*
G36*
X489614Y-34338D02*
X491614Y-36338D01*
X491614Y-47338D01*
X490614Y-48338D01*
X486614Y-48338D01*
X485614Y-47338D01*
X485614Y-36338D01*
X487614Y-34338D01*
X489614Y-34338D01*
G37*
G54D78*
X489614Y-34338D02*
X491614Y-36338D01*
X491614Y-47338D01*
X490614Y-48338D01*
X486614Y-48338D01*
X485614Y-47338D01*
X485614Y-36338D01*
X487614Y-34338D01*
X489614Y-34338D01*
X496614Y-42838D02*
G54D79*
D03*
X488614Y-42838D02*
G54D79*
D03*
G36*
X481614Y-34338D02*
X483614Y-36338D01*
X483614Y-47338D01*
X482614Y-48338D01*
X478614Y-48338D01*
X477614Y-47338D01*
X477614Y-36338D01*
X479614Y-34338D01*
X481614Y-34338D01*
G37*
G54D78*
X481614Y-34338D02*
X483614Y-36338D01*
X483614Y-47338D01*
X482614Y-48338D01*
X478614Y-48338D01*
X477614Y-47338D01*
X477614Y-36338D01*
X479614Y-34338D01*
X481614Y-34338D01*
G36*
X473614Y-34338D02*
X475614Y-36338D01*
X475614Y-47338D01*
X474614Y-48338D01*
X470614Y-48338D01*
X469614Y-47338D01*
X469614Y-36338D01*
X471614Y-34338D01*
X473614Y-34338D01*
G37*
G54D78*
X473614Y-34338D02*
X475614Y-36338D01*
X475614Y-47338D01*
X474614Y-48338D01*
X470614Y-48338D01*
X469614Y-47338D01*
X469614Y-36338D01*
X471614Y-34338D01*
X473614Y-34338D01*
X480614Y-42838D02*
G54D79*
D03*
X472614Y-42838D02*
G54D79*
D03*
G36*
X465614Y-34338D02*
X467614Y-36338D01*
X467614Y-47338D01*
X466614Y-48338D01*
X462614Y-48338D01*
X461614Y-47338D01*
X461614Y-36338D01*
X463614Y-34338D01*
X465614Y-34338D01*
G37*
G54D78*
X465614Y-34338D02*
X467614Y-36338D01*
X467614Y-47338D01*
X466614Y-48338D01*
X462614Y-48338D01*
X461614Y-47338D01*
X461614Y-36338D01*
X463614Y-34338D01*
X465614Y-34338D01*
G36*
X457614Y-34338D02*
X459614Y-36338D01*
X459614Y-47338D01*
X458614Y-48338D01*
X454614Y-48338D01*
X453614Y-47338D01*
X453614Y-36338D01*
X455614Y-34338D01*
X457614Y-34338D01*
G37*
G54D78*
X457614Y-34338D02*
X459614Y-36338D01*
X459614Y-47338D01*
X458614Y-48338D01*
X454614Y-48338D01*
X453614Y-47338D01*
X453614Y-36338D01*
X455614Y-34338D01*
X457614Y-34338D01*
X464614Y-42838D02*
G54D79*
D03*
X456614Y-42838D02*
G54D79*
D03*
G36*
X449614Y-34338D02*
X451614Y-36338D01*
X451614Y-47338D01*
X450614Y-48338D01*
X446614Y-48338D01*
X445614Y-47338D01*
X445614Y-36338D01*
X447614Y-34338D01*
X449614Y-34338D01*
G37*
G54D78*
X449614Y-34338D02*
X451614Y-36338D01*
X451614Y-47338D01*
X450614Y-48338D01*
X446614Y-48338D01*
X445614Y-47338D01*
X445614Y-36338D01*
X447614Y-34338D01*
X449614Y-34338D01*
G36*
X441614Y-34338D02*
X443614Y-36338D01*
X443614Y-47338D01*
X442614Y-48338D01*
X438614Y-48338D01*
X437614Y-47338D01*
X437614Y-36338D01*
X439614Y-34338D01*
X441614Y-34338D01*
G37*
G54D78*
X441614Y-34338D02*
X443614Y-36338D01*
X443614Y-47338D01*
X442614Y-48338D01*
X438614Y-48338D01*
X437614Y-47338D01*
X437614Y-36338D01*
X439614Y-34338D01*
X441614Y-34338D01*
X448614Y-42838D02*
G54D79*
D03*
X440614Y-42838D02*
G54D79*
D03*
G36*
X893761Y-82550D02*
X863598Y-82550D01*
X863598Y-128587D01*
X893761Y-128587D01*
X893761Y-82550D01*
G37*
G54D61*
X893761Y-82550D02*
X863598Y-82550D01*
X863598Y-128587D01*
X893761Y-128587D01*
X893761Y-82550D01*
G36*
X900112Y-128588D02*
X900112Y-69850D01*
X919162Y-69850D01*
X919162Y-128588D01*
X900112Y-128588D01*
G37*
G54D61*
X900112Y-128588D02*
X900112Y-69850D01*
X919162Y-69850D01*
X919162Y-128588D01*
X900112Y-128588D01*
X284162Y-20638D02*
G54D72*
D03*
X265162Y-20637D02*
G54D72*
D03*
X263101Y-60298D02*
G54D73*
D03*
X263101Y-41298D02*
G54D73*
D03*
M02*
