%FSLAX34Y34*%
%MOMM*%
%LNCOPPER_BOTTOM*%
G71*
G01*
%ADD10C, 5.000*%
%ADD11C, 5.200*%
%ADD12C, 2.400*%
%ADD13C, 2.400*%
%ADD14C, 1.900*%
%ADD15C, 0.900*%
%ADD16C, 2.200*%
%ADD17C, 1.680*%
%ADD18C, 0.700*%
%ADD19C, 1.280*%
%ADD20C, 1.280*%
%ADD21C, 0.200*%
%ADD22C, 0.667*%
%ADD23C, 0.600*%
%ADD24C, 0.433*%
%ADD25C, 2.000*%
%ADD26C, 2.000*%
%ADD27C, 1.500*%
%ADD28C, 0.500*%
%ADD29C, 1.800*%
%ADD30C, 0.300*%
%LPD*%
G36*
X792Y-396D02*
X982792Y-396D01*
X982792Y-331396D01*
X792Y-331396D01*
X792Y-396D01*
G37*
%LPC*%
X46036Y-49608D02*
G54D10*
D03*
X827085Y-49608D02*
G54D11*
D03*
G36*
X743251Y-121535D02*
X743251Y-97535D01*
X767251Y-97535D01*
X767251Y-121535D01*
X743251Y-121535D01*
G37*
X755252Y-84136D02*
G54D12*
D03*
X755252Y-58736D02*
G54D12*
D03*
X755252Y-33336D02*
G54D12*
D03*
X385760Y-200421D02*
G54D13*
D03*
X538160Y-200421D02*
G54D13*
D03*
X385760Y-225821D02*
G54D13*
D03*
X538161Y-251221D02*
G54D13*
D03*
X385760Y-251221D02*
G54D13*
D03*
G36*
X425872Y-249262D02*
X444872Y-249262D01*
X444872Y-268262D01*
X425872Y-268262D01*
X425872Y-249262D01*
G37*
X435372Y-284163D02*
G54D14*
D03*
G36*
X592099Y-34827D02*
X573099Y-34827D01*
X573099Y-15827D01*
X592099Y-15827D01*
X592099Y-34827D01*
G37*
X582599Y-50727D02*
G54D14*
D03*
G54D15*
X435372Y-284163D02*
X413542Y-270270D01*
X413542Y-193674D01*
X456802Y-147239D01*
G54D15*
X456802Y-147239D02*
X475058Y-166686D01*
X502839Y-166686D01*
X581817Y-83342D01*
X582214Y-51112D01*
X582599Y-50727D01*
G54D15*
X435372Y-258762D02*
X603645Y-80167D01*
X603645Y-30102D01*
X582599Y-25327D01*
G36*
X269046Y-49660D02*
X291046Y-49660D01*
X291046Y-71660D01*
X269046Y-71660D01*
X269046Y-49660D01*
G37*
X280046Y-35260D02*
G54D16*
D03*
X305446Y-60660D02*
G54D16*
D03*
X305446Y-35260D02*
G54D16*
D03*
X330846Y-60660D02*
G54D16*
D03*
X330847Y-35260D02*
G54D16*
D03*
X479026Y-147239D02*
G54D14*
D03*
X137714Y-114695D02*
G54D12*
D03*
X163114Y-114695D02*
G54D12*
D03*
X188515Y-114695D02*
G54D12*
D03*
G36*
X648661Y-95416D02*
X648661Y-119416D01*
X624661Y-119416D01*
X624661Y-95416D01*
X648661Y-95416D01*
G37*
X662061Y-107417D02*
G54D12*
D03*
X456802Y-147239D02*
G54D14*
D03*
X964008Y-90487D02*
G54D17*
D03*
G54D18*
X278208Y-92074D02*
X259555Y-71834D01*
X259555Y-21828D01*
X272255Y-9128D01*
X603248Y-9524D01*
X614361Y-14287D01*
X964008Y-14684D01*
X964008Y-90487D01*
X278604Y-90882D02*
G54D14*
D03*
G54D15*
X330846Y-60660D02*
X382984Y-60722D01*
X478964Y-131807D01*
X479026Y-147239D01*
G36*
X225609Y-93910D02*
X225609Y-71910D01*
X247609Y-71910D01*
X247609Y-93910D01*
X225609Y-93910D01*
G37*
X236609Y-57509D02*
G54D16*
D03*
X236609Y-32109D02*
G54D16*
D03*
X723974Y-28042D02*
G54D12*
D03*
X723973Y-104242D02*
G54D12*
D03*
G36*
X627314Y-168802D02*
X627314Y-149802D01*
X646314Y-149802D01*
X646314Y-168802D01*
X627314Y-168802D01*
G37*
X611414Y-159302D02*
G54D14*
D03*
G54D15*
X611414Y-159302D02*
X611414Y-253770D01*
X581420Y-283764D01*
X435769Y-283766D01*
X435372Y-284163D01*
G54D15*
X603645Y-80167D02*
X603645Y-100804D01*
X636983Y-159542D01*
X412748Y-34526D02*
G54D19*
D03*
X631823Y-321467D02*
G54D19*
D03*
X303211Y-320276D02*
G54D19*
D03*
X638967Y-83342D02*
G54D19*
D03*
X569117Y-170258D02*
G54D19*
D03*
X474661Y-101201D02*
G54D19*
D03*
G36*
X467122Y-73422D02*
X467122Y-57944D01*
X496491Y-57944D01*
X496491Y-75406D01*
X485775Y-75406D01*
X477441Y-83741D01*
X467122Y-73422D01*
G37*
G54D18*
X467122Y-73422D02*
X467122Y-57944D01*
X496491Y-57944D01*
X496491Y-75406D01*
X485775Y-75406D01*
X477441Y-83741D01*
X467122Y-73422D01*
G36*
X484632Y-71662D02*
X472611Y-83682D01*
X458469Y-69540D01*
X470490Y-57519D01*
X484632Y-71662D01*
G37*
G36*
X471197Y-85096D02*
X459177Y-97117D01*
X445034Y-82975D01*
X457055Y-70954D01*
X471197Y-85096D01*
G37*
X485773Y-60720D02*
G54D19*
D03*
X538160Y-198832D02*
G54D20*
D03*
X538160Y-202404D02*
G54D20*
D03*
X538160Y-249632D02*
G54D20*
D03*
X538160Y-253204D02*
G54D20*
D03*
X385760Y-198832D02*
G54D20*
D03*
X385760Y-202404D02*
G54D20*
D03*
X385760Y-224232D02*
G54D20*
D03*
X385760Y-227804D02*
G54D20*
D03*
X385760Y-249235D02*
G54D20*
D03*
X385760Y-252807D02*
G54D20*
D03*
G36*
X985439Y-138112D02*
X985441Y-331391D01*
X641747Y-331788D01*
X641747Y-219869D01*
X644128Y-205184D01*
X648494Y-191294D01*
X655638Y-178197D01*
X668734Y-162719D01*
X678259Y-154384D01*
X696912Y-144859D01*
X710803Y-140891D01*
X726678Y-138112D01*
X985439Y-138112D01*
G37*
G54D21*
X985439Y-138112D02*
X985441Y-331391D01*
X641747Y-331788D01*
X641747Y-219869D01*
X644128Y-205184D01*
X648494Y-191294D01*
X655638Y-178197D01*
X668734Y-162719D01*
X678259Y-154384D01*
X696912Y-144859D01*
X710803Y-140891D01*
X726678Y-138112D01*
X985439Y-138112D01*
G36*
X1588Y-136525D02*
X1588Y-330597D01*
X291306Y-330200D01*
X291306Y-218281D01*
X288925Y-203597D01*
X284559Y-189706D01*
X277416Y-176609D01*
X264319Y-161131D01*
X254794Y-152797D01*
X236141Y-143272D01*
X222250Y-139303D01*
X206375Y-136525D01*
X1588Y-136525D01*
G37*
G54D21*
X1588Y-136525D02*
X1588Y-330597D01*
X291306Y-330200D01*
X291306Y-218281D01*
X288925Y-203597D01*
X284559Y-189706D01*
X277416Y-176609D01*
X264319Y-161131D01*
X254794Y-152797D01*
X236141Y-143272D01*
X222250Y-139303D01*
X206375Y-136525D01*
X1588Y-136525D01*
%LPD*%
G54D22*
G36*
X755251Y-112869D02*
X742751Y-112869D01*
X742751Y-106202D01*
X755251Y-106202D01*
X755251Y-112869D01*
G37*
G36*
X755251Y-106202D02*
X767751Y-106202D01*
X767751Y-112869D01*
X755251Y-112869D01*
X755251Y-106202D01*
G37*
G36*
X758585Y-109535D02*
X758585Y-122035D01*
X751918Y-122035D01*
X751918Y-109535D01*
X758585Y-109535D01*
G37*
G54D22*
G36*
X385760Y-222488D02*
X398260Y-222488D01*
X398260Y-229154D01*
X385760Y-229154D01*
X385760Y-222488D01*
G37*
G36*
X385760Y-229154D02*
X373260Y-229154D01*
X373260Y-222488D01*
X385760Y-222488D01*
X385760Y-229154D01*
G37*
G54D22*
G36*
X538161Y-247888D02*
X550661Y-247888D01*
X550661Y-254554D01*
X538161Y-254554D01*
X538161Y-247888D01*
G37*
G36*
X541494Y-251221D02*
X541494Y-263721D01*
X534827Y-263721D01*
X534827Y-251221D01*
X541494Y-251221D01*
G37*
G36*
X538161Y-254554D02*
X525661Y-254554D01*
X525661Y-247888D01*
X538161Y-247888D01*
X538161Y-254554D01*
G37*
G36*
X534827Y-251221D02*
X534827Y-238721D01*
X541494Y-238721D01*
X541494Y-251221D01*
X534827Y-251221D01*
G37*
G54D23*
G36*
X327847Y-35260D02*
X327847Y-23760D01*
X333847Y-23760D01*
X333847Y-35260D01*
X327847Y-35260D01*
G37*
G36*
X330847Y-32260D02*
X342347Y-32260D01*
X342347Y-38260D01*
X330847Y-38260D01*
X330847Y-32260D01*
G37*
G54D22*
G36*
X185181Y-114695D02*
X185181Y-102195D01*
X191848Y-102195D01*
X191848Y-114695D01*
X185181Y-114695D01*
G37*
G36*
X188515Y-111362D02*
X201015Y-111362D01*
X201015Y-118029D01*
X188515Y-118029D01*
X188515Y-111362D01*
G37*
G36*
X191848Y-114695D02*
X191848Y-127195D01*
X185181Y-127195D01*
X185181Y-114695D01*
X191848Y-114695D01*
G37*
G36*
X188515Y-118029D02*
X176015Y-118029D01*
X176015Y-111362D01*
X188515Y-111362D01*
X188515Y-118029D01*
G37*
G54D22*
G36*
X636661Y-104083D02*
X649161Y-104083D01*
X649161Y-110750D01*
X636661Y-110750D01*
X636661Y-104083D01*
G37*
G36*
X639995Y-107416D02*
X639995Y-119916D01*
X633328Y-119916D01*
X633328Y-107416D01*
X639995Y-107416D01*
G37*
G36*
X636661Y-110750D02*
X624161Y-110750D01*
X624161Y-104083D01*
X636661Y-104083D01*
X636661Y-110750D01*
G37*
G36*
X633328Y-107416D02*
X633328Y-94916D01*
X639995Y-94916D01*
X639995Y-107416D01*
X633328Y-107416D01*
G37*
G54D23*
G36*
X236609Y-85910D02*
X225109Y-85910D01*
X225109Y-79910D01*
X236609Y-79910D01*
X236609Y-85910D01*
G37*
G36*
X233609Y-82910D02*
X233609Y-71410D01*
X239609Y-71410D01*
X239609Y-82910D01*
X233609Y-82910D01*
G37*
G36*
X236609Y-79910D02*
X248109Y-79910D01*
X248109Y-85910D01*
X236609Y-85910D01*
X236609Y-79910D01*
G37*
G36*
X239609Y-82910D02*
X239609Y-94410D01*
X233609Y-94410D01*
X233609Y-82910D01*
X239609Y-82910D01*
G37*
G54D24*
G36*
X459648Y-82504D02*
X467072Y-89928D01*
X464009Y-92992D01*
X456584Y-85568D01*
X459648Y-82504D01*
G37*
G36*
X459648Y-85568D02*
X453284Y-91932D01*
X450220Y-88868D01*
X456584Y-82504D01*
X459648Y-85568D01*
G37*
G36*
X456584Y-85568D02*
X449159Y-78143D01*
X452223Y-75079D01*
X459648Y-82504D01*
X456584Y-85568D01*
G37*
X46036Y-49608D02*
G54D10*
D03*
X827085Y-49608D02*
G54D11*
D03*
G36*
X745251Y-119535D02*
X745251Y-99535D01*
X765251Y-99535D01*
X765251Y-119535D01*
X745251Y-119535D01*
G37*
X755252Y-84136D02*
G54D25*
D03*
X755252Y-58736D02*
G54D25*
D03*
X755252Y-33336D02*
G54D25*
D03*
X385760Y-200421D02*
G54D26*
D03*
X538160Y-200421D02*
G54D26*
D03*
X385760Y-225821D02*
G54D26*
D03*
X538161Y-251221D02*
G54D26*
D03*
X385760Y-251221D02*
G54D26*
D03*
G36*
X427872Y-251262D02*
X442872Y-251262D01*
X442872Y-266262D01*
X427872Y-266262D01*
X427872Y-251262D01*
G37*
X435372Y-284163D02*
G54D27*
D03*
G36*
X590099Y-32827D02*
X575099Y-32827D01*
X575099Y-17827D01*
X590099Y-17827D01*
X590099Y-32827D01*
G37*
X582599Y-50727D02*
G54D27*
D03*
G54D28*
X435372Y-284163D02*
X413542Y-270270D01*
X413542Y-193674D01*
X456802Y-147239D01*
G54D28*
X456802Y-147239D02*
X475058Y-166686D01*
X502839Y-166686D01*
X581817Y-83342D01*
X582214Y-51112D01*
X582599Y-50727D01*
G54D28*
X435372Y-258762D02*
X603645Y-80167D01*
X603645Y-30102D01*
X582599Y-25327D01*
G36*
X271046Y-51660D02*
X289046Y-51660D01*
X289046Y-69660D01*
X271046Y-69660D01*
X271046Y-51660D01*
G37*
X280046Y-35260D02*
G54D29*
D03*
X305446Y-60660D02*
G54D29*
D03*
X305446Y-35260D02*
G54D29*
D03*
X330846Y-60660D02*
G54D29*
D03*
X330847Y-35260D02*
G54D29*
D03*
X479026Y-147239D02*
G54D27*
D03*
X137714Y-114695D02*
G54D25*
D03*
X163114Y-114695D02*
G54D25*
D03*
X188515Y-114695D02*
G54D25*
D03*
G36*
X646661Y-97416D02*
X646661Y-117416D01*
X626661Y-117416D01*
X626661Y-97416D01*
X646661Y-97416D01*
G37*
X662061Y-107417D02*
G54D25*
D03*
X456802Y-147239D02*
G54D27*
D03*
X964008Y-90487D02*
G54D19*
D03*
G54D30*
X278208Y-92074D02*
X259555Y-71834D01*
X259555Y-21828D01*
X272255Y-9128D01*
X603248Y-9524D01*
X614361Y-14287D01*
X964008Y-14684D01*
X964008Y-90487D01*
X278604Y-90882D02*
G54D27*
D03*
G54D28*
X330846Y-60660D02*
X382984Y-60722D01*
X478964Y-131807D01*
X479026Y-147239D01*
G36*
X227609Y-91910D02*
X227609Y-73910D01*
X245609Y-73910D01*
X245609Y-91910D01*
X227609Y-91910D01*
G37*
X236609Y-57509D02*
G54D29*
D03*
X236609Y-32109D02*
G54D29*
D03*
X723974Y-28042D02*
G54D25*
D03*
X723973Y-104242D02*
G54D25*
D03*
G36*
X629314Y-166802D02*
X629314Y-151802D01*
X644314Y-151802D01*
X644314Y-166802D01*
X629314Y-166802D01*
G37*
X611414Y-159302D02*
G54D27*
D03*
G54D28*
X611414Y-159302D02*
X611414Y-253770D01*
X581420Y-283764D01*
X435769Y-283766D01*
X435372Y-284163D01*
G54D28*
X603645Y-80167D02*
X603645Y-100804D01*
X636983Y-159542D01*
X412748Y-34526D02*
G54D19*
D03*
X631823Y-321467D02*
G54D19*
D03*
X303211Y-320276D02*
G54D19*
D03*
X638967Y-83342D02*
G54D19*
D03*
X569117Y-170258D02*
G54D19*
D03*
X474661Y-101201D02*
G54D19*
D03*
G36*
X467122Y-73422D02*
X467122Y-57944D01*
X496491Y-57944D01*
X496491Y-75406D01*
X485775Y-75406D01*
X477441Y-83741D01*
X467122Y-73422D01*
G37*
G54D30*
X467122Y-73422D02*
X467122Y-57944D01*
X496491Y-57944D01*
X496491Y-75406D01*
X485775Y-75406D01*
X477441Y-83741D01*
X467122Y-73422D01*
G36*
X481804Y-71662D02*
X472611Y-80854D01*
X461298Y-69540D01*
X470490Y-60348D01*
X481804Y-71662D01*
G37*
G36*
X468369Y-85096D02*
X459177Y-94289D01*
X447863Y-82975D01*
X457055Y-73783D01*
X468369Y-85096D01*
G37*
X485773Y-60720D02*
G54D19*
D03*
X538160Y-198832D02*
G54D20*
D03*
X538160Y-202404D02*
G54D20*
D03*
X538160Y-249632D02*
G54D20*
D03*
X538160Y-253204D02*
G54D20*
D03*
X385760Y-198832D02*
G54D20*
D03*
X385760Y-202404D02*
G54D20*
D03*
X385760Y-224232D02*
G54D20*
D03*
X385760Y-227804D02*
G54D20*
D03*
X385760Y-249235D02*
G54D20*
D03*
X385760Y-252807D02*
G54D20*
D03*
M02*
