M48
M71
T01C0.5
T02C0.8
T03C3.0
%
G05
T01
X030800Y-030720
X043740Y-027900
X043740Y-025360
X045480Y-014250
X047700Y-014250
X056710Y-016550
X060940Y-015450
X063480Y-015450
X063580Y-009210
X058060Y-004120
X058060Y-001580
X041550Y-002700
X027980Y-008770
X054930Y-031430
X098580Y-008530
T02
X013570Y-010990
X016110Y-010990
X018650Y-010990
X023940Y-006700
X023940Y-004160
X023940Y-001620
X027810Y-003050
X027810Y-005590
X030350Y-005590
X030350Y-003050
X032890Y-003050
X032890Y-005590
X037980Y-019570
X037980Y-022110
X037980Y-024650
X053220Y-024650
X053220Y-019570
X063590Y-011060
X066130Y-011060
X072200Y-009950
X075330Y-010480
X075330Y-007940
X075330Y-005400
X075330Y-002860
X072200Y-002330
T03
X004410Y-004480
X082510Y-004480
M30
