%FSLAX34Y34*%
%MOMM*%
%LNCOPPER_TOP*%
G71*
G01*
%ADD10C, 0.400*%
%ADD11R, 0.900X0.900*%
%ADD12C, 0.900*%
%ADD13R, 1.700X2.000*%
%ADD14R, 0.700X2.400*%
%ADD15R, 1.100X2.600*%
%ADD16C, 1.400*%
%ADD17R, 2.000X1.700*%
%ADD18C, 0.700*%
%ADD19C, 1.900*%
%ADD20C, 2.400*%
%ADD21C, 0.800*%
%ADD22C, 1.200*%
%ADD23R, 1.700X1.800*%
%ADD24C, 0.433*%
%ADD25C, 0.300*%
%ADD26C, 0.649*%
%ADD27C, 0.787*%
%ADD28C, 0.500*%
%ADD29C, 0.000*%
%ADD30R, 0.500X0.500*%
%ADD31R, 1.300X1.600*%
%ADD32R, 0.300X2.000*%
%ADD33R, 0.700X2.200*%
%ADD34C, 1.000*%
%ADD35R, 1.600X1.300*%
%ADD36C, 1.500*%
%ADD37C, 2.000*%
%ADD38R, 1.300X1.400*%
%LPD*%
G36*
X0Y0D02*
X356000Y0D01*
X356000Y-446000D01*
X0Y-446000D01*
X0Y0D01*
G37*
%LPC*%
G36*
X229350Y-322425D02*
X227350Y-320425D01*
X227350Y-309425D01*
X228350Y-308425D01*
X232350Y-308425D01*
X233350Y-309425D01*
X233350Y-320425D01*
X231350Y-322425D01*
X229350Y-322425D01*
G37*
G54D10*
X229350Y-322425D02*
X227350Y-320425D01*
X227350Y-309425D01*
X228350Y-308425D01*
X232350Y-308425D01*
X233350Y-309425D01*
X233350Y-320425D01*
X231350Y-322425D01*
X229350Y-322425D01*
G36*
X237350Y-322425D02*
X235350Y-320425D01*
X235350Y-309425D01*
X236350Y-308425D01*
X240350Y-308425D01*
X241350Y-309425D01*
X241350Y-320425D01*
X239350Y-322425D01*
X237350Y-322425D01*
G37*
G54D10*
X237350Y-322425D02*
X235350Y-320425D01*
X235350Y-309425D01*
X236350Y-308425D01*
X240350Y-308425D01*
X241350Y-309425D01*
X241350Y-320425D01*
X239350Y-322425D01*
X237350Y-322425D01*
X230350Y-313925D02*
G54D11*
D03*
X238350Y-313925D02*
G54D11*
D03*
G36*
X245350Y-322425D02*
X243350Y-320425D01*
X243350Y-309425D01*
X244350Y-308425D01*
X248350Y-308425D01*
X249350Y-309425D01*
X249350Y-320425D01*
X247350Y-322425D01*
X245350Y-322425D01*
G37*
G54D10*
X245350Y-322425D02*
X243350Y-320425D01*
X243350Y-309425D01*
X244350Y-308425D01*
X248350Y-308425D01*
X249350Y-309425D01*
X249350Y-320425D01*
X247350Y-322425D01*
X245350Y-322425D01*
G36*
X253350Y-322425D02*
X251350Y-320425D01*
X251350Y-309425D01*
X252350Y-308425D01*
X256350Y-308425D01*
X257350Y-309425D01*
X257350Y-320425D01*
X255350Y-322425D01*
X253350Y-322425D01*
G37*
G54D10*
X253350Y-322425D02*
X251350Y-320425D01*
X251350Y-309425D01*
X252350Y-308425D01*
X256350Y-308425D01*
X257350Y-309425D01*
X257350Y-320425D01*
X255350Y-322425D01*
X253350Y-322425D01*
X246350Y-313925D02*
G54D11*
D03*
X254350Y-313925D02*
G54D11*
D03*
G36*
X261350Y-322425D02*
X259350Y-320425D01*
X259350Y-309425D01*
X260350Y-308425D01*
X264350Y-308425D01*
X265350Y-309425D01*
X265350Y-320425D01*
X263350Y-322425D01*
X261350Y-322425D01*
G37*
G54D10*
X261350Y-322425D02*
X259350Y-320425D01*
X259350Y-309425D01*
X260350Y-308425D01*
X264350Y-308425D01*
X265350Y-309425D01*
X265350Y-320425D01*
X263350Y-322425D01*
X261350Y-322425D01*
G36*
X269350Y-322425D02*
X267350Y-320425D01*
X267350Y-309425D01*
X268350Y-308425D01*
X272350Y-308425D01*
X273350Y-309425D01*
X273350Y-320425D01*
X271350Y-322425D01*
X269350Y-322425D01*
G37*
G54D10*
X269350Y-322425D02*
X267350Y-320425D01*
X267350Y-309425D01*
X268350Y-308425D01*
X272350Y-308425D01*
X273350Y-309425D01*
X273350Y-320425D01*
X271350Y-322425D01*
X269350Y-322425D01*
X262350Y-313925D02*
G54D11*
D03*
X270350Y-313925D02*
G54D11*
D03*
G36*
X277350Y-322425D02*
X275350Y-320425D01*
X275350Y-309425D01*
X276350Y-308425D01*
X280350Y-308425D01*
X281350Y-309425D01*
X281350Y-320425D01*
X279350Y-322425D01*
X277350Y-322425D01*
G37*
G54D10*
X277350Y-322425D02*
X275350Y-320425D01*
X275350Y-309425D01*
X276350Y-308425D01*
X280350Y-308425D01*
X281350Y-309425D01*
X281350Y-320425D01*
X279350Y-322425D01*
X277350Y-322425D01*
G36*
X285350Y-322425D02*
X283350Y-320425D01*
X283350Y-309425D01*
X284350Y-308425D01*
X288350Y-308425D01*
X289350Y-309425D01*
X289350Y-320425D01*
X287350Y-322425D01*
X285350Y-322425D01*
G37*
G54D10*
X285350Y-322425D02*
X283350Y-320425D01*
X283350Y-309425D01*
X284350Y-308425D01*
X288350Y-308425D01*
X289350Y-309425D01*
X289350Y-320425D01*
X287350Y-322425D01*
X285350Y-322425D01*
X278350Y-313925D02*
G54D11*
D03*
X286350Y-313925D02*
G54D11*
D03*
G36*
X207350Y-242425D02*
X209350Y-240425D01*
X220350Y-240425D01*
X221350Y-241425D01*
X221350Y-245425D01*
X220350Y-246425D01*
X209350Y-246425D01*
X207350Y-244425D01*
X207350Y-242425D01*
G37*
G54D10*
X207350Y-242425D02*
X209350Y-240425D01*
X220350Y-240425D01*
X221350Y-241425D01*
X221350Y-245425D01*
X220350Y-246425D01*
X209350Y-246425D01*
X207350Y-244425D01*
X207350Y-242425D01*
G36*
X207350Y-250425D02*
X209350Y-248425D01*
X220350Y-248425D01*
X221350Y-249425D01*
X221350Y-253425D01*
X220350Y-254425D01*
X209350Y-254425D01*
X207350Y-252425D01*
X207350Y-250425D01*
G37*
G54D10*
X207350Y-250425D02*
X209350Y-248425D01*
X220350Y-248425D01*
X221350Y-249425D01*
X221350Y-253425D01*
X220350Y-254425D01*
X209350Y-254425D01*
X207350Y-252425D01*
X207350Y-250425D01*
X215850Y-243425D02*
G54D11*
D03*
X215850Y-251425D02*
G54D11*
D03*
G36*
X207350Y-258425D02*
X209350Y-256425D01*
X220350Y-256425D01*
X221350Y-257425D01*
X221350Y-261425D01*
X220350Y-262425D01*
X209350Y-262425D01*
X207350Y-260425D01*
X207350Y-258425D01*
G37*
G54D10*
X207350Y-258425D02*
X209350Y-256425D01*
X220350Y-256425D01*
X221350Y-257425D01*
X221350Y-261425D01*
X220350Y-262425D01*
X209350Y-262425D01*
X207350Y-260425D01*
X207350Y-258425D01*
G36*
X207350Y-266425D02*
X209350Y-264425D01*
X220350Y-264425D01*
X221350Y-265425D01*
X221350Y-269425D01*
X220350Y-270425D01*
X209350Y-270425D01*
X207350Y-268425D01*
X207350Y-266425D01*
G37*
G54D10*
X207350Y-266425D02*
X209350Y-264425D01*
X220350Y-264425D01*
X221350Y-265425D01*
X221350Y-269425D01*
X220350Y-270425D01*
X209350Y-270425D01*
X207350Y-268425D01*
X207350Y-266425D01*
X215850Y-259425D02*
G54D11*
D03*
X215850Y-267425D02*
G54D11*
D03*
G36*
X207350Y-274425D02*
X209350Y-272425D01*
X220350Y-272425D01*
X221350Y-273425D01*
X221350Y-277425D01*
X220350Y-278425D01*
X209350Y-278425D01*
X207350Y-276425D01*
X207350Y-274425D01*
G37*
G54D10*
X207350Y-274425D02*
X209350Y-272425D01*
X220350Y-272425D01*
X221350Y-273425D01*
X221350Y-277425D01*
X220350Y-278425D01*
X209350Y-278425D01*
X207350Y-276425D01*
X207350Y-274425D01*
G36*
X207350Y-282425D02*
X209350Y-280425D01*
X220350Y-280425D01*
X221350Y-281425D01*
X221350Y-285425D01*
X220350Y-286425D01*
X209350Y-286425D01*
X207350Y-284425D01*
X207350Y-282425D01*
G37*
G54D10*
X207350Y-282425D02*
X209350Y-280425D01*
X220350Y-280425D01*
X221350Y-281425D01*
X221350Y-285425D01*
X220350Y-286425D01*
X209350Y-286425D01*
X207350Y-284425D01*
X207350Y-282425D01*
X215850Y-275425D02*
G54D11*
D03*
X215850Y-283425D02*
G54D11*
D03*
G36*
X207350Y-290425D02*
X209350Y-288425D01*
X220350Y-288425D01*
X221350Y-289425D01*
X221350Y-293425D01*
X220350Y-294425D01*
X209350Y-294425D01*
X207350Y-292425D01*
X207350Y-290425D01*
G37*
G54D10*
X207350Y-290425D02*
X209350Y-288425D01*
X220350Y-288425D01*
X221350Y-289425D01*
X221350Y-293425D01*
X220350Y-294425D01*
X209350Y-294425D01*
X207350Y-292425D01*
X207350Y-290425D01*
G36*
X207350Y-298425D02*
X209350Y-296425D01*
X220350Y-296425D01*
X221350Y-297425D01*
X221350Y-301425D01*
X220350Y-302425D01*
X209350Y-302425D01*
X207350Y-300425D01*
X207350Y-298425D01*
G37*
G54D10*
X207350Y-298425D02*
X209350Y-296425D01*
X220350Y-296425D01*
X221350Y-297425D01*
X221350Y-301425D01*
X220350Y-302425D01*
X209350Y-302425D01*
X207350Y-300425D01*
X207350Y-298425D01*
X215850Y-291425D02*
G54D11*
D03*
X215850Y-299425D02*
G54D11*
D03*
G36*
X287350Y-220425D02*
X289350Y-222425D01*
X289350Y-233425D01*
X288350Y-234425D01*
X284350Y-234425D01*
X283350Y-233425D01*
X283350Y-222425D01*
X285350Y-220425D01*
X287350Y-220425D01*
G37*
G54D10*
X287350Y-220425D02*
X289350Y-222425D01*
X289350Y-233425D01*
X288350Y-234425D01*
X284350Y-234425D01*
X283350Y-233425D01*
X283350Y-222425D01*
X285350Y-220425D01*
X287350Y-220425D01*
G36*
X279350Y-220425D02*
X281350Y-222425D01*
X281350Y-233425D01*
X280350Y-234425D01*
X276350Y-234425D01*
X275350Y-233425D01*
X275350Y-222425D01*
X277350Y-220425D01*
X279350Y-220425D01*
G37*
G54D10*
X279350Y-220425D02*
X281350Y-222425D01*
X281350Y-233425D01*
X280350Y-234425D01*
X276350Y-234425D01*
X275350Y-233425D01*
X275350Y-222425D01*
X277350Y-220425D01*
X279350Y-220425D01*
X286350Y-228925D02*
G54D11*
D03*
X278350Y-228925D02*
G54D11*
D03*
G36*
X271350Y-220425D02*
X273350Y-222425D01*
X273350Y-233425D01*
X272350Y-234425D01*
X268350Y-234425D01*
X267350Y-233425D01*
X267350Y-222425D01*
X269350Y-220425D01*
X271350Y-220425D01*
G37*
G54D10*
X271350Y-220425D02*
X273350Y-222425D01*
X273350Y-233425D01*
X272350Y-234425D01*
X268350Y-234425D01*
X267350Y-233425D01*
X267350Y-222425D01*
X269350Y-220425D01*
X271350Y-220425D01*
G36*
X263350Y-220425D02*
X265350Y-222425D01*
X265350Y-233425D01*
X264350Y-234425D01*
X260350Y-234425D01*
X259350Y-233425D01*
X259350Y-222425D01*
X261350Y-220425D01*
X263350Y-220425D01*
G37*
G54D10*
X263350Y-220425D02*
X265350Y-222425D01*
X265350Y-233425D01*
X264350Y-234425D01*
X260350Y-234425D01*
X259350Y-233425D01*
X259350Y-222425D01*
X261350Y-220425D01*
X263350Y-220425D01*
X270350Y-228925D02*
G54D11*
D03*
X262350Y-228925D02*
G54D11*
D03*
G36*
X255350Y-220425D02*
X257350Y-222425D01*
X257350Y-233425D01*
X256350Y-234425D01*
X252350Y-234425D01*
X251350Y-233425D01*
X251350Y-222425D01*
X253350Y-220425D01*
X255350Y-220425D01*
G37*
G54D10*
X255350Y-220425D02*
X257350Y-222425D01*
X257350Y-233425D01*
X256350Y-234425D01*
X252350Y-234425D01*
X251350Y-233425D01*
X251350Y-222425D01*
X253350Y-220425D01*
X255350Y-220425D01*
G36*
X247350Y-220425D02*
X249350Y-222425D01*
X249350Y-233425D01*
X248350Y-234425D01*
X244350Y-234425D01*
X243350Y-233425D01*
X243350Y-222425D01*
X245350Y-220425D01*
X247350Y-220425D01*
G37*
G54D10*
X247350Y-220425D02*
X249350Y-222425D01*
X249350Y-233425D01*
X248350Y-234425D01*
X244350Y-234425D01*
X243350Y-233425D01*
X243350Y-222425D01*
X245350Y-220425D01*
X247350Y-220425D01*
X254350Y-228925D02*
G54D11*
D03*
X246350Y-228925D02*
G54D11*
D03*
G36*
X239350Y-220425D02*
X241350Y-222425D01*
X241350Y-233425D01*
X240350Y-234425D01*
X236350Y-234425D01*
X235350Y-233425D01*
X235350Y-222425D01*
X237350Y-220425D01*
X239350Y-220425D01*
G37*
G54D10*
X239350Y-220425D02*
X241350Y-222425D01*
X241350Y-233425D01*
X240350Y-234425D01*
X236350Y-234425D01*
X235350Y-233425D01*
X235350Y-222425D01*
X237350Y-220425D01*
X239350Y-220425D01*
G36*
X231350Y-220425D02*
X233350Y-222425D01*
X233350Y-233425D01*
X232350Y-234425D01*
X228350Y-234425D01*
X227350Y-233425D01*
X227350Y-222425D01*
X229350Y-220425D01*
X231350Y-220425D01*
G37*
G54D10*
X231350Y-220425D02*
X233350Y-222425D01*
X233350Y-233425D01*
X232350Y-234425D01*
X228350Y-234425D01*
X227350Y-233425D01*
X227350Y-222425D01*
X229350Y-220425D01*
X231350Y-220425D01*
X238350Y-228925D02*
G54D11*
D03*
X230350Y-228925D02*
G54D11*
D03*
G36*
X309350Y-300425D02*
X307350Y-302425D01*
X296350Y-302425D01*
X295350Y-301425D01*
X295350Y-297425D01*
X296350Y-296425D01*
X307350Y-296425D01*
X309350Y-298425D01*
X309350Y-300425D01*
G37*
G54D10*
X309350Y-300425D02*
X307350Y-302425D01*
X296350Y-302425D01*
X295350Y-301425D01*
X295350Y-297425D01*
X296350Y-296425D01*
X307350Y-296425D01*
X309350Y-298425D01*
X309350Y-300425D01*
G36*
X309350Y-292425D02*
X307350Y-294425D01*
X296350Y-294425D01*
X295350Y-293425D01*
X295350Y-289425D01*
X296350Y-288425D01*
X307350Y-288425D01*
X309350Y-290425D01*
X309350Y-292425D01*
G37*
G54D10*
X309350Y-292425D02*
X307350Y-294425D01*
X296350Y-294425D01*
X295350Y-293425D01*
X295350Y-289425D01*
X296350Y-288425D01*
X307350Y-288425D01*
X309350Y-290425D01*
X309350Y-292425D01*
X300850Y-299425D02*
G54D11*
D03*
X300850Y-291425D02*
G54D11*
D03*
G36*
X309350Y-284425D02*
X307350Y-286425D01*
X296350Y-286425D01*
X295350Y-285425D01*
X295350Y-281425D01*
X296350Y-280425D01*
X307350Y-280425D01*
X309350Y-282425D01*
X309350Y-284425D01*
G37*
G54D10*
X309350Y-284425D02*
X307350Y-286425D01*
X296350Y-286425D01*
X295350Y-285425D01*
X295350Y-281425D01*
X296350Y-280425D01*
X307350Y-280425D01*
X309350Y-282425D01*
X309350Y-284425D01*
G36*
X309350Y-276425D02*
X307350Y-278425D01*
X296350Y-278425D01*
X295350Y-277425D01*
X295350Y-273425D01*
X296350Y-272425D01*
X307350Y-272425D01*
X309350Y-274425D01*
X309350Y-276425D01*
G37*
G54D10*
X309350Y-276425D02*
X307350Y-278425D01*
X296350Y-278425D01*
X295350Y-277425D01*
X295350Y-273425D01*
X296350Y-272425D01*
X307350Y-272425D01*
X309350Y-274425D01*
X309350Y-276425D01*
X300850Y-283425D02*
G54D11*
D03*
X300850Y-275425D02*
G54D11*
D03*
G36*
X309350Y-268425D02*
X307350Y-270425D01*
X296350Y-270425D01*
X295350Y-269425D01*
X295350Y-265425D01*
X296350Y-264425D01*
X307350Y-264425D01*
X309350Y-266425D01*
X309350Y-268425D01*
G37*
G54D10*
X309350Y-268425D02*
X307350Y-270425D01*
X296350Y-270425D01*
X295350Y-269425D01*
X295350Y-265425D01*
X296350Y-264425D01*
X307350Y-264425D01*
X309350Y-266425D01*
X309350Y-268425D01*
G36*
X309350Y-260425D02*
X307350Y-262425D01*
X296350Y-262425D01*
X295350Y-261425D01*
X295350Y-257425D01*
X296350Y-256425D01*
X307350Y-256425D01*
X309350Y-258425D01*
X309350Y-260425D01*
G37*
G54D10*
X309350Y-260425D02*
X307350Y-262425D01*
X296350Y-262425D01*
X295350Y-261425D01*
X295350Y-257425D01*
X296350Y-256425D01*
X307350Y-256425D01*
X309350Y-258425D01*
X309350Y-260425D01*
X300850Y-267425D02*
G54D11*
D03*
X300850Y-259425D02*
G54D11*
D03*
G36*
X309350Y-252425D02*
X307350Y-254425D01*
X296350Y-254425D01*
X295350Y-253425D01*
X295350Y-249425D01*
X296350Y-248425D01*
X307350Y-248425D01*
X309350Y-250425D01*
X309350Y-252425D01*
G37*
G54D10*
X309350Y-252425D02*
X307350Y-254425D01*
X296350Y-254425D01*
X295350Y-253425D01*
X295350Y-249425D01*
X296350Y-248425D01*
X307350Y-248425D01*
X309350Y-250425D01*
X309350Y-252425D01*
G36*
X309350Y-244425D02*
X307350Y-246425D01*
X296350Y-246425D01*
X295350Y-245425D01*
X295350Y-241425D01*
X296350Y-240425D01*
X307350Y-240425D01*
X309350Y-242425D01*
X309350Y-244425D01*
G37*
G54D10*
X309350Y-244425D02*
X307350Y-246425D01*
X296350Y-246425D01*
X295350Y-245425D01*
X295350Y-241425D01*
X296350Y-240425D01*
X307350Y-240425D01*
X309350Y-242425D01*
X309350Y-244425D01*
X300850Y-251425D02*
G54D11*
D03*
X300850Y-243425D02*
G54D11*
D03*
G54D12*
X246350Y-298050D02*
X246350Y-338803D01*
G54D12*
X262497Y-266697D02*
X262497Y-313925D01*
G54D12*
X254287Y-212325D02*
X254287Y-245537D01*
X254162Y-245662D01*
X281918Y-338953D02*
G54D13*
D03*
X262918Y-338953D02*
G54D13*
D03*
G54D12*
X254350Y-313925D02*
X254350Y-325275D01*
X262099Y-339374D01*
G54D12*
X270350Y-313925D02*
X270350Y-326312D01*
X262099Y-339374D01*
G54D12*
X270350Y-313925D02*
X270350Y-277100D01*
X277975Y-269475D01*
X277975Y-201212D01*
X148360Y-57292D02*
G54D14*
D03*
X153360Y-57292D02*
G54D14*
D03*
X158360Y-57292D02*
G54D14*
D03*
X163360Y-57292D02*
G54D14*
D03*
X168360Y-57292D02*
G54D14*
D03*
X148360Y-101292D02*
G54D14*
D03*
X153360Y-101292D02*
G54D14*
D03*
X158360Y-101292D02*
G54D14*
D03*
X163360Y-101292D02*
G54D14*
D03*
X168360Y-101292D02*
G54D14*
D03*
X135563Y-269871D02*
G54D15*
D03*
X148263Y-269871D02*
G54D15*
D03*
X160964Y-269871D02*
G54D15*
D03*
X173663Y-269870D02*
G54D15*
D03*
X173663Y-215871D02*
G54D15*
D03*
X160963Y-215871D02*
G54D15*
D03*
X148263Y-215871D02*
G54D15*
D03*
X135564Y-215871D02*
G54D15*
D03*
G54D16*
X130497Y-290509D02*
X140497Y-290509D01*
G54D16*
X130497Y-304809D02*
X140497Y-304809D01*
G54D12*
X135497Y-290509D02*
X135497Y-269872D01*
G54D12*
X135497Y-304809D02*
X155737Y-304797D01*
X155737Y-296065D01*
X148197Y-280587D01*
X148248Y-269886D01*
X148263Y-269871D01*
X277975Y-182212D02*
G54D17*
D03*
X277975Y-201212D02*
G54D17*
D03*
X154564Y-178589D02*
G54D13*
D03*
X135564Y-178588D02*
G54D13*
D03*
G54D12*
X135564Y-211134D02*
X135539Y-178564D01*
X135564Y-178588D01*
G54D18*
X163360Y-57292D02*
X163362Y-77066D01*
X148281Y-85798D01*
X148360Y-101292D01*
G54D18*
X132012Y-141754D02*
X132806Y-141754D01*
X153043Y-121516D01*
X153440Y-111198D01*
G54D18*
X158600Y-111198D02*
X158600Y-118341D01*
X182012Y-141754D01*
G54D19*
X132012Y-141754D02*
X97087Y-141754D01*
G54D19*
X216938Y-141754D02*
X182012Y-141754D01*
G36*
X87467Y-30001D02*
X111467Y-30001D01*
X111467Y-54001D01*
X87467Y-54001D01*
X87467Y-30001D01*
G37*
X99467Y-16601D02*
G54D20*
D03*
G36*
X185098Y-54607D02*
X209098Y-54607D01*
X209098Y-78607D01*
X185098Y-78607D01*
X185098Y-54607D01*
G37*
X197098Y-41207D02*
G54D20*
D03*
X127584Y-16690D02*
G54D13*
D03*
G36*
X138084Y-6691D02*
X155084Y-6690D01*
X155084Y-26690D01*
X138084Y-26691D01*
X138084Y-6691D01*
G37*
X177590Y-16690D02*
G54D13*
D03*
X196590Y-16690D02*
G54D13*
D03*
G54D21*
X147403Y-54765D02*
X147403Y-17509D01*
X146584Y-16690D01*
G54D21*
X127584Y-16690D02*
X99467Y-16601D01*
G54D18*
X153360Y-57292D02*
X153360Y-40921D01*
X177590Y-16690D01*
G54D18*
X196590Y-16690D02*
X197098Y-41207D01*
X123591Y-81406D02*
G54D17*
D03*
X123590Y-100406D02*
G54D17*
D03*
G54D12*
X147006Y-85722D02*
X147006Y-108740D01*
G36*
X297995Y-373251D02*
X292437Y-378809D01*
X284553Y-378809D01*
X278995Y-373251D01*
X278995Y-365367D01*
X284553Y-359809D01*
X292437Y-359809D01*
X297995Y-365367D01*
X297995Y-373251D01*
G37*
G36*
X272595Y-373251D02*
X267037Y-378809D01*
X259153Y-378809D01*
X253595Y-373251D01*
X253595Y-365367D01*
X259153Y-359809D01*
X267037Y-359809D01*
X272595Y-365367D01*
X272595Y-373251D01*
G37*
G36*
X247195Y-373251D02*
X241637Y-378809D01*
X233753Y-378809D01*
X228195Y-373251D01*
X228195Y-365367D01*
X233753Y-359809D01*
X241637Y-359809D01*
X247195Y-365367D01*
X247195Y-373251D01*
G37*
G36*
X221795Y-373251D02*
X216237Y-378809D01*
X208353Y-378809D01*
X202795Y-373251D01*
X202795Y-365367D01*
X208353Y-359809D01*
X216237Y-359809D01*
X221795Y-365367D01*
X221795Y-373251D01*
G37*
G36*
X196395Y-373251D02*
X190837Y-378809D01*
X182953Y-378809D01*
X177395Y-373251D01*
X177395Y-365367D01*
X182953Y-359809D01*
X190837Y-359809D01*
X196395Y-365367D01*
X196395Y-373251D01*
G37*
G54D18*
X215850Y-299425D02*
X215850Y-310564D01*
X186895Y-369309D01*
G54D18*
X231143Y-319878D02*
X212295Y-369309D01*
G54D18*
X238747Y-320275D02*
X237695Y-369309D01*
G54D22*
X262918Y-339696D02*
X263095Y-369309D01*
G54D18*
X215850Y-291425D02*
X206018Y-291425D01*
X175978Y-352819D01*
X135893Y-352819D01*
X119046Y-369683D01*
G54D18*
X211697Y-283365D02*
X198997Y-283365D01*
X168834Y-344881D01*
X127956Y-344881D01*
X93646Y-369683D01*
G54D22*
X68246Y-369683D02*
X68226Y-391712D01*
X90178Y-334820D02*
G54D13*
D03*
X109178Y-334820D02*
G54D13*
D03*
X67903Y-335614D02*
G54D23*
D03*
X48903Y-335614D02*
G54D23*
D03*
G54D18*
X215665Y-275428D02*
X192647Y-275428D01*
X162881Y-335356D01*
X118828Y-335356D01*
X102159Y-318687D01*
X72393Y-318687D01*
X68028Y-323053D01*
X68028Y-335753D01*
G54D18*
X90014Y-334920D02*
X81522Y-358375D01*
X81522Y-377822D01*
X88665Y-384965D01*
X141053Y-384965D01*
X145022Y-380997D01*
X144625Y-369487D01*
G54D18*
X48903Y-335614D02*
X68246Y-369683D01*
G36*
X7946Y-365741D02*
X13504Y-360183D01*
X21388Y-360183D01*
X26946Y-365741D01*
X26946Y-373625D01*
X21388Y-379183D01*
X13504Y-379183D01*
X7946Y-373625D01*
X7946Y-365741D01*
G37*
G36*
X33346Y-365741D02*
X38904Y-360183D01*
X46788Y-360183D01*
X52346Y-365741D01*
X52346Y-373625D01*
X46788Y-379183D01*
X38904Y-379183D01*
X33346Y-373625D01*
X33346Y-365741D01*
G37*
G36*
X58746Y-365741D02*
X64304Y-360183D01*
X72188Y-360183D01*
X77746Y-365741D01*
X77746Y-373625D01*
X72188Y-379183D01*
X64304Y-379183D01*
X58746Y-373625D01*
X58746Y-365741D01*
G37*
G36*
X84146Y-365741D02*
X89704Y-360183D01*
X97588Y-360183D01*
X103146Y-365741D01*
X103146Y-373625D01*
X97588Y-379183D01*
X89704Y-379183D01*
X84146Y-373625D01*
X84146Y-365741D01*
G37*
G36*
X109546Y-365741D02*
X115104Y-360183D01*
X122988Y-360183D01*
X128546Y-365741D01*
X128546Y-373625D01*
X122988Y-379183D01*
X115104Y-379183D01*
X109546Y-373625D01*
X109546Y-365741D01*
G37*
G36*
X134946Y-365741D02*
X140504Y-360183D01*
X148388Y-360183D01*
X153946Y-365741D01*
X153946Y-373625D01*
X148388Y-379183D01*
X140504Y-379183D01*
X134946Y-373625D01*
X134946Y-365741D01*
G37*
G54D22*
X263095Y-369309D02*
X263115Y-391712D01*
G54D22*
X263115Y-395681D02*
X68226Y-395681D01*
G54D19*
X336003Y-343370D02*
X336003Y-308444D01*
G54D19*
X336003Y-428295D02*
X336003Y-393370D01*
G54D18*
X278350Y-313925D02*
X278350Y-322634D01*
X282737Y-327022D01*
X298215Y-327022D01*
X318853Y-347659D01*
X318853Y-376219D01*
X336003Y-393370D01*
G54D18*
X286350Y-313925D02*
X306558Y-313925D01*
X336003Y-343370D01*
G54D18*
X210506Y-259553D02*
X204950Y-259553D01*
X173993Y-228597D01*
X173993Y-216201D01*
X173663Y-215871D01*
G54D18*
X160963Y-215871D02*
X160963Y-227870D01*
X200584Y-267490D01*
X215784Y-267490D01*
X215850Y-267425D01*
G54D18*
X160963Y-215871D02*
X160963Y-205114D01*
X175184Y-190894D01*
X202568Y-190894D01*
X235509Y-157953D01*
X235509Y-134140D01*
X218443Y-117075D01*
X167643Y-117075D01*
X163675Y-113106D01*
X163278Y-109147D01*
G54D18*
X173663Y-215871D02*
X173663Y-203130D01*
X178756Y-198037D01*
X204553Y-198037D01*
X242653Y-159937D01*
X242653Y-130965D01*
X222412Y-110725D01*
X174618Y-110725D01*
X168360Y-101292D01*
G54D18*
X160964Y-269871D02*
X160963Y-254460D01*
X150578Y-244075D01*
X89459Y-244075D01*
G54D12*
X124781Y-101597D02*
X147006Y-101200D01*
G54D18*
X169231Y-109931D02*
X169231Y-92865D01*
%LPD*%
G54D24*
G36*
X284084Y-338953D02*
X284084Y-349453D01*
X279752Y-349453D01*
X279752Y-338953D01*
X284084Y-338953D01*
G37*
G36*
X281918Y-336786D02*
X290918Y-336786D01*
X290918Y-341120D01*
X281918Y-341120D01*
X281918Y-336786D01*
G37*
G54D25*
G36*
X156860Y-57292D02*
X156860Y-44792D01*
X159860Y-44792D01*
X159860Y-57292D01*
X156860Y-57292D01*
G37*
G36*
X159860Y-57292D02*
X159860Y-69792D01*
X156860Y-69792D01*
X156860Y-57292D01*
X159860Y-57292D01*
G37*
G54D26*
G36*
X170420Y-269870D02*
X170420Y-256370D01*
X176906Y-256370D01*
X176906Y-269870D01*
X170420Y-269870D01*
G37*
G36*
X173663Y-266626D02*
X179663Y-266626D01*
X179663Y-273114D01*
X173663Y-273114D01*
X173663Y-266626D01*
G37*
G36*
X176906Y-269870D02*
X176906Y-283370D01*
X170420Y-283370D01*
X170420Y-269870D01*
X176906Y-269870D01*
G37*
G54D24*
G36*
X277975Y-180046D02*
X288475Y-180046D01*
X288475Y-184378D01*
X277975Y-184378D01*
X277975Y-180046D01*
G37*
G36*
X280142Y-182212D02*
X280142Y-191212D01*
X275808Y-191212D01*
X275808Y-182212D01*
X280142Y-182212D01*
G37*
G36*
X277975Y-184378D02*
X267475Y-184378D01*
X267475Y-180046D01*
X277975Y-180046D01*
X277975Y-184378D01*
G37*
G36*
X275808Y-182212D02*
X275808Y-173212D01*
X280142Y-173212D01*
X280142Y-182212D01*
X275808Y-182212D01*
G37*
G54D24*
G36*
X156730Y-178589D02*
X156730Y-189089D01*
X152398Y-189089D01*
X152398Y-178589D01*
X156730Y-178589D01*
G37*
G36*
X154564Y-180756D02*
X145564Y-180756D01*
X145564Y-176422D01*
X154564Y-176422D01*
X154564Y-180756D01*
G37*
G36*
X152398Y-178589D02*
X152398Y-168089D01*
X156730Y-168089D01*
X156730Y-178589D01*
X152398Y-178589D01*
G37*
G36*
X154564Y-176422D02*
X163564Y-176422D01*
X163564Y-180756D01*
X154564Y-180756D01*
X154564Y-176422D01*
G37*
G54D27*
G36*
X99467Y-38067D02*
X111967Y-38067D01*
X111967Y-45934D01*
X99467Y-45934D01*
X99467Y-38067D01*
G37*
G36*
X103400Y-42001D02*
X103400Y-54501D01*
X95533Y-54501D01*
X95533Y-42001D01*
X103400Y-42001D01*
G37*
G36*
X99467Y-45934D02*
X86967Y-45934D01*
X86967Y-38067D01*
X99467Y-38067D01*
X99467Y-45934D01*
G37*
G54D27*
G36*
X197098Y-62674D02*
X209598Y-62674D01*
X209598Y-70540D01*
X197098Y-70540D01*
X197098Y-62674D01*
G37*
G36*
X201031Y-66607D02*
X201031Y-79107D01*
X193165Y-79107D01*
X193165Y-66607D01*
X201031Y-66607D01*
G37*
G36*
X197098Y-70540D02*
X184598Y-70540D01*
X184598Y-62674D01*
X197098Y-62674D01*
X197098Y-70540D01*
G37*
G54D24*
G36*
X123591Y-79240D02*
X134091Y-79240D01*
X134091Y-83572D01*
X123591Y-83572D01*
X123591Y-79240D01*
G37*
G36*
X125758Y-81406D02*
X125758Y-90406D01*
X121424Y-90406D01*
X121424Y-81406D01*
X125758Y-81406D01*
G37*
G36*
X123591Y-83572D02*
X113091Y-83572D01*
X113091Y-79240D01*
X123591Y-79240D01*
X123591Y-83572D01*
G37*
G36*
X121424Y-81406D02*
X121424Y-72406D01*
X125758Y-72406D01*
X125758Y-81406D01*
X121424Y-81406D01*
G37*
G54D28*
G36*
X290995Y-369309D02*
X290995Y-379309D01*
X285995Y-379309D01*
X285995Y-369309D01*
X290995Y-369309D01*
G37*
G36*
X288495Y-371809D02*
X278495Y-371809D01*
X278495Y-366809D01*
X288495Y-366809D01*
X288495Y-371809D01*
G37*
G36*
X285995Y-369309D02*
X285995Y-359309D01*
X290995Y-359309D01*
X290995Y-369309D01*
X285995Y-369309D01*
G37*
G36*
X288495Y-366809D02*
X298495Y-366809D01*
X298495Y-371809D01*
X288495Y-371809D01*
X288495Y-366809D01*
G37*
G54D28*
G36*
X14946Y-369683D02*
X14946Y-359683D01*
X19946Y-359683D01*
X19946Y-369683D01*
X14946Y-369683D01*
G37*
G36*
X17446Y-367183D02*
X27446Y-367183D01*
X27446Y-372183D01*
X17446Y-372183D01*
X17446Y-367183D01*
G37*
G36*
X19946Y-369683D02*
X19946Y-379683D01*
X14946Y-379683D01*
X14946Y-369683D01*
X19946Y-369683D01*
G37*
G36*
X17446Y-372183D02*
X7446Y-372183D01*
X7446Y-367183D01*
X17446Y-367183D01*
X17446Y-372183D01*
G37*
G54D28*
G36*
X40346Y-369683D02*
X40346Y-359683D01*
X45346Y-359683D01*
X45346Y-369683D01*
X40346Y-369683D01*
G37*
G36*
X42846Y-367183D02*
X52846Y-367183D01*
X52846Y-372183D01*
X42846Y-372183D01*
X42846Y-367183D01*
G37*
G36*
X45346Y-369683D02*
X45346Y-379683D01*
X40346Y-379683D01*
X40346Y-369683D01*
X45346Y-369683D01*
G37*
G36*
X42846Y-372183D02*
X32846Y-372183D01*
X32846Y-367183D01*
X42846Y-367183D01*
X42846Y-372183D01*
G37*
G36*
X229350Y-322425D02*
X227350Y-320425D01*
X227350Y-309425D01*
X228350Y-308425D01*
X232350Y-308425D01*
X233350Y-309425D01*
X233350Y-320425D01*
X231350Y-322425D01*
X229350Y-322425D01*
G37*
G54D29*
X229350Y-322425D02*
X227350Y-320425D01*
X227350Y-309425D01*
X228350Y-308425D01*
X232350Y-308425D01*
X233350Y-309425D01*
X233350Y-320425D01*
X231350Y-322425D01*
X229350Y-322425D01*
G36*
X237350Y-322425D02*
X235350Y-320425D01*
X235350Y-309425D01*
X236350Y-308425D01*
X240350Y-308425D01*
X241350Y-309425D01*
X241350Y-320425D01*
X239350Y-322425D01*
X237350Y-322425D01*
G37*
G54D29*
X237350Y-322425D02*
X235350Y-320425D01*
X235350Y-309425D01*
X236350Y-308425D01*
X240350Y-308425D01*
X241350Y-309425D01*
X241350Y-320425D01*
X239350Y-322425D01*
X237350Y-322425D01*
X230350Y-313925D02*
G54D30*
D03*
X238350Y-313925D02*
G54D30*
D03*
G36*
X245350Y-322425D02*
X243350Y-320425D01*
X243350Y-309425D01*
X244350Y-308425D01*
X248350Y-308425D01*
X249350Y-309425D01*
X249350Y-320425D01*
X247350Y-322425D01*
X245350Y-322425D01*
G37*
G54D29*
X245350Y-322425D02*
X243350Y-320425D01*
X243350Y-309425D01*
X244350Y-308425D01*
X248350Y-308425D01*
X249350Y-309425D01*
X249350Y-320425D01*
X247350Y-322425D01*
X245350Y-322425D01*
G36*
X253350Y-322425D02*
X251350Y-320425D01*
X251350Y-309425D01*
X252350Y-308425D01*
X256350Y-308425D01*
X257350Y-309425D01*
X257350Y-320425D01*
X255350Y-322425D01*
X253350Y-322425D01*
G37*
G54D29*
X253350Y-322425D02*
X251350Y-320425D01*
X251350Y-309425D01*
X252350Y-308425D01*
X256350Y-308425D01*
X257350Y-309425D01*
X257350Y-320425D01*
X255350Y-322425D01*
X253350Y-322425D01*
X246350Y-313925D02*
G54D30*
D03*
X254350Y-313925D02*
G54D30*
D03*
G36*
X261350Y-322425D02*
X259350Y-320425D01*
X259350Y-309425D01*
X260350Y-308425D01*
X264350Y-308425D01*
X265350Y-309425D01*
X265350Y-320425D01*
X263350Y-322425D01*
X261350Y-322425D01*
G37*
G54D29*
X261350Y-322425D02*
X259350Y-320425D01*
X259350Y-309425D01*
X260350Y-308425D01*
X264350Y-308425D01*
X265350Y-309425D01*
X265350Y-320425D01*
X263350Y-322425D01*
X261350Y-322425D01*
G36*
X269350Y-322425D02*
X267350Y-320425D01*
X267350Y-309425D01*
X268350Y-308425D01*
X272350Y-308425D01*
X273350Y-309425D01*
X273350Y-320425D01*
X271350Y-322425D01*
X269350Y-322425D01*
G37*
G54D29*
X269350Y-322425D02*
X267350Y-320425D01*
X267350Y-309425D01*
X268350Y-308425D01*
X272350Y-308425D01*
X273350Y-309425D01*
X273350Y-320425D01*
X271350Y-322425D01*
X269350Y-322425D01*
X262350Y-313925D02*
G54D30*
D03*
X270350Y-313925D02*
G54D30*
D03*
G36*
X277350Y-322425D02*
X275350Y-320425D01*
X275350Y-309425D01*
X276350Y-308425D01*
X280350Y-308425D01*
X281350Y-309425D01*
X281350Y-320425D01*
X279350Y-322425D01*
X277350Y-322425D01*
G37*
G54D29*
X277350Y-322425D02*
X275350Y-320425D01*
X275350Y-309425D01*
X276350Y-308425D01*
X280350Y-308425D01*
X281350Y-309425D01*
X281350Y-320425D01*
X279350Y-322425D01*
X277350Y-322425D01*
G36*
X285350Y-322425D02*
X283350Y-320425D01*
X283350Y-309425D01*
X284350Y-308425D01*
X288350Y-308425D01*
X289350Y-309425D01*
X289350Y-320425D01*
X287350Y-322425D01*
X285350Y-322425D01*
G37*
G54D29*
X285350Y-322425D02*
X283350Y-320425D01*
X283350Y-309425D01*
X284350Y-308425D01*
X288350Y-308425D01*
X289350Y-309425D01*
X289350Y-320425D01*
X287350Y-322425D01*
X285350Y-322425D01*
X278350Y-313925D02*
G54D30*
D03*
X286350Y-313925D02*
G54D30*
D03*
G36*
X207350Y-242425D02*
X209350Y-240425D01*
X220350Y-240425D01*
X221350Y-241425D01*
X221350Y-245425D01*
X220350Y-246425D01*
X209350Y-246425D01*
X207350Y-244425D01*
X207350Y-242425D01*
G37*
G54D29*
X207350Y-242425D02*
X209350Y-240425D01*
X220350Y-240425D01*
X221350Y-241425D01*
X221350Y-245425D01*
X220350Y-246425D01*
X209350Y-246425D01*
X207350Y-244425D01*
X207350Y-242425D01*
G36*
X207350Y-250425D02*
X209350Y-248425D01*
X220350Y-248425D01*
X221350Y-249425D01*
X221350Y-253425D01*
X220350Y-254425D01*
X209350Y-254425D01*
X207350Y-252425D01*
X207350Y-250425D01*
G37*
G54D29*
X207350Y-250425D02*
X209350Y-248425D01*
X220350Y-248425D01*
X221350Y-249425D01*
X221350Y-253425D01*
X220350Y-254425D01*
X209350Y-254425D01*
X207350Y-252425D01*
X207350Y-250425D01*
X215850Y-243425D02*
G54D30*
D03*
X215850Y-251425D02*
G54D30*
D03*
G36*
X207350Y-258425D02*
X209350Y-256425D01*
X220350Y-256425D01*
X221350Y-257425D01*
X221350Y-261425D01*
X220350Y-262425D01*
X209350Y-262425D01*
X207350Y-260425D01*
X207350Y-258425D01*
G37*
G54D29*
X207350Y-258425D02*
X209350Y-256425D01*
X220350Y-256425D01*
X221350Y-257425D01*
X221350Y-261425D01*
X220350Y-262425D01*
X209350Y-262425D01*
X207350Y-260425D01*
X207350Y-258425D01*
G36*
X207350Y-266425D02*
X209350Y-264425D01*
X220350Y-264425D01*
X221350Y-265425D01*
X221350Y-269425D01*
X220350Y-270425D01*
X209350Y-270425D01*
X207350Y-268425D01*
X207350Y-266425D01*
G37*
G54D29*
X207350Y-266425D02*
X209350Y-264425D01*
X220350Y-264425D01*
X221350Y-265425D01*
X221350Y-269425D01*
X220350Y-270425D01*
X209350Y-270425D01*
X207350Y-268425D01*
X207350Y-266425D01*
X215850Y-259425D02*
G54D30*
D03*
X215850Y-267425D02*
G54D30*
D03*
G36*
X207350Y-274425D02*
X209350Y-272425D01*
X220350Y-272425D01*
X221350Y-273425D01*
X221350Y-277425D01*
X220350Y-278425D01*
X209350Y-278425D01*
X207350Y-276425D01*
X207350Y-274425D01*
G37*
G54D29*
X207350Y-274425D02*
X209350Y-272425D01*
X220350Y-272425D01*
X221350Y-273425D01*
X221350Y-277425D01*
X220350Y-278425D01*
X209350Y-278425D01*
X207350Y-276425D01*
X207350Y-274425D01*
G36*
X207350Y-282425D02*
X209350Y-280425D01*
X220350Y-280425D01*
X221350Y-281425D01*
X221350Y-285425D01*
X220350Y-286425D01*
X209350Y-286425D01*
X207350Y-284425D01*
X207350Y-282425D01*
G37*
G54D29*
X207350Y-282425D02*
X209350Y-280425D01*
X220350Y-280425D01*
X221350Y-281425D01*
X221350Y-285425D01*
X220350Y-286425D01*
X209350Y-286425D01*
X207350Y-284425D01*
X207350Y-282425D01*
X215850Y-275425D02*
G54D30*
D03*
X215850Y-283425D02*
G54D30*
D03*
G36*
X207350Y-290425D02*
X209350Y-288425D01*
X220350Y-288425D01*
X221350Y-289425D01*
X221350Y-293425D01*
X220350Y-294425D01*
X209350Y-294425D01*
X207350Y-292425D01*
X207350Y-290425D01*
G37*
G54D29*
X207350Y-290425D02*
X209350Y-288425D01*
X220350Y-288425D01*
X221350Y-289425D01*
X221350Y-293425D01*
X220350Y-294425D01*
X209350Y-294425D01*
X207350Y-292425D01*
X207350Y-290425D01*
G36*
X207350Y-298425D02*
X209350Y-296425D01*
X220350Y-296425D01*
X221350Y-297425D01*
X221350Y-301425D01*
X220350Y-302425D01*
X209350Y-302425D01*
X207350Y-300425D01*
X207350Y-298425D01*
G37*
G54D29*
X207350Y-298425D02*
X209350Y-296425D01*
X220350Y-296425D01*
X221350Y-297425D01*
X221350Y-301425D01*
X220350Y-302425D01*
X209350Y-302425D01*
X207350Y-300425D01*
X207350Y-298425D01*
X215850Y-291425D02*
G54D30*
D03*
X215850Y-299425D02*
G54D30*
D03*
G36*
X287350Y-220425D02*
X289350Y-222425D01*
X289350Y-233425D01*
X288350Y-234425D01*
X284350Y-234425D01*
X283350Y-233425D01*
X283350Y-222425D01*
X285350Y-220425D01*
X287350Y-220425D01*
G37*
G54D29*
X287350Y-220425D02*
X289350Y-222425D01*
X289350Y-233425D01*
X288350Y-234425D01*
X284350Y-234425D01*
X283350Y-233425D01*
X283350Y-222425D01*
X285350Y-220425D01*
X287350Y-220425D01*
G36*
X279350Y-220425D02*
X281350Y-222425D01*
X281350Y-233425D01*
X280350Y-234425D01*
X276350Y-234425D01*
X275350Y-233425D01*
X275350Y-222425D01*
X277350Y-220425D01*
X279350Y-220425D01*
G37*
G54D29*
X279350Y-220425D02*
X281350Y-222425D01*
X281350Y-233425D01*
X280350Y-234425D01*
X276350Y-234425D01*
X275350Y-233425D01*
X275350Y-222425D01*
X277350Y-220425D01*
X279350Y-220425D01*
X286350Y-228925D02*
G54D30*
D03*
X278350Y-228925D02*
G54D30*
D03*
G36*
X271350Y-220425D02*
X273350Y-222425D01*
X273350Y-233425D01*
X272350Y-234425D01*
X268350Y-234425D01*
X267350Y-233425D01*
X267350Y-222425D01*
X269350Y-220425D01*
X271350Y-220425D01*
G37*
G54D29*
X271350Y-220425D02*
X273350Y-222425D01*
X273350Y-233425D01*
X272350Y-234425D01*
X268350Y-234425D01*
X267350Y-233425D01*
X267350Y-222425D01*
X269350Y-220425D01*
X271350Y-220425D01*
G36*
X263350Y-220425D02*
X265350Y-222425D01*
X265350Y-233425D01*
X264350Y-234425D01*
X260350Y-234425D01*
X259350Y-233425D01*
X259350Y-222425D01*
X261350Y-220425D01*
X263350Y-220425D01*
G37*
G54D29*
X263350Y-220425D02*
X265350Y-222425D01*
X265350Y-233425D01*
X264350Y-234425D01*
X260350Y-234425D01*
X259350Y-233425D01*
X259350Y-222425D01*
X261350Y-220425D01*
X263350Y-220425D01*
X270350Y-228925D02*
G54D30*
D03*
X262350Y-228925D02*
G54D30*
D03*
G36*
X255350Y-220425D02*
X257350Y-222425D01*
X257350Y-233425D01*
X256350Y-234425D01*
X252350Y-234425D01*
X251350Y-233425D01*
X251350Y-222425D01*
X253350Y-220425D01*
X255350Y-220425D01*
G37*
G54D29*
X255350Y-220425D02*
X257350Y-222425D01*
X257350Y-233425D01*
X256350Y-234425D01*
X252350Y-234425D01*
X251350Y-233425D01*
X251350Y-222425D01*
X253350Y-220425D01*
X255350Y-220425D01*
G36*
X247350Y-220425D02*
X249350Y-222425D01*
X249350Y-233425D01*
X248350Y-234425D01*
X244350Y-234425D01*
X243350Y-233425D01*
X243350Y-222425D01*
X245350Y-220425D01*
X247350Y-220425D01*
G37*
G54D29*
X247350Y-220425D02*
X249350Y-222425D01*
X249350Y-233425D01*
X248350Y-234425D01*
X244350Y-234425D01*
X243350Y-233425D01*
X243350Y-222425D01*
X245350Y-220425D01*
X247350Y-220425D01*
X254350Y-228925D02*
G54D30*
D03*
X246350Y-228925D02*
G54D30*
D03*
G36*
X239350Y-220425D02*
X241350Y-222425D01*
X241350Y-233425D01*
X240350Y-234425D01*
X236350Y-234425D01*
X235350Y-233425D01*
X235350Y-222425D01*
X237350Y-220425D01*
X239350Y-220425D01*
G37*
G54D29*
X239350Y-220425D02*
X241350Y-222425D01*
X241350Y-233425D01*
X240350Y-234425D01*
X236350Y-234425D01*
X235350Y-233425D01*
X235350Y-222425D01*
X237350Y-220425D01*
X239350Y-220425D01*
G36*
X231350Y-220425D02*
X233350Y-222425D01*
X233350Y-233425D01*
X232350Y-234425D01*
X228350Y-234425D01*
X227350Y-233425D01*
X227350Y-222425D01*
X229350Y-220425D01*
X231350Y-220425D01*
G37*
G54D29*
X231350Y-220425D02*
X233350Y-222425D01*
X233350Y-233425D01*
X232350Y-234425D01*
X228350Y-234425D01*
X227350Y-233425D01*
X227350Y-222425D01*
X229350Y-220425D01*
X231350Y-220425D01*
X238350Y-228925D02*
G54D30*
D03*
X230350Y-228925D02*
G54D30*
D03*
G36*
X309350Y-300425D02*
X307350Y-302425D01*
X296350Y-302425D01*
X295350Y-301425D01*
X295350Y-297425D01*
X296350Y-296425D01*
X307350Y-296425D01*
X309350Y-298425D01*
X309350Y-300425D01*
G37*
G54D29*
X309350Y-300425D02*
X307350Y-302425D01*
X296350Y-302425D01*
X295350Y-301425D01*
X295350Y-297425D01*
X296350Y-296425D01*
X307350Y-296425D01*
X309350Y-298425D01*
X309350Y-300425D01*
G36*
X309350Y-292425D02*
X307350Y-294425D01*
X296350Y-294425D01*
X295350Y-293425D01*
X295350Y-289425D01*
X296350Y-288425D01*
X307350Y-288425D01*
X309350Y-290425D01*
X309350Y-292425D01*
G37*
G54D29*
X309350Y-292425D02*
X307350Y-294425D01*
X296350Y-294425D01*
X295350Y-293425D01*
X295350Y-289425D01*
X296350Y-288425D01*
X307350Y-288425D01*
X309350Y-290425D01*
X309350Y-292425D01*
X300850Y-299425D02*
G54D30*
D03*
X300850Y-291425D02*
G54D30*
D03*
G36*
X309350Y-284425D02*
X307350Y-286425D01*
X296350Y-286425D01*
X295350Y-285425D01*
X295350Y-281425D01*
X296350Y-280425D01*
X307350Y-280425D01*
X309350Y-282425D01*
X309350Y-284425D01*
G37*
G54D29*
X309350Y-284425D02*
X307350Y-286425D01*
X296350Y-286425D01*
X295350Y-285425D01*
X295350Y-281425D01*
X296350Y-280425D01*
X307350Y-280425D01*
X309350Y-282425D01*
X309350Y-284425D01*
G36*
X309350Y-276425D02*
X307350Y-278425D01*
X296350Y-278425D01*
X295350Y-277425D01*
X295350Y-273425D01*
X296350Y-272425D01*
X307350Y-272425D01*
X309350Y-274425D01*
X309350Y-276425D01*
G37*
G54D29*
X309350Y-276425D02*
X307350Y-278425D01*
X296350Y-278425D01*
X295350Y-277425D01*
X295350Y-273425D01*
X296350Y-272425D01*
X307350Y-272425D01*
X309350Y-274425D01*
X309350Y-276425D01*
X300850Y-283425D02*
G54D30*
D03*
X300850Y-275425D02*
G54D30*
D03*
G36*
X309350Y-268425D02*
X307350Y-270425D01*
X296350Y-270425D01*
X295350Y-269425D01*
X295350Y-265425D01*
X296350Y-264425D01*
X307350Y-264425D01*
X309350Y-266425D01*
X309350Y-268425D01*
G37*
G54D29*
X309350Y-268425D02*
X307350Y-270425D01*
X296350Y-270425D01*
X295350Y-269425D01*
X295350Y-265425D01*
X296350Y-264425D01*
X307350Y-264425D01*
X309350Y-266425D01*
X309350Y-268425D01*
G36*
X309350Y-260425D02*
X307350Y-262425D01*
X296350Y-262425D01*
X295350Y-261425D01*
X295350Y-257425D01*
X296350Y-256425D01*
X307350Y-256425D01*
X309350Y-258425D01*
X309350Y-260425D01*
G37*
G54D29*
X309350Y-260425D02*
X307350Y-262425D01*
X296350Y-262425D01*
X295350Y-261425D01*
X295350Y-257425D01*
X296350Y-256425D01*
X307350Y-256425D01*
X309350Y-258425D01*
X309350Y-260425D01*
X300850Y-267425D02*
G54D30*
D03*
X300850Y-259425D02*
G54D30*
D03*
G36*
X309350Y-252425D02*
X307350Y-254425D01*
X296350Y-254425D01*
X295350Y-253425D01*
X295350Y-249425D01*
X296350Y-248425D01*
X307350Y-248425D01*
X309350Y-250425D01*
X309350Y-252425D01*
G37*
G54D29*
X309350Y-252425D02*
X307350Y-254425D01*
X296350Y-254425D01*
X295350Y-253425D01*
X295350Y-249425D01*
X296350Y-248425D01*
X307350Y-248425D01*
X309350Y-250425D01*
X309350Y-252425D01*
G36*
X309350Y-244425D02*
X307350Y-246425D01*
X296350Y-246425D01*
X295350Y-245425D01*
X295350Y-241425D01*
X296350Y-240425D01*
X307350Y-240425D01*
X309350Y-242425D01*
X309350Y-244425D01*
G37*
G54D29*
X309350Y-244425D02*
X307350Y-246425D01*
X296350Y-246425D01*
X295350Y-245425D01*
X295350Y-241425D01*
X296350Y-240425D01*
X307350Y-240425D01*
X309350Y-242425D01*
X309350Y-244425D01*
X300850Y-251425D02*
G54D30*
D03*
X300850Y-243425D02*
G54D30*
D03*
G54D28*
X246350Y-298050D02*
X246350Y-338803D01*
G54D28*
X262497Y-266697D02*
X262497Y-313925D01*
G54D28*
X254287Y-212325D02*
X254287Y-245537D01*
X254162Y-245662D01*
X281918Y-338953D02*
G54D31*
D03*
X262918Y-338953D02*
G54D31*
D03*
G54D28*
X254350Y-313925D02*
X254350Y-325275D01*
X262099Y-339374D01*
G54D28*
X270350Y-313925D02*
X270350Y-326312D01*
X262099Y-339374D01*
G54D28*
X270350Y-313925D02*
X270350Y-277100D01*
X277975Y-269475D01*
X277975Y-201212D01*
X148360Y-57292D02*
G54D32*
D03*
X153360Y-57292D02*
G54D32*
D03*
X158360Y-57292D02*
G54D32*
D03*
X163360Y-57292D02*
G54D32*
D03*
X168360Y-57292D02*
G54D32*
D03*
X148360Y-101292D02*
G54D32*
D03*
X153360Y-101292D02*
G54D32*
D03*
X158360Y-101292D02*
G54D32*
D03*
X163360Y-101292D02*
G54D32*
D03*
X168360Y-101292D02*
G54D32*
D03*
X135563Y-269871D02*
G54D33*
D03*
X148263Y-269871D02*
G54D33*
D03*
X160964Y-269871D02*
G54D33*
D03*
X173663Y-269870D02*
G54D33*
D03*
X173663Y-215871D02*
G54D33*
D03*
X160963Y-215871D02*
G54D33*
D03*
X148263Y-215871D02*
G54D33*
D03*
X135564Y-215871D02*
G54D33*
D03*
G54D34*
X130497Y-290509D02*
X140497Y-290509D01*
G54D34*
X130497Y-304809D02*
X140497Y-304809D01*
G54D28*
X135497Y-290509D02*
X135497Y-269872D01*
G54D28*
X135497Y-304809D02*
X155737Y-304797D01*
X155737Y-296065D01*
X148197Y-280587D01*
X148248Y-269886D01*
X148263Y-269871D01*
X277975Y-182212D02*
G54D35*
D03*
X277975Y-201212D02*
G54D35*
D03*
X154564Y-178589D02*
G54D31*
D03*
X135564Y-178588D02*
G54D31*
D03*
G54D28*
X135564Y-211134D02*
X135539Y-178564D01*
X135564Y-178588D01*
G54D25*
X163360Y-57292D02*
X163362Y-77066D01*
X148281Y-85798D01*
X148360Y-101292D01*
G54D25*
X132012Y-141754D02*
X132806Y-141754D01*
X153043Y-121516D01*
X153440Y-111198D01*
G54D25*
X158600Y-111198D02*
X158600Y-118341D01*
X182012Y-141754D01*
G54D36*
X132012Y-141754D02*
X97087Y-141754D01*
G54D36*
X216938Y-141754D02*
X182012Y-141754D01*
G36*
X89467Y-32001D02*
X109467Y-32001D01*
X109467Y-52001D01*
X89467Y-52001D01*
X89467Y-32001D01*
G37*
X99467Y-16601D02*
G54D37*
D03*
G36*
X187098Y-56607D02*
X207098Y-56607D01*
X207098Y-76607D01*
X187098Y-76607D01*
X187098Y-56607D01*
G37*
X197098Y-41207D02*
G54D37*
D03*
X127584Y-16690D02*
G54D31*
D03*
G36*
X140084Y-8691D02*
X153084Y-8690D01*
X153084Y-24690D01*
X140084Y-24691D01*
X140084Y-8691D01*
G37*
X177590Y-16690D02*
G54D31*
D03*
X196590Y-16690D02*
G54D31*
D03*
G54D10*
X147403Y-54765D02*
X147403Y-17509D01*
X146584Y-16690D01*
G54D10*
X127584Y-16690D02*
X99467Y-16601D01*
G54D25*
X153360Y-57292D02*
X153360Y-40921D01*
X177590Y-16690D01*
G54D25*
X196590Y-16690D02*
X197098Y-41207D01*
X123591Y-81406D02*
G54D35*
D03*
X123590Y-100406D02*
G54D35*
D03*
G54D28*
X147006Y-85722D02*
X147006Y-108740D01*
G36*
X295995Y-372421D02*
X291607Y-376809D01*
X285383Y-376809D01*
X280995Y-372421D01*
X280995Y-366197D01*
X285383Y-361809D01*
X291607Y-361809D01*
X295995Y-366197D01*
X295995Y-372421D01*
G37*
G36*
X270595Y-372421D02*
X266207Y-376809D01*
X259983Y-376809D01*
X255595Y-372421D01*
X255595Y-366197D01*
X259983Y-361809D01*
X266207Y-361809D01*
X270595Y-366197D01*
X270595Y-372421D01*
G37*
G36*
X245195Y-372421D02*
X240807Y-376809D01*
X234583Y-376809D01*
X230195Y-372421D01*
X230195Y-366197D01*
X234583Y-361809D01*
X240807Y-361809D01*
X245195Y-366197D01*
X245195Y-372421D01*
G37*
G36*
X219795Y-372421D02*
X215407Y-376809D01*
X209183Y-376809D01*
X204795Y-372421D01*
X204795Y-366197D01*
X209183Y-361809D01*
X215407Y-361809D01*
X219795Y-366197D01*
X219795Y-372421D01*
G37*
G36*
X194395Y-372421D02*
X190007Y-376809D01*
X183783Y-376809D01*
X179395Y-372421D01*
X179395Y-366197D01*
X183783Y-361809D01*
X190007Y-361809D01*
X194395Y-366197D01*
X194395Y-372421D01*
G37*
G54D25*
X215850Y-299425D02*
X215850Y-310564D01*
X186895Y-369309D01*
G54D25*
X231143Y-319878D02*
X212295Y-369309D01*
G54D25*
X238747Y-320275D02*
X237695Y-369309D01*
G54D21*
X262918Y-339696D02*
X263095Y-369309D01*
G54D25*
X215850Y-291425D02*
X206018Y-291425D01*
X175978Y-352819D01*
X135893Y-352819D01*
X119046Y-369683D01*
G54D25*
X211697Y-283365D02*
X198997Y-283365D01*
X168834Y-344881D01*
X127956Y-344881D01*
X93646Y-369683D01*
G54D21*
X68246Y-369683D02*
X68226Y-391712D01*
X90178Y-334820D02*
G54D31*
D03*
X109178Y-334820D02*
G54D31*
D03*
X67903Y-335614D02*
G54D38*
D03*
X48903Y-335614D02*
G54D38*
D03*
G54D25*
X215665Y-275428D02*
X192647Y-275428D01*
X162881Y-335356D01*
X118828Y-335356D01*
X102159Y-318687D01*
X72393Y-318687D01*
X68028Y-323053D01*
X68028Y-335753D01*
G54D25*
X90014Y-334920D02*
X81522Y-358375D01*
X81522Y-377822D01*
X88665Y-384965D01*
X141053Y-384965D01*
X145022Y-380997D01*
X144625Y-369487D01*
G54D25*
X48903Y-335614D02*
X68246Y-369683D01*
G36*
X9946Y-366571D02*
X14334Y-362183D01*
X20558Y-362183D01*
X24946Y-366571D01*
X24946Y-372795D01*
X20558Y-377183D01*
X14334Y-377183D01*
X9946Y-372795D01*
X9946Y-366571D01*
G37*
G36*
X35346Y-366571D02*
X39734Y-362183D01*
X45958Y-362183D01*
X50346Y-366571D01*
X50346Y-372795D01*
X45958Y-377183D01*
X39734Y-377183D01*
X35346Y-372795D01*
X35346Y-366571D01*
G37*
G36*
X60746Y-366571D02*
X65134Y-362183D01*
X71358Y-362183D01*
X75746Y-366571D01*
X75746Y-372795D01*
X71358Y-377183D01*
X65134Y-377183D01*
X60746Y-372795D01*
X60746Y-366571D01*
G37*
G36*
X86146Y-366571D02*
X90534Y-362183D01*
X96758Y-362183D01*
X101146Y-366571D01*
X101146Y-372795D01*
X96758Y-377183D01*
X90534Y-377183D01*
X86146Y-372795D01*
X86146Y-366571D01*
G37*
G36*
X111546Y-366571D02*
X115934Y-362183D01*
X122158Y-362183D01*
X126546Y-366571D01*
X126546Y-372795D01*
X122158Y-377183D01*
X115934Y-377183D01*
X111546Y-372795D01*
X111546Y-366571D01*
G37*
G36*
X136946Y-366571D02*
X141334Y-362183D01*
X147558Y-362183D01*
X151946Y-366571D01*
X151946Y-372795D01*
X147558Y-377183D01*
X141334Y-377183D01*
X136946Y-372795D01*
X136946Y-366571D01*
G37*
G54D21*
X263095Y-369309D02*
X263115Y-391712D01*
G54D21*
X263115Y-395681D02*
X68226Y-395681D01*
G54D36*
X336003Y-343370D02*
X336003Y-308444D01*
G54D36*
X336003Y-428295D02*
X336003Y-393370D01*
G54D25*
X278350Y-313925D02*
X278350Y-322634D01*
X282737Y-327022D01*
X298215Y-327022D01*
X318853Y-347659D01*
X318853Y-376219D01*
X336003Y-393370D01*
G54D25*
X286350Y-313925D02*
X306558Y-313925D01*
X336003Y-343370D01*
G54D25*
X210506Y-259553D02*
X204950Y-259553D01*
X173993Y-228597D01*
X173993Y-216201D01*
X173663Y-215871D01*
G54D25*
X160963Y-215871D02*
X160963Y-227870D01*
X200584Y-267490D01*
X215784Y-267490D01*
X215850Y-267425D01*
G54D25*
X160963Y-215871D02*
X160963Y-205114D01*
X175184Y-190894D01*
X202568Y-190894D01*
X235509Y-157953D01*
X235509Y-134140D01*
X218443Y-117075D01*
X167643Y-117075D01*
X163675Y-113106D01*
X163278Y-109147D01*
G54D25*
X173663Y-215871D02*
X173663Y-203130D01*
X178756Y-198037D01*
X204553Y-198037D01*
X242653Y-159937D01*
X242653Y-130965D01*
X222412Y-110725D01*
X174618Y-110725D01*
X168360Y-101292D01*
G54D25*
X160964Y-269871D02*
X160963Y-254460D01*
X150578Y-244075D01*
X89459Y-244075D01*
G54D28*
X124781Y-101597D02*
X147006Y-101200D01*
G54D25*
X169231Y-109931D02*
X169231Y-92865D01*
M02*
