%FSLAX34Y34*%
%MOMM*%
%LNCOPPER_TOP*%
G71*
G01*
%ADD10C, 5.000*%
%ADD11C, 5.200*%
%ADD12C, 2.400*%
%ADD13C, 2.400*%
%ADD14R, 3.300X2.200*%
%ADD15R, 2.800X3.300*%
%ADD16C, 0.700*%
%ADD17R, 2.600X1.100*%
%ADD18C, 0.900*%
%ADD19R, 1.000X2.400*%
%ADD20R, 0.700X2.400*%
%ADD21R, 5.600X2.100*%
%ADD22C, 1.900*%
%ADD23C, 1.000*%
%ADD24C, 0.600*%
%ADD25C, 1.100*%
%ADD26R, 2.000X1.700*%
%ADD27C, 1.600*%
%ADD28C, 2.200*%
%ADD29R, 1.700X1.800*%
%ADD30C, 1.300*%
%ADD31C, 3.600*%
%ADD32C, 3.400*%
%ADD33R, 2.100X2.400*%
%ADD34R, 1.800X1.700*%
%ADD35R, 2.400X2.100*%
%ADD36R, 1.900X5.200*%
%ADD37C, 0.175*%
%ADD38C, 2.400*%
%ADD39C, 1.680*%
%ADD40R, 2.500X5.000*%
%ADD41R, 4.800X2.300*%
%ADD42C, 0.800*%
%ADD43C, 0.159*%
%ADD44C, 0.191*%
%ADD45R, 1.100X2.600*%
%ADD46C, 1.280*%
%ADD47R, 1.700X2.000*%
%ADD48C, 0.300*%
%ADD49C, 0.400*%
%ADD50R, 0.900X0.900*%
%ADD51R, 3.100X1.400*%
%ADD52C, 1.280*%
%ADD53C, 0.667*%
%ADD54C, 0.649*%
%ADD55C, 0.433*%
%ADD56C, 0.233*%
%ADD57C, 0.245*%
%ADD58C, 2.000*%
%ADD59C, 2.000*%
%ADD60R, 2.000X2.500*%
%ADD61C, 0.100*%
%ADD62R, 2.200X0.700*%
%ADD63R, 0.600X2.000*%
%ADD64R, 0.300X2.000*%
%ADD65R, 5.000X1.500*%
%ADD66C, 1.500*%
%ADD67C, 0.500*%
%ADD68R, 1.600X1.300*%
%ADD69C, 1.800*%
%ADD70C, 0.200*%
%ADD71R, 1.300X1.400*%
%ADD72C, 3.000*%
%ADD73R, 1.300X1.600*%
%ADD74R, 1.400X1.300*%
%ADD75R, 1.500X4.800*%
%ADD76C, 2.000*%
%ADD77R, 1.900X4.400*%
%ADD78R, 4.400X1.900*%
%ADD79R, 0.700X2.200*%
%ADD80C, 0.000*%
%ADD81R, 0.500X0.500*%
%ADD82R, 2.700X1.000*%
%LPD*%
G36*
X792Y-396D02*
X990792Y-396D01*
X990792Y-340396D01*
X792Y-340396D01*
X792Y-396D01*
G37*
%LPC*%
X50402Y-54371D02*
G54D10*
D03*
X831451Y-54371D02*
G54D11*
D03*
G36*
X747617Y-126298D02*
X747617Y-102298D01*
X771617Y-102298D01*
X771617Y-126298D01*
X747617Y-126298D01*
G37*
X759618Y-88898D02*
G54D12*
D03*
X759618Y-63498D02*
G54D12*
D03*
X759618Y-38098D02*
G54D12*
D03*
X390126Y-205184D02*
G54D13*
D03*
X542526Y-205184D02*
G54D13*
D03*
X390126Y-230584D02*
G54D13*
D03*
X542526Y-255984D02*
G54D13*
D03*
X390126Y-255984D02*
G54D13*
D03*
X909741Y-37565D02*
G54D14*
D03*
X909636Y-95250D02*
G54D15*
D03*
G36*
X921036Y-78750D02*
X949036Y-78749D01*
X949036Y-111749D01*
X921036Y-111750D01*
X921036Y-78750D01*
G37*
X884236Y-95250D02*
G54D15*
D03*
G36*
X925512Y-128588D02*
X982662Y-128588D01*
X982662Y-82550D01*
X925512Y-82550D01*
X925512Y-128588D01*
G37*
G54D16*
X925512Y-128588D02*
X982662Y-128588D01*
X982662Y-82550D01*
X925512Y-82550D01*
X925512Y-128588D01*
X668732Y-71833D02*
G54D17*
D03*
X668732Y-59133D02*
G54D17*
D03*
X668733Y-46433D02*
G54D17*
D03*
X668732Y-33733D02*
G54D17*
D03*
X614733Y-33733D02*
G54D17*
D03*
X614732Y-46433D02*
G54D17*
D03*
X614732Y-59133D02*
G54D17*
D03*
X614733Y-71833D02*
G54D17*
D03*
G54D18*
X671370Y-58624D02*
X671114Y-58736D01*
G54D16*
X470103Y-300476D02*
X470103Y-293729D01*
X485184Y-283807D01*
X485184Y-272695D01*
X486772Y-310002D02*
G54D19*
D03*
X480184Y-310002D02*
G54D20*
D03*
X475184Y-310002D02*
G54D20*
D03*
X470184Y-310001D02*
G54D20*
D03*
X480184Y-266001D02*
G54D20*
D03*
X475184Y-266001D02*
G54D20*
D03*
X470184Y-266001D02*
G54D20*
D03*
X463753Y-310002D02*
G54D19*
D03*
X486772Y-265949D02*
G54D19*
D03*
X463753Y-265949D02*
G54D19*
D03*
X513437Y-230264D02*
G54D21*
D03*
X431680Y-230264D02*
G54D21*
D03*
G54D16*
X614732Y-46433D02*
X632617Y-46433D01*
X632617Y-26986D01*
X641348Y-18255D01*
X742949Y-18255D01*
X742948Y-50402D01*
X759618Y-63498D01*
G54D16*
X759618Y-38892D02*
X759617Y-12302D01*
X638967Y-12302D01*
X616744Y-34528D01*
X614733Y-34527D01*
G54D18*
X439738Y-263525D02*
X463709Y-263126D01*
G54D16*
X470295Y-275033D02*
X470295Y-279002D01*
X466725Y-281384D01*
X450453Y-281384D01*
X439738Y-288925D01*
G54D16*
X427712Y-230264D02*
X450133Y-230264D01*
X475058Y-251617D01*
X475058Y-259952D01*
G54D16*
X480217Y-259952D02*
X480217Y-251220D01*
X504427Y-231376D01*
G54D18*
X464614Y-127838D02*
X464614Y-153715D01*
X461168Y-152002D01*
G36*
X430238Y-254025D02*
X449238Y-254025D01*
X449238Y-273025D01*
X430238Y-273025D01*
X430238Y-254025D01*
G37*
X439738Y-288925D02*
G54D22*
D03*
G54D16*
X496614Y-127838D02*
X497011Y-170530D01*
X486567Y-180973D01*
X382586Y-180973D01*
X366710Y-196849D01*
X366711Y-247253D01*
X386157Y-255984D01*
G54D16*
X386157Y-205184D02*
X407194Y-198438D01*
X488554Y-198435D01*
X492125Y-191294D01*
X511174Y-172242D01*
X511174Y-113397D01*
X511114Y-113338D01*
G54D16*
X538557Y-205184D02*
X523874Y-184148D01*
X523874Y-105567D01*
X511343Y-105567D01*
X511114Y-105338D01*
G36*
X596465Y-39590D02*
X577465Y-39590D01*
X577465Y-20590D01*
X596465Y-20590D01*
X596465Y-39590D01*
G37*
X586965Y-55490D02*
G54D22*
D03*
G54D18*
X614732Y-46433D02*
X598089Y-46434D01*
X586965Y-55490D01*
G54D18*
X614733Y-33733D02*
X586965Y-30090D01*
G54D23*
X393241Y-65422D02*
X465388Y-65338D01*
X473470Y-73420D01*
X510800Y-73420D01*
G54D23*
X510717Y-73338D02*
X524270Y-73420D01*
X524270Y-89295D01*
X510717Y-89338D01*
G54D24*
X496092Y-81358D02*
X511114Y-81338D01*
G54D24*
X530620Y-97630D02*
X495298Y-97630D01*
G54D24*
X437752Y-89295D02*
X425052Y-89295D01*
X413145Y-89295D01*
G54D25*
X614733Y-71833D02*
X570309Y-71833D01*
X398040Y-69873D02*
G54D26*
D03*
X398040Y-88872D02*
G54D26*
D03*
G54D18*
X503956Y-269770D02*
X521389Y-269770D01*
X533002Y-281383D01*
X575070Y-281383D01*
X575070Y-204786D01*
X590548Y-189283D01*
X590548Y-173036D01*
X602456Y-144064D01*
X591343Y-118267D01*
G54D27*
X759618Y-88898D02*
X744536Y-92470D01*
X728339Y-109004D01*
G36*
X273412Y-54422D02*
X295412Y-54422D01*
X295412Y-76422D01*
X273412Y-76422D01*
X273412Y-54422D01*
G37*
X284412Y-40022D02*
G54D28*
D03*
X309812Y-65422D02*
G54D28*
D03*
X309812Y-40022D02*
G54D28*
D03*
X335212Y-65422D02*
G54D28*
D03*
X335212Y-40022D02*
G54D28*
D03*
X483392Y-152002D02*
G54D22*
D03*
G54D18*
X472614Y-127838D02*
X472614Y-141621D01*
X483392Y-152002D01*
G54D24*
X440614Y-42838D02*
X440904Y-29344D01*
X435767Y-24208D01*
X326230Y-24208D01*
X322658Y-27780D01*
X322658Y-46036D01*
X315911Y-52783D01*
X297052Y-52783D01*
X284412Y-65422D01*
G54D24*
X309959Y-40084D02*
X309959Y-32544D01*
X322262Y-20241D01*
X439341Y-20241D01*
X448469Y-29369D01*
X448469Y-42862D01*
G54D16*
X309812Y-65422D02*
X315911Y-61911D01*
X325039Y-52783D01*
X421956Y-52783D01*
X426114Y-56941D01*
G54D25*
X284161Y-39687D02*
X284162Y-20638D01*
X295274Y-11112D01*
X569911Y-11112D01*
X569911Y-87312D01*
X590945Y-117871D01*
G36*
X347942Y-60849D02*
X364942Y-60849D01*
X364942Y-78849D01*
X347942Y-78849D01*
X347942Y-60849D01*
G37*
X375442Y-69849D02*
G54D29*
D03*
G54D30*
X335212Y-65422D02*
X355251Y-69849D01*
G54D25*
X375442Y-69849D02*
X398040Y-69873D01*
X24376Y-119458D02*
G54D31*
D03*
X104376Y-119458D02*
G54D32*
D03*
X142080Y-119458D02*
G54D12*
D03*
X167480Y-119458D02*
G54D12*
D03*
X192880Y-119458D02*
G54D12*
D03*
X104353Y-100382D02*
G54D26*
D03*
X104353Y-81383D02*
G54D26*
D03*
G54D18*
X104377Y-119458D02*
X142080Y-119458D01*
X590946Y-117076D02*
G54D33*
D03*
G36*
X599446Y-105077D02*
X620446Y-105076D01*
X620446Y-129076D01*
X599446Y-129077D01*
X599446Y-105077D01*
G37*
G36*
X653027Y-100179D02*
X653027Y-124179D01*
X629027Y-124179D01*
X629027Y-100179D01*
X653027Y-100179D01*
G37*
X666427Y-112179D02*
G54D12*
D03*
G54D16*
X258762Y-112712D02*
X273049Y-112712D01*
X296465Y-136128D01*
X358377Y-136128D01*
X407986Y-130175D01*
X425449Y-112712D01*
X258313Y-112711D02*
G54D29*
D03*
X239313Y-112711D02*
G54D29*
D03*
X461168Y-152002D02*
G54D22*
D03*
G54D16*
X439738Y-263525D02*
X416320Y-263126D01*
X403620Y-275826D01*
X375839Y-275826D01*
X356789Y-256776D01*
X356789Y-191689D01*
X381792Y-166686D01*
X434181Y-166686D01*
X456404Y-136921D01*
X456614Y-127838D01*
X308070Y-116534D02*
G54D34*
D03*
X308070Y-97534D02*
G54D34*
D03*
X44052Y-119855D02*
G54D29*
D03*
X63051Y-119854D02*
G54D29*
D03*
X331088Y-116586D02*
G54D34*
D03*
X331087Y-97586D02*
G54D34*
D03*
G54D18*
X355599Y-115888D02*
X331786Y-115888D01*
X307974Y-115888D01*
G36*
X333306Y-171066D02*
X345327Y-159045D01*
X358055Y-171773D01*
X346034Y-183794D01*
X333306Y-171066D01*
G37*
G36*
X346741Y-157631D02*
X358762Y-145610D01*
X371490Y-158338D01*
X359469Y-170359D01*
X346741Y-157631D01*
G37*
X510356Y-272279D02*
G54D35*
D03*
X510356Y-291279D02*
G54D35*
D03*
G54D25*
X486885Y-273428D02*
X505935Y-273428D01*
G36*
X540461Y-103280D02*
X559461Y-103280D01*
X559462Y-155280D01*
X540462Y-155280D01*
X540461Y-103280D01*
G37*
X549962Y-47524D02*
G54D36*
D03*
G54D23*
X511114Y-57338D02*
X534195Y-57338D01*
X549962Y-47524D01*
G54D23*
X511114Y-65338D02*
X532460Y-65338D01*
X549962Y-107452D01*
X550067Y-129175D01*
X549962Y-129280D01*
X355296Y-116585D02*
G54D26*
D03*
X355296Y-97585D02*
G54D26*
D03*
X602059Y-143667D02*
G54D33*
D03*
X583059Y-143667D02*
G54D33*
D03*
G54D37*
X16048Y-94614D02*
X19715Y-84836D01*
X23382Y-94614D01*
G54D37*
X17515Y-90947D02*
X21915Y-90947D01*
G54D37*
X26803Y-94614D02*
X26803Y-84836D01*
X32670Y-94614D01*
X32670Y-84836D01*
G54D37*
X39026Y-94614D02*
X39026Y-84836D01*
G54D37*
X36092Y-84836D02*
X41959Y-84836D01*
G54D37*
X45381Y-94614D02*
X52714Y-94614D01*
G54D37*
X62003Y-92781D02*
X61269Y-94003D01*
X59803Y-94614D01*
X58336Y-94614D01*
X56869Y-94003D01*
X56136Y-92781D01*
X56136Y-86670D01*
X56869Y-85447D01*
X58336Y-84836D01*
X59803Y-84836D01*
X61269Y-85447D01*
X62003Y-86670D01*
G54D37*
X65425Y-89725D02*
X66892Y-89114D01*
X68652Y-89114D01*
X69825Y-90336D01*
X69825Y-94614D01*
G54D37*
X69825Y-92781D02*
X69092Y-91559D01*
X67625Y-91314D01*
X66158Y-91559D01*
X65425Y-92781D01*
X65718Y-94003D01*
X66892Y-94614D01*
X67625Y-94614D01*
X67918Y-94614D01*
X69092Y-94003D01*
X69825Y-92781D01*
G54D37*
X73247Y-89114D02*
X73247Y-97059D01*
G54D37*
X73247Y-92781D02*
X73980Y-94370D01*
X75447Y-94614D01*
X76914Y-94370D01*
X77647Y-93147D01*
X77647Y-90703D01*
X76914Y-89481D01*
X75447Y-89114D01*
X73980Y-89481D01*
X73247Y-90947D01*
G54D37*
X82637Y-12851D02*
X82637Y-18962D01*
X81903Y-20184D01*
X80437Y-20795D01*
X78970Y-20795D01*
X77503Y-20184D01*
X76770Y-18962D01*
X76770Y-12851D01*
X77503Y-11629D01*
X78970Y-11018D01*
X80437Y-11018D01*
X81903Y-11629D01*
X82637Y-12851D01*
G54D37*
X90459Y-15295D02*
X90459Y-20795D01*
G54D37*
X90459Y-19573D02*
X89726Y-20551D01*
X88259Y-20795D01*
X86792Y-20551D01*
X86059Y-19573D01*
X86059Y-15295D01*
G54D37*
X95348Y-11018D02*
X95348Y-20184D01*
X96081Y-20795D01*
X96814Y-20551D01*
G54D37*
X93881Y-15295D02*
X96814Y-15295D01*
G54D37*
X103805Y-20795D02*
X103805Y-11018D01*
X107472Y-11018D01*
X108938Y-11629D01*
X109672Y-12851D01*
X109672Y-14073D01*
X108938Y-15295D01*
X107472Y-15906D01*
X103805Y-15906D01*
G54D37*
X117494Y-19329D02*
X117494Y-16884D01*
X116761Y-15662D01*
X115294Y-15295D01*
X113827Y-15662D01*
X113094Y-16884D01*
X113094Y-19329D01*
X113827Y-20551D01*
X115294Y-20795D01*
X116761Y-20551D01*
X117494Y-19329D01*
G54D37*
X120916Y-15295D02*
X123116Y-20795D01*
X125316Y-15295D01*
X127516Y-20795D01*
X128983Y-15295D01*
G54D37*
X136805Y-20184D02*
X135632Y-20795D01*
X134165Y-20795D01*
X132698Y-20184D01*
X132405Y-18962D01*
X132405Y-16884D01*
X133138Y-15662D01*
X134605Y-15295D01*
X136072Y-15662D01*
X136805Y-16518D01*
X136805Y-17740D01*
X132405Y-17740D01*
G54D37*
X140227Y-20795D02*
X140227Y-15295D01*
G54D37*
X140227Y-16518D02*
X141694Y-15295D01*
X143160Y-15295D01*
G54D37*
X150151Y-20795D02*
X153818Y-11018D01*
X157484Y-20795D01*
G54D37*
X151618Y-17129D02*
X156018Y-17129D01*
G54D37*
X162373Y-13462D02*
X162373Y-13462D01*
G54D37*
X160906Y-23240D02*
X161639Y-23240D01*
X162373Y-22262D01*
X162373Y-15295D01*
G54D38*
X289247Y-159867D02*
X275105Y-145725D01*
X316707Y-156367D02*
G54D34*
D03*
X316707Y-175367D02*
G54D34*
D03*
X339724Y-196900D02*
G54D34*
D03*
X339724Y-215899D02*
G54D34*
D03*
X315911Y-196898D02*
G54D26*
D03*
X315911Y-215898D02*
G54D26*
D03*
G54D37*
X237901Y-139549D02*
X243768Y-139549D01*
G54D37*
X240835Y-137104D02*
X240835Y-141993D01*
G54D37*
X250124Y-143827D02*
X250124Y-134049D01*
G54D37*
X247190Y-134049D02*
X253057Y-134049D01*
G54D37*
X256479Y-134049D02*
X263813Y-143827D01*
G54D37*
X256479Y-143827D02*
X263813Y-134049D01*
X968374Y-95250D02*
G54D39*
D03*
X282970Y-95645D02*
G54D22*
D03*
G54D18*
X339724Y-196900D02*
X339725Y-182959D01*
X345254Y-171821D01*
G54D18*
X339724Y-196900D02*
X316281Y-197268D01*
X315911Y-196898D01*
X315916Y-176158D01*
G54D18*
X316707Y-156367D02*
X290907Y-156368D01*
G54D18*
X282970Y-95645D02*
X308070Y-97534D01*
X338533Y-289320D02*
G54D40*
D03*
G54D23*
X463945Y-304402D02*
X411558Y-304402D01*
X399254Y-291701D01*
X338533Y-291701D01*
X605630Y-308370D02*
G54D41*
D03*
G54D23*
X486964Y-311148D02*
X546098Y-311148D01*
G54D42*
X355995Y-156366D02*
X378220Y-148032D01*
X420289Y-148032D01*
X440530Y-127792D01*
G54D16*
X239712Y-112712D02*
X207962Y-98425D01*
X179386Y-98425D01*
X166686Y-111125D01*
X166686Y-119062D01*
G54D43*
X11508Y-16271D02*
X14841Y-12938D01*
X14841Y-21826D01*
G54D43*
X17952Y-14604D02*
X18619Y-13493D01*
X19952Y-12938D01*
X21285Y-12938D01*
X22618Y-13493D01*
X23285Y-14604D01*
X23285Y-15715D01*
X22618Y-16826D01*
X21285Y-17382D01*
X22618Y-17938D01*
X23285Y-19049D01*
X23285Y-20160D01*
X22618Y-21271D01*
X21285Y-21826D01*
X19952Y-21826D01*
X18619Y-21271D01*
X17952Y-20160D01*
G54D43*
X31729Y-14604D02*
X31729Y-20160D01*
X31062Y-21271D01*
X29729Y-21826D01*
X28396Y-21826D01*
X27062Y-21271D01*
X26396Y-20160D01*
X26396Y-14604D01*
X27062Y-13493D01*
X28396Y-12938D01*
X29729Y-12938D01*
X31062Y-13493D01*
X31729Y-14604D01*
G54D43*
X38840Y-16826D02*
X38840Y-21826D01*
G54D43*
X38840Y-20715D02*
X38173Y-21604D01*
X36840Y-21826D01*
X35506Y-21604D01*
X34840Y-20715D01*
X34840Y-16826D01*
G54D43*
X47284Y-14604D02*
X47284Y-20160D01*
X46618Y-21271D01*
X45284Y-21826D01*
X43951Y-21826D01*
X42618Y-21271D01*
X41951Y-20160D01*
X41951Y-14604D01*
X42618Y-13493D01*
X43951Y-12938D01*
X45284Y-12938D01*
X46618Y-13493D01*
X47284Y-14604D01*
G54D43*
X55728Y-21826D02*
X50395Y-21826D01*
X50395Y-21271D01*
X51062Y-20160D01*
X55062Y-16826D01*
X55728Y-15715D01*
X55728Y-14604D01*
X55062Y-13493D01*
X53728Y-12938D01*
X52395Y-12938D01*
X51062Y-13493D01*
X50395Y-14604D01*
G54D43*
X361948Y-40083D02*
X365282Y-36750D01*
X365282Y-45639D01*
G54D43*
X368392Y-38417D02*
X369059Y-37306D01*
X370392Y-36750D01*
X371726Y-36750D01*
X373059Y-37306D01*
X373726Y-38417D01*
X373726Y-39528D01*
X373059Y-40639D01*
X371726Y-41195D01*
X373059Y-41750D01*
X373726Y-42861D01*
X373726Y-43972D01*
X373059Y-45083D01*
X371726Y-45639D01*
X370392Y-45639D01*
X369059Y-45083D01*
X368392Y-43972D01*
G54D43*
X382170Y-38417D02*
X382170Y-43972D01*
X381503Y-45083D01*
X380170Y-45639D01*
X378836Y-45639D01*
X377503Y-45083D01*
X376836Y-43972D01*
X376836Y-38417D01*
X377503Y-37306D01*
X378836Y-36750D01*
X380170Y-36750D01*
X381503Y-37306D01*
X382170Y-38417D01*
G54D43*
X389280Y-40639D02*
X389280Y-45639D01*
G54D43*
X389280Y-44528D02*
X388614Y-45417D01*
X387280Y-45639D01*
X385947Y-45417D01*
X385280Y-44528D01*
X385280Y-40639D01*
G54D43*
X397725Y-38417D02*
X397725Y-43972D01*
X397058Y-45083D01*
X395725Y-45639D01*
X394392Y-45639D01*
X393058Y-45083D01*
X392392Y-43972D01*
X392392Y-38417D01*
X393058Y-37306D01*
X394392Y-36750D01*
X395725Y-36750D01*
X397058Y-37306D01*
X397725Y-38417D01*
G54D43*
X406169Y-45639D02*
X400836Y-45639D01*
X400836Y-45083D01*
X401502Y-43972D01*
X405502Y-40639D01*
X406169Y-39528D01*
X406169Y-38417D01*
X405502Y-37306D01*
X404169Y-36750D01*
X402836Y-36750D01*
X401502Y-37306D01*
X400836Y-38417D01*
G54D44*
X793748Y-101680D02*
X797748Y-97680D01*
X797748Y-108346D01*
G54D44*
X801482Y-99680D02*
X802282Y-98346D01*
X803882Y-97680D01*
X805482Y-97680D01*
X807082Y-98346D01*
X807882Y-99680D01*
X807882Y-101013D01*
X807082Y-102346D01*
X805482Y-103013D01*
X807082Y-103680D01*
X807882Y-105013D01*
X807882Y-106346D01*
X807082Y-107680D01*
X805482Y-108346D01*
X803882Y-108346D01*
X802282Y-107680D01*
X801482Y-106346D01*
G54D44*
X818014Y-99680D02*
X818014Y-106346D01*
X817214Y-107680D01*
X815614Y-108346D01*
X814014Y-108346D01*
X812414Y-107680D01*
X811614Y-106346D01*
X811614Y-99680D01*
X812414Y-98346D01*
X814014Y-97680D01*
X815614Y-97680D01*
X817214Y-98346D01*
X818014Y-99680D01*
G54D44*
X826548Y-102346D02*
X826548Y-108346D01*
G54D44*
X826548Y-107013D02*
X825748Y-108080D01*
X824148Y-108346D01*
X822548Y-108080D01*
X821748Y-107013D01*
X821748Y-102346D01*
G54D44*
X836680Y-99680D02*
X836680Y-106346D01*
X835880Y-107680D01*
X834280Y-108346D01*
X832680Y-108346D01*
X831080Y-107680D01*
X830280Y-106346D01*
X830280Y-99680D01*
X831080Y-98346D01*
X832680Y-97680D01*
X834280Y-97680D01*
X835880Y-98346D01*
X836680Y-99680D01*
G54D44*
X846814Y-108346D02*
X840414Y-108346D01*
X840414Y-107680D01*
X841214Y-106346D01*
X846014Y-102346D01*
X846814Y-101013D01*
X846814Y-99680D01*
X846014Y-98346D01*
X844414Y-97680D01*
X842814Y-97680D01*
X841214Y-98346D01*
X840414Y-99680D01*
G36*
X229975Y-98672D02*
X229975Y-76672D01*
X251975Y-76672D01*
X251975Y-98672D01*
X229975Y-98672D01*
G37*
X240975Y-62272D02*
G54D28*
D03*
X240975Y-36872D02*
G54D28*
D03*
G54D18*
X240975Y-36872D02*
X284412Y-36847D01*
G54D18*
X240975Y-62272D02*
X284412Y-62247D01*
X704547Y-54277D02*
G54D34*
D03*
X704547Y-35277D02*
G54D34*
D03*
X704574Y-99493D02*
G54D34*
D03*
X704574Y-80493D02*
G54D34*
D03*
G54D18*
X668733Y-46433D02*
X687833Y-46433D01*
X696516Y-54372D01*
X704547Y-54277D01*
X728758Y-56655D02*
G54D34*
D03*
X728758Y-75655D02*
G54D34*
D03*
G54D18*
X704574Y-99493D02*
X666427Y-112179D01*
G54D18*
X704574Y-80493D02*
X704547Y-54277D01*
X728339Y-32805D02*
G54D12*
D03*
X728339Y-109004D02*
G54D12*
D03*
G54D16*
X704574Y-99493D02*
X719136Y-92073D01*
X727942Y-76472D01*
G54D18*
X728361Y-56655D02*
X728361Y-32827D01*
G36*
X982662Y-9525D02*
X777874Y-9525D01*
X773112Y-15875D01*
X773112Y-69850D01*
X761999Y-80962D01*
X761999Y-96838D01*
X787399Y-96838D01*
X800893Y-83344D01*
X800893Y-40878D01*
X817165Y-24606D01*
X850105Y-24606D01*
X863599Y-38100D01*
X863599Y-77788D01*
X982662Y-77788D01*
X982662Y-9525D01*
G37*
G54D16*
X982662Y-9525D02*
X777874Y-9525D01*
X773112Y-15875D01*
X773112Y-69850D01*
X761999Y-80962D01*
X761999Y-96838D01*
X787399Y-96838D01*
X800893Y-83344D01*
X800893Y-40878D01*
X817165Y-24606D01*
X850105Y-24606D01*
X863599Y-38100D01*
X863599Y-77788D01*
X982662Y-77788D01*
X982662Y-9525D01*
G54D44*
X783827Y-117920D02*
X783827Y-126587D01*
X784627Y-127920D01*
X786227Y-128587D01*
X787827Y-128587D01*
X789427Y-127920D01*
X790227Y-126587D01*
X790227Y-117920D01*
G54D44*
X793960Y-128587D02*
X793960Y-117920D01*
X797960Y-117920D01*
X799560Y-118587D01*
X800360Y-119920D01*
X800360Y-126587D01*
X799560Y-127920D01*
X797960Y-128587D01*
X793960Y-128587D01*
G54D44*
X810493Y-119920D02*
X810493Y-126587D01*
X809693Y-127920D01*
X808093Y-128587D01*
X806493Y-128587D01*
X804893Y-127920D01*
X804093Y-126587D01*
X804093Y-119920D01*
X804893Y-118587D01*
X806493Y-117920D01*
X808093Y-117920D01*
X809693Y-118587D01*
X810493Y-119920D01*
G54D44*
X820626Y-126587D02*
X819826Y-127920D01*
X818226Y-128587D01*
X816626Y-128587D01*
X815026Y-127920D01*
X814226Y-126587D01*
X814226Y-119920D01*
X815026Y-118587D01*
X816626Y-117920D01*
X818226Y-117920D01*
X819826Y-118587D01*
X820626Y-119920D01*
G54D44*
X824359Y-128587D02*
X828359Y-117920D01*
X832359Y-128587D01*
G54D44*
X825959Y-124587D02*
X830759Y-124587D01*
G54D44*
X842492Y-117920D02*
X842492Y-126587D01*
X841692Y-127920D01*
X840092Y-128587D01*
X838492Y-128587D01*
X836892Y-127920D01*
X836092Y-126587D01*
G54D37*
X306164Y-289083D02*
X312030Y-289083D01*
G54D37*
X309097Y-289083D02*
X309097Y-279305D01*
G54D37*
X306164Y-279305D02*
X312030Y-279305D01*
G54D37*
X315453Y-289083D02*
X315453Y-279305D01*
X320586Y-279305D01*
G54D37*
X315453Y-284194D02*
X320586Y-284194D01*
G54D37*
X591914Y-282083D02*
X595580Y-291861D01*
X599247Y-282083D01*
G54D37*
X602669Y-291861D02*
X602669Y-282083D01*
X607802Y-282083D01*
G54D37*
X602669Y-286972D02*
X607802Y-286972D01*
G54D37*
X617090Y-283917D02*
X617090Y-290028D01*
X616357Y-291250D01*
X614890Y-291861D01*
X613424Y-291861D01*
X611957Y-291250D01*
X611224Y-290028D01*
X611224Y-283917D01*
X611957Y-282694D01*
X613424Y-282083D01*
X614890Y-282083D01*
X616357Y-282694D01*
X617090Y-283917D01*
X590548Y-243283D02*
G54D45*
D03*
X603249Y-243283D02*
G54D45*
D03*
X615948Y-243283D02*
G54D45*
D03*
G36*
X623148Y-230282D02*
X634148Y-230282D01*
X634150Y-256282D01*
X623150Y-256282D01*
X623148Y-230282D01*
G37*
X628648Y-189283D02*
G54D45*
D03*
G36*
X610448Y-176283D02*
X621448Y-176282D01*
X621449Y-202282D01*
X610449Y-202283D01*
X610448Y-176283D01*
G37*
X603248Y-189283D02*
G54D45*
D03*
G36*
X585048Y-176283D02*
X596048Y-176283D01*
X596049Y-202283D01*
X585049Y-202283D01*
X585048Y-176283D01*
G37*
G36*
X631680Y-173564D02*
X631680Y-154564D01*
X650680Y-154564D01*
X650680Y-173564D01*
X631680Y-173564D01*
G37*
X615780Y-164064D02*
G54D22*
D03*
G54D16*
X628648Y-189283D02*
X641180Y-164064D01*
G54D16*
X615948Y-189283D02*
X615780Y-164064D01*
X417114Y-39686D02*
G54D46*
D03*
X636189Y-326229D02*
G54D46*
D03*
X307576Y-325039D02*
G54D46*
D03*
X643333Y-88104D02*
G54D46*
D03*
X573483Y-175020D02*
G54D46*
D03*
G36*
X372101Y-102918D02*
X389101Y-102918D01*
X389102Y-120918D01*
X372102Y-120918D01*
X372101Y-102918D01*
G37*
X399601Y-111918D02*
G54D29*
D03*
G54D18*
X355296Y-116585D02*
X375935Y-116585D01*
X380601Y-111918D01*
G54D42*
X399601Y-111918D02*
X409572Y-111918D01*
X415923Y-105568D01*
X425884Y-105568D01*
X426114Y-105338D01*
G54D18*
X480217Y-73420D02*
X519111Y-34924D01*
X519110Y-10714D01*
G36*
X473470Y-73420D02*
X465785Y-65735D01*
X465785Y-59277D01*
X467120Y-57942D01*
X496488Y-57942D01*
X496488Y-69848D01*
X500061Y-73420D01*
X473470Y-73420D01*
G37*
G54D16*
X473470Y-73420D02*
X465785Y-65735D01*
X465785Y-59277D01*
X467120Y-57942D01*
X496488Y-57942D01*
X496488Y-69848D01*
X500061Y-73420D01*
X473470Y-73420D01*
X391689Y-318714D02*
G54D47*
D03*
X372690Y-318714D02*
G54D47*
D03*
G36*
X405835Y-312071D02*
X422835Y-312071D01*
X422836Y-330071D01*
X405836Y-330071D01*
X405835Y-312071D01*
G37*
X433335Y-321071D02*
G54D29*
D03*
G54D16*
X414335Y-321071D02*
X391689Y-318714D01*
G54D16*
X433335Y-321071D02*
X445689Y-321071D01*
X453229Y-328611D01*
X478629Y-328611D01*
X480216Y-327024D01*
X480216Y-317499D01*
G36*
X486963Y-273446D02*
X510379Y-273446D01*
X510379Y-266699D01*
X501251Y-257571D01*
X486963Y-257571D01*
X486963Y-273446D01*
G37*
G54D16*
X486963Y-273446D02*
X510379Y-273446D01*
X510379Y-266699D01*
X501251Y-257571D01*
X486963Y-257571D01*
X486963Y-273446D01*
G36*
X518535Y-164210D02*
X539535Y-164210D01*
X539536Y-188210D01*
X518536Y-188210D01*
X518535Y-164210D01*
G37*
X548035Y-176210D02*
G54D33*
D03*
G36*
X478054Y-186435D02*
X499054Y-186435D01*
X499054Y-210435D01*
X478054Y-210435D01*
X478054Y-186435D01*
G37*
X507554Y-198435D02*
G54D33*
D03*
X366266Y-245267D02*
G54D33*
D03*
X347266Y-245267D02*
G54D33*
D03*
G54D48*
X494504Y-111123D02*
X486567Y-103185D01*
G54D23*
X590549Y-240504D02*
X590549Y-225422D01*
G54D30*
X603249Y-143667D02*
X654048Y-143667D01*
X728339Y-108608D01*
G54D16*
X500854Y-257570D02*
X506411Y-252013D01*
G36*
X519614Y-114338D02*
X517614Y-116338D01*
X506614Y-116338D01*
X505614Y-115338D01*
X505614Y-111338D01*
X506614Y-110338D01*
X517614Y-110338D01*
X519614Y-112338D01*
X519614Y-114338D01*
G37*
G54D49*
X519614Y-114338D02*
X517614Y-116338D01*
X506614Y-116338D01*
X505614Y-115338D01*
X505614Y-111338D01*
X506614Y-110338D01*
X517614Y-110338D01*
X519614Y-112338D01*
X519614Y-114338D01*
G36*
X519614Y-106338D02*
X517614Y-108338D01*
X506614Y-108338D01*
X505614Y-107338D01*
X505614Y-103338D01*
X506614Y-102338D01*
X517614Y-102338D01*
X519614Y-104338D01*
X519614Y-106338D01*
G37*
G54D49*
X519614Y-106338D02*
X517614Y-108338D01*
X506614Y-108338D01*
X505614Y-107338D01*
X505614Y-103338D01*
X506614Y-102338D01*
X517614Y-102338D01*
X519614Y-104338D01*
X519614Y-106338D01*
X511114Y-113338D02*
G54D50*
D03*
X511114Y-105338D02*
G54D50*
D03*
G36*
X519614Y-98338D02*
X517614Y-100338D01*
X506614Y-100338D01*
X505614Y-99338D01*
X505614Y-95338D01*
X506614Y-94338D01*
X517614Y-94338D01*
X519614Y-96338D01*
X519614Y-98338D01*
G37*
G54D49*
X519614Y-98338D02*
X517614Y-100338D01*
X506614Y-100338D01*
X505614Y-99338D01*
X505614Y-95338D01*
X506614Y-94338D01*
X517614Y-94338D01*
X519614Y-96338D01*
X519614Y-98338D01*
G36*
X519614Y-90338D02*
X517614Y-92338D01*
X506614Y-92338D01*
X505614Y-91338D01*
X505614Y-87338D01*
X506614Y-86338D01*
X517614Y-86338D01*
X519614Y-88338D01*
X519614Y-90338D01*
G37*
G54D49*
X519614Y-90338D02*
X517614Y-92338D01*
X506614Y-92338D01*
X505614Y-91338D01*
X505614Y-87338D01*
X506614Y-86338D01*
X517614Y-86338D01*
X519614Y-88338D01*
X519614Y-90338D01*
X511114Y-97338D02*
G54D50*
D03*
X511114Y-89338D02*
G54D50*
D03*
G36*
X519614Y-82338D02*
X517614Y-84338D01*
X506614Y-84338D01*
X505614Y-83338D01*
X505614Y-79338D01*
X506614Y-78338D01*
X517614Y-78338D01*
X519614Y-80338D01*
X519614Y-82338D01*
G37*
G54D49*
X519614Y-82338D02*
X517614Y-84338D01*
X506614Y-84338D01*
X505614Y-83338D01*
X505614Y-79338D01*
X506614Y-78338D01*
X517614Y-78338D01*
X519614Y-80338D01*
X519614Y-82338D01*
G36*
X519614Y-74338D02*
X517614Y-76338D01*
X506614Y-76338D01*
X505614Y-75338D01*
X505614Y-71338D01*
X506614Y-70338D01*
X517614Y-70338D01*
X519614Y-72338D01*
X519614Y-74338D01*
G37*
G54D49*
X519614Y-74338D02*
X517614Y-76338D01*
X506614Y-76338D01*
X505614Y-75338D01*
X505614Y-71338D01*
X506614Y-70338D01*
X517614Y-70338D01*
X519614Y-72338D01*
X519614Y-74338D01*
X511114Y-81338D02*
G54D50*
D03*
X511114Y-73338D02*
G54D50*
D03*
G36*
X519614Y-66338D02*
X517614Y-68338D01*
X506614Y-68338D01*
X505614Y-67338D01*
X505614Y-63338D01*
X506614Y-62338D01*
X517614Y-62338D01*
X519614Y-64338D01*
X519614Y-66338D01*
G37*
G54D49*
X519614Y-66338D02*
X517614Y-68338D01*
X506614Y-68338D01*
X505614Y-67338D01*
X505614Y-63338D01*
X506614Y-62338D01*
X517614Y-62338D01*
X519614Y-64338D01*
X519614Y-66338D01*
G36*
X519614Y-58338D02*
X517614Y-60338D01*
X506614Y-60338D01*
X505614Y-59338D01*
X505614Y-55338D01*
X506614Y-54338D01*
X517614Y-54338D01*
X519614Y-56338D01*
X519614Y-58338D01*
G37*
G54D49*
X519614Y-58338D02*
X517614Y-60338D01*
X506614Y-60338D01*
X505614Y-59338D01*
X505614Y-55338D01*
X506614Y-54338D01*
X517614Y-54338D01*
X519614Y-56338D01*
X519614Y-58338D01*
X511114Y-65338D02*
G54D50*
D03*
X511114Y-57338D02*
G54D50*
D03*
G36*
X439614Y-136338D02*
X437614Y-134338D01*
X437614Y-123338D01*
X438614Y-122338D01*
X442614Y-122338D01*
X443614Y-123338D01*
X443614Y-134338D01*
X441614Y-136338D01*
X439614Y-136338D01*
G37*
G54D49*
X439614Y-136338D02*
X437614Y-134338D01*
X437614Y-123338D01*
X438614Y-122338D01*
X442614Y-122338D01*
X443614Y-123338D01*
X443614Y-134338D01*
X441614Y-136338D01*
X439614Y-136338D01*
G36*
X447614Y-136338D02*
X445614Y-134338D01*
X445614Y-123338D01*
X446614Y-122338D01*
X450614Y-122338D01*
X451614Y-123338D01*
X451614Y-134338D01*
X449614Y-136338D01*
X447614Y-136338D01*
G37*
G54D49*
X447614Y-136338D02*
X445614Y-134338D01*
X445614Y-123338D01*
X446614Y-122338D01*
X450614Y-122338D01*
X451614Y-123338D01*
X451614Y-134338D01*
X449614Y-136338D01*
X447614Y-136338D01*
X440614Y-127838D02*
G54D50*
D03*
X448614Y-127838D02*
G54D50*
D03*
G36*
X455614Y-136338D02*
X453614Y-134338D01*
X453614Y-123338D01*
X454614Y-122338D01*
X458614Y-122338D01*
X459614Y-123338D01*
X459614Y-134338D01*
X457614Y-136338D01*
X455614Y-136338D01*
G37*
G54D49*
X455614Y-136338D02*
X453614Y-134338D01*
X453614Y-123338D01*
X454614Y-122338D01*
X458614Y-122338D01*
X459614Y-123338D01*
X459614Y-134338D01*
X457614Y-136338D01*
X455614Y-136338D01*
G36*
X463614Y-136338D02*
X461614Y-134338D01*
X461614Y-123338D01*
X462614Y-122338D01*
X466614Y-122338D01*
X467614Y-123338D01*
X467614Y-134338D01*
X465614Y-136338D01*
X463614Y-136338D01*
G37*
G54D49*
X463614Y-136338D02*
X461614Y-134338D01*
X461614Y-123338D01*
X462614Y-122338D01*
X466614Y-122338D01*
X467614Y-123338D01*
X467614Y-134338D01*
X465614Y-136338D01*
X463614Y-136338D01*
X456614Y-127838D02*
G54D50*
D03*
X464614Y-127838D02*
G54D50*
D03*
G36*
X471614Y-136338D02*
X469614Y-134338D01*
X469614Y-123338D01*
X470614Y-122338D01*
X474614Y-122338D01*
X475614Y-123338D01*
X475614Y-134338D01*
X473614Y-136338D01*
X471614Y-136338D01*
G37*
G54D49*
X471614Y-136338D02*
X469614Y-134338D01*
X469614Y-123338D01*
X470614Y-122338D01*
X474614Y-122338D01*
X475614Y-123338D01*
X475614Y-134338D01*
X473614Y-136338D01*
X471614Y-136338D01*
G36*
X479614Y-136338D02*
X477614Y-134338D01*
X477614Y-123338D01*
X478614Y-122338D01*
X482614Y-122338D01*
X483614Y-123338D01*
X483614Y-134338D01*
X481614Y-136338D01*
X479614Y-136338D01*
G37*
G54D49*
X479614Y-136338D02*
X477614Y-134338D01*
X477614Y-123338D01*
X478614Y-122338D01*
X482614Y-122338D01*
X483614Y-123338D01*
X483614Y-134338D01*
X481614Y-136338D01*
X479614Y-136338D01*
X472614Y-127838D02*
G54D50*
D03*
X480614Y-127838D02*
G54D50*
D03*
G36*
X487614Y-136338D02*
X485614Y-134338D01*
X485614Y-123338D01*
X486614Y-122338D01*
X490614Y-122338D01*
X491614Y-123338D01*
X491614Y-134338D01*
X489614Y-136338D01*
X487614Y-136338D01*
G37*
G54D49*
X487614Y-136338D02*
X485614Y-134338D01*
X485614Y-123338D01*
X486614Y-122338D01*
X490614Y-122338D01*
X491614Y-123338D01*
X491614Y-134338D01*
X489614Y-136338D01*
X487614Y-136338D01*
G36*
X495614Y-136338D02*
X493614Y-134338D01*
X493614Y-123338D01*
X494614Y-122338D01*
X498614Y-122338D01*
X499614Y-123338D01*
X499614Y-134338D01*
X497614Y-136338D01*
X495614Y-136338D01*
G37*
G54D49*
X495614Y-136338D02*
X493614Y-134338D01*
X493614Y-123338D01*
X494614Y-122338D01*
X498614Y-122338D01*
X499614Y-123338D01*
X499614Y-134338D01*
X497614Y-136338D01*
X495614Y-136338D01*
X488614Y-127838D02*
G54D50*
D03*
X496614Y-127838D02*
G54D50*
D03*
G36*
X417614Y-56338D02*
X419614Y-54338D01*
X430614Y-54338D01*
X431614Y-55338D01*
X431614Y-59338D01*
X430614Y-60338D01*
X419614Y-60338D01*
X417614Y-58338D01*
X417614Y-56338D01*
G37*
G54D49*
X417614Y-56338D02*
X419614Y-54338D01*
X430614Y-54338D01*
X431614Y-55338D01*
X431614Y-59338D01*
X430614Y-60338D01*
X419614Y-60338D01*
X417614Y-58338D01*
X417614Y-56338D01*
G36*
X417614Y-64338D02*
X419614Y-62338D01*
X430614Y-62338D01*
X431614Y-63338D01*
X431614Y-67338D01*
X430614Y-68338D01*
X419614Y-68338D01*
X417614Y-66338D01*
X417614Y-64338D01*
G37*
G54D49*
X417614Y-64338D02*
X419614Y-62338D01*
X430614Y-62338D01*
X431614Y-63338D01*
X431614Y-67338D01*
X430614Y-68338D01*
X419614Y-68338D01*
X417614Y-66338D01*
X417614Y-64338D01*
G36*
X421614Y-52838D02*
X430614Y-52838D01*
X430614Y-61838D01*
X421614Y-61838D01*
X421614Y-52838D01*
G37*
G36*
X421614Y-60838D02*
X430614Y-60838D01*
X430614Y-69838D01*
X421614Y-69838D01*
X421614Y-60838D01*
G37*
G36*
X417614Y-72338D02*
X419614Y-70338D01*
X430614Y-70338D01*
X431614Y-71338D01*
X431614Y-75338D01*
X430614Y-76338D01*
X419614Y-76338D01*
X417614Y-74338D01*
X417614Y-72338D01*
G37*
G54D49*
X417614Y-72338D02*
X419614Y-70338D01*
X430614Y-70338D01*
X431614Y-71338D01*
X431614Y-75338D01*
X430614Y-76338D01*
X419614Y-76338D01*
X417614Y-74338D01*
X417614Y-72338D01*
G36*
X417614Y-80338D02*
X419614Y-78338D01*
X430614Y-78338D01*
X431614Y-79338D01*
X431614Y-83338D01*
X430614Y-84338D01*
X419614Y-84338D01*
X417614Y-82338D01*
X417614Y-80338D01*
G37*
G54D49*
X417614Y-80338D02*
X419614Y-78338D01*
X430614Y-78338D01*
X431614Y-79338D01*
X431614Y-83338D01*
X430614Y-84338D01*
X419614Y-84338D01*
X417614Y-82338D01*
X417614Y-80338D01*
X426114Y-73338D02*
G54D50*
D03*
X426114Y-81338D02*
G54D50*
D03*
G36*
X417614Y-88338D02*
X419614Y-86338D01*
X430614Y-86338D01*
X431614Y-87338D01*
X431614Y-91338D01*
X430614Y-92338D01*
X419614Y-92338D01*
X417614Y-90338D01*
X417614Y-88338D01*
G37*
G54D49*
X417614Y-88338D02*
X419614Y-86338D01*
X430614Y-86338D01*
X431614Y-87338D01*
X431614Y-91338D01*
X430614Y-92338D01*
X419614Y-92338D01*
X417614Y-90338D01*
X417614Y-88338D01*
G36*
X417614Y-96338D02*
X419614Y-94338D01*
X430614Y-94338D01*
X431614Y-95338D01*
X431614Y-99338D01*
X430614Y-100338D01*
X419614Y-100338D01*
X417614Y-98338D01*
X417614Y-96338D01*
G37*
G54D49*
X417614Y-96338D02*
X419614Y-94338D01*
X430614Y-94338D01*
X431614Y-95338D01*
X431614Y-99338D01*
X430614Y-100338D01*
X419614Y-100338D01*
X417614Y-98338D01*
X417614Y-96338D01*
X426114Y-89338D02*
G54D50*
D03*
X426114Y-97338D02*
G54D50*
D03*
G36*
X417614Y-104338D02*
X419614Y-102338D01*
X430614Y-102338D01*
X431614Y-103338D01*
X431614Y-107338D01*
X430614Y-108338D01*
X419614Y-108338D01*
X417614Y-106338D01*
X417614Y-104338D01*
G37*
G54D49*
X417614Y-104338D02*
X419614Y-102338D01*
X430614Y-102338D01*
X431614Y-103338D01*
X431614Y-107338D01*
X430614Y-108338D01*
X419614Y-108338D01*
X417614Y-106338D01*
X417614Y-104338D01*
G36*
X417614Y-112338D02*
X419614Y-110338D01*
X430614Y-110338D01*
X431614Y-111338D01*
X431614Y-115338D01*
X430614Y-116338D01*
X419614Y-116338D01*
X417614Y-114338D01*
X417614Y-112338D01*
G37*
G54D49*
X417614Y-112338D02*
X419614Y-110338D01*
X430614Y-110338D01*
X431614Y-111338D01*
X431614Y-115338D01*
X430614Y-116338D01*
X419614Y-116338D01*
X417614Y-114338D01*
X417614Y-112338D01*
G36*
X421614Y-100838D02*
X430614Y-100838D01*
X430614Y-109838D01*
X421614Y-109838D01*
X421614Y-100838D01*
G37*
X426114Y-113338D02*
G54D50*
D03*
G36*
X497614Y-34338D02*
X499614Y-36338D01*
X499614Y-47338D01*
X498614Y-48338D01*
X494614Y-48338D01*
X493614Y-47338D01*
X493614Y-36338D01*
X495614Y-34338D01*
X497614Y-34338D01*
G37*
G54D49*
X497614Y-34338D02*
X499614Y-36338D01*
X499614Y-47338D01*
X498614Y-48338D01*
X494614Y-48338D01*
X493614Y-47338D01*
X493614Y-36338D01*
X495614Y-34338D01*
X497614Y-34338D01*
G36*
X489614Y-34338D02*
X491614Y-36338D01*
X491614Y-47338D01*
X490614Y-48338D01*
X486614Y-48338D01*
X485614Y-47338D01*
X485614Y-36338D01*
X487614Y-34338D01*
X489614Y-34338D01*
G37*
G54D49*
X489614Y-34338D02*
X491614Y-36338D01*
X491614Y-47338D01*
X490614Y-48338D01*
X486614Y-48338D01*
X485614Y-47338D01*
X485614Y-36338D01*
X487614Y-34338D01*
X489614Y-34338D01*
X496614Y-42838D02*
G54D50*
D03*
X488614Y-42838D02*
G54D50*
D03*
G36*
X481614Y-34338D02*
X483614Y-36338D01*
X483614Y-47338D01*
X482614Y-48338D01*
X478614Y-48338D01*
X477614Y-47338D01*
X477614Y-36338D01*
X479614Y-34338D01*
X481614Y-34338D01*
G37*
G54D49*
X481614Y-34338D02*
X483614Y-36338D01*
X483614Y-47338D01*
X482614Y-48338D01*
X478614Y-48338D01*
X477614Y-47338D01*
X477614Y-36338D01*
X479614Y-34338D01*
X481614Y-34338D01*
G36*
X473614Y-34338D02*
X475614Y-36338D01*
X475614Y-47338D01*
X474614Y-48338D01*
X470614Y-48338D01*
X469614Y-47338D01*
X469614Y-36338D01*
X471614Y-34338D01*
X473614Y-34338D01*
G37*
G54D49*
X473614Y-34338D02*
X475614Y-36338D01*
X475614Y-47338D01*
X474614Y-48338D01*
X470614Y-48338D01*
X469614Y-47338D01*
X469614Y-36338D01*
X471614Y-34338D01*
X473614Y-34338D01*
X480614Y-42838D02*
G54D50*
D03*
X472614Y-42838D02*
G54D50*
D03*
G36*
X465614Y-34338D02*
X467614Y-36338D01*
X467614Y-47338D01*
X466614Y-48338D01*
X462614Y-48338D01*
X461614Y-47338D01*
X461614Y-36338D01*
X463614Y-34338D01*
X465614Y-34338D01*
G37*
G54D49*
X465614Y-34338D02*
X467614Y-36338D01*
X467614Y-47338D01*
X466614Y-48338D01*
X462614Y-48338D01*
X461614Y-47338D01*
X461614Y-36338D01*
X463614Y-34338D01*
X465614Y-34338D01*
G36*
X457614Y-34338D02*
X459614Y-36338D01*
X459614Y-47338D01*
X458614Y-48338D01*
X454614Y-48338D01*
X453614Y-47338D01*
X453614Y-36338D01*
X455614Y-34338D01*
X457614Y-34338D01*
G37*
G54D49*
X457614Y-34338D02*
X459614Y-36338D01*
X459614Y-47338D01*
X458614Y-48338D01*
X454614Y-48338D01*
X453614Y-47338D01*
X453614Y-36338D01*
X455614Y-34338D01*
X457614Y-34338D01*
X464614Y-42838D02*
G54D50*
D03*
X456614Y-42838D02*
G54D50*
D03*
G36*
X449614Y-34338D02*
X451614Y-36338D01*
X451614Y-47338D01*
X450614Y-48338D01*
X446614Y-48338D01*
X445614Y-47338D01*
X445614Y-36338D01*
X447614Y-34338D01*
X449614Y-34338D01*
G37*
G54D49*
X449614Y-34338D02*
X451614Y-36338D01*
X451614Y-47338D01*
X450614Y-48338D01*
X446614Y-48338D01*
X445614Y-47338D01*
X445614Y-36338D01*
X447614Y-34338D01*
X449614Y-34338D01*
G36*
X441614Y-34338D02*
X443614Y-36338D01*
X443614Y-47338D01*
X442614Y-48338D01*
X438614Y-48338D01*
X437614Y-47338D01*
X437614Y-36338D01*
X439614Y-34338D01*
X441614Y-34338D01*
G37*
G54D49*
X441614Y-34338D02*
X443614Y-36338D01*
X443614Y-47338D01*
X442614Y-48338D01*
X438614Y-48338D01*
X437614Y-47338D01*
X437614Y-36338D01*
X439614Y-34338D01*
X441614Y-34338D01*
X448614Y-42838D02*
G54D50*
D03*
X440614Y-42838D02*
G54D50*
D03*
G36*
X893761Y-82550D02*
X863598Y-82550D01*
X863598Y-128587D01*
X893761Y-128587D01*
X893761Y-82550D01*
G37*
G54D16*
X893761Y-82550D02*
X863598Y-82550D01*
X863598Y-128587D01*
X893761Y-128587D01*
X893761Y-82550D01*
G36*
X900112Y-128588D02*
X900112Y-69850D01*
X919162Y-69850D01*
X919162Y-128588D01*
X900112Y-128588D01*
G37*
G54D16*
X900112Y-128588D02*
X900112Y-69850D01*
X919162Y-69850D01*
X919162Y-128588D01*
X900112Y-128588D01*
X284162Y-20638D02*
G54D47*
D03*
X265162Y-20637D02*
G54D47*
D03*
X263101Y-60298D02*
G54D34*
D03*
X263101Y-41298D02*
G54D34*
D03*
X479026Y-105964D02*
G54D46*
D03*
X490139Y-65482D02*
G54D46*
D03*
X671116Y-73818D02*
G54D51*
D03*
X546497Y-308372D02*
G54D47*
D03*
X565497Y-308372D02*
G54D47*
D03*
G54D23*
X606820Y-309958D02*
X565148Y-309958D01*
G36*
X479425Y-251619D02*
X479425Y-248047D01*
X490141Y-237331D01*
X499269Y-237331D01*
X479425Y-251619D01*
G37*
G54D18*
X479425Y-251619D02*
X479425Y-248047D01*
X490141Y-237331D01*
X499269Y-237331D01*
X479425Y-251619D01*
G36*
X475818Y-251977D02*
X475818Y-248405D01*
X455974Y-230546D01*
X455974Y-237690D01*
X475818Y-251977D01*
G37*
G54D18*
X475818Y-251977D02*
X475818Y-248405D01*
X455974Y-230546D01*
X455974Y-237690D01*
X475818Y-251977D01*
X542526Y-203595D02*
G54D52*
D03*
X542526Y-207167D02*
G54D52*
D03*
X542526Y-254395D02*
G54D52*
D03*
X542526Y-257967D02*
G54D52*
D03*
X390126Y-203595D02*
G54D52*
D03*
X390126Y-207167D02*
G54D52*
D03*
X390126Y-228995D02*
G54D52*
D03*
X390126Y-232567D02*
G54D52*
D03*
X390126Y-253998D02*
G54D52*
D03*
X390126Y-257570D02*
G54D52*
D03*
X671116Y-60722D02*
G54D51*
D03*
%LPD*%
G54D53*
G36*
X759617Y-117631D02*
X747117Y-117631D01*
X747117Y-110965D01*
X759617Y-110965D01*
X759617Y-117631D01*
G37*
G36*
X759617Y-110965D02*
X772117Y-110965D01*
X772117Y-117631D01*
X759617Y-117631D01*
X759617Y-110965D01*
G37*
G36*
X762950Y-114298D02*
X762950Y-126798D01*
X756284Y-126798D01*
X756284Y-114298D01*
X762950Y-114298D01*
G37*
G54D53*
G36*
X390126Y-227250D02*
X402626Y-227250D01*
X402626Y-233917D01*
X390126Y-233917D01*
X390126Y-227250D01*
G37*
G36*
X390126Y-233917D02*
X377626Y-233917D01*
X377626Y-227250D01*
X390126Y-227250D01*
X390126Y-233917D01*
G37*
G54D53*
G36*
X542526Y-252650D02*
X555026Y-252650D01*
X555026Y-259317D01*
X542526Y-259317D01*
X542526Y-252650D01*
G37*
G36*
X545860Y-255984D02*
X545860Y-268484D01*
X539193Y-268484D01*
X539193Y-255984D01*
X545860Y-255984D01*
G37*
G36*
X542526Y-259317D02*
X530026Y-259317D01*
X530026Y-252650D01*
X542526Y-252650D01*
X542526Y-259317D01*
G37*
G36*
X539193Y-255984D02*
X539193Y-243484D01*
X545860Y-243484D01*
X545860Y-255984D01*
X539193Y-255984D01*
G37*
G54D54*
G36*
X668732Y-36976D02*
X655232Y-36977D01*
X655232Y-30490D01*
X668732Y-30489D01*
X668732Y-36976D01*
G37*
G36*
X665488Y-33733D02*
X665488Y-27733D01*
X671975Y-27733D01*
X671975Y-33733D01*
X665488Y-33733D01*
G37*
G36*
X668732Y-30489D02*
X682232Y-30489D01*
X682232Y-36976D01*
X668732Y-36976D01*
X668732Y-30489D01*
G37*
G54D48*
G36*
X476684Y-310002D02*
X476683Y-322502D01*
X473683Y-322502D01*
X473684Y-310002D01*
X476684Y-310002D01*
G37*
G36*
X473684Y-310002D02*
X473686Y-297502D01*
X476686Y-297502D01*
X476684Y-310002D01*
X473684Y-310002D01*
G37*
G54D55*
G36*
X398040Y-86706D02*
X408540Y-86706D01*
X408540Y-91039D01*
X398040Y-91039D01*
X398040Y-86706D01*
G37*
G36*
X400206Y-88872D02*
X400207Y-97872D01*
X395874Y-97872D01*
X395874Y-88872D01*
X400206Y-88872D01*
G37*
G36*
X398040Y-91039D02*
X387540Y-91039D01*
X387540Y-86706D01*
X398040Y-86706D01*
X398040Y-91039D01*
G37*
G54D24*
G36*
X332212Y-40022D02*
X332212Y-28522D01*
X338212Y-28522D01*
X338212Y-40022D01*
X332212Y-40022D01*
G37*
G36*
X335212Y-37022D02*
X346712Y-37022D01*
X346712Y-43022D01*
X335212Y-43022D01*
X335212Y-37022D01*
G37*
G54D53*
G36*
X189547Y-119458D02*
X189547Y-106958D01*
X196214Y-106958D01*
X196214Y-119458D01*
X189547Y-119458D01*
G37*
G36*
X192880Y-116124D02*
X205380Y-116124D01*
X205380Y-122791D01*
X192880Y-122791D01*
X192880Y-116124D01*
G37*
G36*
X196214Y-119458D02*
X196214Y-131958D01*
X189547Y-131958D01*
X189547Y-119458D01*
X196214Y-119458D01*
G37*
G36*
X192880Y-122791D02*
X180380Y-122791D01*
X180380Y-116124D01*
X192880Y-116124D01*
X192880Y-122791D01*
G37*
G54D55*
G36*
X104353Y-83549D02*
X93853Y-83549D01*
X93853Y-79216D01*
X104353Y-79216D01*
X104353Y-83549D01*
G37*
G36*
X102187Y-81383D02*
X102187Y-72383D01*
X106520Y-72383D01*
X106520Y-81383D01*
X102187Y-81383D01*
G37*
G36*
X104353Y-79216D02*
X114853Y-79216D01*
X114853Y-83549D01*
X104353Y-83549D01*
X104353Y-79216D01*
G37*
G54D55*
G36*
X607779Y-117077D02*
X607779Y-104577D01*
X612112Y-104576D01*
X612112Y-117076D01*
X607779Y-117077D01*
G37*
G36*
X609946Y-114910D02*
X620946Y-114910D01*
X620946Y-119243D01*
X609946Y-119243D01*
X609946Y-114910D01*
G37*
G36*
X612112Y-117076D02*
X612112Y-129576D01*
X607780Y-129577D01*
X607779Y-117077D01*
X612112Y-117076D01*
G37*
G54D53*
G36*
X641027Y-108846D02*
X653527Y-108846D01*
X653527Y-115512D01*
X641027Y-115512D01*
X641027Y-108846D01*
G37*
G36*
X644360Y-112179D02*
X644360Y-124679D01*
X637694Y-124679D01*
X637694Y-112179D01*
X644360Y-112179D01*
G37*
G36*
X641027Y-115512D02*
X628527Y-115512D01*
X628527Y-108846D01*
X641027Y-108846D01*
X641027Y-115512D01*
G37*
G36*
X637694Y-112179D02*
X637694Y-99679D01*
X644360Y-99679D01*
X644360Y-112179D01*
X637694Y-112179D01*
G37*
G54D55*
G36*
X60885Y-119854D02*
X60885Y-110354D01*
X65218Y-110354D01*
X65218Y-119854D01*
X60885Y-119854D01*
G37*
G36*
X63051Y-117688D02*
X72051Y-117688D01*
X72051Y-122021D01*
X63051Y-122021D01*
X63051Y-117688D01*
G37*
G36*
X65218Y-119854D02*
X65218Y-129354D01*
X60885Y-129354D01*
X60885Y-119854D01*
X65218Y-119854D01*
G37*
G54D55*
G36*
X331087Y-99753D02*
X321587Y-99753D01*
X321587Y-95420D01*
X331087Y-95420D01*
X331087Y-99753D01*
G37*
G36*
X328921Y-97586D02*
X328921Y-88586D01*
X333254Y-88586D01*
X333254Y-97586D01*
X328921Y-97586D01*
G37*
G36*
X331087Y-95420D02*
X340587Y-95420D01*
X340587Y-99753D01*
X331087Y-99753D01*
X331087Y-95420D01*
G37*
G54D55*
G36*
X510356Y-289112D02*
X522856Y-289112D01*
X522856Y-293445D01*
X510356Y-293445D01*
X510356Y-289112D01*
G37*
G36*
X512522Y-291279D02*
X512522Y-302279D01*
X508189Y-302279D01*
X508189Y-291279D01*
X512522Y-291279D01*
G37*
G36*
X510356Y-293445D02*
X497856Y-293445D01*
X497856Y-289112D01*
X510356Y-289112D01*
X510356Y-293445D01*
G37*
G54D55*
G36*
X355297Y-99752D02*
X344797Y-99752D01*
X344796Y-95419D01*
X355296Y-95418D01*
X355297Y-99752D01*
G37*
G36*
X353130Y-97585D02*
X353130Y-88585D01*
X357463Y-88585D01*
X357463Y-97585D01*
X353130Y-97585D01*
G37*
G36*
X355296Y-95418D02*
X365796Y-95418D01*
X365797Y-99751D01*
X355297Y-99752D01*
X355296Y-95418D01*
G37*
G54D55*
G36*
X585226Y-143667D02*
X585226Y-156167D01*
X580893Y-156167D01*
X580893Y-143667D01*
X585226Y-143667D01*
G37*
G36*
X583059Y-145834D02*
X572059Y-145834D01*
X572059Y-141501D01*
X583059Y-141500D01*
X583059Y-145834D01*
G37*
G36*
X580893Y-143667D02*
X580892Y-131167D01*
X585226Y-131167D01*
X585226Y-143667D01*
X580893Y-143667D01*
G37*
G54D55*
G36*
X339724Y-213733D02*
X349224Y-213733D01*
X349224Y-218066D01*
X339724Y-218066D01*
X339724Y-213733D01*
G37*
G36*
X341890Y-215899D02*
X341890Y-224899D01*
X337557Y-224899D01*
X337557Y-215899D01*
X341890Y-215899D01*
G37*
G36*
X339724Y-218066D02*
X330224Y-218066D01*
X330224Y-213733D01*
X339724Y-213733D01*
X339724Y-218066D01*
G37*
G54D55*
G36*
X315911Y-213732D02*
X326411Y-213731D01*
X326411Y-218064D01*
X315911Y-218064D01*
X315911Y-213732D01*
G37*
G36*
X318077Y-215898D02*
X318078Y-224898D01*
X313745Y-224898D01*
X313744Y-215898D01*
X318077Y-215898D01*
G37*
G36*
X315911Y-218064D02*
X305411Y-218065D01*
X305411Y-213732D01*
X315911Y-213732D01*
X315911Y-218064D01*
G37*
G54D24*
G36*
X240975Y-90672D02*
X229475Y-90672D01*
X229475Y-84672D01*
X240975Y-84672D01*
X240975Y-90672D01*
G37*
G36*
X237975Y-87672D02*
X237975Y-76172D01*
X243975Y-76172D01*
X243975Y-87672D01*
X237975Y-87672D01*
G37*
G36*
X240975Y-84672D02*
X252475Y-84672D01*
X252475Y-90672D01*
X240975Y-90672D01*
X240975Y-84672D01*
G37*
G36*
X243975Y-87672D02*
X243975Y-99172D01*
X237975Y-99172D01*
X237975Y-87672D01*
X243975Y-87672D01*
G37*
G54D55*
G36*
X704547Y-37444D02*
X695047Y-37444D01*
X695047Y-33111D01*
X704547Y-33111D01*
X704547Y-37444D01*
G37*
G36*
X702380Y-35277D02*
X702380Y-26277D01*
X706713Y-26277D01*
X706713Y-35277D01*
X702380Y-35277D01*
G37*
G36*
X704547Y-33111D02*
X714047Y-33111D01*
X714047Y-37444D01*
X704547Y-37444D01*
X704547Y-33111D01*
G37*
G54D56*
G36*
X589382Y-243283D02*
X589382Y-229783D01*
X591715Y-229783D01*
X591715Y-243283D01*
X589382Y-243283D01*
G37*
G36*
X590548Y-242116D02*
X596548Y-242116D01*
X596548Y-244449D01*
X590548Y-244449D01*
X590548Y-242116D01*
G37*
G36*
X591715Y-243283D02*
X591715Y-256783D01*
X589382Y-256783D01*
X589382Y-243283D01*
X591715Y-243283D01*
G37*
G36*
X590548Y-244449D02*
X584548Y-244449D01*
X584548Y-242116D01*
X590548Y-242116D01*
X590548Y-244449D01*
G37*
G54D56*
G36*
X602082Y-243283D02*
X602082Y-229783D01*
X604415Y-229783D01*
X604415Y-243283D01*
X602082Y-243283D01*
G37*
G36*
X603249Y-242116D02*
X609249Y-242116D01*
X609249Y-244449D01*
X603249Y-244449D01*
X603249Y-242116D01*
G37*
G36*
X604415Y-243283D02*
X604415Y-256783D01*
X602082Y-256783D01*
X602082Y-243283D01*
X604415Y-243283D01*
G37*
G36*
X603249Y-244449D02*
X597249Y-244449D01*
X597249Y-242116D01*
X603249Y-242116D01*
X603249Y-244449D01*
G37*
G54D56*
G36*
X614782Y-243283D02*
X614782Y-229783D01*
X617115Y-229783D01*
X617115Y-243283D01*
X614782Y-243283D01*
G37*
G36*
X615948Y-242116D02*
X621948Y-242117D01*
X621948Y-244450D01*
X615948Y-244449D01*
X615948Y-242116D01*
G37*
G36*
X617115Y-243283D02*
X617114Y-256783D01*
X614781Y-256783D01*
X614782Y-243283D01*
X617115Y-243283D01*
G37*
G36*
X615948Y-244449D02*
X609948Y-244449D01*
X609948Y-242116D01*
X615948Y-242116D01*
X615948Y-244449D01*
G37*
G54D57*
G36*
X627424Y-243282D02*
X627423Y-229782D01*
X629873Y-229782D01*
X629874Y-243282D01*
X627424Y-243282D01*
G37*
G36*
X628649Y-242057D02*
X634649Y-242057D01*
X634649Y-244507D01*
X628649Y-244507D01*
X628649Y-242057D01*
G37*
G36*
X629874Y-243282D02*
X629875Y-256782D01*
X627425Y-256782D01*
X627424Y-243282D01*
X629874Y-243282D01*
G37*
G36*
X628649Y-244507D02*
X622649Y-244507D01*
X622649Y-242057D01*
X628649Y-242057D01*
X628649Y-244507D01*
G37*
G54D56*
G36*
X602082Y-189283D02*
X602082Y-175783D01*
X604415Y-175783D01*
X604414Y-189283D01*
X602082Y-189283D01*
G37*
G36*
X603248Y-188116D02*
X609248Y-188117D01*
X609248Y-190450D01*
X603248Y-190449D01*
X603248Y-188116D01*
G37*
G36*
X604414Y-189283D02*
X604414Y-202783D01*
X602081Y-202783D01*
X602082Y-189283D01*
X604414Y-189283D01*
G37*
G36*
X603248Y-190449D02*
X597248Y-190449D01*
X597248Y-188116D01*
X603248Y-188116D01*
X603248Y-190449D01*
G37*
G54D55*
G36*
X374856Y-318714D02*
X374856Y-329214D01*
X370523Y-329214D01*
X370523Y-318714D01*
X374856Y-318714D01*
G37*
G36*
X372690Y-320880D02*
X363690Y-320881D01*
X363690Y-316548D01*
X372690Y-316547D01*
X372690Y-320880D01*
G37*
G36*
X370523Y-318714D02*
X370523Y-308214D01*
X374856Y-308214D01*
X374856Y-318714D01*
X370523Y-318714D01*
G37*
G54D55*
G36*
X545868Y-176210D02*
X545869Y-163710D01*
X550202Y-163710D01*
X550201Y-176210D01*
X545868Y-176210D01*
G37*
G36*
X548035Y-174044D02*
X559035Y-174044D01*
X559035Y-178377D01*
X548035Y-178377D01*
X548035Y-174044D01*
G37*
G36*
X550201Y-176210D02*
X550201Y-188710D01*
X545868Y-188710D01*
X545868Y-176210D01*
X550201Y-176210D01*
G37*
G54D55*
G36*
X505387Y-198435D02*
X505387Y-185935D01*
X509720Y-185935D01*
X509720Y-198435D01*
X505387Y-198435D01*
G37*
G36*
X507554Y-196269D02*
X518554Y-196269D01*
X518554Y-200602D01*
X507554Y-200602D01*
X507554Y-196269D01*
G37*
G36*
X509720Y-198435D02*
X509720Y-210935D01*
X505387Y-210935D01*
X505387Y-198435D01*
X509720Y-198435D01*
G37*
G54D55*
G36*
X349433Y-245267D02*
X349433Y-257767D01*
X345100Y-257767D01*
X345100Y-245267D01*
X349433Y-245267D01*
G37*
G36*
X347266Y-247433D02*
X336266Y-247433D01*
X336266Y-243100D01*
X347266Y-243100D01*
X347266Y-247433D01*
G37*
G36*
X345100Y-245267D02*
X345100Y-232767D01*
X349433Y-232767D01*
X349433Y-245267D01*
X345100Y-245267D01*
G37*
G54D55*
G36*
X267328Y-20637D02*
X267329Y-31137D01*
X262996Y-31137D01*
X262995Y-20637D01*
X267328Y-20637D01*
G37*
G36*
X265162Y-22804D02*
X256162Y-22804D01*
X256162Y-18471D01*
X265162Y-18471D01*
X265162Y-22804D01*
G37*
G36*
X262995Y-20637D02*
X262995Y-10137D01*
X267328Y-10137D01*
X267328Y-20637D01*
X262995Y-20637D01*
G37*
X50402Y-54371D02*
G54D10*
D03*
X831451Y-54371D02*
G54D11*
D03*
G36*
X749617Y-124298D02*
X749617Y-104298D01*
X769617Y-104298D01*
X769617Y-124298D01*
X749617Y-124298D01*
G37*
X759618Y-88898D02*
G54D58*
D03*
X759618Y-63498D02*
G54D58*
D03*
X759618Y-38098D02*
G54D58*
D03*
X390126Y-205184D02*
G54D59*
D03*
X542526Y-205184D02*
G54D59*
D03*
X390126Y-230584D02*
G54D59*
D03*
X542526Y-255984D02*
G54D59*
D03*
X390126Y-255984D02*
G54D59*
D03*
X909741Y-37565D02*
G54D14*
D03*
X909636Y-95250D02*
G54D60*
D03*
G36*
X925036Y-82750D02*
X945036Y-82749D01*
X945036Y-107749D01*
X925036Y-107750D01*
X925036Y-82750D01*
G37*
X884236Y-95250D02*
G54D60*
D03*
G36*
X925512Y-128588D02*
X982662Y-128588D01*
X982662Y-82550D01*
X925512Y-82550D01*
X925512Y-128588D01*
G37*
G54D61*
X925512Y-128588D02*
X982662Y-128588D01*
X982662Y-82550D01*
X925512Y-82550D01*
X925512Y-128588D01*
X668732Y-71833D02*
G54D62*
D03*
X668732Y-59133D02*
G54D62*
D03*
X668733Y-46433D02*
G54D62*
D03*
X668732Y-33733D02*
G54D62*
D03*
X614733Y-33733D02*
G54D62*
D03*
X614732Y-46433D02*
G54D62*
D03*
X614732Y-59133D02*
G54D62*
D03*
X614733Y-71833D02*
G54D62*
D03*
G54D48*
X671370Y-58624D02*
X671114Y-58736D01*
G54D48*
X470103Y-300476D02*
X470103Y-293729D01*
X485184Y-283807D01*
X485184Y-272695D01*
X486772Y-310002D02*
G54D63*
D03*
X480184Y-310002D02*
G54D64*
D03*
X475184Y-310002D02*
G54D64*
D03*
X470184Y-310001D02*
G54D64*
D03*
X480184Y-266001D02*
G54D64*
D03*
X475184Y-266001D02*
G54D64*
D03*
X470184Y-266001D02*
G54D64*
D03*
X463753Y-310002D02*
G54D63*
D03*
X486772Y-265949D02*
G54D63*
D03*
X463753Y-265949D02*
G54D63*
D03*
X513437Y-230264D02*
G54D65*
D03*
X431680Y-230264D02*
G54D65*
D03*
G54D48*
X614732Y-46433D02*
X632617Y-46433D01*
X632617Y-26986D01*
X641348Y-18255D01*
X742949Y-18255D01*
X742948Y-50402D01*
X759618Y-63498D01*
G54D48*
X759618Y-38892D02*
X759617Y-12302D01*
X638967Y-12302D01*
X616744Y-34528D01*
X614733Y-34527D01*
G54D48*
X439738Y-263525D02*
X463709Y-263126D01*
G54D48*
X470295Y-275033D02*
X470295Y-279002D01*
X466725Y-281384D01*
X450453Y-281384D01*
X439738Y-288925D01*
G54D48*
X427712Y-230264D02*
X450133Y-230264D01*
X475058Y-251617D01*
X475058Y-259952D01*
G54D48*
X480217Y-259952D02*
X480217Y-251220D01*
X504427Y-231376D01*
G54D48*
X464614Y-127838D02*
X464614Y-153715D01*
X461168Y-152002D01*
G36*
X432238Y-256025D02*
X447238Y-256025D01*
X447238Y-271025D01*
X432238Y-271025D01*
X432238Y-256025D01*
G37*
X439738Y-288925D02*
G54D66*
D03*
G54D48*
X496614Y-127838D02*
X497011Y-170530D01*
X486567Y-180973D01*
X382586Y-180973D01*
X366710Y-196849D01*
X366711Y-247253D01*
X386157Y-255984D01*
G54D48*
X386157Y-205184D02*
X407194Y-198438D01*
X488554Y-198435D01*
X492125Y-191294D01*
X511174Y-172242D01*
X511174Y-113397D01*
X511114Y-113338D01*
G54D48*
X538557Y-205184D02*
X523874Y-184148D01*
X523874Y-105567D01*
X511343Y-105567D01*
X511114Y-105338D01*
G36*
X594465Y-37590D02*
X579465Y-37590D01*
X579465Y-22590D01*
X594465Y-22590D01*
X594465Y-37590D01*
G37*
X586965Y-55490D02*
G54D66*
D03*
G54D67*
X614732Y-46433D02*
X598089Y-46434D01*
X586965Y-55490D01*
G54D67*
X614733Y-33733D02*
X586965Y-30090D01*
G54D24*
X393241Y-65422D02*
X465388Y-65338D01*
X473470Y-73420D01*
X510800Y-73420D01*
G54D24*
X510717Y-73338D02*
X524270Y-73420D01*
X524270Y-89295D01*
X510717Y-89338D01*
G54D24*
X496092Y-81358D02*
X511114Y-81338D01*
G54D24*
X530620Y-97630D02*
X495298Y-97630D01*
G54D24*
X437752Y-89295D02*
X425052Y-89295D01*
X413145Y-89295D01*
G54D67*
X614733Y-71833D02*
X570309Y-71833D01*
X398040Y-69873D02*
G54D68*
D03*
X398040Y-88872D02*
G54D68*
D03*
G54D67*
X503956Y-269770D02*
X521389Y-269770D01*
X533002Y-281383D01*
X575070Y-281383D01*
X575070Y-204786D01*
X590548Y-189283D01*
X590548Y-173036D01*
X602456Y-144064D01*
X591343Y-118267D01*
G54D23*
X759618Y-88898D02*
X744536Y-92470D01*
X728339Y-109004D01*
G36*
X275412Y-56422D02*
X293412Y-56422D01*
X293412Y-74422D01*
X275412Y-74422D01*
X275412Y-56422D01*
G37*
X284412Y-40022D02*
G54D69*
D03*
X309812Y-65422D02*
G54D69*
D03*
X309812Y-40022D02*
G54D69*
D03*
X335212Y-65422D02*
G54D69*
D03*
X335212Y-40022D02*
G54D69*
D03*
X483392Y-152002D02*
G54D66*
D03*
G54D48*
X472614Y-127838D02*
X472614Y-141621D01*
X483392Y-152002D01*
G54D70*
X440614Y-42838D02*
X440904Y-29344D01*
X435767Y-24208D01*
X326230Y-24208D01*
X322658Y-27780D01*
X322658Y-46036D01*
X315911Y-52783D01*
X297052Y-52783D01*
X284412Y-65422D01*
G54D70*
X309959Y-40084D02*
X309959Y-32544D01*
X322262Y-20241D01*
X439341Y-20241D01*
X448469Y-29369D01*
X448469Y-42862D01*
G54D48*
X309812Y-65422D02*
X315911Y-61911D01*
X325039Y-52783D01*
X421956Y-52783D01*
X426114Y-56941D01*
G54D67*
X284161Y-39687D02*
X284162Y-20638D01*
X295274Y-11112D01*
X569911Y-11112D01*
X569911Y-87312D01*
X590945Y-117871D01*
G36*
X349942Y-62849D02*
X362942Y-62849D01*
X362942Y-76849D01*
X349942Y-76849D01*
X349942Y-62849D01*
G37*
X375442Y-69849D02*
G54D71*
D03*
G54D16*
X335212Y-65422D02*
X355251Y-69849D01*
G54D67*
X375442Y-69849D02*
X398040Y-69873D01*
X24376Y-119458D02*
G54D72*
D03*
X104376Y-119458D02*
G54D72*
D03*
X142080Y-119458D02*
G54D58*
D03*
X167480Y-119458D02*
G54D58*
D03*
X192880Y-119458D02*
G54D58*
D03*
X104353Y-100382D02*
G54D68*
D03*
X104353Y-81383D02*
G54D68*
D03*
G54D67*
X104377Y-119458D02*
X142080Y-119458D01*
X590946Y-117076D02*
G54D73*
D03*
G36*
X603446Y-109077D02*
X616446Y-109076D01*
X616446Y-125076D01*
X603446Y-125077D01*
X603446Y-109077D01*
G37*
G36*
X651027Y-102179D02*
X651027Y-122179D01*
X631027Y-122179D01*
X631027Y-102179D01*
X651027Y-102179D01*
G37*
X666427Y-112179D02*
G54D58*
D03*
G54D48*
X258762Y-112712D02*
X273049Y-112712D01*
X296465Y-136128D01*
X358377Y-136128D01*
X407986Y-130175D01*
X425449Y-112712D01*
X258313Y-112711D02*
G54D71*
D03*
X239313Y-112711D02*
G54D71*
D03*
X461168Y-152002D02*
G54D66*
D03*
G54D48*
X439738Y-263525D02*
X416320Y-263126D01*
X403620Y-275826D01*
X375839Y-275826D01*
X356789Y-256776D01*
X356789Y-191689D01*
X381792Y-166686D01*
X434181Y-166686D01*
X456404Y-136921D01*
X456614Y-127838D01*
X308070Y-116534D02*
G54D74*
D03*
X308070Y-97534D02*
G54D74*
D03*
X44052Y-119855D02*
G54D71*
D03*
X63051Y-119854D02*
G54D71*
D03*
X331088Y-116586D02*
G54D74*
D03*
X331087Y-97586D02*
G54D74*
D03*
G54D67*
X355599Y-115888D02*
X331786Y-115888D01*
X307974Y-115888D01*
G36*
X336134Y-171066D02*
X345327Y-161873D01*
X355226Y-171773D01*
X346034Y-180965D01*
X336134Y-171066D01*
G37*
G36*
X349569Y-157631D02*
X358762Y-148438D01*
X368661Y-158338D01*
X359469Y-167530D01*
X349569Y-157631D01*
G37*
X510356Y-272279D02*
G54D68*
D03*
X510356Y-291279D02*
G54D68*
D03*
G54D67*
X486885Y-273428D02*
X505935Y-273428D01*
G36*
X542461Y-105280D02*
X557461Y-105280D01*
X557462Y-153280D01*
X542462Y-153280D01*
X542461Y-105280D01*
G37*
X549962Y-47524D02*
G54D75*
D03*
G54D24*
X511114Y-57338D02*
X534195Y-57338D01*
X549962Y-47524D01*
G54D24*
X511114Y-65338D02*
X532460Y-65338D01*
X549962Y-107452D01*
X550067Y-129175D01*
X549962Y-129280D01*
X355296Y-116585D02*
G54D68*
D03*
X355296Y-97585D02*
G54D68*
D03*
X602059Y-143667D02*
G54D73*
D03*
X583059Y-143667D02*
G54D73*
D03*
G54D76*
X289247Y-159867D02*
X275105Y-145725D01*
X316707Y-156367D02*
G54D74*
D03*
X316707Y-175367D02*
G54D74*
D03*
X339724Y-196900D02*
G54D74*
D03*
X339724Y-215899D02*
G54D74*
D03*
X315911Y-196898D02*
G54D68*
D03*
X315911Y-215898D02*
G54D68*
D03*
X968374Y-95250D02*
G54D46*
D03*
X282970Y-95645D02*
G54D66*
D03*
G54D67*
X339724Y-196900D02*
X339725Y-182959D01*
X345254Y-171821D01*
G54D67*
X339724Y-196900D02*
X316281Y-197268D01*
X315911Y-196898D01*
X315916Y-176158D01*
G54D67*
X316707Y-156367D02*
X290907Y-156368D01*
G54D67*
X282970Y-95645D02*
X308070Y-97534D01*
X338533Y-289320D02*
G54D77*
D03*
G54D49*
X463945Y-304402D02*
X411558Y-304402D01*
X399254Y-291701D01*
X338533Y-291701D01*
X605630Y-308370D02*
G54D78*
D03*
G54D24*
X486964Y-311148D02*
X546098Y-311148D01*
G54D49*
X355995Y-156366D02*
X378220Y-148032D01*
X420289Y-148032D01*
X440530Y-127792D01*
G54D48*
X239712Y-112712D02*
X207962Y-98425D01*
X179386Y-98425D01*
X166686Y-111125D01*
X166686Y-119062D01*
G36*
X231975Y-96672D02*
X231975Y-78672D01*
X249975Y-78672D01*
X249975Y-96672D01*
X231975Y-96672D01*
G37*
X240975Y-62272D02*
G54D69*
D03*
X240975Y-36872D02*
G54D69*
D03*
G54D67*
X240975Y-36872D02*
X284412Y-36847D01*
G54D67*
X240975Y-62272D02*
X284412Y-62247D01*
X704547Y-54277D02*
G54D74*
D03*
X704547Y-35277D02*
G54D74*
D03*
X704574Y-99493D02*
G54D74*
D03*
X704574Y-80493D02*
G54D74*
D03*
G54D67*
X668733Y-46433D02*
X687833Y-46433D01*
X696516Y-54372D01*
X704547Y-54277D01*
X728758Y-56655D02*
G54D74*
D03*
X728758Y-75655D02*
G54D74*
D03*
G54D67*
X704574Y-99493D02*
X666427Y-112179D01*
G54D67*
X704574Y-80493D02*
X704547Y-54277D01*
X728339Y-32805D02*
G54D58*
D03*
X728339Y-109004D02*
G54D58*
D03*
G54D48*
X704574Y-99493D02*
X719136Y-92073D01*
X727942Y-76472D01*
G54D67*
X728361Y-56655D02*
X728361Y-32827D01*
G36*
X982662Y-9525D02*
X777874Y-9525D01*
X773112Y-15875D01*
X773112Y-69850D01*
X761999Y-80962D01*
X761999Y-96838D01*
X787399Y-96838D01*
X800893Y-83344D01*
X800893Y-40878D01*
X817165Y-24606D01*
X850105Y-24606D01*
X863599Y-38100D01*
X863599Y-77788D01*
X982662Y-77788D01*
X982662Y-9525D01*
G37*
G54D61*
X982662Y-9525D02*
X777874Y-9525D01*
X773112Y-15875D01*
X773112Y-69850D01*
X761999Y-80962D01*
X761999Y-96838D01*
X787399Y-96838D01*
X800893Y-83344D01*
X800893Y-40878D01*
X817165Y-24606D01*
X850105Y-24606D01*
X863599Y-38100D01*
X863599Y-77788D01*
X982662Y-77788D01*
X982662Y-9525D01*
X590548Y-243283D02*
G54D79*
D03*
X603249Y-243283D02*
G54D79*
D03*
X615948Y-243283D02*
G54D79*
D03*
G36*
X625148Y-232282D02*
X632148Y-232282D01*
X632150Y-254282D01*
X625150Y-254282D01*
X625148Y-232282D01*
G37*
X628648Y-189283D02*
G54D79*
D03*
G36*
X612448Y-178283D02*
X619448Y-178282D01*
X619449Y-200282D01*
X612449Y-200283D01*
X612448Y-178283D01*
G37*
X603248Y-189283D02*
G54D79*
D03*
G36*
X587048Y-178283D02*
X594048Y-178283D01*
X594049Y-200283D01*
X587049Y-200283D01*
X587048Y-178283D01*
G37*
G36*
X633680Y-171564D02*
X633680Y-156564D01*
X648680Y-156564D01*
X648680Y-171564D01*
X633680Y-171564D01*
G37*
X615780Y-164064D02*
G54D66*
D03*
G54D48*
X628648Y-189283D02*
X641180Y-164064D01*
G54D48*
X615948Y-189283D02*
X615780Y-164064D01*
X417114Y-39686D02*
G54D46*
D03*
X636189Y-326229D02*
G54D46*
D03*
X307576Y-325039D02*
G54D46*
D03*
X643333Y-88104D02*
G54D46*
D03*
X573483Y-175020D02*
G54D46*
D03*
G36*
X374101Y-104918D02*
X387101Y-104918D01*
X387102Y-118918D01*
X374102Y-118918D01*
X374101Y-104918D01*
G37*
X399601Y-111918D02*
G54D71*
D03*
G54D67*
X355296Y-116585D02*
X375935Y-116585D01*
X380601Y-111918D01*
G54D49*
X399601Y-111918D02*
X409572Y-111918D01*
X415923Y-105568D01*
X425884Y-105568D01*
X426114Y-105338D01*
G54D67*
X480217Y-73420D02*
X519111Y-34924D01*
X519110Y-10714D01*
G36*
X473470Y-73420D02*
X465785Y-65735D01*
X465785Y-59277D01*
X467120Y-57942D01*
X496488Y-57942D01*
X496488Y-69848D01*
X500061Y-73420D01*
X473470Y-73420D01*
G37*
G54D48*
X473470Y-73420D02*
X465785Y-65735D01*
X465785Y-59277D01*
X467120Y-57942D01*
X496488Y-57942D01*
X496488Y-69848D01*
X500061Y-73420D01*
X473470Y-73420D01*
X391689Y-318714D02*
G54D73*
D03*
X372690Y-318714D02*
G54D73*
D03*
G36*
X407835Y-314071D02*
X420835Y-314071D01*
X420835Y-328071D01*
X407835Y-328071D01*
X407835Y-314071D01*
G37*
X433335Y-321071D02*
G54D71*
D03*
G54D48*
X414335Y-321071D02*
X391689Y-318714D01*
G54D48*
X433335Y-321071D02*
X445689Y-321071D01*
X453229Y-328611D01*
X478629Y-328611D01*
X480216Y-327024D01*
X480216Y-317499D01*
G36*
X486963Y-273446D02*
X510379Y-273446D01*
X510379Y-266699D01*
X501251Y-257571D01*
X486963Y-257571D01*
X486963Y-273446D01*
G37*
G54D48*
X486963Y-273446D02*
X510379Y-273446D01*
X510379Y-266699D01*
X501251Y-257571D01*
X486963Y-257571D01*
X486963Y-273446D01*
G36*
X522535Y-168210D02*
X535535Y-168210D01*
X535536Y-184210D01*
X522536Y-184210D01*
X522535Y-168210D01*
G37*
X548035Y-176210D02*
G54D73*
D03*
G36*
X482054Y-190435D02*
X495054Y-190435D01*
X495054Y-206435D01*
X482054Y-206435D01*
X482054Y-190435D01*
G37*
X507554Y-198435D02*
G54D73*
D03*
X366266Y-245267D02*
G54D73*
D03*
X347266Y-245267D02*
G54D73*
D03*
G54D24*
X590549Y-240504D02*
X590549Y-225422D01*
G54D16*
X603249Y-143667D02*
X654048Y-143667D01*
X728339Y-108608D01*
G54D48*
X500854Y-257570D02*
X506411Y-252013D01*
G36*
X519614Y-114338D02*
X517614Y-116338D01*
X506614Y-116338D01*
X505614Y-115338D01*
X505614Y-111338D01*
X506614Y-110338D01*
X517614Y-110338D01*
X519614Y-112338D01*
X519614Y-114338D01*
G37*
G54D80*
X519614Y-114338D02*
X517614Y-116338D01*
X506614Y-116338D01*
X505614Y-115338D01*
X505614Y-111338D01*
X506614Y-110338D01*
X517614Y-110338D01*
X519614Y-112338D01*
X519614Y-114338D01*
G36*
X519614Y-106338D02*
X517614Y-108338D01*
X506614Y-108338D01*
X505614Y-107338D01*
X505614Y-103338D01*
X506614Y-102338D01*
X517614Y-102338D01*
X519614Y-104338D01*
X519614Y-106338D01*
G37*
G54D80*
X519614Y-106338D02*
X517614Y-108338D01*
X506614Y-108338D01*
X505614Y-107338D01*
X505614Y-103338D01*
X506614Y-102338D01*
X517614Y-102338D01*
X519614Y-104338D01*
X519614Y-106338D01*
X511114Y-113338D02*
G54D81*
D03*
X511114Y-105338D02*
G54D81*
D03*
G36*
X519614Y-98338D02*
X517614Y-100338D01*
X506614Y-100338D01*
X505614Y-99338D01*
X505614Y-95338D01*
X506614Y-94338D01*
X517614Y-94338D01*
X519614Y-96338D01*
X519614Y-98338D01*
G37*
G54D80*
X519614Y-98338D02*
X517614Y-100338D01*
X506614Y-100338D01*
X505614Y-99338D01*
X505614Y-95338D01*
X506614Y-94338D01*
X517614Y-94338D01*
X519614Y-96338D01*
X519614Y-98338D01*
G36*
X519614Y-90338D02*
X517614Y-92338D01*
X506614Y-92338D01*
X505614Y-91338D01*
X505614Y-87338D01*
X506614Y-86338D01*
X517614Y-86338D01*
X519614Y-88338D01*
X519614Y-90338D01*
G37*
G54D80*
X519614Y-90338D02*
X517614Y-92338D01*
X506614Y-92338D01*
X505614Y-91338D01*
X505614Y-87338D01*
X506614Y-86338D01*
X517614Y-86338D01*
X519614Y-88338D01*
X519614Y-90338D01*
X511114Y-97338D02*
G54D81*
D03*
X511114Y-89338D02*
G54D81*
D03*
G36*
X519614Y-82338D02*
X517614Y-84338D01*
X506614Y-84338D01*
X505614Y-83338D01*
X505614Y-79338D01*
X506614Y-78338D01*
X517614Y-78338D01*
X519614Y-80338D01*
X519614Y-82338D01*
G37*
G54D80*
X519614Y-82338D02*
X517614Y-84338D01*
X506614Y-84338D01*
X505614Y-83338D01*
X505614Y-79338D01*
X506614Y-78338D01*
X517614Y-78338D01*
X519614Y-80338D01*
X519614Y-82338D01*
G36*
X519614Y-74338D02*
X517614Y-76338D01*
X506614Y-76338D01*
X505614Y-75338D01*
X505614Y-71338D01*
X506614Y-70338D01*
X517614Y-70338D01*
X519614Y-72338D01*
X519614Y-74338D01*
G37*
G54D80*
X519614Y-74338D02*
X517614Y-76338D01*
X506614Y-76338D01*
X505614Y-75338D01*
X505614Y-71338D01*
X506614Y-70338D01*
X517614Y-70338D01*
X519614Y-72338D01*
X519614Y-74338D01*
X511114Y-81338D02*
G54D81*
D03*
X511114Y-73338D02*
G54D81*
D03*
G36*
X519614Y-66338D02*
X517614Y-68338D01*
X506614Y-68338D01*
X505614Y-67338D01*
X505614Y-63338D01*
X506614Y-62338D01*
X517614Y-62338D01*
X519614Y-64338D01*
X519614Y-66338D01*
G37*
G54D80*
X519614Y-66338D02*
X517614Y-68338D01*
X506614Y-68338D01*
X505614Y-67338D01*
X505614Y-63338D01*
X506614Y-62338D01*
X517614Y-62338D01*
X519614Y-64338D01*
X519614Y-66338D01*
G36*
X519614Y-58338D02*
X517614Y-60338D01*
X506614Y-60338D01*
X505614Y-59338D01*
X505614Y-55338D01*
X506614Y-54338D01*
X517614Y-54338D01*
X519614Y-56338D01*
X519614Y-58338D01*
G37*
G54D80*
X519614Y-58338D02*
X517614Y-60338D01*
X506614Y-60338D01*
X505614Y-59338D01*
X505614Y-55338D01*
X506614Y-54338D01*
X517614Y-54338D01*
X519614Y-56338D01*
X519614Y-58338D01*
X511114Y-65338D02*
G54D81*
D03*
X511114Y-57338D02*
G54D81*
D03*
G36*
X439614Y-136338D02*
X437614Y-134338D01*
X437614Y-123338D01*
X438614Y-122338D01*
X442614Y-122338D01*
X443614Y-123338D01*
X443614Y-134338D01*
X441614Y-136338D01*
X439614Y-136338D01*
G37*
G54D80*
X439614Y-136338D02*
X437614Y-134338D01*
X437614Y-123338D01*
X438614Y-122338D01*
X442614Y-122338D01*
X443614Y-123338D01*
X443614Y-134338D01*
X441614Y-136338D01*
X439614Y-136338D01*
G36*
X447614Y-136338D02*
X445614Y-134338D01*
X445614Y-123338D01*
X446614Y-122338D01*
X450614Y-122338D01*
X451614Y-123338D01*
X451614Y-134338D01*
X449614Y-136338D01*
X447614Y-136338D01*
G37*
G54D80*
X447614Y-136338D02*
X445614Y-134338D01*
X445614Y-123338D01*
X446614Y-122338D01*
X450614Y-122338D01*
X451614Y-123338D01*
X451614Y-134338D01*
X449614Y-136338D01*
X447614Y-136338D01*
X440614Y-127838D02*
G54D81*
D03*
X448614Y-127838D02*
G54D81*
D03*
G36*
X455614Y-136338D02*
X453614Y-134338D01*
X453614Y-123338D01*
X454614Y-122338D01*
X458614Y-122338D01*
X459614Y-123338D01*
X459614Y-134338D01*
X457614Y-136338D01*
X455614Y-136338D01*
G37*
G54D80*
X455614Y-136338D02*
X453614Y-134338D01*
X453614Y-123338D01*
X454614Y-122338D01*
X458614Y-122338D01*
X459614Y-123338D01*
X459614Y-134338D01*
X457614Y-136338D01*
X455614Y-136338D01*
G36*
X463614Y-136338D02*
X461614Y-134338D01*
X461614Y-123338D01*
X462614Y-122338D01*
X466614Y-122338D01*
X467614Y-123338D01*
X467614Y-134338D01*
X465614Y-136338D01*
X463614Y-136338D01*
G37*
G54D80*
X463614Y-136338D02*
X461614Y-134338D01*
X461614Y-123338D01*
X462614Y-122338D01*
X466614Y-122338D01*
X467614Y-123338D01*
X467614Y-134338D01*
X465614Y-136338D01*
X463614Y-136338D01*
X456614Y-127838D02*
G54D81*
D03*
X464614Y-127838D02*
G54D81*
D03*
G36*
X471614Y-136338D02*
X469614Y-134338D01*
X469614Y-123338D01*
X470614Y-122338D01*
X474614Y-122338D01*
X475614Y-123338D01*
X475614Y-134338D01*
X473614Y-136338D01*
X471614Y-136338D01*
G37*
G54D80*
X471614Y-136338D02*
X469614Y-134338D01*
X469614Y-123338D01*
X470614Y-122338D01*
X474614Y-122338D01*
X475614Y-123338D01*
X475614Y-134338D01*
X473614Y-136338D01*
X471614Y-136338D01*
G36*
X479614Y-136338D02*
X477614Y-134338D01*
X477614Y-123338D01*
X478614Y-122338D01*
X482614Y-122338D01*
X483614Y-123338D01*
X483614Y-134338D01*
X481614Y-136338D01*
X479614Y-136338D01*
G37*
G54D80*
X479614Y-136338D02*
X477614Y-134338D01*
X477614Y-123338D01*
X478614Y-122338D01*
X482614Y-122338D01*
X483614Y-123338D01*
X483614Y-134338D01*
X481614Y-136338D01*
X479614Y-136338D01*
X472614Y-127838D02*
G54D81*
D03*
X480614Y-127838D02*
G54D81*
D03*
G36*
X487614Y-136338D02*
X485614Y-134338D01*
X485614Y-123338D01*
X486614Y-122338D01*
X490614Y-122338D01*
X491614Y-123338D01*
X491614Y-134338D01*
X489614Y-136338D01*
X487614Y-136338D01*
G37*
G54D80*
X487614Y-136338D02*
X485614Y-134338D01*
X485614Y-123338D01*
X486614Y-122338D01*
X490614Y-122338D01*
X491614Y-123338D01*
X491614Y-134338D01*
X489614Y-136338D01*
X487614Y-136338D01*
G36*
X495614Y-136338D02*
X493614Y-134338D01*
X493614Y-123338D01*
X494614Y-122338D01*
X498614Y-122338D01*
X499614Y-123338D01*
X499614Y-134338D01*
X497614Y-136338D01*
X495614Y-136338D01*
G37*
G54D80*
X495614Y-136338D02*
X493614Y-134338D01*
X493614Y-123338D01*
X494614Y-122338D01*
X498614Y-122338D01*
X499614Y-123338D01*
X499614Y-134338D01*
X497614Y-136338D01*
X495614Y-136338D01*
X488614Y-127838D02*
G54D81*
D03*
X496614Y-127838D02*
G54D81*
D03*
G36*
X417614Y-56338D02*
X419614Y-54338D01*
X430614Y-54338D01*
X431614Y-55338D01*
X431614Y-59338D01*
X430614Y-60338D01*
X419614Y-60338D01*
X417614Y-58338D01*
X417614Y-56338D01*
G37*
G54D80*
X417614Y-56338D02*
X419614Y-54338D01*
X430614Y-54338D01*
X431614Y-55338D01*
X431614Y-59338D01*
X430614Y-60338D01*
X419614Y-60338D01*
X417614Y-58338D01*
X417614Y-56338D01*
G36*
X417614Y-64338D02*
X419614Y-62338D01*
X430614Y-62338D01*
X431614Y-63338D01*
X431614Y-67338D01*
X430614Y-68338D01*
X419614Y-68338D01*
X417614Y-66338D01*
X417614Y-64338D01*
G37*
G54D80*
X417614Y-64338D02*
X419614Y-62338D01*
X430614Y-62338D01*
X431614Y-63338D01*
X431614Y-67338D01*
X430614Y-68338D01*
X419614Y-68338D01*
X417614Y-66338D01*
X417614Y-64338D01*
G36*
X423614Y-54838D02*
X428614Y-54838D01*
X428614Y-59838D01*
X423614Y-59838D01*
X423614Y-54838D01*
G37*
G36*
X423614Y-62838D02*
X428614Y-62838D01*
X428614Y-67838D01*
X423614Y-67838D01*
X423614Y-62838D01*
G37*
G36*
X417614Y-72338D02*
X419614Y-70338D01*
X430614Y-70338D01*
X431614Y-71338D01*
X431614Y-75338D01*
X430614Y-76338D01*
X419614Y-76338D01*
X417614Y-74338D01*
X417614Y-72338D01*
G37*
G54D80*
X417614Y-72338D02*
X419614Y-70338D01*
X430614Y-70338D01*
X431614Y-71338D01*
X431614Y-75338D01*
X430614Y-76338D01*
X419614Y-76338D01*
X417614Y-74338D01*
X417614Y-72338D01*
G36*
X417614Y-80338D02*
X419614Y-78338D01*
X430614Y-78338D01*
X431614Y-79338D01*
X431614Y-83338D01*
X430614Y-84338D01*
X419614Y-84338D01*
X417614Y-82338D01*
X417614Y-80338D01*
G37*
G54D80*
X417614Y-80338D02*
X419614Y-78338D01*
X430614Y-78338D01*
X431614Y-79338D01*
X431614Y-83338D01*
X430614Y-84338D01*
X419614Y-84338D01*
X417614Y-82338D01*
X417614Y-80338D01*
X426114Y-73338D02*
G54D81*
D03*
X426114Y-81338D02*
G54D81*
D03*
G36*
X417614Y-88338D02*
X419614Y-86338D01*
X430614Y-86338D01*
X431614Y-87338D01*
X431614Y-91338D01*
X430614Y-92338D01*
X419614Y-92338D01*
X417614Y-90338D01*
X417614Y-88338D01*
G37*
G54D80*
X417614Y-88338D02*
X419614Y-86338D01*
X430614Y-86338D01*
X431614Y-87338D01*
X431614Y-91338D01*
X430614Y-92338D01*
X419614Y-92338D01*
X417614Y-90338D01*
X417614Y-88338D01*
G36*
X417614Y-96338D02*
X419614Y-94338D01*
X430614Y-94338D01*
X431614Y-95338D01*
X431614Y-99338D01*
X430614Y-100338D01*
X419614Y-100338D01*
X417614Y-98338D01*
X417614Y-96338D01*
G37*
G54D80*
X417614Y-96338D02*
X419614Y-94338D01*
X430614Y-94338D01*
X431614Y-95338D01*
X431614Y-99338D01*
X430614Y-100338D01*
X419614Y-100338D01*
X417614Y-98338D01*
X417614Y-96338D01*
X426114Y-89338D02*
G54D81*
D03*
X426114Y-97338D02*
G54D81*
D03*
G36*
X417614Y-104338D02*
X419614Y-102338D01*
X430614Y-102338D01*
X431614Y-103338D01*
X431614Y-107338D01*
X430614Y-108338D01*
X419614Y-108338D01*
X417614Y-106338D01*
X417614Y-104338D01*
G37*
G54D80*
X417614Y-104338D02*
X419614Y-102338D01*
X430614Y-102338D01*
X431614Y-103338D01*
X431614Y-107338D01*
X430614Y-108338D01*
X419614Y-108338D01*
X417614Y-106338D01*
X417614Y-104338D01*
G36*
X417614Y-112338D02*
X419614Y-110338D01*
X430614Y-110338D01*
X431614Y-111338D01*
X431614Y-115338D01*
X430614Y-116338D01*
X419614Y-116338D01*
X417614Y-114338D01*
X417614Y-112338D01*
G37*
G54D80*
X417614Y-112338D02*
X419614Y-110338D01*
X430614Y-110338D01*
X431614Y-111338D01*
X431614Y-115338D01*
X430614Y-116338D01*
X419614Y-116338D01*
X417614Y-114338D01*
X417614Y-112338D01*
G36*
X423614Y-102838D02*
X428614Y-102838D01*
X428614Y-107838D01*
X423614Y-107838D01*
X423614Y-102838D01*
G37*
X426114Y-113338D02*
G54D81*
D03*
G36*
X497614Y-34338D02*
X499614Y-36338D01*
X499614Y-47338D01*
X498614Y-48338D01*
X494614Y-48338D01*
X493614Y-47338D01*
X493614Y-36338D01*
X495614Y-34338D01*
X497614Y-34338D01*
G37*
G54D80*
X497614Y-34338D02*
X499614Y-36338D01*
X499614Y-47338D01*
X498614Y-48338D01*
X494614Y-48338D01*
X493614Y-47338D01*
X493614Y-36338D01*
X495614Y-34338D01*
X497614Y-34338D01*
G36*
X489614Y-34338D02*
X491614Y-36338D01*
X491614Y-47338D01*
X490614Y-48338D01*
X486614Y-48338D01*
X485614Y-47338D01*
X485614Y-36338D01*
X487614Y-34338D01*
X489614Y-34338D01*
G37*
G54D80*
X489614Y-34338D02*
X491614Y-36338D01*
X491614Y-47338D01*
X490614Y-48338D01*
X486614Y-48338D01*
X485614Y-47338D01*
X485614Y-36338D01*
X487614Y-34338D01*
X489614Y-34338D01*
X496614Y-42838D02*
G54D81*
D03*
X488614Y-42838D02*
G54D81*
D03*
G36*
X481614Y-34338D02*
X483614Y-36338D01*
X483614Y-47338D01*
X482614Y-48338D01*
X478614Y-48338D01*
X477614Y-47338D01*
X477614Y-36338D01*
X479614Y-34338D01*
X481614Y-34338D01*
G37*
G54D80*
X481614Y-34338D02*
X483614Y-36338D01*
X483614Y-47338D01*
X482614Y-48338D01*
X478614Y-48338D01*
X477614Y-47338D01*
X477614Y-36338D01*
X479614Y-34338D01*
X481614Y-34338D01*
G36*
X473614Y-34338D02*
X475614Y-36338D01*
X475614Y-47338D01*
X474614Y-48338D01*
X470614Y-48338D01*
X469614Y-47338D01*
X469614Y-36338D01*
X471614Y-34338D01*
X473614Y-34338D01*
G37*
G54D80*
X473614Y-34338D02*
X475614Y-36338D01*
X475614Y-47338D01*
X474614Y-48338D01*
X470614Y-48338D01*
X469614Y-47338D01*
X469614Y-36338D01*
X471614Y-34338D01*
X473614Y-34338D01*
X480614Y-42838D02*
G54D81*
D03*
X472614Y-42838D02*
G54D81*
D03*
G36*
X465614Y-34338D02*
X467614Y-36338D01*
X467614Y-47338D01*
X466614Y-48338D01*
X462614Y-48338D01*
X461614Y-47338D01*
X461614Y-36338D01*
X463614Y-34338D01*
X465614Y-34338D01*
G37*
G54D80*
X465614Y-34338D02*
X467614Y-36338D01*
X467614Y-47338D01*
X466614Y-48338D01*
X462614Y-48338D01*
X461614Y-47338D01*
X461614Y-36338D01*
X463614Y-34338D01*
X465614Y-34338D01*
G36*
X457614Y-34338D02*
X459614Y-36338D01*
X459614Y-47338D01*
X458614Y-48338D01*
X454614Y-48338D01*
X453614Y-47338D01*
X453614Y-36338D01*
X455614Y-34338D01*
X457614Y-34338D01*
G37*
G54D80*
X457614Y-34338D02*
X459614Y-36338D01*
X459614Y-47338D01*
X458614Y-48338D01*
X454614Y-48338D01*
X453614Y-47338D01*
X453614Y-36338D01*
X455614Y-34338D01*
X457614Y-34338D01*
X464614Y-42838D02*
G54D81*
D03*
X456614Y-42838D02*
G54D81*
D03*
G36*
X449614Y-34338D02*
X451614Y-36338D01*
X451614Y-47338D01*
X450614Y-48338D01*
X446614Y-48338D01*
X445614Y-47338D01*
X445614Y-36338D01*
X447614Y-34338D01*
X449614Y-34338D01*
G37*
G54D80*
X449614Y-34338D02*
X451614Y-36338D01*
X451614Y-47338D01*
X450614Y-48338D01*
X446614Y-48338D01*
X445614Y-47338D01*
X445614Y-36338D01*
X447614Y-34338D01*
X449614Y-34338D01*
G36*
X441614Y-34338D02*
X443614Y-36338D01*
X443614Y-47338D01*
X442614Y-48338D01*
X438614Y-48338D01*
X437614Y-47338D01*
X437614Y-36338D01*
X439614Y-34338D01*
X441614Y-34338D01*
G37*
G54D80*
X441614Y-34338D02*
X443614Y-36338D01*
X443614Y-47338D01*
X442614Y-48338D01*
X438614Y-48338D01*
X437614Y-47338D01*
X437614Y-36338D01*
X439614Y-34338D01*
X441614Y-34338D01*
X448614Y-42838D02*
G54D81*
D03*
X440614Y-42838D02*
G54D81*
D03*
G36*
X893761Y-82550D02*
X863598Y-82550D01*
X863598Y-128587D01*
X893761Y-128587D01*
X893761Y-82550D01*
G37*
G54D61*
X893761Y-82550D02*
X863598Y-82550D01*
X863598Y-128587D01*
X893761Y-128587D01*
X893761Y-82550D01*
G36*
X900112Y-128588D02*
X900112Y-69850D01*
X919162Y-69850D01*
X919162Y-128588D01*
X900112Y-128588D01*
G37*
G54D61*
X900112Y-128588D02*
X900112Y-69850D01*
X919162Y-69850D01*
X919162Y-128588D01*
X900112Y-128588D01*
X284162Y-20638D02*
G54D73*
D03*
X265162Y-20637D02*
G54D73*
D03*
X263101Y-60298D02*
G54D74*
D03*
X263101Y-41298D02*
G54D74*
D03*
X479026Y-105964D02*
G54D46*
D03*
X490139Y-65482D02*
G54D46*
D03*
X671116Y-73818D02*
G54D82*
D03*
X546497Y-308372D02*
G54D73*
D03*
X565497Y-308372D02*
G54D73*
D03*
G54D24*
X606820Y-309958D02*
X565148Y-309958D01*
G36*
X479425Y-251619D02*
X479425Y-248047D01*
X490141Y-237331D01*
X499269Y-237331D01*
X479425Y-251619D01*
G37*
G54D61*
X479425Y-251619D02*
X479425Y-248047D01*
X490141Y-237331D01*
X499269Y-237331D01*
X479425Y-251619D01*
G36*
X475818Y-251977D02*
X475818Y-248405D01*
X455974Y-230546D01*
X455974Y-237690D01*
X475818Y-251977D01*
G37*
G54D61*
X475818Y-251977D02*
X475818Y-248405D01*
X455974Y-230546D01*
X455974Y-237690D01*
X475818Y-251977D01*
X542526Y-203595D02*
G54D52*
D03*
X542526Y-207167D02*
G54D52*
D03*
X542526Y-254395D02*
G54D52*
D03*
X542526Y-257967D02*
G54D52*
D03*
X390126Y-203595D02*
G54D52*
D03*
X390126Y-207167D02*
G54D52*
D03*
X390126Y-228995D02*
G54D52*
D03*
X390126Y-232567D02*
G54D52*
D03*
X390126Y-253998D02*
G54D52*
D03*
X390126Y-257570D02*
G54D52*
D03*
X671116Y-60722D02*
G54D82*
D03*
M02*
