%FSLAX34Y34*%
%MOMM*%
%LNCOPPER_TOP*%
G71*
G01*
%ADD10C, 5.000*%
%ADD11C, 5.200*%
%ADD12C, 2.400*%
%ADD13C, 2.400*%
%ADD14R, 3.300X2.200*%
%ADD15R, 2.800X3.300*%
%ADD16C, 0.700*%
%ADD17R, 2.600X1.100*%
%ADD18C, 0.900*%
%ADD19R, 1.000X2.400*%
%ADD20R, 0.700X2.400*%
%ADD21R, 5.600X2.100*%
%ADD22C, 1.900*%
%ADD23C, 1.000*%
%ADD24C, 0.600*%
%ADD25C, 1.100*%
%ADD26R, 2.000X1.700*%
%ADD27C, 1.600*%
%ADD28C, 2.200*%
%ADD29R, 1.700X1.800*%
%ADD30C, 1.300*%
%ADD31C, 3.600*%
%ADD32C, 3.400*%
%ADD33R, 2.100X2.400*%
%ADD34R, 1.800X1.700*%
%ADD35R, 2.400X2.100*%
%ADD36R, 1.900X5.200*%
%ADD37C, 0.175*%
%ADD38C, 2.400*%
%ADD39C, 1.680*%
%ADD40R, 2.500X5.000*%
%ADD41R, 4.800X2.300*%
%ADD42C, 0.800*%
%ADD43C, 0.159*%
%ADD44C, 0.191*%
%ADD45R, 1.100X2.600*%
%ADD46C, 1.280*%
%ADD47R, 1.700X2.000*%
%ADD48C, 0.300*%
%ADD49C, 0.400*%
%ADD50R, 0.900X0.900*%
%ADD51C, 0.100*%
%ADD52R, 3.100X1.400*%
%ADD53C, 1.280*%
%ADD54C, 0.200*%
%ADD55C, 0.667*%
%ADD56C, 0.649*%
%ADD57C, 0.433*%
%ADD58C, 0.233*%
%ADD59C, 0.245*%
%ADD60C, 2.000*%
%ADD61C, 2.000*%
%ADD62R, 2.000X2.500*%
%ADD63R, 2.200X0.700*%
%ADD64R, 0.600X2.000*%
%ADD65R, 0.300X2.000*%
%ADD66R, 5.000X1.500*%
%ADD67C, 1.500*%
%ADD68C, 0.500*%
%ADD69R, 1.600X1.300*%
%ADD70C, 1.800*%
%ADD71R, 1.300X1.400*%
%ADD72C, 3.000*%
%ADD73R, 1.300X1.600*%
%ADD74R, 1.400X1.300*%
%ADD75R, 1.500X4.800*%
%ADD76C, 2.000*%
%ADD77R, 1.900X4.400*%
%ADD78R, 4.400X1.900*%
%ADD79R, 0.700X2.200*%
%ADD80C, 0.000*%
%ADD81R, 0.500X0.500*%
%ADD82R, 2.700X1.000*%
%LPD*%
G36*
X792Y-396D02*
X982792Y-396D01*
X982792Y-331396D01*
X792Y-331396D01*
X792Y-396D01*
G37*
%LPC*%
X46036Y-49608D02*
G54D10*
D03*
X827085Y-49608D02*
G54D11*
D03*
G36*
X743251Y-121535D02*
X743251Y-97535D01*
X767251Y-97535D01*
X767251Y-121535D01*
X743251Y-121535D01*
G37*
X755252Y-84136D02*
G54D12*
D03*
X755252Y-58736D02*
G54D12*
D03*
X755252Y-33336D02*
G54D12*
D03*
X385760Y-200421D02*
G54D13*
D03*
X538160Y-200421D02*
G54D13*
D03*
X385760Y-225821D02*
G54D13*
D03*
X538161Y-251221D02*
G54D13*
D03*
X385760Y-251221D02*
G54D13*
D03*
X930776Y-32802D02*
G54D14*
D03*
X930670Y-90487D02*
G54D15*
D03*
G36*
X942070Y-73987D02*
X970070Y-73987D01*
X970070Y-106987D01*
X942070Y-106987D01*
X942070Y-73987D01*
G37*
X905270Y-90487D02*
G54D15*
D03*
G36*
X944562Y-120650D02*
X978296Y-120650D01*
X978296Y-77391D01*
X944562Y-77391D01*
X944562Y-120650D01*
G37*
G54D16*
X944562Y-120650D02*
X978296Y-120650D01*
X978296Y-77391D01*
X944562Y-77391D01*
X944562Y-120650D01*
X664367Y-67070D02*
G54D17*
D03*
X664367Y-54370D02*
G54D17*
D03*
X664367Y-41670D02*
G54D17*
D03*
X664366Y-28970D02*
G54D17*
D03*
X610367Y-28970D02*
G54D17*
D03*
X610367Y-41671D02*
G54D17*
D03*
X610367Y-54371D02*
G54D17*
D03*
X610367Y-67070D02*
G54D17*
D03*
G54D18*
X667005Y-53861D02*
X666748Y-53973D01*
G54D16*
X465738Y-295714D02*
X465737Y-288967D01*
X480818Y-279045D01*
X480818Y-267932D01*
X482406Y-305239D02*
G54D19*
D03*
X475818Y-305239D02*
G54D20*
D03*
X470818Y-305239D02*
G54D20*
D03*
X465818Y-305239D02*
G54D20*
D03*
X475818Y-261239D02*
G54D20*
D03*
X470818Y-261239D02*
G54D20*
D03*
X465819Y-261239D02*
G54D20*
D03*
X459387Y-305240D02*
G54D19*
D03*
X482406Y-261186D02*
G54D19*
D03*
X459387Y-261186D02*
G54D19*
D03*
X509071Y-225501D02*
G54D21*
D03*
X427315Y-225501D02*
G54D21*
D03*
G54D16*
X610367Y-41671D02*
X628251Y-41671D01*
X628252Y-22223D01*
X636983Y-13492D01*
X738583Y-13492D01*
X738583Y-45639D01*
X755252Y-58736D01*
G54D16*
X755252Y-34130D02*
X755252Y-7539D01*
X634602Y-7539D01*
X612378Y-29766D01*
X610367Y-29764D01*
G54D18*
X435372Y-258762D02*
X459343Y-258364D01*
G54D16*
X465930Y-270270D02*
X465930Y-274239D01*
X462359Y-276622D01*
X446088Y-276622D01*
X435372Y-284163D01*
G54D16*
X423346Y-225501D02*
X445767Y-225501D01*
X470692Y-246855D01*
X470692Y-255189D01*
G54D16*
X475852Y-255189D02*
X475852Y-246458D01*
X500061Y-226614D01*
G54D18*
X460248Y-123076D02*
X460248Y-148953D01*
X456802Y-147239D01*
G36*
X425872Y-249262D02*
X444872Y-249262D01*
X444872Y-268262D01*
X425872Y-268262D01*
X425872Y-249262D01*
G37*
X435372Y-284163D02*
G54D22*
D03*
G54D16*
X492248Y-123075D02*
X492645Y-165767D01*
X482202Y-176211D01*
X378220Y-176211D01*
X362345Y-192086D01*
X362345Y-242491D01*
X381792Y-251221D01*
G54D16*
X381792Y-200421D02*
X402828Y-193675D01*
X484189Y-193673D01*
X487759Y-186531D01*
X506808Y-167480D01*
X506808Y-108635D01*
X506749Y-108575D01*
G54D16*
X534192Y-200421D02*
X519508Y-179386D01*
X519508Y-100805D01*
X506978Y-100805D01*
X506748Y-100575D01*
G36*
X592099Y-34827D02*
X573099Y-34827D01*
X573099Y-15827D01*
X592099Y-15827D01*
X592099Y-34827D01*
G37*
X582599Y-50727D02*
G54D22*
D03*
G54D18*
X610367Y-41671D02*
X593724Y-41671D01*
X582599Y-50727D01*
G54D18*
X610367Y-28970D02*
X582599Y-25327D01*
G54D23*
X388875Y-60660D02*
X461022Y-60575D01*
X469105Y-68658D01*
X506434Y-68658D01*
G54D23*
X506352Y-68575D02*
X519904Y-68657D01*
X519905Y-84533D01*
X506351Y-84575D01*
G54D24*
X491727Y-76595D02*
X506749Y-76575D01*
G54D24*
X526255Y-92867D02*
X490933Y-92867D01*
G54D24*
X433386Y-84533D02*
X420686Y-84533D01*
X408780Y-84533D01*
G54D25*
X610367Y-67070D02*
X565943Y-67070D01*
X393674Y-65110D02*
G54D26*
D03*
X393674Y-84110D02*
G54D26*
D03*
G54D18*
X499590Y-265008D02*
X517024Y-265008D01*
X528636Y-276620D01*
X570705Y-276620D01*
X570705Y-200023D01*
X586183Y-184520D01*
X586182Y-168274D01*
X598090Y-139301D01*
X586978Y-113505D01*
G54D27*
X755252Y-84136D02*
X740170Y-87708D01*
X723973Y-104242D01*
G36*
X269046Y-49660D02*
X291046Y-49660D01*
X291046Y-71660D01*
X269046Y-71660D01*
X269046Y-49660D01*
G37*
X280046Y-35260D02*
G54D28*
D03*
X305446Y-60660D02*
G54D28*
D03*
X305446Y-35260D02*
G54D28*
D03*
X330846Y-60660D02*
G54D28*
D03*
X330847Y-35260D02*
G54D28*
D03*
X479026Y-147239D02*
G54D22*
D03*
G54D18*
X468248Y-123075D02*
X468248Y-136858D01*
X479026Y-147239D01*
G54D24*
X436249Y-38075D02*
X436538Y-24582D01*
X431402Y-19445D01*
X321864Y-19445D01*
X318292Y-23017D01*
X318292Y-41273D01*
X311545Y-48020D01*
X292686Y-48020D01*
X280046Y-60660D01*
G54D16*
X305594Y-33338D02*
X305594Y-25797D01*
X317897Y-13494D01*
X434975Y-13494D01*
X444103Y-22622D01*
X444103Y-36116D01*
G54D16*
X305446Y-60660D02*
X311545Y-57148D01*
X320674Y-48020D01*
X417590Y-48020D01*
X421748Y-52179D01*
G54D25*
X279795Y-34924D02*
X279796Y-15875D01*
X290908Y-6350D01*
X565545Y-6350D01*
X565545Y-82550D01*
X586580Y-113109D01*
G36*
X344370Y-56087D02*
X361370Y-56087D01*
X361370Y-74087D01*
X344370Y-74087D01*
X344370Y-56087D01*
G37*
X371870Y-65087D02*
G54D29*
D03*
G54D30*
X330846Y-60660D02*
X351680Y-65087D01*
G54D25*
X371870Y-65087D02*
X393674Y-65110D01*
X20011Y-114695D02*
G54D31*
D03*
X100011Y-114695D02*
G54D32*
D03*
X137714Y-114695D02*
G54D12*
D03*
X163114Y-114695D02*
G54D12*
D03*
X188515Y-114695D02*
G54D12*
D03*
X99988Y-95620D02*
G54D26*
D03*
X99988Y-76620D02*
G54D26*
D03*
G54D18*
X100011Y-114695D02*
X137714Y-114695D01*
X586581Y-112314D02*
G54D33*
D03*
G36*
X595080Y-100314D02*
X616080Y-100314D01*
X616080Y-124314D01*
X595080Y-124314D01*
X595080Y-100314D01*
G37*
G36*
X648661Y-95416D02*
X648661Y-119416D01*
X624661Y-119416D01*
X624661Y-95416D01*
X648661Y-95416D01*
G37*
X662061Y-107417D02*
G54D12*
D03*
G54D16*
X254396Y-107950D02*
X268683Y-107950D01*
X292099Y-131366D01*
X354012Y-131366D01*
X403621Y-125412D01*
X421083Y-107950D01*
X253947Y-107948D02*
G54D29*
D03*
X234947Y-107948D02*
G54D29*
D03*
X456802Y-147239D02*
G54D22*
D03*
G54D16*
X435372Y-258762D02*
X411955Y-258364D01*
X399255Y-271064D01*
X371474Y-271064D01*
X352424Y-252014D01*
X352424Y-186926D01*
X377427Y-161923D01*
X429815Y-161923D01*
X452038Y-132158D01*
X452248Y-123075D01*
X303705Y-111772D02*
G54D34*
D03*
X303705Y-92772D02*
G54D34*
D03*
X39686Y-115092D02*
G54D29*
D03*
X58686Y-115092D02*
G54D29*
D03*
X326722Y-111823D02*
G54D34*
D03*
X326722Y-92824D02*
G54D34*
D03*
G54D18*
X351233Y-111125D02*
X327421Y-111125D01*
X303608Y-111125D01*
G36*
X328940Y-166304D02*
X340961Y-154282D01*
X353689Y-167010D01*
X341669Y-179031D01*
X328940Y-166304D01*
G37*
G36*
X342375Y-152868D02*
X354396Y-140848D01*
X367124Y-153576D01*
X355103Y-165596D01*
X342375Y-152868D01*
G37*
X505196Y-265135D02*
G54D35*
D03*
X505196Y-284135D02*
G54D35*
D03*
G54D25*
X482520Y-268665D02*
X501570Y-268665D01*
G36*
X536095Y-98518D02*
X555095Y-98517D01*
X555097Y-150517D01*
X536097Y-150518D01*
X536095Y-98518D01*
G37*
X545596Y-42761D02*
G54D36*
D03*
G54D23*
X506748Y-52575D02*
X529829Y-52575D01*
X545596Y-42761D01*
G54D23*
X506748Y-60575D02*
X528094Y-60575D01*
X545596Y-102690D01*
X545702Y-124412D01*
X545596Y-124518D01*
X350931Y-111822D02*
G54D26*
D03*
X350931Y-92822D02*
G54D26*
D03*
X597693Y-138904D02*
G54D33*
D03*
X578694Y-138904D02*
G54D33*
D03*
G54D37*
X11682Y-89852D02*
X15349Y-80074D01*
X19016Y-89852D01*
G54D37*
X13149Y-86185D02*
X17549Y-86185D01*
G54D37*
X22438Y-89852D02*
X22438Y-80074D01*
X28304Y-89852D01*
X28304Y-80074D01*
G54D37*
X34660Y-89852D02*
X34660Y-80074D01*
G54D37*
X31726Y-80074D02*
X37593Y-80074D01*
G54D37*
X41016Y-89852D02*
X48349Y-89852D01*
G54D37*
X57637Y-88018D02*
X56904Y-89240D01*
X55437Y-89852D01*
X53970Y-89852D01*
X52504Y-89240D01*
X51770Y-88018D01*
X51770Y-81907D01*
X52504Y-80685D01*
X53970Y-80074D01*
X55437Y-80074D01*
X56904Y-80685D01*
X57637Y-81907D01*
G54D37*
X61060Y-84963D02*
X62526Y-84352D01*
X64286Y-84352D01*
X65460Y-85574D01*
X65460Y-89852D01*
G54D37*
X65460Y-88018D02*
X64726Y-86796D01*
X63260Y-86552D01*
X61793Y-86796D01*
X61060Y-88018D01*
X61353Y-89240D01*
X62526Y-89852D01*
X63260Y-89852D01*
X63553Y-89852D01*
X64726Y-89240D01*
X65460Y-88018D01*
G54D37*
X68882Y-84352D02*
X68882Y-92296D01*
G54D37*
X68882Y-88018D02*
X69615Y-89607D01*
X71082Y-89852D01*
X72548Y-89607D01*
X73282Y-88385D01*
X73282Y-85940D01*
X72548Y-84718D01*
X71082Y-84352D01*
X69615Y-84718D01*
X68882Y-86185D01*
G54D37*
X78271Y-8088D02*
X78271Y-14200D01*
X77538Y-15422D01*
X76071Y-16033D01*
X74604Y-16033D01*
X73138Y-15422D01*
X72404Y-14200D01*
X72404Y-8088D01*
X73138Y-6866D01*
X74604Y-6255D01*
X76071Y-6255D01*
X77538Y-6866D01*
X78271Y-8088D01*
G54D37*
X86093Y-10533D02*
X86093Y-16033D01*
G54D37*
X86093Y-14811D02*
X85360Y-15788D01*
X83893Y-16033D01*
X82427Y-15788D01*
X81693Y-14811D01*
X81693Y-10533D01*
G54D37*
X90982Y-6255D02*
X90982Y-15422D01*
X91715Y-16033D01*
X92449Y-15788D01*
G54D37*
X89515Y-10533D02*
X92449Y-10533D01*
G54D37*
X99439Y-16033D02*
X99439Y-6255D01*
X103106Y-6255D01*
X104573Y-6866D01*
X105306Y-8088D01*
X105306Y-9311D01*
X104573Y-10533D01*
X103106Y-11144D01*
X99439Y-11144D01*
G54D37*
X113128Y-14566D02*
X113128Y-12122D01*
X112395Y-10900D01*
X110928Y-10533D01*
X109462Y-10900D01*
X108728Y-12122D01*
X108728Y-14566D01*
X109462Y-15788D01*
X110928Y-16033D01*
X112395Y-15788D01*
X113128Y-14566D01*
G54D37*
X116550Y-10533D02*
X118750Y-16033D01*
X120950Y-10533D01*
X123150Y-16033D01*
X124617Y-10533D01*
G54D37*
X132439Y-15422D02*
X131266Y-16033D01*
X129799Y-16033D01*
X128333Y-15422D01*
X128039Y-14200D01*
X128039Y-12122D01*
X128773Y-10900D01*
X130239Y-10533D01*
X131706Y-10900D01*
X132439Y-11755D01*
X132439Y-12977D01*
X128039Y-12977D01*
G54D37*
X135861Y-16033D02*
X135861Y-10533D01*
G54D37*
X135861Y-11755D02*
X137328Y-10533D01*
X138795Y-10533D01*
G54D37*
X145785Y-16033D02*
X149452Y-6255D01*
X153119Y-16033D01*
G54D37*
X147252Y-12366D02*
X151652Y-12366D01*
G54D37*
X158007Y-8700D02*
X158007Y-8700D01*
G54D37*
X156540Y-18477D02*
X157274Y-18477D01*
X158007Y-17500D01*
X158007Y-10533D01*
G54D38*
X284881Y-155104D02*
X270739Y-140962D01*
X312342Y-151605D02*
G54D34*
D03*
X312342Y-170605D02*
G54D34*
D03*
X335358Y-192137D02*
G54D34*
D03*
X335358Y-211137D02*
G54D34*
D03*
X311545Y-192136D02*
G54D26*
D03*
X311545Y-211136D02*
G54D26*
D03*
G54D37*
X233536Y-134786D02*
X239402Y-134786D01*
G54D37*
X236469Y-132342D02*
X236469Y-137231D01*
G54D37*
X245758Y-139064D02*
X245758Y-129286D01*
G54D37*
X242825Y-129286D02*
X248691Y-129286D01*
G54D37*
X252114Y-129286D02*
X259447Y-139064D01*
G54D37*
X252114Y-139064D02*
X259447Y-129286D01*
X964008Y-90487D02*
G54D39*
D03*
X278604Y-90882D02*
G54D22*
D03*
G54D18*
X335358Y-192137D02*
X335359Y-178197D01*
X340889Y-167058D01*
G54D18*
X335358Y-192137D02*
X311915Y-192506D01*
X311545Y-192136D01*
X311551Y-171396D01*
G54D18*
X312342Y-151605D02*
X286541Y-151605D01*
G54D18*
X278604Y-90882D02*
X303705Y-92772D01*
X334167Y-284558D02*
G54D40*
D03*
G54D23*
X459580Y-299639D02*
X407192Y-299639D01*
X394889Y-286938D01*
X334167Y-286938D01*
X601264Y-303607D02*
G54D41*
D03*
G54D23*
X482598Y-306386D02*
X541733Y-306386D01*
G54D42*
X351630Y-151604D02*
X373854Y-143270D01*
X415923Y-143270D01*
X436164Y-123029D01*
G54D16*
X235346Y-107950D02*
X203596Y-93662D01*
X175021Y-93662D01*
X162321Y-106362D01*
X162321Y-114300D01*
G54D43*
X7142Y-11508D02*
X10476Y-8175D01*
X10476Y-17064D01*
G54D43*
X13586Y-9842D02*
X14253Y-8731D01*
X15586Y-8175D01*
X16920Y-8175D01*
X18253Y-8731D01*
X18920Y-9842D01*
X18920Y-10953D01*
X18253Y-12064D01*
X16920Y-12620D01*
X18253Y-13175D01*
X18920Y-14286D01*
X18920Y-15397D01*
X18253Y-16508D01*
X16920Y-17064D01*
X15586Y-17064D01*
X14253Y-16508D01*
X13586Y-15397D01*
G54D43*
X27364Y-9842D02*
X27364Y-15397D01*
X26697Y-16508D01*
X25364Y-17064D01*
X24030Y-17064D01*
X22697Y-16508D01*
X22030Y-15397D01*
X22030Y-9842D01*
X22697Y-8731D01*
X24030Y-8175D01*
X25364Y-8175D01*
X26697Y-8731D01*
X27364Y-9842D01*
G54D43*
X34474Y-12064D02*
X34474Y-17064D01*
G54D43*
X34474Y-15953D02*
X33808Y-16842D01*
X32474Y-17064D01*
X31141Y-16842D01*
X30474Y-15953D01*
X30474Y-12064D01*
G54D43*
X42919Y-9842D02*
X42919Y-15397D01*
X42252Y-16508D01*
X40919Y-17064D01*
X39585Y-17064D01*
X38252Y-16508D01*
X37585Y-15397D01*
X37585Y-9842D01*
X38252Y-8731D01*
X39585Y-8175D01*
X40919Y-8175D01*
X42252Y-8731D01*
X42919Y-9842D01*
G54D43*
X51363Y-17064D02*
X46029Y-17064D01*
X46029Y-16508D01*
X46696Y-15397D01*
X50696Y-12064D01*
X51363Y-10953D01*
X51363Y-9842D01*
X50696Y-8731D01*
X49363Y-8175D01*
X48029Y-8175D01*
X46696Y-8731D01*
X46029Y-9842D01*
G54D43*
X357583Y-35321D02*
X360916Y-31988D01*
X360916Y-40876D01*
G54D43*
X364027Y-33654D02*
X364694Y-32543D01*
X366027Y-31988D01*
X367360Y-31988D01*
X368694Y-32543D01*
X369360Y-33654D01*
X369360Y-34765D01*
X368694Y-35876D01*
X367360Y-36432D01*
X368694Y-36988D01*
X369360Y-38099D01*
X369360Y-39210D01*
X368694Y-40321D01*
X367360Y-40876D01*
X366027Y-40876D01*
X364694Y-40321D01*
X364027Y-39210D01*
G54D43*
X377804Y-33654D02*
X377804Y-39210D01*
X377138Y-40321D01*
X375804Y-40876D01*
X374471Y-40876D01*
X373138Y-40321D01*
X372471Y-39210D01*
X372471Y-33654D01*
X373138Y-32543D01*
X374471Y-31988D01*
X375804Y-31988D01*
X377138Y-32543D01*
X377804Y-33654D01*
G54D43*
X384915Y-35876D02*
X384915Y-40876D01*
G54D43*
X384915Y-39765D02*
X384248Y-40654D01*
X382915Y-40876D01*
X381582Y-40654D01*
X380915Y-39765D01*
X380915Y-35876D01*
G54D43*
X393359Y-33654D02*
X393359Y-39210D01*
X392692Y-40321D01*
X391359Y-40876D01*
X390026Y-40876D01*
X388692Y-40321D01*
X388026Y-39210D01*
X388026Y-33654D01*
X388692Y-32543D01*
X390026Y-31988D01*
X391359Y-31988D01*
X392692Y-32543D01*
X393359Y-33654D01*
G54D43*
X401803Y-40876D02*
X396470Y-40876D01*
X396470Y-40321D01*
X397137Y-39210D01*
X401137Y-35876D01*
X401803Y-34765D01*
X401803Y-33654D01*
X401137Y-32543D01*
X399803Y-31988D01*
X398470Y-31988D01*
X397137Y-32543D01*
X396470Y-33654D01*
G54D44*
X799305Y-95727D02*
X803305Y-91727D01*
X803305Y-102393D01*
G54D44*
X807038Y-93727D02*
X807838Y-92393D01*
X809438Y-91727D01*
X811038Y-91727D01*
X812638Y-92393D01*
X813438Y-93727D01*
X813438Y-95060D01*
X812638Y-96393D01*
X811038Y-97060D01*
X812638Y-97727D01*
X813438Y-99060D01*
X813438Y-100393D01*
X812638Y-101727D01*
X811038Y-102393D01*
X809438Y-102393D01*
X807838Y-101727D01*
X807038Y-100393D01*
G54D44*
X823571Y-93727D02*
X823571Y-100393D01*
X822771Y-101727D01*
X821171Y-102393D01*
X819571Y-102393D01*
X817971Y-101727D01*
X817171Y-100393D01*
X817171Y-93727D01*
X817971Y-92393D01*
X819571Y-91727D01*
X821171Y-91727D01*
X822771Y-92393D01*
X823571Y-93727D01*
G54D44*
X832104Y-96393D02*
X832104Y-102393D01*
G54D44*
X832104Y-101060D02*
X831304Y-102127D01*
X829704Y-102393D01*
X828104Y-102127D01*
X827304Y-101060D01*
X827304Y-96393D01*
G54D44*
X842237Y-93727D02*
X842237Y-100393D01*
X841437Y-101727D01*
X839837Y-102393D01*
X838237Y-102393D01*
X836637Y-101727D01*
X835837Y-100393D01*
X835837Y-93727D01*
X836637Y-92393D01*
X838237Y-91727D01*
X839837Y-91727D01*
X841437Y-92393D01*
X842237Y-93727D01*
G54D44*
X852370Y-102393D02*
X845970Y-102393D01*
X845970Y-101727D01*
X846770Y-100393D01*
X851570Y-96393D01*
X852370Y-95060D01*
X852370Y-93727D01*
X851570Y-92393D01*
X849970Y-91727D01*
X848370Y-91727D01*
X846770Y-92393D01*
X845970Y-93727D01*
G36*
X225609Y-93910D02*
X225609Y-71910D01*
X247609Y-71910D01*
X247609Y-93910D01*
X225609Y-93910D01*
G37*
X236609Y-57509D02*
G54D28*
D03*
X236609Y-32109D02*
G54D28*
D03*
G54D18*
X236609Y-32109D02*
X280046Y-32085D01*
G54D18*
X236609Y-57509D02*
X280046Y-57485D01*
X700181Y-49514D02*
G54D34*
D03*
X700181Y-30515D02*
G54D34*
D03*
X700209Y-94730D02*
G54D34*
D03*
X700209Y-75730D02*
G54D34*
D03*
G54D18*
X664367Y-41670D02*
X683468Y-41670D01*
X692150Y-49609D01*
X700181Y-49514D01*
X724393Y-51893D02*
G54D34*
D03*
X724393Y-70893D02*
G54D34*
D03*
G54D18*
X700209Y-94730D02*
X662061Y-107417D01*
G54D18*
X700209Y-75730D02*
X700181Y-49514D01*
X723974Y-28042D02*
G54D12*
D03*
X723973Y-104242D02*
G54D12*
D03*
G54D16*
X700209Y-94730D02*
X714770Y-87311D01*
X723576Y-71709D01*
G54D18*
X723996Y-51893D02*
X723996Y-28065D01*
G36*
X978296Y-4762D02*
X773508Y-4762D01*
X768746Y-11112D01*
X768746Y-65088D01*
X757633Y-76200D01*
X757633Y-92075D01*
X783033Y-92075D01*
X796527Y-78581D01*
X796527Y-36116D01*
X812799Y-19844D01*
X845740Y-19844D01*
X859233Y-33338D01*
X859233Y-73025D01*
X978296Y-73025D01*
X978296Y-4762D01*
G37*
G54D16*
X978296Y-4762D02*
X773508Y-4762D01*
X768746Y-11112D01*
X768746Y-65088D01*
X757633Y-76200D01*
X757633Y-92075D01*
X783033Y-92075D01*
X796527Y-78581D01*
X796527Y-36116D01*
X812799Y-19844D01*
X845740Y-19844D01*
X859233Y-33338D01*
X859233Y-73025D01*
X978296Y-73025D01*
X978296Y-4762D01*
G54D44*
X794939Y-113952D02*
X794939Y-122618D01*
X795739Y-123952D01*
X797339Y-124618D01*
X798939Y-124618D01*
X800539Y-123952D01*
X801339Y-122618D01*
X801339Y-113952D01*
G54D44*
X805072Y-124618D02*
X805072Y-113952D01*
X809072Y-113952D01*
X810672Y-114618D01*
X811472Y-115952D01*
X811472Y-122618D01*
X810672Y-123952D01*
X809072Y-124618D01*
X805072Y-124618D01*
G54D44*
X821605Y-115952D02*
X821605Y-122618D01*
X820805Y-123952D01*
X819205Y-124618D01*
X817605Y-124618D01*
X816005Y-123952D01*
X815205Y-122618D01*
X815205Y-115952D01*
X816005Y-114618D01*
X817605Y-113952D01*
X819205Y-113952D01*
X820805Y-114618D01*
X821605Y-115952D01*
G54D44*
X831738Y-122618D02*
X830938Y-123952D01*
X829338Y-124618D01*
X827738Y-124618D01*
X826138Y-123952D01*
X825338Y-122618D01*
X825338Y-115952D01*
X826138Y-114618D01*
X827738Y-113952D01*
X829338Y-113952D01*
X830938Y-114618D01*
X831738Y-115952D01*
G54D44*
X835471Y-124618D02*
X839471Y-113952D01*
X843471Y-124618D01*
G54D44*
X837071Y-120618D02*
X841871Y-120618D01*
G54D44*
X853604Y-113952D02*
X853604Y-122618D01*
X852804Y-123952D01*
X851204Y-124618D01*
X849604Y-124618D01*
X848004Y-123952D01*
X847204Y-122618D01*
G54D37*
X301798Y-284320D02*
X307665Y-284320D01*
G54D37*
X304732Y-284320D02*
X304732Y-274543D01*
G54D37*
X301798Y-274543D02*
X307665Y-274543D01*
G54D37*
X311087Y-284320D02*
X311087Y-274543D01*
X316220Y-274543D01*
G54D37*
X311087Y-279432D02*
X316220Y-279432D01*
G54D37*
X587548Y-277321D02*
X591215Y-287098D01*
X594881Y-277321D01*
G54D37*
X598303Y-287098D02*
X598303Y-277321D01*
X603436Y-277321D01*
G54D37*
X598303Y-282210D02*
X603436Y-282210D01*
G54D37*
X612725Y-279154D02*
X612725Y-285265D01*
X611991Y-286487D01*
X610525Y-287098D01*
X609058Y-287098D01*
X607591Y-286487D01*
X606858Y-285265D01*
X606858Y-279154D01*
X607591Y-277932D01*
X609058Y-277321D01*
X610525Y-277321D01*
X611991Y-277932D01*
X612725Y-279154D01*
X586183Y-238520D02*
G54D45*
D03*
X598883Y-238520D02*
G54D45*
D03*
X611583Y-238520D02*
G54D45*
D03*
G36*
X618783Y-225520D02*
X629783Y-225519D01*
X629784Y-251519D01*
X618784Y-251520D01*
X618783Y-225520D01*
G37*
X624283Y-184520D02*
G54D45*
D03*
G36*
X606082Y-171520D02*
X617082Y-171520D01*
X617083Y-197520D01*
X606083Y-197520D01*
X606082Y-171520D01*
G37*
X598882Y-184520D02*
G54D45*
D03*
G36*
X580682Y-171521D02*
X591682Y-171520D01*
X591683Y-197520D01*
X580683Y-197521D01*
X580682Y-171521D01*
G37*
G36*
X627314Y-168802D02*
X627314Y-149802D01*
X646314Y-149802D01*
X646314Y-168802D01*
X627314Y-168802D01*
G37*
X611414Y-159302D02*
G54D22*
D03*
G54D16*
X624283Y-184520D02*
X636814Y-159302D01*
G54D16*
X611583Y-184520D02*
X611414Y-159302D01*
X412748Y-34526D02*
G54D46*
D03*
X631823Y-321467D02*
G54D46*
D03*
X303211Y-320276D02*
G54D46*
D03*
X638967Y-83342D02*
G54D46*
D03*
X569117Y-170258D02*
G54D46*
D03*
G36*
X367736Y-98155D02*
X384736Y-98155D01*
X384736Y-116155D01*
X367736Y-116155D01*
X367736Y-98155D01*
G37*
X395236Y-107155D02*
G54D29*
D03*
G54D18*
X350931Y-111822D02*
X371569Y-111822D01*
X376236Y-107155D01*
G54D42*
X395236Y-107155D02*
X405207Y-107155D01*
X411557Y-100805D01*
X421519Y-100805D01*
X421748Y-100576D01*
G54D18*
X475852Y-68658D02*
X514745Y-30162D01*
X514745Y-6746D01*
G36*
X469105Y-68658D02*
X461419Y-60972D01*
X461419Y-54515D01*
X462754Y-53180D01*
X492123Y-53180D01*
X492123Y-65085D01*
X495695Y-68658D01*
X469105Y-68658D01*
G37*
G54D16*
X469105Y-68658D02*
X461419Y-60972D01*
X461419Y-54515D01*
X462754Y-53180D01*
X492123Y-53180D01*
X492123Y-65085D01*
X495695Y-68658D01*
X469105Y-68658D01*
X387324Y-313952D02*
G54D47*
D03*
X368324Y-313951D02*
G54D47*
D03*
G36*
X401470Y-307309D02*
X418470Y-307308D01*
X418470Y-325308D01*
X401470Y-325309D01*
X401470Y-307309D01*
G37*
X428970Y-316308D02*
G54D29*
D03*
G54D16*
X409970Y-316308D02*
X387324Y-313952D01*
G54D16*
X428970Y-316308D02*
X441323Y-316308D01*
X448863Y-323849D01*
X474263Y-323849D01*
X475851Y-322261D01*
X475851Y-312736D01*
G36*
X482598Y-268683D02*
X506013Y-268683D01*
X506013Y-261936D01*
X496885Y-252808D01*
X482598Y-252808D01*
X482598Y-268683D01*
G37*
G54D16*
X482598Y-268683D02*
X506013Y-268683D01*
X506013Y-261936D01*
X496885Y-252808D01*
X482598Y-252808D01*
X482598Y-268683D01*
G36*
X514170Y-159448D02*
X535170Y-159448D01*
X535170Y-183448D01*
X514170Y-183448D01*
X514170Y-159448D01*
G37*
X543669Y-171448D02*
G54D33*
D03*
G36*
X473689Y-181673D02*
X494689Y-181673D01*
X494689Y-205673D01*
X473689Y-205673D01*
X473689Y-181673D01*
G37*
X503188Y-193673D02*
G54D33*
D03*
X361900Y-240504D02*
G54D33*
D03*
X342901Y-240504D02*
G54D33*
D03*
G54D48*
X490139Y-106360D02*
X482201Y-98423D01*
G54D23*
X586183Y-235741D02*
X586183Y-220660D01*
G54D30*
X598884Y-138905D02*
X649683Y-138905D01*
X723973Y-103845D01*
G54D16*
X496489Y-252807D02*
X502045Y-247251D01*
G36*
X515248Y-109575D02*
X513248Y-111575D01*
X502248Y-111576D01*
X501248Y-110575D01*
X501249Y-106575D01*
X502248Y-105575D01*
X513248Y-105576D01*
X515248Y-107575D01*
X515248Y-109575D01*
G37*
G54D49*
X515248Y-109575D02*
X513248Y-111575D01*
X502248Y-111576D01*
X501248Y-110575D01*
X501249Y-106575D01*
X502248Y-105575D01*
X513248Y-105576D01*
X515248Y-107575D01*
X515248Y-109575D01*
G36*
X515248Y-101575D02*
X513248Y-103575D01*
X502248Y-103575D01*
X501248Y-102575D01*
X501248Y-98576D01*
X502248Y-97576D01*
X513248Y-97576D01*
X515249Y-99576D01*
X515248Y-101575D01*
G37*
G54D49*
X515248Y-101575D02*
X513248Y-103575D01*
X502248Y-103575D01*
X501248Y-102575D01*
X501248Y-98576D01*
X502248Y-97576D01*
X513248Y-97576D01*
X515249Y-99576D01*
X515248Y-101575D01*
X506749Y-108575D02*
G54D50*
D03*
X506748Y-100575D02*
G54D50*
D03*
G36*
X515248Y-93575D02*
X513248Y-95575D01*
X502248Y-95576D01*
X501249Y-94575D01*
X501248Y-90575D01*
X502248Y-89575D01*
X513249Y-89575D01*
X515248Y-91575D01*
X515248Y-93575D01*
G37*
G54D49*
X515248Y-93575D02*
X513248Y-95575D01*
X502248Y-95576D01*
X501249Y-94575D01*
X501248Y-90575D01*
X502248Y-89575D01*
X513249Y-89575D01*
X515248Y-91575D01*
X515248Y-93575D01*
G36*
X515248Y-85575D02*
X513248Y-87576D01*
X502248Y-87576D01*
X501248Y-86575D01*
X501248Y-82575D01*
X502248Y-81576D01*
X513249Y-81575D01*
X515248Y-83575D01*
X515248Y-85575D01*
G37*
G54D49*
X515248Y-85575D02*
X513248Y-87576D01*
X502248Y-87576D01*
X501248Y-86575D01*
X501248Y-82575D01*
X502248Y-81576D01*
X513249Y-81575D01*
X515248Y-83575D01*
X515248Y-85575D01*
X506748Y-92575D02*
G54D50*
D03*
X506748Y-84575D02*
G54D50*
D03*
G36*
X515248Y-77575D02*
X513248Y-79575D01*
X502248Y-79575D01*
X501248Y-78575D01*
X501248Y-74576D01*
X502248Y-73576D01*
X513248Y-73576D01*
X515248Y-75576D01*
X515248Y-77575D01*
G37*
G54D49*
X515248Y-77575D02*
X513248Y-79575D01*
X502248Y-79575D01*
X501248Y-78575D01*
X501248Y-74576D01*
X502248Y-73576D01*
X513248Y-73576D01*
X515248Y-75576D01*
X515248Y-77575D01*
G36*
X515248Y-69575D02*
X513248Y-71575D01*
X502249Y-71575D01*
X501249Y-70575D01*
X501248Y-66575D01*
X502249Y-65575D01*
X513248Y-65575D01*
X515248Y-67575D01*
X515248Y-69575D01*
G37*
G54D49*
X515248Y-69575D02*
X513248Y-71575D01*
X502249Y-71575D01*
X501249Y-70575D01*
X501248Y-66575D01*
X502249Y-65575D01*
X513248Y-65575D01*
X515248Y-67575D01*
X515248Y-69575D01*
X506749Y-76575D02*
G54D50*
D03*
X506748Y-68575D02*
G54D50*
D03*
G36*
X515248Y-61575D02*
X513248Y-63575D01*
X502248Y-63575D01*
X501248Y-62576D01*
X501249Y-58575D01*
X502248Y-57575D01*
X513248Y-57575D01*
X515248Y-59576D01*
X515248Y-61575D01*
G37*
G54D49*
X515248Y-61575D02*
X513248Y-63575D01*
X502248Y-63575D01*
X501248Y-62576D01*
X501249Y-58575D01*
X502248Y-57575D01*
X513248Y-57575D01*
X515248Y-59576D01*
X515248Y-61575D01*
G36*
X515248Y-53576D02*
X513248Y-55575D01*
X502248Y-55575D01*
X501248Y-54575D01*
X501248Y-50576D01*
X502248Y-49575D01*
X513249Y-49576D01*
X515248Y-51575D01*
X515248Y-53576D01*
G37*
G54D49*
X515248Y-53576D02*
X513248Y-55575D01*
X502248Y-55575D01*
X501248Y-54575D01*
X501248Y-50576D01*
X502248Y-49575D01*
X513249Y-49576D01*
X515248Y-51575D01*
X515248Y-53576D01*
X506748Y-60575D02*
G54D50*
D03*
X506748Y-52575D02*
G54D50*
D03*
G36*
X435248Y-131575D02*
X433248Y-129575D01*
X433248Y-118575D01*
X434248Y-117575D01*
X438248Y-117575D01*
X439248Y-118575D01*
X439248Y-129575D01*
X437248Y-131576D01*
X435248Y-131575D01*
G37*
G54D49*
X435248Y-131575D02*
X433248Y-129575D01*
X433248Y-118575D01*
X434248Y-117575D01*
X438248Y-117575D01*
X439248Y-118575D01*
X439248Y-129575D01*
X437248Y-131576D01*
X435248Y-131575D01*
G36*
X443248Y-131575D02*
X441248Y-129575D01*
X441248Y-118575D01*
X442248Y-117575D01*
X446249Y-117575D01*
X447248Y-118576D01*
X447248Y-129575D01*
X445248Y-131575D01*
X443248Y-131575D01*
G37*
G54D49*
X443248Y-131575D02*
X441248Y-129575D01*
X441248Y-118575D01*
X442248Y-117575D01*
X446249Y-117575D01*
X447248Y-118576D01*
X447248Y-129575D01*
X445248Y-131575D01*
X443248Y-131575D01*
X436248Y-123075D02*
G54D50*
D03*
X444248Y-123075D02*
G54D50*
D03*
G36*
X451248Y-131576D02*
X449248Y-129575D01*
X449249Y-118575D01*
X450248Y-117575D01*
X454249Y-117576D01*
X455248Y-118575D01*
X455248Y-129576D01*
X453248Y-131575D01*
X451248Y-131576D01*
G37*
G54D49*
X451248Y-131576D02*
X449248Y-129575D01*
X449249Y-118575D01*
X450248Y-117575D01*
X454249Y-117576D01*
X455248Y-118575D01*
X455248Y-129576D01*
X453248Y-131575D01*
X451248Y-131576D01*
G36*
X459248Y-131575D02*
X457248Y-129575D01*
X457248Y-118575D01*
X458248Y-117575D01*
X462248Y-117575D01*
X463249Y-118575D01*
X463248Y-129575D01*
X461248Y-131576D01*
X459248Y-131575D01*
G37*
G54D49*
X459248Y-131575D02*
X457248Y-129575D01*
X457248Y-118575D01*
X458248Y-117575D01*
X462248Y-117575D01*
X463249Y-118575D01*
X463248Y-129575D01*
X461248Y-131576D01*
X459248Y-131575D01*
X452248Y-123075D02*
G54D50*
D03*
X460248Y-123076D02*
G54D50*
D03*
G36*
X467248Y-131575D02*
X465248Y-129575D01*
X465249Y-118575D01*
X466248Y-117575D01*
X470249Y-117575D01*
X471248Y-118575D01*
X471248Y-129575D01*
X469248Y-131575D01*
X467248Y-131575D01*
G37*
G54D49*
X467248Y-131575D02*
X465248Y-129575D01*
X465249Y-118575D01*
X466248Y-117575D01*
X470249Y-117575D01*
X471248Y-118575D01*
X471248Y-129575D01*
X469248Y-131575D01*
X467248Y-131575D01*
G36*
X475248Y-131575D02*
X473248Y-129575D01*
X473248Y-118575D01*
X474248Y-117575D01*
X478249Y-117576D01*
X479248Y-118575D01*
X479248Y-129575D01*
X477249Y-131575D01*
X475248Y-131575D01*
G37*
G54D49*
X475248Y-131575D02*
X473248Y-129575D01*
X473248Y-118575D01*
X474248Y-117575D01*
X478249Y-117576D01*
X479248Y-118575D01*
X479248Y-129575D01*
X477249Y-131575D01*
X475248Y-131575D01*
X468248Y-123075D02*
G54D50*
D03*
X476248Y-123075D02*
G54D50*
D03*
G36*
X483248Y-131575D02*
X481248Y-129575D01*
X481248Y-118576D01*
X482248Y-117576D01*
X486248Y-117575D01*
X487248Y-118576D01*
X487248Y-129575D01*
X485248Y-131575D01*
X483248Y-131575D01*
G37*
G54D49*
X483248Y-131575D02*
X481248Y-129575D01*
X481248Y-118576D01*
X482248Y-117576D01*
X486248Y-117575D01*
X487248Y-118576D01*
X487248Y-129575D01*
X485248Y-131575D01*
X483248Y-131575D01*
G36*
X491248Y-131575D02*
X489248Y-129576D01*
X489249Y-118575D01*
X490248Y-117575D01*
X494248Y-117575D01*
X495248Y-118576D01*
X495248Y-129575D01*
X493248Y-131576D01*
X491248Y-131575D01*
G37*
G54D49*
X491248Y-131575D02*
X489248Y-129576D01*
X489249Y-118575D01*
X490248Y-117575D01*
X494248Y-117575D01*
X495248Y-118576D01*
X495248Y-129575D01*
X493248Y-131576D01*
X491248Y-131575D01*
X484248Y-123075D02*
G54D50*
D03*
X492248Y-123075D02*
G54D50*
D03*
G36*
X413248Y-51575D02*
X415248Y-49575D01*
X426248Y-49576D01*
X427248Y-50576D01*
X427248Y-54575D01*
X426248Y-55575D01*
X415248Y-55575D01*
X413248Y-53576D01*
X413248Y-51575D01*
G37*
G54D49*
X413248Y-51575D02*
X415248Y-49575D01*
X426248Y-49576D01*
X427248Y-50576D01*
X427248Y-54575D01*
X426248Y-55575D01*
X415248Y-55575D01*
X413248Y-53576D01*
X413248Y-51575D01*
G36*
X413248Y-59576D02*
X415248Y-57575D01*
X426248Y-57575D01*
X427248Y-58575D01*
X427248Y-62575D01*
X426249Y-63575D01*
X415248Y-63575D01*
X413248Y-61575D01*
X413248Y-59576D01*
G37*
G54D49*
X413248Y-59576D02*
X415248Y-57575D01*
X426248Y-57575D01*
X427248Y-58575D01*
X427248Y-62575D01*
X426249Y-63575D01*
X415248Y-63575D01*
X413248Y-61575D01*
X413248Y-59576D01*
G36*
X417248Y-48076D02*
X426248Y-48075D01*
X426249Y-57075D01*
X417249Y-57076D01*
X417248Y-48076D01*
G37*
G36*
X417248Y-56076D02*
X426248Y-56075D01*
X426249Y-65075D01*
X417249Y-65076D01*
X417248Y-56076D01*
G37*
G36*
X413248Y-67575D02*
X415248Y-65576D01*
X426248Y-65576D01*
X427248Y-66576D01*
X427248Y-70575D01*
X426248Y-71576D01*
X415248Y-71576D01*
X413248Y-69575D01*
X413248Y-67575D01*
G37*
G54D49*
X413248Y-67575D02*
X415248Y-65576D01*
X426248Y-65576D01*
X427248Y-66576D01*
X427248Y-70575D01*
X426248Y-71576D01*
X415248Y-71576D01*
X413248Y-69575D01*
X413248Y-67575D01*
G36*
X413248Y-75575D02*
X415248Y-73575D01*
X426248Y-73575D01*
X427248Y-74576D01*
X427248Y-78575D01*
X426248Y-79575D01*
X415248Y-79575D01*
X413248Y-77576D01*
X413248Y-75575D01*
G37*
G54D49*
X413248Y-75575D02*
X415248Y-73575D01*
X426248Y-73575D01*
X427248Y-74576D01*
X427248Y-78575D01*
X426248Y-79575D01*
X415248Y-79575D01*
X413248Y-77576D01*
X413248Y-75575D01*
X421749Y-68575D02*
G54D50*
D03*
X421748Y-76575D02*
G54D50*
D03*
G36*
X413248Y-83576D02*
X415248Y-81575D01*
X426248Y-81575D01*
X427248Y-82575D01*
X427249Y-86576D01*
X426248Y-87575D01*
X415248Y-87575D01*
X413248Y-85576D01*
X413248Y-83576D01*
G37*
G54D49*
X413248Y-83576D02*
X415248Y-81575D01*
X426248Y-81575D01*
X427248Y-82575D01*
X427249Y-86576D01*
X426248Y-87575D01*
X415248Y-87575D01*
X413248Y-85576D01*
X413248Y-83576D01*
G36*
X413248Y-91575D02*
X415248Y-89575D01*
X426248Y-89575D01*
X427248Y-90576D01*
X427248Y-94575D01*
X426248Y-95575D01*
X415248Y-95575D01*
X413248Y-93575D01*
X413248Y-91575D01*
G37*
G54D49*
X413248Y-91575D02*
X415248Y-89575D01*
X426248Y-89575D01*
X427248Y-90576D01*
X427248Y-94575D01*
X426248Y-95575D01*
X415248Y-95575D01*
X413248Y-93575D01*
X413248Y-91575D01*
X421748Y-84575D02*
G54D50*
D03*
X421748Y-92575D02*
G54D50*
D03*
G36*
X413249Y-99575D02*
X415248Y-97575D01*
X426248Y-97575D01*
X427248Y-98575D01*
X427248Y-102575D01*
X426248Y-103575D01*
X415248Y-103575D01*
X413248Y-101575D01*
X413249Y-99575D01*
G37*
G54D49*
X413249Y-99575D02*
X415248Y-97575D01*
X426248Y-97575D01*
X427248Y-98575D01*
X427248Y-102575D01*
X426248Y-103575D01*
X415248Y-103575D01*
X413248Y-101575D01*
X413249Y-99575D01*
G36*
X413249Y-107576D02*
X415248Y-105575D01*
X426248Y-105575D01*
X427248Y-106575D01*
X427248Y-110575D01*
X426248Y-111575D01*
X415248Y-111576D01*
X413249Y-109575D01*
X413249Y-107576D01*
G37*
G54D49*
X413249Y-107576D02*
X415248Y-105575D01*
X426248Y-105575D01*
X427248Y-106575D01*
X427248Y-110575D01*
X426248Y-111575D01*
X415248Y-111576D01*
X413249Y-109575D01*
X413249Y-107576D01*
G36*
X417248Y-96076D02*
X426248Y-96076D01*
X426248Y-105076D01*
X417248Y-105076D01*
X417248Y-96076D01*
G37*
X421748Y-108575D02*
G54D50*
D03*
G36*
X493248Y-29575D02*
X495248Y-31576D01*
X495248Y-42575D01*
X494248Y-43575D01*
X490248Y-43575D01*
X489248Y-42575D01*
X489248Y-31575D01*
X491248Y-29575D01*
X493248Y-29575D01*
G37*
G54D49*
X493248Y-29575D02*
X495248Y-31576D01*
X495248Y-42575D01*
X494248Y-43575D01*
X490248Y-43575D01*
X489248Y-42575D01*
X489248Y-31575D01*
X491248Y-29575D01*
X493248Y-29575D01*
G36*
X485249Y-29576D02*
X487248Y-31575D01*
X487248Y-42575D01*
X486249Y-43576D01*
X482248Y-43575D01*
X481248Y-42575D01*
X481248Y-31575D01*
X483248Y-29575D01*
X485249Y-29576D01*
G37*
G54D49*
X485249Y-29576D02*
X487248Y-31575D01*
X487248Y-42575D01*
X486249Y-43576D01*
X482248Y-43575D01*
X481248Y-42575D01*
X481248Y-31575D01*
X483248Y-29575D01*
X485249Y-29576D01*
X492249Y-38075D02*
G54D50*
D03*
X484248Y-38076D02*
G54D50*
D03*
G36*
X477249Y-29575D02*
X479248Y-31575D01*
X479248Y-42575D01*
X478248Y-43575D01*
X474249Y-43575D01*
X473249Y-42576D01*
X473248Y-31576D01*
X475248Y-29575D01*
X477249Y-29575D01*
G37*
G54D49*
X477249Y-29575D02*
X479248Y-31575D01*
X479248Y-42575D01*
X478248Y-43575D01*
X474249Y-43575D01*
X473249Y-42576D01*
X473248Y-31576D01*
X475248Y-29575D01*
X477249Y-29575D01*
G36*
X469249Y-29576D02*
X471248Y-31576D01*
X471248Y-42576D01*
X470249Y-43575D01*
X466248Y-43576D01*
X465248Y-42575D01*
X465249Y-31575D01*
X467248Y-29575D01*
X469249Y-29576D01*
G37*
G54D49*
X469249Y-29576D02*
X471248Y-31576D01*
X471248Y-42576D01*
X470249Y-43575D01*
X466248Y-43576D01*
X465248Y-42575D01*
X465249Y-31575D01*
X467248Y-29575D01*
X469249Y-29576D01*
X476248Y-38075D02*
G54D50*
D03*
X468248Y-38075D02*
G54D50*
D03*
G36*
X461248Y-29575D02*
X463249Y-31575D01*
X463249Y-42576D01*
X462248Y-43575D01*
X458248Y-43575D01*
X457248Y-42576D01*
X457248Y-31575D01*
X459248Y-29575D01*
X461248Y-29575D01*
G37*
G54D49*
X461248Y-29575D02*
X463249Y-31575D01*
X463249Y-42576D01*
X462248Y-43575D01*
X458248Y-43575D01*
X457248Y-42576D01*
X457248Y-31575D01*
X459248Y-29575D01*
X461248Y-29575D01*
G36*
X453249Y-29575D02*
X455248Y-31575D01*
X455248Y-42575D01*
X454248Y-43575D01*
X450249Y-43575D01*
X449248Y-42576D01*
X449248Y-31575D01*
X451248Y-29576D01*
X453249Y-29575D01*
G37*
G54D49*
X453249Y-29575D02*
X455248Y-31575D01*
X455248Y-42575D01*
X454248Y-43575D01*
X450249Y-43575D01*
X449248Y-42576D01*
X449248Y-31575D01*
X451248Y-29576D01*
X453249Y-29575D01*
X460248Y-38075D02*
G54D50*
D03*
X452248Y-38075D02*
G54D50*
D03*
G36*
X445248Y-29576D02*
X447248Y-31576D01*
X447248Y-42575D01*
X446249Y-43575D01*
X442248Y-43575D01*
X441248Y-42575D01*
X441249Y-31575D01*
X443248Y-29576D01*
X445248Y-29576D01*
G37*
G54D49*
X445248Y-29576D02*
X447248Y-31576D01*
X447248Y-42575D01*
X446249Y-43575D01*
X442248Y-43575D01*
X441248Y-42575D01*
X441249Y-31575D01*
X443248Y-29576D01*
X445248Y-29576D01*
G36*
X437248Y-29576D02*
X439248Y-31575D01*
X439248Y-42575D01*
X438248Y-43575D01*
X434248Y-43575D01*
X433248Y-42576D01*
X433248Y-31575D01*
X435248Y-29575D01*
X437248Y-29576D01*
G37*
G54D49*
X437248Y-29576D02*
X439248Y-31575D01*
X439248Y-42575D01*
X438248Y-43575D01*
X434248Y-43575D01*
X433248Y-42576D01*
X433248Y-31575D01*
X435248Y-29575D01*
X437248Y-29576D01*
X444248Y-38075D02*
G54D50*
D03*
X436249Y-38075D02*
G54D50*
D03*
G36*
X917177Y-77787D02*
X887014Y-77787D01*
X887014Y-123824D01*
X917177Y-123824D01*
X917177Y-77787D01*
G37*
G54D51*
X917177Y-77787D02*
X887014Y-77787D01*
X887014Y-123824D01*
X917177Y-123824D01*
X917177Y-77787D01*
G36*
X921146Y-120650D02*
X921146Y-61912D01*
X940196Y-61912D01*
X940196Y-120650D01*
X921146Y-120650D01*
G37*
G54D16*
X921146Y-120650D02*
X921146Y-61912D01*
X940196Y-61912D01*
X940196Y-120650D01*
X921146Y-120650D01*
X279796Y-15875D02*
G54D47*
D03*
X260796Y-15875D02*
G54D47*
D03*
X258735Y-55536D02*
G54D34*
D03*
X258735Y-36536D02*
G54D34*
D03*
X474661Y-101201D02*
G54D46*
D03*
X485773Y-60720D02*
G54D46*
D03*
X666750Y-69056D02*
G54D52*
D03*
X542131Y-303609D02*
G54D47*
D03*
X561131Y-303609D02*
G54D47*
D03*
G54D23*
X602455Y-305195D02*
X560783Y-305195D01*
G36*
X475059Y-246856D02*
X475059Y-243284D01*
X485775Y-232569D01*
X494903Y-232569D01*
X475059Y-246856D01*
G37*
G54D18*
X475059Y-246856D02*
X475059Y-243284D01*
X485775Y-232569D01*
X494903Y-232569D01*
X475059Y-246856D01*
G36*
X471452Y-247215D02*
X471452Y-243643D01*
X451609Y-225783D01*
X451609Y-232927D01*
X471452Y-247215D01*
G37*
G54D18*
X471452Y-247215D02*
X471452Y-243643D01*
X451609Y-225783D01*
X451609Y-232927D01*
X471452Y-247215D01*
X538160Y-198832D02*
G54D53*
D03*
X538160Y-202404D02*
G54D53*
D03*
X538160Y-249632D02*
G54D53*
D03*
X538160Y-253204D02*
G54D53*
D03*
X385760Y-198832D02*
G54D53*
D03*
X385760Y-202404D02*
G54D53*
D03*
X385760Y-224232D02*
G54D53*
D03*
X385760Y-227804D02*
G54D53*
D03*
X385760Y-249235D02*
G54D53*
D03*
X385760Y-252807D02*
G54D53*
D03*
X666751Y-55959D02*
G54D52*
D03*
G54D54*
X981470Y-138112D02*
X727470Y-138112D01*
G54D54*
G75*
G01X726874Y-138242D02*
G03X641874Y-223242I0J-85000D01*
G01*
G54D54*
X641747Y-223044D02*
X641747Y-331788D01*
G54D54*
G75*
G01X291968Y-223242D02*
G03X206968Y-138242I-85000J0D01*
G01*
G54D54*
X291703Y-331788D02*
X641747Y-331788D01*
G54D54*
X981470Y-138112D02*
X727470Y-138112D01*
G54D54*
G75*
G01X726874Y-138242D02*
G03X641874Y-223242I0J-85000D01*
G01*
G54D54*
X641747Y-223044D02*
X641747Y-331788D01*
G54D54*
G75*
G01X291968Y-223242D02*
G03X206968Y-138242I-85000J0D01*
G01*
G54D54*
X291703Y-223044D02*
X291703Y-331788D01*
G36*
X1784Y-136326D02*
X1784Y-330398D01*
X291503Y-330001D01*
X291503Y-218082D01*
X289122Y-203398D01*
X284756Y-189507D01*
X277612Y-176410D01*
X264515Y-160932D01*
X254990Y-152598D01*
X236337Y-143073D01*
X222447Y-139104D01*
X206572Y-136326D01*
X1784Y-136326D01*
G37*
G54D54*
X1784Y-136326D02*
X1784Y-330398D01*
X291503Y-330001D01*
X291503Y-218082D01*
X289122Y-203398D01*
X284756Y-189507D01*
X277612Y-176410D01*
X264515Y-160932D01*
X254990Y-152598D01*
X236337Y-143073D01*
X222447Y-139104D01*
X206572Y-136326D01*
X1784Y-136326D01*
G36*
X985439Y-138112D02*
X985441Y-331391D01*
X641747Y-331788D01*
X641747Y-219869D01*
X644128Y-205184D01*
X648494Y-191294D01*
X655638Y-178197D01*
X668734Y-162719D01*
X678259Y-154384D01*
X696912Y-144859D01*
X710803Y-140891D01*
X726678Y-138112D01*
X985439Y-138112D01*
G37*
G54D54*
X985439Y-138112D02*
X985441Y-331391D01*
X641747Y-331788D01*
X641747Y-219869D01*
X644128Y-205184D01*
X648494Y-191294D01*
X655638Y-178197D01*
X668734Y-162719D01*
X678259Y-154384D01*
X696912Y-144859D01*
X710803Y-140891D01*
X726678Y-138112D01*
X985439Y-138112D01*
%LPD*%
G54D55*
G36*
X755251Y-112869D02*
X742751Y-112869D01*
X742751Y-106202D01*
X755251Y-106202D01*
X755251Y-112869D01*
G37*
G36*
X755251Y-106202D02*
X767751Y-106202D01*
X767751Y-112869D01*
X755251Y-112869D01*
X755251Y-106202D01*
G37*
G36*
X758585Y-109535D02*
X758585Y-122035D01*
X751918Y-122035D01*
X751918Y-109535D01*
X758585Y-109535D01*
G37*
G54D55*
G36*
X385760Y-222488D02*
X398260Y-222488D01*
X398260Y-229154D01*
X385760Y-229154D01*
X385760Y-222488D01*
G37*
G36*
X385760Y-229154D02*
X373260Y-229154D01*
X373260Y-222488D01*
X385760Y-222488D01*
X385760Y-229154D01*
G37*
G54D55*
G36*
X538161Y-247888D02*
X550661Y-247888D01*
X550661Y-254554D01*
X538161Y-254554D01*
X538161Y-247888D01*
G37*
G36*
X541494Y-251221D02*
X541494Y-263721D01*
X534827Y-263721D01*
X534827Y-251221D01*
X541494Y-251221D01*
G37*
G36*
X538161Y-254554D02*
X525661Y-254554D01*
X525661Y-247888D01*
X538161Y-247888D01*
X538161Y-254554D01*
G37*
G36*
X534827Y-251221D02*
X534827Y-238721D01*
X541494Y-238721D01*
X541494Y-251221D01*
X534827Y-251221D01*
G37*
G54D56*
G36*
X664366Y-32214D02*
X650866Y-32214D01*
X650866Y-25727D01*
X664366Y-25727D01*
X664366Y-32214D01*
G37*
G36*
X661123Y-28970D02*
X661122Y-22970D01*
X667609Y-22970D01*
X667610Y-28970D01*
X661123Y-28970D01*
G37*
G36*
X664366Y-25727D02*
X677866Y-25727D01*
X677866Y-32214D01*
X664366Y-32214D01*
X664366Y-25727D01*
G37*
G54D48*
G36*
X472318Y-305239D02*
X472317Y-317739D01*
X469317Y-317739D01*
X469318Y-305239D01*
X472318Y-305239D01*
G37*
G36*
X469318Y-305239D02*
X469320Y-292739D01*
X472320Y-292739D01*
X472318Y-305239D01*
X469318Y-305239D01*
G37*
G54D57*
G36*
X393674Y-81943D02*
X404174Y-81943D01*
X404174Y-86276D01*
X393674Y-86276D01*
X393674Y-81943D01*
G37*
G36*
X395841Y-84110D02*
X395841Y-93110D01*
X391508Y-93110D01*
X391508Y-84110D01*
X395841Y-84110D01*
G37*
G36*
X393674Y-86276D02*
X383174Y-86277D01*
X383174Y-81944D01*
X393674Y-81943D01*
X393674Y-86276D01*
G37*
G54D24*
G36*
X327847Y-35260D02*
X327847Y-23760D01*
X333847Y-23760D01*
X333847Y-35260D01*
X327847Y-35260D01*
G37*
G36*
X330847Y-32260D02*
X342347Y-32260D01*
X342347Y-38260D01*
X330847Y-38260D01*
X330847Y-32260D01*
G37*
G54D55*
G36*
X185181Y-114695D02*
X185181Y-102195D01*
X191848Y-102195D01*
X191848Y-114695D01*
X185181Y-114695D01*
G37*
G36*
X188515Y-111362D02*
X201015Y-111362D01*
X201015Y-118029D01*
X188515Y-118029D01*
X188515Y-111362D01*
G37*
G36*
X191848Y-114695D02*
X191848Y-127195D01*
X185181Y-127195D01*
X185181Y-114695D01*
X191848Y-114695D01*
G37*
G36*
X188515Y-118029D02*
X176015Y-118029D01*
X176015Y-111362D01*
X188515Y-111362D01*
X188515Y-118029D01*
G37*
G54D57*
G36*
X99988Y-78787D02*
X89488Y-78787D01*
X89488Y-74454D01*
X99988Y-74454D01*
X99988Y-78787D01*
G37*
G36*
X97821Y-76620D02*
X97821Y-67620D01*
X102154Y-67620D01*
X102154Y-76620D01*
X97821Y-76620D01*
G37*
G36*
X99988Y-74454D02*
X110488Y-74453D01*
X110488Y-78786D01*
X99988Y-78787D01*
X99988Y-74454D01*
G37*
G54D57*
G36*
X603414Y-112314D02*
X603414Y-99814D01*
X607747Y-99814D01*
X607747Y-112314D01*
X603414Y-112314D01*
G37*
G36*
X605580Y-110148D02*
X616580Y-110147D01*
X616580Y-114480D01*
X605580Y-114480D01*
X605580Y-110148D01*
G37*
G36*
X607747Y-112314D02*
X607747Y-124814D01*
X603414Y-124814D01*
X603414Y-112314D01*
X607747Y-112314D01*
G37*
G54D55*
G36*
X636661Y-104083D02*
X649161Y-104083D01*
X649161Y-110750D01*
X636661Y-110750D01*
X636661Y-104083D01*
G37*
G36*
X639995Y-107416D02*
X639995Y-119916D01*
X633328Y-119916D01*
X633328Y-107416D01*
X639995Y-107416D01*
G37*
G36*
X636661Y-110750D02*
X624161Y-110750D01*
X624161Y-104083D01*
X636661Y-104083D01*
X636661Y-110750D01*
G37*
G36*
X633328Y-107416D02*
X633328Y-94916D01*
X639995Y-94916D01*
X639995Y-107416D01*
X633328Y-107416D01*
G37*
G54D57*
G36*
X56519Y-115092D02*
X56519Y-105592D01*
X60852Y-105592D01*
X60852Y-115092D01*
X56519Y-115092D01*
G37*
G36*
X58686Y-112925D02*
X67686Y-112925D01*
X67686Y-117258D01*
X58686Y-117258D01*
X58686Y-112925D01*
G37*
G36*
X60852Y-115092D02*
X60852Y-124592D01*
X56519Y-124592D01*
X56519Y-115092D01*
X60852Y-115092D01*
G37*
G54D57*
G36*
X326722Y-94990D02*
X317222Y-94990D01*
X317222Y-90657D01*
X326722Y-90657D01*
X326722Y-94990D01*
G37*
G36*
X324555Y-92824D02*
X324555Y-83824D01*
X328888Y-83824D01*
X328888Y-92824D01*
X324555Y-92824D01*
G37*
G36*
X326722Y-90657D02*
X336222Y-90657D01*
X336222Y-94990D01*
X326722Y-94990D01*
X326722Y-90657D01*
G37*
G54D57*
G36*
X505196Y-281968D02*
X517696Y-281968D01*
X517696Y-286301D01*
X505196Y-286301D01*
X505196Y-281968D01*
G37*
G36*
X507363Y-284135D02*
X507363Y-295135D01*
X503030Y-295135D01*
X503030Y-284135D01*
X507363Y-284135D01*
G37*
G36*
X505196Y-286301D02*
X492696Y-286302D01*
X492696Y-281969D01*
X505196Y-281968D01*
X505196Y-286301D01*
G37*
G54D57*
G36*
X350931Y-94989D02*
X340431Y-94989D01*
X340431Y-90656D01*
X350931Y-90656D01*
X350931Y-94989D01*
G37*
G36*
X348764Y-92823D02*
X348764Y-83823D01*
X353097Y-83822D01*
X353097Y-92822D01*
X348764Y-92823D01*
G37*
G36*
X350931Y-90656D02*
X361431Y-90656D01*
X361431Y-94989D01*
X350931Y-94989D01*
X350931Y-90656D01*
G37*
G54D57*
G36*
X580860Y-138904D02*
X580860Y-151404D01*
X576527Y-151405D01*
X576527Y-138905D01*
X580860Y-138904D01*
G37*
G36*
X578694Y-141071D02*
X567694Y-141071D01*
X567694Y-136738D01*
X578694Y-136738D01*
X578694Y-141071D01*
G37*
G36*
X576527Y-138905D02*
X576527Y-126405D01*
X580860Y-126404D01*
X580860Y-138904D01*
X576527Y-138905D01*
G37*
G54D57*
G36*
X335358Y-208970D02*
X344858Y-208970D01*
X344858Y-213303D01*
X335358Y-213303D01*
X335358Y-208970D01*
G37*
G36*
X337525Y-211137D02*
X337525Y-220137D01*
X333192Y-220137D01*
X333192Y-211137D01*
X337525Y-211137D01*
G37*
G36*
X335358Y-213303D02*
X325858Y-213303D01*
X325858Y-208970D01*
X335358Y-208970D01*
X335358Y-213303D01*
G37*
G54D57*
G36*
X311545Y-208969D02*
X322045Y-208969D01*
X322045Y-213302D01*
X311545Y-213302D01*
X311545Y-208969D01*
G37*
G36*
X313712Y-211135D02*
X313712Y-220135D01*
X309379Y-220136D01*
X309379Y-211136D01*
X313712Y-211135D01*
G37*
G36*
X311545Y-213302D02*
X301045Y-213302D01*
X301045Y-208969D01*
X311545Y-208969D01*
X311545Y-213302D01*
G37*
G54D24*
G36*
X236609Y-85910D02*
X225109Y-85910D01*
X225109Y-79910D01*
X236609Y-79910D01*
X236609Y-85910D01*
G37*
G36*
X233609Y-82910D02*
X233609Y-71410D01*
X239609Y-71410D01*
X239609Y-82910D01*
X233609Y-82910D01*
G37*
G36*
X236609Y-79910D02*
X248109Y-79910D01*
X248109Y-85910D01*
X236609Y-85910D01*
X236609Y-79910D01*
G37*
G36*
X239609Y-82910D02*
X239609Y-94410D01*
X233609Y-94410D01*
X233609Y-82910D01*
X239609Y-82910D01*
G37*
G54D57*
G36*
X700181Y-32681D02*
X690681Y-32681D01*
X690681Y-28348D01*
X700181Y-28348D01*
X700181Y-32681D01*
G37*
G36*
X698015Y-30515D02*
X698015Y-21515D01*
X702348Y-21515D01*
X702348Y-30515D01*
X698015Y-30515D01*
G37*
G36*
X700181Y-28348D02*
X709681Y-28348D01*
X709681Y-32681D01*
X700181Y-32681D01*
X700181Y-28348D01*
G37*
G54D58*
G36*
X585016Y-238520D02*
X585017Y-225020D01*
X587350Y-225020D01*
X587349Y-238520D01*
X585016Y-238520D01*
G37*
G36*
X586183Y-237354D02*
X592183Y-237354D01*
X592183Y-239687D01*
X586183Y-239687D01*
X586183Y-237354D01*
G37*
G36*
X587349Y-238520D02*
X587349Y-252020D01*
X585016Y-252020D01*
X585016Y-238520D01*
X587349Y-238520D01*
G37*
G36*
X586183Y-239687D02*
X580183Y-239687D01*
X580183Y-237354D01*
X586183Y-237354D01*
X586183Y-239687D01*
G37*
G54D58*
G36*
X597716Y-238520D02*
X597716Y-225020D01*
X600050Y-225020D01*
X600050Y-238520D01*
X597716Y-238520D01*
G37*
G36*
X598883Y-237354D02*
X604883Y-237354D01*
X604883Y-239687D01*
X598883Y-239687D01*
X598883Y-237354D01*
G37*
G36*
X600050Y-238520D02*
X600050Y-252020D01*
X597716Y-252020D01*
X597716Y-238520D01*
X600050Y-238520D01*
G37*
G36*
X598883Y-239687D02*
X592883Y-239687D01*
X592883Y-237354D01*
X598883Y-237354D01*
X598883Y-239687D01*
G37*
G54D58*
G36*
X610416Y-238520D02*
X610417Y-225020D01*
X612750Y-225020D01*
X612749Y-238520D01*
X610416Y-238520D01*
G37*
G36*
X611583Y-237354D02*
X617583Y-237354D01*
X617583Y-239687D01*
X611583Y-239687D01*
X611583Y-237354D01*
G37*
G36*
X612749Y-238520D02*
X612749Y-252020D01*
X610416Y-252020D01*
X610416Y-238520D01*
X612749Y-238520D01*
G37*
G36*
X611583Y-239687D02*
X605583Y-239687D01*
X605583Y-237354D01*
X611583Y-237354D01*
X611583Y-239687D01*
G37*
G54D59*
G36*
X623058Y-238520D02*
X623058Y-225020D01*
X625508Y-225019D01*
X625508Y-238519D01*
X623058Y-238520D01*
G37*
G36*
X624283Y-237294D02*
X630283Y-237294D01*
X630283Y-239744D01*
X624283Y-239744D01*
X624283Y-237294D01*
G37*
G36*
X625508Y-238519D02*
X625509Y-252019D01*
X623059Y-252020D01*
X623058Y-238520D01*
X625508Y-238519D01*
G37*
G36*
X624283Y-239744D02*
X618283Y-239745D01*
X618283Y-237295D01*
X624283Y-237294D01*
X624283Y-239744D01*
G37*
G54D58*
G36*
X597716Y-184520D02*
X597717Y-171020D01*
X600050Y-171020D01*
X600049Y-184520D01*
X597716Y-184520D01*
G37*
G36*
X598882Y-183354D02*
X604882Y-183354D01*
X604882Y-185687D01*
X598882Y-185687D01*
X598882Y-183354D01*
G37*
G36*
X600049Y-184520D02*
X600048Y-198020D01*
X597715Y-198020D01*
X597716Y-184520D01*
X600049Y-184520D01*
G37*
G36*
X598882Y-185687D02*
X592882Y-185687D01*
X592882Y-183354D01*
X598882Y-183354D01*
X598882Y-185687D01*
G37*
G54D57*
G36*
X370491Y-313951D02*
X370491Y-324451D01*
X366158Y-324451D01*
X366158Y-313951D01*
X370491Y-313951D01*
G37*
G36*
X368324Y-316118D02*
X359324Y-316118D01*
X359324Y-311785D01*
X368324Y-311785D01*
X368324Y-316118D01*
G37*
G36*
X366158Y-313951D02*
X366157Y-303451D01*
X370490Y-303451D01*
X370491Y-313951D01*
X366158Y-313951D01*
G37*
G54D57*
G36*
X541503Y-171448D02*
X541503Y-158948D01*
X545836Y-158948D01*
X545836Y-171448D01*
X541503Y-171448D01*
G37*
G36*
X543669Y-169281D02*
X554669Y-169282D01*
X554669Y-173615D01*
X543669Y-173614D01*
X543669Y-169281D01*
G37*
G36*
X545836Y-171448D02*
X545836Y-183948D01*
X541503Y-183948D01*
X541503Y-171448D01*
X545836Y-171448D01*
G37*
G54D57*
G36*
X501022Y-193673D02*
X501022Y-181173D01*
X505355Y-181173D01*
X505354Y-193673D01*
X501022Y-193673D01*
G37*
G36*
X503188Y-191506D02*
X514188Y-191506D01*
X514188Y-195840D01*
X503188Y-195839D01*
X503188Y-191506D01*
G37*
G36*
X505354Y-193673D02*
X505354Y-206173D01*
X501021Y-206173D01*
X501022Y-193673D01*
X505354Y-193673D01*
G37*
G54D57*
G36*
X345067Y-240504D02*
X345067Y-253004D01*
X340734Y-253004D01*
X340734Y-240504D01*
X345067Y-240504D01*
G37*
G36*
X342901Y-242671D02*
X331901Y-242671D01*
X331901Y-238338D01*
X342901Y-238338D01*
X342901Y-242671D01*
G37*
G36*
X340734Y-240504D02*
X340734Y-228004D01*
X345067Y-228004D01*
X345067Y-240504D01*
X340734Y-240504D01*
G37*
G54D57*
G36*
X262963Y-15875D02*
X262963Y-26375D01*
X258630Y-26375D01*
X258630Y-15875D01*
X262963Y-15875D01*
G37*
G36*
X260796Y-18041D02*
X251796Y-18041D01*
X251796Y-13708D01*
X260796Y-13708D01*
X260796Y-18041D01*
G37*
G36*
X258630Y-15875D02*
X258630Y-5375D01*
X262963Y-5375D01*
X262963Y-15875D01*
X258630Y-15875D01*
G37*
X46036Y-49608D02*
G54D10*
D03*
X827085Y-49608D02*
G54D11*
D03*
G36*
X745251Y-119535D02*
X745251Y-99535D01*
X765251Y-99535D01*
X765251Y-119535D01*
X745251Y-119535D01*
G37*
X755252Y-84136D02*
G54D60*
D03*
X755252Y-58736D02*
G54D60*
D03*
X755252Y-33336D02*
G54D60*
D03*
X385760Y-200421D02*
G54D61*
D03*
X538160Y-200421D02*
G54D61*
D03*
X385760Y-225821D02*
G54D61*
D03*
X538161Y-251221D02*
G54D61*
D03*
X385760Y-251221D02*
G54D61*
D03*
X930776Y-32802D02*
G54D14*
D03*
X930670Y-90487D02*
G54D62*
D03*
G36*
X946070Y-77987D02*
X966070Y-77987D01*
X966070Y-102987D01*
X946070Y-102987D01*
X946070Y-77987D01*
G37*
X905270Y-90487D02*
G54D62*
D03*
G36*
X944562Y-120650D02*
X978296Y-120650D01*
X978296Y-77391D01*
X944562Y-77391D01*
X944562Y-120650D01*
G37*
G54D51*
X944562Y-120650D02*
X978296Y-120650D01*
X978296Y-77391D01*
X944562Y-77391D01*
X944562Y-120650D01*
X664367Y-67070D02*
G54D63*
D03*
X664367Y-54370D02*
G54D63*
D03*
X664367Y-41670D02*
G54D63*
D03*
X664366Y-28970D02*
G54D63*
D03*
X610367Y-28970D02*
G54D63*
D03*
X610367Y-41671D02*
G54D63*
D03*
X610367Y-54371D02*
G54D63*
D03*
X610367Y-67070D02*
G54D63*
D03*
G54D48*
X667005Y-53861D02*
X666748Y-53973D01*
G54D48*
X465738Y-295714D02*
X465737Y-288967D01*
X480818Y-279045D01*
X480818Y-267932D01*
X482406Y-305239D02*
G54D64*
D03*
X475818Y-305239D02*
G54D65*
D03*
X470818Y-305239D02*
G54D65*
D03*
X465818Y-305239D02*
G54D65*
D03*
X475818Y-261239D02*
G54D65*
D03*
X470818Y-261239D02*
G54D65*
D03*
X465819Y-261239D02*
G54D65*
D03*
X459387Y-305240D02*
G54D64*
D03*
X482406Y-261186D02*
G54D64*
D03*
X459387Y-261186D02*
G54D64*
D03*
X509071Y-225501D02*
G54D66*
D03*
X427315Y-225501D02*
G54D66*
D03*
G54D48*
X610367Y-41671D02*
X628251Y-41671D01*
X628252Y-22223D01*
X636983Y-13492D01*
X738583Y-13492D01*
X738583Y-45639D01*
X755252Y-58736D01*
G54D48*
X755252Y-34130D02*
X755252Y-7539D01*
X634602Y-7539D01*
X612378Y-29766D01*
X610367Y-29764D01*
G54D48*
X435372Y-258762D02*
X459343Y-258364D01*
G54D48*
X465930Y-270270D02*
X465930Y-274239D01*
X462359Y-276622D01*
X446088Y-276622D01*
X435372Y-284163D01*
G54D48*
X423346Y-225501D02*
X445767Y-225501D01*
X470692Y-246855D01*
X470692Y-255189D01*
G54D48*
X475852Y-255189D02*
X475852Y-246458D01*
X500061Y-226614D01*
G54D48*
X460248Y-123076D02*
X460248Y-148953D01*
X456802Y-147239D01*
G36*
X427872Y-251262D02*
X442872Y-251262D01*
X442872Y-266262D01*
X427872Y-266262D01*
X427872Y-251262D01*
G37*
X435372Y-284163D02*
G54D67*
D03*
G54D48*
X492248Y-123075D02*
X492645Y-165767D01*
X482202Y-176211D01*
X378220Y-176211D01*
X362345Y-192086D01*
X362345Y-242491D01*
X381792Y-251221D01*
G54D48*
X381792Y-200421D02*
X402828Y-193675D01*
X484189Y-193673D01*
X487759Y-186531D01*
X506808Y-167480D01*
X506808Y-108635D01*
X506749Y-108575D01*
G54D48*
X534192Y-200421D02*
X519508Y-179386D01*
X519508Y-100805D01*
X506978Y-100805D01*
X506748Y-100575D01*
G36*
X590099Y-32827D02*
X575099Y-32827D01*
X575099Y-17827D01*
X590099Y-17827D01*
X590099Y-32827D01*
G37*
X582599Y-50727D02*
G54D67*
D03*
G54D68*
X610367Y-41671D02*
X593724Y-41671D01*
X582599Y-50727D01*
G54D68*
X610367Y-28970D02*
X582599Y-25327D01*
G54D24*
X388875Y-60660D02*
X461022Y-60575D01*
X469105Y-68658D01*
X506434Y-68658D01*
G54D24*
X506352Y-68575D02*
X519904Y-68657D01*
X519905Y-84533D01*
X506351Y-84575D01*
G54D24*
X491727Y-76595D02*
X506749Y-76575D01*
G54D24*
X526255Y-92867D02*
X490933Y-92867D01*
G54D24*
X433386Y-84533D02*
X420686Y-84533D01*
X408780Y-84533D01*
G54D68*
X610367Y-67070D02*
X565943Y-67070D01*
X393674Y-65110D02*
G54D69*
D03*
X393674Y-84110D02*
G54D69*
D03*
G54D68*
X499590Y-265008D02*
X517024Y-265008D01*
X528636Y-276620D01*
X570705Y-276620D01*
X570705Y-200023D01*
X586183Y-184520D01*
X586182Y-168274D01*
X598090Y-139301D01*
X586978Y-113505D01*
G54D23*
X755252Y-84136D02*
X740170Y-87708D01*
X723973Y-104242D01*
G36*
X271046Y-51660D02*
X289046Y-51660D01*
X289046Y-69660D01*
X271046Y-69660D01*
X271046Y-51660D01*
G37*
X280046Y-35260D02*
G54D70*
D03*
X305446Y-60660D02*
G54D70*
D03*
X305446Y-35260D02*
G54D70*
D03*
X330846Y-60660D02*
G54D70*
D03*
X330847Y-35260D02*
G54D70*
D03*
X479026Y-147239D02*
G54D67*
D03*
G54D48*
X468248Y-123075D02*
X468248Y-136858D01*
X479026Y-147239D01*
G54D54*
X436249Y-38075D02*
X436538Y-24582D01*
X431402Y-19445D01*
X321864Y-19445D01*
X318292Y-23017D01*
X318292Y-41273D01*
X311545Y-48020D01*
X292686Y-48020D01*
X280046Y-60660D01*
G54D48*
X305594Y-33338D02*
X305594Y-25797D01*
X317897Y-13494D01*
X434975Y-13494D01*
X444103Y-22622D01*
X444103Y-36116D01*
G54D48*
X305446Y-60660D02*
X311545Y-57148D01*
X320674Y-48020D01*
X417590Y-48020D01*
X421748Y-52179D01*
G54D68*
X279795Y-34924D02*
X279796Y-15875D01*
X290908Y-6350D01*
X565545Y-6350D01*
X565545Y-82550D01*
X586580Y-113109D01*
G36*
X346370Y-58087D02*
X359370Y-58087D01*
X359370Y-72087D01*
X346370Y-72087D01*
X346370Y-58087D01*
G37*
X371870Y-65087D02*
G54D71*
D03*
G54D16*
X330846Y-60660D02*
X351680Y-65087D01*
G54D68*
X371870Y-65087D02*
X393674Y-65110D01*
X20011Y-114695D02*
G54D72*
D03*
X100011Y-114695D02*
G54D72*
D03*
X137714Y-114695D02*
G54D60*
D03*
X163114Y-114695D02*
G54D60*
D03*
X188515Y-114695D02*
G54D60*
D03*
X99988Y-95620D02*
G54D69*
D03*
X99988Y-76620D02*
G54D69*
D03*
G54D68*
X100011Y-114695D02*
X137714Y-114695D01*
X586581Y-112314D02*
G54D73*
D03*
G36*
X599080Y-104314D02*
X612080Y-104314D01*
X612080Y-120314D01*
X599080Y-120314D01*
X599080Y-104314D01*
G37*
G36*
X646661Y-97416D02*
X646661Y-117416D01*
X626661Y-117416D01*
X626661Y-97416D01*
X646661Y-97416D01*
G37*
X662061Y-107417D02*
G54D60*
D03*
G54D48*
X254396Y-107950D02*
X268683Y-107950D01*
X292099Y-131366D01*
X354012Y-131366D01*
X403621Y-125412D01*
X421083Y-107950D01*
X253947Y-107948D02*
G54D71*
D03*
X234947Y-107948D02*
G54D71*
D03*
X456802Y-147239D02*
G54D67*
D03*
G54D48*
X435372Y-258762D02*
X411955Y-258364D01*
X399255Y-271064D01*
X371474Y-271064D01*
X352424Y-252014D01*
X352424Y-186926D01*
X377427Y-161923D01*
X429815Y-161923D01*
X452038Y-132158D01*
X452248Y-123075D01*
X303705Y-111772D02*
G54D74*
D03*
X303705Y-92772D02*
G54D74*
D03*
X39686Y-115092D02*
G54D71*
D03*
X58686Y-115092D02*
G54D71*
D03*
X326722Y-111823D02*
G54D74*
D03*
X326722Y-92824D02*
G54D74*
D03*
G54D68*
X351233Y-111125D02*
X327421Y-111125D01*
X303608Y-111125D01*
G36*
X331769Y-166304D02*
X340961Y-157111D01*
X350861Y-167010D01*
X341668Y-176203D01*
X331769Y-166304D01*
G37*
G36*
X345204Y-152868D02*
X354396Y-143676D01*
X364296Y-153576D01*
X355103Y-162768D01*
X345204Y-152868D01*
G37*
X505196Y-265135D02*
G54D69*
D03*
X505196Y-284135D02*
G54D69*
D03*
G54D68*
X482520Y-268665D02*
X501570Y-268665D01*
G36*
X538096Y-100518D02*
X553096Y-100517D01*
X553097Y-148517D01*
X538097Y-148518D01*
X538096Y-100518D01*
G37*
X545596Y-42761D02*
G54D75*
D03*
G54D24*
X506748Y-52575D02*
X529829Y-52575D01*
X545596Y-42761D01*
G54D24*
X506748Y-60575D02*
X528094Y-60575D01*
X545596Y-102690D01*
X545702Y-124412D01*
X545596Y-124518D01*
X350931Y-111822D02*
G54D69*
D03*
X350931Y-92822D02*
G54D69*
D03*
X597693Y-138904D02*
G54D73*
D03*
X578694Y-138904D02*
G54D73*
D03*
G54D76*
X284881Y-155104D02*
X270739Y-140962D01*
X312342Y-151605D02*
G54D74*
D03*
X312342Y-170605D02*
G54D74*
D03*
X335358Y-192137D02*
G54D74*
D03*
X335358Y-211137D02*
G54D74*
D03*
X311545Y-192136D02*
G54D69*
D03*
X311545Y-211136D02*
G54D69*
D03*
X964008Y-90487D02*
G54D46*
D03*
X278604Y-90882D02*
G54D67*
D03*
G54D68*
X335358Y-192137D02*
X335359Y-178197D01*
X340889Y-167058D01*
G54D68*
X335358Y-192137D02*
X311915Y-192506D01*
X311545Y-192136D01*
X311551Y-171396D01*
G54D68*
X312342Y-151605D02*
X286541Y-151605D01*
G54D68*
X278604Y-90882D02*
X303705Y-92772D01*
X334167Y-284558D02*
G54D77*
D03*
G54D49*
X459580Y-299639D02*
X407192Y-299639D01*
X394889Y-286938D01*
X334167Y-286938D01*
X601264Y-303607D02*
G54D78*
D03*
G54D24*
X482598Y-306386D02*
X541733Y-306386D01*
G54D49*
X351630Y-151604D02*
X373854Y-143270D01*
X415923Y-143270D01*
X436164Y-123029D01*
G54D48*
X235346Y-107950D02*
X203596Y-93662D01*
X175021Y-93662D01*
X162321Y-106362D01*
X162321Y-114300D01*
G36*
X227609Y-91910D02*
X227609Y-73910D01*
X245609Y-73910D01*
X245609Y-91910D01*
X227609Y-91910D01*
G37*
X236609Y-57509D02*
G54D70*
D03*
X236609Y-32109D02*
G54D70*
D03*
G54D68*
X236609Y-32109D02*
X280046Y-32085D01*
G54D68*
X236609Y-57509D02*
X280046Y-57485D01*
X700181Y-49514D02*
G54D74*
D03*
X700181Y-30515D02*
G54D74*
D03*
X700209Y-94730D02*
G54D74*
D03*
X700209Y-75730D02*
G54D74*
D03*
G54D68*
X664367Y-41670D02*
X683468Y-41670D01*
X692150Y-49609D01*
X700181Y-49514D01*
X724393Y-51893D02*
G54D74*
D03*
X724393Y-70893D02*
G54D74*
D03*
G54D68*
X700209Y-94730D02*
X662061Y-107417D01*
G54D68*
X700209Y-75730D02*
X700181Y-49514D01*
X723974Y-28042D02*
G54D60*
D03*
X723973Y-104242D02*
G54D60*
D03*
G54D48*
X700209Y-94730D02*
X714770Y-87311D01*
X723576Y-71709D01*
G54D68*
X723996Y-51893D02*
X723996Y-28065D01*
G36*
X978296Y-4762D02*
X773508Y-4762D01*
X768746Y-11112D01*
X768746Y-65088D01*
X757633Y-76200D01*
X757633Y-92075D01*
X783033Y-92075D01*
X796527Y-78581D01*
X796527Y-36116D01*
X812799Y-19844D01*
X845740Y-19844D01*
X859233Y-33338D01*
X859233Y-73025D01*
X978296Y-73025D01*
X978296Y-4762D01*
G37*
G54D51*
X978296Y-4762D02*
X773508Y-4762D01*
X768746Y-11112D01*
X768746Y-65088D01*
X757633Y-76200D01*
X757633Y-92075D01*
X783033Y-92075D01*
X796527Y-78581D01*
X796527Y-36116D01*
X812799Y-19844D01*
X845740Y-19844D01*
X859233Y-33338D01*
X859233Y-73025D01*
X978296Y-73025D01*
X978296Y-4762D01*
X586183Y-238520D02*
G54D79*
D03*
X598883Y-238520D02*
G54D79*
D03*
X611583Y-238520D02*
G54D79*
D03*
G36*
X620783Y-227520D02*
X627783Y-227519D01*
X627784Y-249519D01*
X620784Y-249520D01*
X620783Y-227520D01*
G37*
X624283Y-184520D02*
G54D79*
D03*
G36*
X608082Y-173520D02*
X615082Y-173520D01*
X615083Y-195520D01*
X608083Y-195520D01*
X608082Y-173520D01*
G37*
X598882Y-184520D02*
G54D79*
D03*
G36*
X582682Y-173520D02*
X589682Y-173520D01*
X589683Y-195520D01*
X582683Y-195520D01*
X582682Y-173520D01*
G37*
G36*
X629314Y-166802D02*
X629314Y-151802D01*
X644314Y-151802D01*
X644314Y-166802D01*
X629314Y-166802D01*
G37*
X611414Y-159302D02*
G54D67*
D03*
G54D48*
X624283Y-184520D02*
X636814Y-159302D01*
G54D48*
X611583Y-184520D02*
X611414Y-159302D01*
X412748Y-34526D02*
G54D46*
D03*
X631823Y-321467D02*
G54D46*
D03*
X303211Y-320276D02*
G54D46*
D03*
X638967Y-83342D02*
G54D46*
D03*
X569117Y-170258D02*
G54D46*
D03*
G36*
X369736Y-100155D02*
X382736Y-100155D01*
X382736Y-114155D01*
X369736Y-114155D01*
X369736Y-100155D01*
G37*
X395236Y-107155D02*
G54D71*
D03*
G54D68*
X350931Y-111822D02*
X371569Y-111822D01*
X376236Y-107155D01*
G54D49*
X395236Y-107155D02*
X405207Y-107155D01*
X411557Y-100805D01*
X421519Y-100805D01*
X421748Y-100576D01*
G54D68*
X475852Y-68658D02*
X514745Y-30162D01*
X514745Y-6746D01*
G36*
X469105Y-68658D02*
X461419Y-60972D01*
X461419Y-54515D01*
X462754Y-53180D01*
X492123Y-53180D01*
X492123Y-65085D01*
X495695Y-68658D01*
X469105Y-68658D01*
G37*
G54D48*
X469105Y-68658D02*
X461419Y-60972D01*
X461419Y-54515D01*
X462754Y-53180D01*
X492123Y-53180D01*
X492123Y-65085D01*
X495695Y-68658D01*
X469105Y-68658D01*
X387324Y-313952D02*
G54D73*
D03*
X368324Y-313951D02*
G54D73*
D03*
G36*
X403470Y-309308D02*
X416470Y-309308D01*
X416470Y-323308D01*
X403470Y-323308D01*
X403470Y-309308D01*
G37*
X428970Y-316308D02*
G54D71*
D03*
G54D48*
X409970Y-316308D02*
X387324Y-313952D01*
G54D48*
X428970Y-316308D02*
X441323Y-316308D01*
X448863Y-323849D01*
X474263Y-323849D01*
X475851Y-322261D01*
X475851Y-312736D01*
G36*
X482598Y-268683D02*
X506013Y-268683D01*
X506013Y-261936D01*
X496885Y-252808D01*
X482598Y-252808D01*
X482598Y-268683D01*
G37*
G54D48*
X482598Y-268683D02*
X506013Y-268683D01*
X506013Y-261936D01*
X496885Y-252808D01*
X482598Y-252808D01*
X482598Y-268683D01*
G36*
X518170Y-163448D02*
X531170Y-163448D01*
X531170Y-179448D01*
X518170Y-179448D01*
X518170Y-163448D01*
G37*
X543669Y-171448D02*
G54D73*
D03*
G36*
X477689Y-185673D02*
X490689Y-185673D01*
X490689Y-201673D01*
X477689Y-201673D01*
X477689Y-185673D01*
G37*
X503188Y-193673D02*
G54D73*
D03*
X361900Y-240504D02*
G54D73*
D03*
X342901Y-240504D02*
G54D73*
D03*
G54D24*
X586183Y-235741D02*
X586183Y-220660D01*
G54D16*
X598884Y-138905D02*
X649683Y-138905D01*
X723973Y-103845D01*
G54D48*
X496489Y-252807D02*
X502045Y-247251D01*
G36*
X515248Y-109575D02*
X513248Y-111575D01*
X502248Y-111576D01*
X501248Y-110575D01*
X501249Y-106575D01*
X502248Y-105575D01*
X513248Y-105576D01*
X515248Y-107575D01*
X515248Y-109575D01*
G37*
G54D80*
X515248Y-109575D02*
X513248Y-111575D01*
X502248Y-111576D01*
X501248Y-110575D01*
X501249Y-106575D01*
X502248Y-105575D01*
X513248Y-105576D01*
X515248Y-107575D01*
X515248Y-109575D01*
G36*
X515248Y-101575D02*
X513248Y-103575D01*
X502248Y-103575D01*
X501248Y-102575D01*
X501248Y-98576D01*
X502248Y-97576D01*
X513248Y-97576D01*
X515249Y-99576D01*
X515248Y-101575D01*
G37*
G54D80*
X515248Y-101575D02*
X513248Y-103575D01*
X502248Y-103575D01*
X501248Y-102575D01*
X501248Y-98576D01*
X502248Y-97576D01*
X513248Y-97576D01*
X515249Y-99576D01*
X515248Y-101575D01*
X506749Y-108575D02*
G54D81*
D03*
X506748Y-100575D02*
G54D81*
D03*
G36*
X515248Y-93575D02*
X513248Y-95575D01*
X502248Y-95576D01*
X501249Y-94575D01*
X501248Y-90575D01*
X502248Y-89575D01*
X513249Y-89575D01*
X515248Y-91575D01*
X515248Y-93575D01*
G37*
G54D80*
X515248Y-93575D02*
X513248Y-95575D01*
X502248Y-95576D01*
X501249Y-94575D01*
X501248Y-90575D01*
X502248Y-89575D01*
X513249Y-89575D01*
X515248Y-91575D01*
X515248Y-93575D01*
G36*
X515248Y-85575D02*
X513248Y-87576D01*
X502248Y-87576D01*
X501248Y-86575D01*
X501248Y-82575D01*
X502248Y-81576D01*
X513249Y-81575D01*
X515248Y-83575D01*
X515248Y-85575D01*
G37*
G54D80*
X515248Y-85575D02*
X513248Y-87576D01*
X502248Y-87576D01*
X501248Y-86575D01*
X501248Y-82575D01*
X502248Y-81576D01*
X513249Y-81575D01*
X515248Y-83575D01*
X515248Y-85575D01*
X506748Y-92575D02*
G54D81*
D03*
X506748Y-84575D02*
G54D81*
D03*
G36*
X515248Y-77575D02*
X513248Y-79575D01*
X502248Y-79575D01*
X501248Y-78575D01*
X501248Y-74576D01*
X502248Y-73576D01*
X513248Y-73576D01*
X515248Y-75576D01*
X515248Y-77575D01*
G37*
G54D80*
X515248Y-77575D02*
X513248Y-79575D01*
X502248Y-79575D01*
X501248Y-78575D01*
X501248Y-74576D01*
X502248Y-73576D01*
X513248Y-73576D01*
X515248Y-75576D01*
X515248Y-77575D01*
G36*
X515248Y-69575D02*
X513248Y-71575D01*
X502249Y-71575D01*
X501249Y-70575D01*
X501248Y-66575D01*
X502249Y-65575D01*
X513248Y-65575D01*
X515248Y-67575D01*
X515248Y-69575D01*
G37*
G54D80*
X515248Y-69575D02*
X513248Y-71575D01*
X502249Y-71575D01*
X501249Y-70575D01*
X501248Y-66575D01*
X502249Y-65575D01*
X513248Y-65575D01*
X515248Y-67575D01*
X515248Y-69575D01*
X506749Y-76575D02*
G54D81*
D03*
X506748Y-68575D02*
G54D81*
D03*
G36*
X515248Y-61575D02*
X513248Y-63575D01*
X502248Y-63575D01*
X501248Y-62576D01*
X501249Y-58575D01*
X502248Y-57575D01*
X513248Y-57575D01*
X515248Y-59576D01*
X515248Y-61575D01*
G37*
G54D80*
X515248Y-61575D02*
X513248Y-63575D01*
X502248Y-63575D01*
X501248Y-62576D01*
X501249Y-58575D01*
X502248Y-57575D01*
X513248Y-57575D01*
X515248Y-59576D01*
X515248Y-61575D01*
G36*
X515248Y-53576D02*
X513248Y-55575D01*
X502248Y-55575D01*
X501248Y-54575D01*
X501248Y-50576D01*
X502248Y-49575D01*
X513249Y-49576D01*
X515248Y-51575D01*
X515248Y-53576D01*
G37*
G54D80*
X515248Y-53576D02*
X513248Y-55575D01*
X502248Y-55575D01*
X501248Y-54575D01*
X501248Y-50576D01*
X502248Y-49575D01*
X513249Y-49576D01*
X515248Y-51575D01*
X515248Y-53576D01*
X506748Y-60575D02*
G54D81*
D03*
X506748Y-52575D02*
G54D81*
D03*
G36*
X435248Y-131575D02*
X433248Y-129575D01*
X433248Y-118575D01*
X434248Y-117575D01*
X438248Y-117575D01*
X439248Y-118575D01*
X439248Y-129575D01*
X437248Y-131576D01*
X435248Y-131575D01*
G37*
G54D80*
X435248Y-131575D02*
X433248Y-129575D01*
X433248Y-118575D01*
X434248Y-117575D01*
X438248Y-117575D01*
X439248Y-118575D01*
X439248Y-129575D01*
X437248Y-131576D01*
X435248Y-131575D01*
G36*
X443248Y-131575D02*
X441248Y-129575D01*
X441248Y-118575D01*
X442248Y-117575D01*
X446249Y-117575D01*
X447248Y-118576D01*
X447248Y-129575D01*
X445248Y-131575D01*
X443248Y-131575D01*
G37*
G54D80*
X443248Y-131575D02*
X441248Y-129575D01*
X441248Y-118575D01*
X442248Y-117575D01*
X446249Y-117575D01*
X447248Y-118576D01*
X447248Y-129575D01*
X445248Y-131575D01*
X443248Y-131575D01*
X436248Y-123075D02*
G54D81*
D03*
X444248Y-123075D02*
G54D81*
D03*
G36*
X451248Y-131576D02*
X449248Y-129575D01*
X449249Y-118575D01*
X450248Y-117575D01*
X454249Y-117576D01*
X455248Y-118575D01*
X455248Y-129576D01*
X453248Y-131575D01*
X451248Y-131576D01*
G37*
G54D80*
X451248Y-131576D02*
X449248Y-129575D01*
X449249Y-118575D01*
X450248Y-117575D01*
X454249Y-117576D01*
X455248Y-118575D01*
X455248Y-129576D01*
X453248Y-131575D01*
X451248Y-131576D01*
G36*
X459248Y-131575D02*
X457248Y-129575D01*
X457248Y-118575D01*
X458248Y-117575D01*
X462248Y-117575D01*
X463249Y-118575D01*
X463248Y-129575D01*
X461248Y-131576D01*
X459248Y-131575D01*
G37*
G54D80*
X459248Y-131575D02*
X457248Y-129575D01*
X457248Y-118575D01*
X458248Y-117575D01*
X462248Y-117575D01*
X463249Y-118575D01*
X463248Y-129575D01*
X461248Y-131576D01*
X459248Y-131575D01*
X452248Y-123075D02*
G54D81*
D03*
X460248Y-123076D02*
G54D81*
D03*
G36*
X467248Y-131575D02*
X465248Y-129575D01*
X465249Y-118575D01*
X466248Y-117575D01*
X470249Y-117575D01*
X471248Y-118575D01*
X471248Y-129575D01*
X469248Y-131575D01*
X467248Y-131575D01*
G37*
G54D80*
X467248Y-131575D02*
X465248Y-129575D01*
X465249Y-118575D01*
X466248Y-117575D01*
X470249Y-117575D01*
X471248Y-118575D01*
X471248Y-129575D01*
X469248Y-131575D01*
X467248Y-131575D01*
G36*
X475248Y-131575D02*
X473248Y-129575D01*
X473248Y-118575D01*
X474248Y-117575D01*
X478249Y-117576D01*
X479248Y-118575D01*
X479248Y-129575D01*
X477249Y-131575D01*
X475248Y-131575D01*
G37*
G54D80*
X475248Y-131575D02*
X473248Y-129575D01*
X473248Y-118575D01*
X474248Y-117575D01*
X478249Y-117576D01*
X479248Y-118575D01*
X479248Y-129575D01*
X477249Y-131575D01*
X475248Y-131575D01*
X468248Y-123075D02*
G54D81*
D03*
X476248Y-123075D02*
G54D81*
D03*
G36*
X483248Y-131575D02*
X481248Y-129575D01*
X481248Y-118576D01*
X482248Y-117576D01*
X486248Y-117575D01*
X487248Y-118576D01*
X487248Y-129575D01*
X485248Y-131575D01*
X483248Y-131575D01*
G37*
G54D80*
X483248Y-131575D02*
X481248Y-129575D01*
X481248Y-118576D01*
X482248Y-117576D01*
X486248Y-117575D01*
X487248Y-118576D01*
X487248Y-129575D01*
X485248Y-131575D01*
X483248Y-131575D01*
G36*
X491248Y-131575D02*
X489248Y-129576D01*
X489249Y-118575D01*
X490248Y-117575D01*
X494248Y-117575D01*
X495248Y-118576D01*
X495248Y-129575D01*
X493248Y-131576D01*
X491248Y-131575D01*
G37*
G54D80*
X491248Y-131575D02*
X489248Y-129576D01*
X489249Y-118575D01*
X490248Y-117575D01*
X494248Y-117575D01*
X495248Y-118576D01*
X495248Y-129575D01*
X493248Y-131576D01*
X491248Y-131575D01*
X484248Y-123075D02*
G54D81*
D03*
X492248Y-123075D02*
G54D81*
D03*
G36*
X413248Y-51575D02*
X415248Y-49575D01*
X426248Y-49576D01*
X427248Y-50576D01*
X427248Y-54575D01*
X426248Y-55575D01*
X415248Y-55575D01*
X413248Y-53576D01*
X413248Y-51575D01*
G37*
G54D80*
X413248Y-51575D02*
X415248Y-49575D01*
X426248Y-49576D01*
X427248Y-50576D01*
X427248Y-54575D01*
X426248Y-55575D01*
X415248Y-55575D01*
X413248Y-53576D01*
X413248Y-51575D01*
G36*
X413248Y-59576D02*
X415248Y-57575D01*
X426248Y-57575D01*
X427248Y-58575D01*
X427248Y-62575D01*
X426249Y-63575D01*
X415248Y-63575D01*
X413248Y-61575D01*
X413248Y-59576D01*
G37*
G54D80*
X413248Y-59576D02*
X415248Y-57575D01*
X426248Y-57575D01*
X427248Y-58575D01*
X427248Y-62575D01*
X426249Y-63575D01*
X415248Y-63575D01*
X413248Y-61575D01*
X413248Y-59576D01*
G36*
X419248Y-50076D02*
X424248Y-50075D01*
X424248Y-55075D01*
X419248Y-55076D01*
X419248Y-50076D01*
G37*
G36*
X419248Y-58075D02*
X424248Y-58075D01*
X424249Y-63075D01*
X419249Y-63075D01*
X419248Y-58075D01*
G37*
G36*
X413248Y-67575D02*
X415248Y-65576D01*
X426248Y-65576D01*
X427248Y-66576D01*
X427248Y-70575D01*
X426248Y-71576D01*
X415248Y-71576D01*
X413248Y-69575D01*
X413248Y-67575D01*
G37*
G54D80*
X413248Y-67575D02*
X415248Y-65576D01*
X426248Y-65576D01*
X427248Y-66576D01*
X427248Y-70575D01*
X426248Y-71576D01*
X415248Y-71576D01*
X413248Y-69575D01*
X413248Y-67575D01*
G36*
X413248Y-75575D02*
X415248Y-73575D01*
X426248Y-73575D01*
X427248Y-74576D01*
X427248Y-78575D01*
X426248Y-79575D01*
X415248Y-79575D01*
X413248Y-77576D01*
X413248Y-75575D01*
G37*
G54D80*
X413248Y-75575D02*
X415248Y-73575D01*
X426248Y-73575D01*
X427248Y-74576D01*
X427248Y-78575D01*
X426248Y-79575D01*
X415248Y-79575D01*
X413248Y-77576D01*
X413248Y-75575D01*
X421749Y-68575D02*
G54D81*
D03*
X421748Y-76575D02*
G54D81*
D03*
G36*
X413248Y-83576D02*
X415248Y-81575D01*
X426248Y-81575D01*
X427248Y-82575D01*
X427249Y-86576D01*
X426248Y-87575D01*
X415248Y-87575D01*
X413248Y-85576D01*
X413248Y-83576D01*
G37*
G54D80*
X413248Y-83576D02*
X415248Y-81575D01*
X426248Y-81575D01*
X427248Y-82575D01*
X427249Y-86576D01*
X426248Y-87575D01*
X415248Y-87575D01*
X413248Y-85576D01*
X413248Y-83576D01*
G36*
X413248Y-91575D02*
X415248Y-89575D01*
X426248Y-89575D01*
X427248Y-90576D01*
X427248Y-94575D01*
X426248Y-95575D01*
X415248Y-95575D01*
X413248Y-93575D01*
X413248Y-91575D01*
G37*
G54D80*
X413248Y-91575D02*
X415248Y-89575D01*
X426248Y-89575D01*
X427248Y-90576D01*
X427248Y-94575D01*
X426248Y-95575D01*
X415248Y-95575D01*
X413248Y-93575D01*
X413248Y-91575D01*
X421748Y-84575D02*
G54D81*
D03*
X421748Y-92575D02*
G54D81*
D03*
G36*
X413249Y-99575D02*
X415248Y-97575D01*
X426248Y-97575D01*
X427248Y-98575D01*
X427248Y-102575D01*
X426248Y-103575D01*
X415248Y-103575D01*
X413248Y-101575D01*
X413249Y-99575D01*
G37*
G54D80*
X413249Y-99575D02*
X415248Y-97575D01*
X426248Y-97575D01*
X427248Y-98575D01*
X427248Y-102575D01*
X426248Y-103575D01*
X415248Y-103575D01*
X413248Y-101575D01*
X413249Y-99575D01*
G36*
X413249Y-107576D02*
X415248Y-105575D01*
X426248Y-105575D01*
X427248Y-106575D01*
X427248Y-110575D01*
X426248Y-111575D01*
X415248Y-111576D01*
X413249Y-109575D01*
X413249Y-107576D01*
G37*
G54D80*
X413249Y-107576D02*
X415248Y-105575D01*
X426248Y-105575D01*
X427248Y-106575D01*
X427248Y-110575D01*
X426248Y-111575D01*
X415248Y-111576D01*
X413249Y-109575D01*
X413249Y-107576D01*
G36*
X419248Y-98076D02*
X424248Y-98076D01*
X424248Y-103076D01*
X419248Y-103076D01*
X419248Y-98076D01*
G37*
X421748Y-108575D02*
G54D81*
D03*
G36*
X493248Y-29575D02*
X495248Y-31576D01*
X495248Y-42575D01*
X494248Y-43575D01*
X490248Y-43575D01*
X489248Y-42575D01*
X489248Y-31575D01*
X491248Y-29575D01*
X493248Y-29575D01*
G37*
G54D80*
X493248Y-29575D02*
X495248Y-31576D01*
X495248Y-42575D01*
X494248Y-43575D01*
X490248Y-43575D01*
X489248Y-42575D01*
X489248Y-31575D01*
X491248Y-29575D01*
X493248Y-29575D01*
G36*
X485249Y-29576D02*
X487248Y-31575D01*
X487248Y-42575D01*
X486249Y-43576D01*
X482248Y-43575D01*
X481248Y-42575D01*
X481248Y-31575D01*
X483248Y-29575D01*
X485249Y-29576D01*
G37*
G54D80*
X485249Y-29576D02*
X487248Y-31575D01*
X487248Y-42575D01*
X486249Y-43576D01*
X482248Y-43575D01*
X481248Y-42575D01*
X481248Y-31575D01*
X483248Y-29575D01*
X485249Y-29576D01*
X492249Y-38075D02*
G54D81*
D03*
X484248Y-38076D02*
G54D81*
D03*
G36*
X477249Y-29575D02*
X479248Y-31575D01*
X479248Y-42575D01*
X478248Y-43575D01*
X474249Y-43575D01*
X473249Y-42576D01*
X473248Y-31576D01*
X475248Y-29575D01*
X477249Y-29575D01*
G37*
G54D80*
X477249Y-29575D02*
X479248Y-31575D01*
X479248Y-42575D01*
X478248Y-43575D01*
X474249Y-43575D01*
X473249Y-42576D01*
X473248Y-31576D01*
X475248Y-29575D01*
X477249Y-29575D01*
G36*
X469249Y-29576D02*
X471248Y-31576D01*
X471248Y-42576D01*
X470249Y-43575D01*
X466248Y-43576D01*
X465248Y-42575D01*
X465249Y-31575D01*
X467248Y-29575D01*
X469249Y-29576D01*
G37*
G54D80*
X469249Y-29576D02*
X471248Y-31576D01*
X471248Y-42576D01*
X470249Y-43575D01*
X466248Y-43576D01*
X465248Y-42575D01*
X465249Y-31575D01*
X467248Y-29575D01*
X469249Y-29576D01*
X476248Y-38075D02*
G54D81*
D03*
X468248Y-38075D02*
G54D81*
D03*
G36*
X461248Y-29575D02*
X463249Y-31575D01*
X463249Y-42576D01*
X462248Y-43575D01*
X458248Y-43575D01*
X457248Y-42576D01*
X457248Y-31575D01*
X459248Y-29575D01*
X461248Y-29575D01*
G37*
G54D80*
X461248Y-29575D02*
X463249Y-31575D01*
X463249Y-42576D01*
X462248Y-43575D01*
X458248Y-43575D01*
X457248Y-42576D01*
X457248Y-31575D01*
X459248Y-29575D01*
X461248Y-29575D01*
G36*
X453249Y-29575D02*
X455248Y-31575D01*
X455248Y-42575D01*
X454248Y-43575D01*
X450249Y-43575D01*
X449248Y-42576D01*
X449248Y-31575D01*
X451248Y-29576D01*
X453249Y-29575D01*
G37*
G54D80*
X453249Y-29575D02*
X455248Y-31575D01*
X455248Y-42575D01*
X454248Y-43575D01*
X450249Y-43575D01*
X449248Y-42576D01*
X449248Y-31575D01*
X451248Y-29576D01*
X453249Y-29575D01*
X460248Y-38075D02*
G54D81*
D03*
X452248Y-38075D02*
G54D81*
D03*
G36*
X445248Y-29576D02*
X447248Y-31576D01*
X447248Y-42575D01*
X446249Y-43575D01*
X442248Y-43575D01*
X441248Y-42575D01*
X441249Y-31575D01*
X443248Y-29576D01*
X445248Y-29576D01*
G37*
G54D80*
X445248Y-29576D02*
X447248Y-31576D01*
X447248Y-42575D01*
X446249Y-43575D01*
X442248Y-43575D01*
X441248Y-42575D01*
X441249Y-31575D01*
X443248Y-29576D01*
X445248Y-29576D01*
G36*
X437248Y-29576D02*
X439248Y-31575D01*
X439248Y-42575D01*
X438248Y-43575D01*
X434248Y-43575D01*
X433248Y-42576D01*
X433248Y-31575D01*
X435248Y-29575D01*
X437248Y-29576D01*
G37*
G54D80*
X437248Y-29576D02*
X439248Y-31575D01*
X439248Y-42575D01*
X438248Y-43575D01*
X434248Y-43575D01*
X433248Y-42576D01*
X433248Y-31575D01*
X435248Y-29575D01*
X437248Y-29576D01*
X444248Y-38075D02*
G54D81*
D03*
X436249Y-38075D02*
G54D81*
D03*
G36*
X917177Y-77787D02*
X887014Y-77787D01*
X887014Y-123824D01*
X917177Y-123824D01*
X917177Y-77787D01*
G37*
G54D51*
X917177Y-77787D02*
X887014Y-77787D01*
X887014Y-123824D01*
X917177Y-123824D01*
X917177Y-77787D01*
G36*
X921146Y-120650D02*
X921146Y-61912D01*
X940196Y-61912D01*
X940196Y-120650D01*
X921146Y-120650D01*
G37*
G54D51*
X921146Y-120650D02*
X921146Y-61912D01*
X940196Y-61912D01*
X940196Y-120650D01*
X921146Y-120650D01*
X279796Y-15875D02*
G54D73*
D03*
X260796Y-15875D02*
G54D73*
D03*
X258735Y-55536D02*
G54D74*
D03*
X258735Y-36536D02*
G54D74*
D03*
X474661Y-101201D02*
G54D46*
D03*
X485773Y-60720D02*
G54D46*
D03*
X666750Y-69056D02*
G54D82*
D03*
X542131Y-303609D02*
G54D73*
D03*
X561131Y-303609D02*
G54D73*
D03*
G54D24*
X602455Y-305195D02*
X560783Y-305195D01*
G36*
X475059Y-246856D02*
X475059Y-243284D01*
X485775Y-232569D01*
X494903Y-232569D01*
X475059Y-246856D01*
G37*
G54D51*
X475059Y-246856D02*
X475059Y-243284D01*
X485775Y-232569D01*
X494903Y-232569D01*
X475059Y-246856D01*
G36*
X471452Y-247215D02*
X471452Y-243643D01*
X451609Y-225783D01*
X451609Y-232927D01*
X471452Y-247215D01*
G37*
G54D51*
X471452Y-247215D02*
X471452Y-243643D01*
X451609Y-225783D01*
X451609Y-232927D01*
X471452Y-247215D01*
X538160Y-198832D02*
G54D53*
D03*
X538160Y-202404D02*
G54D53*
D03*
X538160Y-249632D02*
G54D53*
D03*
X538160Y-253204D02*
G54D53*
D03*
X385760Y-198832D02*
G54D53*
D03*
X385760Y-202404D02*
G54D53*
D03*
X385760Y-224232D02*
G54D53*
D03*
X385760Y-227804D02*
G54D53*
D03*
X385760Y-249235D02*
G54D53*
D03*
X385760Y-252807D02*
G54D53*
D03*
X666751Y-55959D02*
G54D82*
D03*
M02*
