%FSLAX34Y34*%
%MOMM*%
%LNCOPPER_BOTTOM*%
G71*
G01*
%ADD10C, 5.400*%
%ADD11C, 2.400*%
%ADD12C, 1.680*%
%ADD13C, 0.700*%
%ADD14C, 2.200*%
%ADD15C, 0.900*%
%ADD16C, 1.900*%
%ADD17C, 1.280*%
%ADD18C, 1.667*%
%ADD19C, 2.000*%
%ADD20C, 0.667*%
%ADD21C, 0.600*%
%ADD22C, 0.500*%
%ADD23C, 5.000*%
%ADD24C, 2.000*%
%ADD25C, 0.300*%
%ADD26C, 1.800*%
%ADD27C, 1.500*%
%LPD*%
G36*
X14287Y14684D02*
X-1068713Y14684D01*
X-1068713Y-365316D01*
X14287Y-365316D01*
X14287Y14684D01*
G37*
%LPC*%
X-62707Y-62706D02*
G54D10*
D03*
X-843757Y-62706D02*
G54D10*
D03*
G36*
X-759922Y-138205D02*
X-759922Y-114205D01*
X-783922Y-114205D01*
X-783922Y-138205D01*
X-759922Y-138205D01*
G37*
X-771923Y-100806D02*
G54D11*
D03*
X-771923Y-75406D02*
G54D11*
D03*
X-771923Y-50006D02*
G54D11*
D03*
X-407988Y-213519D02*
G54D11*
D03*
X-560388Y-213519D02*
G54D11*
D03*
X-407988Y-238919D02*
G54D11*
D03*
X-560388Y-264319D02*
G54D11*
D03*
X-407988Y-264319D02*
G54D11*
D03*
G36*
X-447610Y-264650D02*
X-464410Y-264650D01*
X-464410Y-281450D01*
X-447610Y-281450D01*
X-447610Y-264650D01*
G37*
X-456010Y-298450D02*
G54D12*
D03*
G36*
X-607670Y-37697D02*
X-590870Y-37697D01*
X-590870Y-20897D01*
X-607670Y-20897D01*
X-607670Y-37697D01*
G37*
X-599270Y-54697D02*
G54D12*
D03*
G54D13*
X-456010Y-273050D02*
X-456010Y-208360D01*
X-472680Y-191690D01*
G54D13*
X-456010Y-298450D02*
X-452438Y-298450D01*
X-433388Y-279400D01*
X-433388Y-205582D01*
X-473473Y-160337D01*
G54D13*
X-473473Y-160337D02*
X-481410Y-175022D01*
X-508001Y-175022D01*
X-598885Y-84137D01*
X-598885Y-55082D01*
X-599270Y-54697D01*
G54D13*
X-472680Y-191690D02*
X-506810Y-191690D01*
X-609998Y-88503D01*
X-609998Y-40025D01*
X-599270Y-29297D01*
G36*
X-285717Y-62758D02*
X-307717Y-62758D01*
X-307717Y-84758D01*
X-285717Y-84758D01*
X-285717Y-62758D01*
G37*
X-296717Y-48358D02*
G54D14*
D03*
X-322117Y-73758D02*
G54D14*
D03*
X-322117Y-48358D02*
G54D14*
D03*
X-347517Y-73758D02*
G54D14*
D03*
X-347518Y-48358D02*
G54D14*
D03*
X-495697Y-160337D02*
G54D12*
D03*
G54D15*
X-1017985Y-8732D02*
X-8335Y-8732D01*
G54D15*
X-1018382Y-153988D02*
X-744141Y-153919D01*
G54D15*
X-1018382Y-8731D02*
X-1018382Y-153988D01*
G54D15*
G75*
G01X-659141Y-238919D02*
G03X-744141Y-153919I-85000J0D01*
G01*
G54D15*
X-659210Y-238919D02*
X-659210Y-347663D01*
G54D15*
X-659210Y-347663D02*
X-308441Y-347663D01*
G54D15*
G75*
G01X-223441Y-153919D02*
G03X-308441Y-238919I0J-85000D01*
G01*
G54D15*
X-308441Y-238919D02*
X-308441Y-347663D01*
G54D15*
X-8335Y-8732D02*
X-8335Y-153988D01*
G54D15*
X-8335Y-153988D02*
X-223372Y-153988D01*
X-223441Y-153919D01*
X-154385Y-127793D02*
G54D11*
D03*
X-179785Y-127793D02*
G54D11*
D03*
X-205186Y-127793D02*
G54D11*
D03*
G36*
X-666523Y-115658D02*
X-666523Y-139658D01*
X-642523Y-139658D01*
X-642523Y-115658D01*
X-666523Y-115658D01*
G37*
X-679923Y-127659D02*
G54D11*
D03*
X-473473Y-160337D02*
G54D12*
D03*
X-1004491Y-103187D02*
G54D12*
D03*
G54D13*
X-305197Y-105568D02*
X-296863Y-105568D01*
X-277020Y-85725D01*
X-277020Y-29765D01*
X-290910Y-15875D01*
X-872729Y-15478D01*
X-1004491Y-15478D01*
X-1004491Y-103187D01*
X-305197Y-105568D02*
G54D12*
D03*
G54D13*
X-347517Y-73758D02*
X-409118Y-73758D01*
X-495697Y-160337D01*
G36*
X-248543Y-94395D02*
X-248543Y-75395D01*
X-267543Y-75395D01*
X-267543Y-94395D01*
X-248543Y-94395D01*
G37*
X-258043Y-59495D02*
G54D16*
D03*
X-258043Y-34095D02*
G54D16*
D03*
X-740645Y-41141D02*
G54D11*
D03*
X-740644Y-117340D02*
G54D11*
D03*
G36*
X-641514Y-176037D02*
X-641514Y-159237D01*
X-658314Y-159237D01*
X-658314Y-176037D01*
X-641514Y-176037D01*
G37*
X-624513Y-167637D02*
G54D12*
D03*
G54D13*
X-624513Y-167637D02*
X-624513Y-271234D01*
X-597694Y-298053D01*
X-456407Y-298053D01*
X-456010Y-298450D01*
G54D13*
X-609998Y-88503D02*
X-609998Y-127721D01*
X-649914Y-167637D01*
X-527050Y-37306D02*
G54D17*
D03*
X-434182Y-44846D02*
G54D17*
D03*
X-354410Y-325040D02*
G54D17*
D03*
X-326629Y-325040D02*
G54D17*
D03*
X-905272Y-135731D02*
G54D17*
D03*
X-654447Y-109934D02*
G54D17*
D03*
X-574676Y-184943D02*
G54D17*
D03*
X-400844Y-122237D02*
G54D17*
D03*
%LPD*%
G54D18*
G36*
X-54374Y-62706D02*
X-54374Y-35206D01*
X-71040Y-35206D01*
X-71040Y-62706D01*
X-54374Y-62706D01*
G37*
G36*
X-62707Y-54373D02*
X-90207Y-54373D01*
X-90207Y-71040D01*
X-62707Y-71040D01*
X-62707Y-54373D01*
G37*
G36*
X-71040Y-62706D02*
X-71040Y-90206D01*
X-54374Y-90206D01*
X-54374Y-62706D01*
X-71040Y-62706D01*
G37*
G36*
X-62707Y-71040D02*
X-35207Y-71040D01*
X-35207Y-54373D01*
X-62707Y-54373D01*
X-62707Y-71040D01*
G37*
G54D19*
G36*
X-843757Y-52706D02*
X-871257Y-52706D01*
X-871257Y-72706D01*
X-843757Y-72706D01*
X-843757Y-52706D01*
G37*
G36*
X-853757Y-62706D02*
X-853757Y-90206D01*
X-833757Y-90206D01*
X-833757Y-62706D01*
X-853757Y-62706D01*
G37*
G54D20*
G36*
X-771922Y-129539D02*
X-759422Y-129539D01*
X-759422Y-122872D01*
X-771922Y-122872D01*
X-771922Y-129539D01*
G37*
G36*
X-771922Y-122872D02*
X-784422Y-122872D01*
X-784422Y-129539D01*
X-771922Y-129539D01*
X-771922Y-122872D01*
G37*
G36*
X-775256Y-126205D02*
X-775256Y-138705D01*
X-768589Y-138705D01*
X-768589Y-126205D01*
X-775256Y-126205D01*
G37*
G54D20*
G36*
X-407988Y-235586D02*
X-420488Y-235586D01*
X-420488Y-242253D01*
X-407988Y-242253D01*
X-407988Y-235586D01*
G37*
G36*
X-407988Y-242253D02*
X-395488Y-242253D01*
X-395488Y-235586D01*
X-407988Y-235586D01*
X-407988Y-242253D01*
G37*
G54D20*
G36*
X-560388Y-260986D02*
X-572888Y-260986D01*
X-572888Y-267653D01*
X-560388Y-267653D01*
X-560388Y-260986D01*
G37*
G36*
X-563721Y-264319D02*
X-563721Y-276819D01*
X-557054Y-276819D01*
X-557054Y-264319D01*
X-563721Y-264319D01*
G37*
G36*
X-560388Y-267653D02*
X-547888Y-267653D01*
X-547888Y-260986D01*
X-560388Y-260986D01*
X-560388Y-267653D01*
G37*
G36*
X-557054Y-264319D02*
X-557054Y-251819D01*
X-563721Y-251819D01*
X-563721Y-264319D01*
X-557054Y-264319D01*
G37*
G54D21*
G36*
X-344518Y-48358D02*
X-344518Y-36858D01*
X-350518Y-36858D01*
X-350518Y-48358D01*
X-344518Y-48358D01*
G37*
G36*
X-347518Y-45358D02*
X-359018Y-45358D01*
X-359018Y-51358D01*
X-347518Y-51358D01*
X-347518Y-45358D01*
G37*
G54D20*
G36*
X-201852Y-127793D02*
X-201852Y-115293D01*
X-208519Y-115293D01*
X-208519Y-127793D01*
X-201852Y-127793D01*
G37*
G36*
X-205186Y-124460D02*
X-217686Y-124460D01*
X-217686Y-131127D01*
X-205186Y-131127D01*
X-205186Y-124460D01*
G37*
G36*
X-208519Y-127793D02*
X-208519Y-140293D01*
X-201852Y-140293D01*
X-201852Y-127793D01*
X-208519Y-127793D01*
G37*
G36*
X-205186Y-131127D02*
X-192686Y-131127D01*
X-192686Y-124460D01*
X-205186Y-124460D01*
X-205186Y-131127D01*
G37*
G54D20*
G36*
X-654523Y-124325D02*
X-667023Y-124325D01*
X-667023Y-130992D01*
X-654523Y-130992D01*
X-654523Y-124325D01*
G37*
G36*
X-657856Y-127658D02*
X-657856Y-140158D01*
X-651190Y-140158D01*
X-651190Y-127658D01*
X-657856Y-127658D01*
G37*
G36*
X-654523Y-130992D02*
X-642023Y-130992D01*
X-642023Y-124325D01*
X-654523Y-124325D01*
X-654523Y-130992D01*
G37*
G36*
X-651190Y-127658D02*
X-651190Y-115158D01*
X-657856Y-115158D01*
X-657856Y-127658D01*
X-651190Y-127658D01*
G37*
G54D22*
G36*
X-258043Y-87395D02*
X-248043Y-87395D01*
X-248043Y-82395D01*
X-258043Y-82395D01*
X-258043Y-87395D01*
G37*
G36*
X-255543Y-84895D02*
X-255543Y-74895D01*
X-260543Y-74895D01*
X-260543Y-84895D01*
X-255543Y-84895D01*
G37*
G36*
X-258043Y-82395D02*
X-268043Y-82395D01*
X-268043Y-87395D01*
X-258043Y-87395D01*
X-258043Y-82395D01*
G37*
G36*
X-260543Y-84895D02*
X-260543Y-94895D01*
X-255543Y-94895D01*
X-255543Y-84895D01*
X-260543Y-84895D01*
G37*
X-62707Y-62706D02*
G54D23*
D03*
X-843757Y-62706D02*
G54D23*
D03*
G36*
X-761922Y-136205D02*
X-761922Y-116205D01*
X-781922Y-116205D01*
X-781922Y-136205D01*
X-761922Y-136205D01*
G37*
X-771923Y-100806D02*
G54D24*
D03*
X-771923Y-75406D02*
G54D24*
D03*
X-771923Y-50006D02*
G54D24*
D03*
X-407988Y-213519D02*
G54D24*
D03*
X-560388Y-213519D02*
G54D24*
D03*
X-407988Y-238919D02*
G54D24*
D03*
X-560388Y-264319D02*
G54D24*
D03*
X-407988Y-264319D02*
G54D24*
D03*
G36*
X-449610Y-266650D02*
X-462410Y-266650D01*
X-462410Y-279450D01*
X-449610Y-279450D01*
X-449610Y-266650D01*
G37*
X-456010Y-298450D02*
G54D17*
D03*
G36*
X-605670Y-35697D02*
X-592870Y-35697D01*
X-592870Y-22897D01*
X-605670Y-22897D01*
X-605670Y-35697D01*
G37*
X-599270Y-54697D02*
G54D17*
D03*
G54D25*
X-456010Y-273050D02*
X-456010Y-208360D01*
X-472680Y-191690D01*
G54D25*
X-456010Y-298450D02*
X-452438Y-298450D01*
X-433388Y-279400D01*
X-433388Y-205582D01*
X-473473Y-160337D01*
G54D25*
X-473473Y-160337D02*
X-481410Y-175022D01*
X-508001Y-175022D01*
X-598885Y-84137D01*
X-598885Y-55082D01*
X-599270Y-54697D01*
G54D25*
X-472680Y-191690D02*
X-506810Y-191690D01*
X-609998Y-88503D01*
X-609998Y-40025D01*
X-599270Y-29297D01*
G36*
X-287717Y-64758D02*
X-305717Y-64758D01*
X-305717Y-82758D01*
X-287717Y-82758D01*
X-287717Y-64758D01*
G37*
X-296717Y-48358D02*
G54D26*
D03*
X-322117Y-73758D02*
G54D26*
D03*
X-322117Y-48358D02*
G54D26*
D03*
X-347517Y-73758D02*
G54D26*
D03*
X-347518Y-48358D02*
G54D26*
D03*
X-495697Y-160337D02*
G54D17*
D03*
X-154385Y-127793D02*
G54D24*
D03*
X-179785Y-127793D02*
G54D24*
D03*
X-205186Y-127793D02*
G54D24*
D03*
G36*
X-664523Y-117658D02*
X-664523Y-137658D01*
X-644523Y-137658D01*
X-644523Y-117658D01*
X-664523Y-117658D01*
G37*
X-679923Y-127659D02*
G54D24*
D03*
X-473473Y-160337D02*
G54D17*
D03*
X-1004491Y-103187D02*
G54D17*
D03*
G54D25*
X-305197Y-105568D02*
X-296863Y-105568D01*
X-277020Y-85725D01*
X-277020Y-29765D01*
X-290910Y-15875D01*
X-872729Y-15478D01*
X-1004491Y-15478D01*
X-1004491Y-103187D01*
X-305197Y-105568D02*
G54D17*
D03*
G54D25*
X-347517Y-73758D02*
X-409118Y-73758D01*
X-495697Y-160337D01*
G36*
X-250543Y-92395D02*
X-250543Y-77395D01*
X-265543Y-77395D01*
X-265543Y-92395D01*
X-250543Y-92395D01*
G37*
X-258043Y-59495D02*
G54D27*
D03*
X-258043Y-34095D02*
G54D27*
D03*
X-740645Y-41141D02*
G54D24*
D03*
X-740644Y-117340D02*
G54D24*
D03*
G36*
X-643514Y-174037D02*
X-643514Y-161237D01*
X-656314Y-161237D01*
X-656314Y-174037D01*
X-643514Y-174037D01*
G37*
X-624513Y-167637D02*
G54D17*
D03*
G54D25*
X-624513Y-167637D02*
X-624513Y-271234D01*
X-597694Y-298053D01*
X-456407Y-298053D01*
X-456010Y-298450D01*
G54D25*
X-609998Y-88503D02*
X-609998Y-127721D01*
X-649914Y-167637D01*
X-527050Y-37306D02*
G54D17*
D03*
X-434182Y-44846D02*
G54D17*
D03*
X-354410Y-325040D02*
G54D17*
D03*
X-326629Y-325040D02*
G54D17*
D03*
X-905272Y-135731D02*
G54D17*
D03*
X-654447Y-109934D02*
G54D17*
D03*
X-574676Y-184943D02*
G54D17*
D03*
X-400844Y-122237D02*
G54D17*
D03*
M02*
