M48
M71
T01C0.5
T02C0.8
T03C3.0
%
G05
T01
X-030320Y-032030
X-038580Y-025120
X-038580Y-022580
X-038580Y-020040
X-043540Y-025880
X-043540Y-028420
X-053820Y-025120
X-053820Y-020040
X-057070Y-014800
X-060780Y-017480
X-063320Y-017480
X-063900Y-008330
X-058260Y-005070
X-058260Y-002530
X-047470Y-010120
X-047860Y-015000
X-045720Y-015000
X-041270Y-003450
X-028420Y-008810
X-063180Y-032150
X-096400Y-009050
T02
X-013770Y-011470
X-016310Y-011470
X-018850Y-011470
X-023660Y-008290
X-023660Y-005750
X-023660Y-003210
X-028000Y-003530
X-028000Y-006070
X-030540Y-006070
X-030540Y-003530
X-033080Y-003530
X-033080Y-006070
X-062950Y-011650
X-065490Y-011650
X-072400Y-010420
X-075530Y-010950
X-075530Y-008410
X-075530Y-005870
X-075530Y-003330
X-072400Y-002800
T03
X-004600Y-004960
X-082710Y-004960
M30
