M48
M71
T01C0.5
T02C0.8
T03C3.0
%
G05
T01
X032660Y-032500
X035440Y-032500
X045600Y-029840
X045600Y-027300
X047350Y-016030
X049570Y-016030
X057470Y-018490
X062450Y-016760
X064990Y-016760
X065440Y-010990
X059930Y-005470
X059930Y-002930
X052700Y-003730
X043420Y-004480
X040080Y-012220
X030520Y-010560
X090530Y-013570
X100450Y-010320
T02
X015440Y-012780
X017980Y-012780
X020520Y-012780
X025800Y-008490
X025800Y-005950
X025800Y-003410
X029670Y-004840
X032210Y-004840
X032210Y-007380
X034750Y-007380
X034750Y-004840
X029670Y-007380
X040800Y-021350
X040800Y-023890
X040800Y-026430
X056040Y-026430
X056040Y-021350
X065450Y-012770
X067990Y-012770
X074060Y-011730
X077190Y-012620
X077190Y-010080
X077190Y-007540
X077190Y-005000
X074060Y-004110
T03
X006270Y-006270
X084380Y-006270
M30
