%FSLAX34Y34*%
%MOMM*%
%LNCOPPER_TOP*%
G71*
G01*
%ADD10C, 5.000*%
%ADD11C, 0.300*%
%ADD12R, 3.000X4.100*%
%ADD13R, 3.000X1.800*%
%ADD14C, 0.800*%
%ADD15C, 0.500*%
%ADD16R, 2.200X3.300*%
%ADD17R, 2.200X1.000*%
%ADD18C, 0.000*%
%ADD19C, 3.000*%
%LPD*%
G36*
X0Y0D02*
X200000Y0D01*
X200000Y-200000D01*
X0Y-200000D01*
X0Y0D01*
G37*
%LPC*%
X123825Y-52388D02*
G54D10*
D03*
G54D11*
X85725Y-74612D02*
X9525Y-58738D01*
X9525Y-90488D01*
X85725Y-90488D01*
X85725Y-14288D01*
X9525Y-14288D01*
X9525Y-44450D01*
X85725Y-28575D01*
G54D11*
X9525Y-65088D02*
X9525Y-39688D01*
X98454Y-142640D02*
G54D12*
D03*
X41304Y-142640D02*
G54D13*
D03*
X41304Y-168040D02*
G54D13*
D03*
X41304Y-117240D02*
G54D13*
D03*
G36*
X30588Y-137878D02*
X55988Y-137878D01*
X55988Y-100174D01*
X121473Y-100174D01*
X121473Y-185106D01*
X55988Y-185106D01*
X55988Y-147403D01*
X30588Y-147403D01*
X30588Y-137878D01*
G37*
G54D14*
X30588Y-137878D02*
X55988Y-137878D01*
X55988Y-100174D01*
X121473Y-100174D01*
X121473Y-185106D01*
X55988Y-185106D01*
X55988Y-147403D01*
X30588Y-147403D01*
X30588Y-137878D01*
X161925Y-142875D02*
G54D10*
D03*
%LPD*%
G54D15*
G36*
X43804Y-117240D02*
X43804Y-126740D01*
X38804Y-126740D01*
X38804Y-117240D01*
X43804Y-117240D01*
G37*
G36*
X41304Y-119740D02*
X25804Y-119740D01*
X25804Y-114740D01*
X41304Y-114740D01*
X41304Y-119740D01*
G37*
G36*
X38804Y-117240D02*
X38804Y-107740D01*
X43804Y-107740D01*
X43804Y-117240D01*
X38804Y-117240D01*
G37*
X123825Y-52388D02*
G54D10*
D03*
X98454Y-142640D02*
G54D16*
D03*
X41304Y-142640D02*
G54D17*
D03*
X41304Y-168040D02*
G54D17*
D03*
X41304Y-117240D02*
G54D17*
D03*
G36*
X30588Y-137878D02*
X55988Y-137878D01*
X55988Y-100174D01*
X121473Y-100174D01*
X121473Y-185106D01*
X55988Y-185106D01*
X55988Y-147403D01*
X30588Y-147403D01*
X30588Y-137878D01*
G37*
G54D18*
X30588Y-137878D02*
X55988Y-137878D01*
X55988Y-100174D01*
X121473Y-100174D01*
X121473Y-185106D01*
X55988Y-185106D01*
X55988Y-147403D01*
X30588Y-147403D01*
X30588Y-137878D01*
X161925Y-142875D02*
G54D10*
D03*
%LNAUGENFREISTANZEN*%
%LPC*%
X123825Y-52388D02*
G54D19*
D03*
X161925Y-142875D02*
G54D19*
D03*
M02*
